G75*
%MOIN*%
%OFA0B0*%
%FSLAX25Y25*%
%IPPOS*%
%LPD*%
%AMOC8*
5,1,8,0,0,1.08239X$1,22.5*
%
%ADD10C,0.00000*%
%ADD11R,0.10950X0.10950*%
%ADD12C,0.35433*%
%ADD13R,0.04016X0.07165*%
%ADD14R,0.05906X0.01177*%
%ADD15R,0.01177X0.05906*%
%ADD16C,0.04800*%
%ADD17C,0.07400*%
%ADD18R,0.03740X0.03740*%
%ADD19R,0.04331X0.06102*%
%ADD20R,0.04331X0.06693*%
%ADD21R,0.06693X0.04331*%
%ADD22C,0.06693*%
%ADD23R,0.21654X0.07874*%
%ADD24R,0.03937X0.07087*%
%ADD25C,0.21000*%
%ADD26C,0.00600*%
%ADD27C,0.02400*%
D10*
X0001000Y0001000D02*
X0001000Y0230961D01*
X0209701Y0230961D01*
X0209701Y0001000D01*
X0001000Y0001000D01*
D11*
X0050000Y0191000D03*
X0102000Y0191000D03*
D12*
X0076000Y0191000D03*
D13*
X0120488Y0196000D03*
X0131512Y0196000D03*
X0140488Y0196000D03*
X0151512Y0196000D03*
X0160488Y0196000D03*
X0171512Y0196000D03*
X0161512Y0081000D03*
X0150488Y0081000D03*
X0131512Y0081000D03*
X0120488Y0081000D03*
D14*
X0109504Y0122378D03*
X0109504Y0124346D03*
X0109504Y0126315D03*
X0109504Y0128283D03*
X0109504Y0130252D03*
X0109504Y0132220D03*
X0109504Y0134189D03*
X0109504Y0136157D03*
X0109504Y0138126D03*
X0109504Y0140094D03*
X0109504Y0142063D03*
X0109504Y0144031D03*
X0109504Y0146000D03*
X0109504Y0147969D03*
X0109504Y0149937D03*
X0109504Y0151906D03*
X0109504Y0153874D03*
X0109504Y0155843D03*
X0109504Y0157811D03*
X0109504Y0159780D03*
X0109504Y0161748D03*
X0109504Y0163717D03*
X0109504Y0165685D03*
X0109504Y0167654D03*
X0109504Y0169622D03*
X0172496Y0169622D03*
X0172496Y0167654D03*
X0172496Y0165685D03*
X0172496Y0163717D03*
X0172496Y0161748D03*
X0172496Y0159780D03*
X0172496Y0157811D03*
X0172496Y0155843D03*
X0172496Y0153874D03*
X0172496Y0151906D03*
X0172496Y0149937D03*
X0172496Y0147969D03*
X0172496Y0146000D03*
X0172496Y0144031D03*
X0172496Y0142063D03*
X0172496Y0140094D03*
X0172496Y0138126D03*
X0172496Y0136157D03*
X0172496Y0134189D03*
X0172496Y0132220D03*
X0172496Y0130252D03*
X0172496Y0128283D03*
X0172496Y0126315D03*
X0172496Y0124346D03*
X0172496Y0122378D03*
D15*
X0164622Y0114504D03*
X0162654Y0114504D03*
X0160685Y0114504D03*
X0158717Y0114504D03*
X0156748Y0114504D03*
X0154780Y0114504D03*
X0152811Y0114504D03*
X0150843Y0114504D03*
X0148874Y0114504D03*
X0146906Y0114504D03*
X0144937Y0114504D03*
X0142969Y0114504D03*
X0141000Y0114504D03*
X0139031Y0114504D03*
X0137063Y0114504D03*
X0135094Y0114504D03*
X0133126Y0114504D03*
X0131157Y0114504D03*
X0129189Y0114504D03*
X0127220Y0114504D03*
X0125252Y0114504D03*
X0123283Y0114504D03*
X0121315Y0114504D03*
X0119346Y0114504D03*
X0117378Y0114504D03*
X0117378Y0177496D03*
X0119346Y0177496D03*
X0121315Y0177496D03*
X0123283Y0177496D03*
X0125252Y0177496D03*
X0127220Y0177496D03*
X0129189Y0177496D03*
X0131157Y0177496D03*
X0133126Y0177496D03*
X0135094Y0177496D03*
X0137063Y0177496D03*
X0139031Y0177496D03*
X0141000Y0177496D03*
X0142969Y0177496D03*
X0144937Y0177496D03*
X0146906Y0177496D03*
X0148874Y0177496D03*
X0150843Y0177496D03*
X0152811Y0177496D03*
X0154780Y0177496D03*
X0156748Y0177496D03*
X0158717Y0177496D03*
X0160685Y0177496D03*
X0162654Y0177496D03*
X0164622Y0177496D03*
D16*
X0071000Y0068400D02*
X0071000Y0063600D01*
X0061000Y0063600D02*
X0061000Y0068400D01*
X0051000Y0068400D02*
X0051000Y0063600D01*
X0041000Y0063600D02*
X0041000Y0068400D01*
X0041000Y0038400D02*
X0041000Y0033600D01*
X0051000Y0033600D02*
X0051000Y0038400D01*
X0061000Y0038400D02*
X0061000Y0033600D01*
X0071000Y0033600D02*
X0071000Y0038400D01*
D17*
X0071000Y0021000D03*
X0061000Y0021000D03*
X0051000Y0021000D03*
X0041000Y0021000D03*
X0031000Y0021000D03*
X0021000Y0021000D03*
X0021000Y0031000D03*
X0021000Y0041000D03*
X0021000Y0051000D03*
X0021000Y0061000D03*
X0021000Y0071000D03*
X0021000Y0081000D03*
X0021000Y0091000D03*
X0021000Y0101000D03*
X0021000Y0111000D03*
X0021000Y0121000D03*
X0021000Y0131000D03*
X0021000Y0141000D03*
X0021000Y0151000D03*
X0041000Y0151000D03*
X0051000Y0151000D03*
X0051000Y0131000D03*
X0051000Y0121000D03*
X0051000Y0111000D03*
X0041000Y0111000D03*
X0041000Y0121000D03*
X0041000Y0131000D03*
X0131000Y0211000D03*
X0141000Y0211000D03*
X0151000Y0211000D03*
X0161000Y0211000D03*
X0171000Y0211000D03*
X0181000Y0211000D03*
X0191000Y0211000D03*
X0191000Y0201000D03*
X0191000Y0191000D03*
X0191000Y0181000D03*
X0191000Y0171000D03*
X0191000Y0161000D03*
X0191000Y0151000D03*
X0191000Y0141000D03*
X0191000Y0131000D03*
X0191000Y0121000D03*
X0191000Y0111000D03*
X0191000Y0101000D03*
X0191000Y0091000D03*
X0191000Y0081000D03*
X0191000Y0071000D03*
X0191000Y0061000D03*
X0191000Y0051000D03*
X0191000Y0041000D03*
X0191000Y0031000D03*
X0191000Y0021000D03*
X0181000Y0021000D03*
X0171000Y0021000D03*
X0161000Y0021000D03*
X0151000Y0021000D03*
X0141000Y0021000D03*
X0131000Y0021000D03*
X0121000Y0021000D03*
X0111000Y0021000D03*
X0101000Y0021000D03*
X0091000Y0021000D03*
X0081000Y0021000D03*
D18*
X0138047Y0046000D03*
X0143953Y0046000D03*
D19*
X0160291Y0046000D03*
X0171709Y0046000D03*
D20*
X0171709Y0056000D03*
X0160291Y0056000D03*
X0146709Y0056000D03*
X0135291Y0056000D03*
D21*
X0086000Y0120291D03*
X0076000Y0120291D03*
X0076000Y0131709D03*
X0076000Y0140291D03*
X0086000Y0140291D03*
X0086000Y0131709D03*
X0086000Y0151709D03*
X0076000Y0151709D03*
D22*
X0111000Y0060843D03*
X0111000Y0041157D03*
D23*
X0122299Y0096000D03*
X0159701Y0096000D03*
D24*
X0070921Y0081000D03*
X0061079Y0081000D03*
D25*
X0026000Y0206000D03*
D26*
X0035774Y0200130D02*
X0059313Y0200130D01*
X0059116Y0199789D02*
X0058414Y0198284D01*
X0057846Y0196724D01*
X0057417Y0195120D01*
X0057128Y0193485D01*
X0056983Y0191830D01*
X0056983Y0191300D01*
X0075700Y0191300D01*
X0075700Y0210017D01*
X0075170Y0210017D01*
X0073515Y0209872D01*
X0071880Y0209583D01*
X0070276Y0209154D01*
X0068716Y0208586D01*
X0067211Y0207884D01*
X0065773Y0207054D01*
X0064412Y0206101D01*
X0063140Y0205034D01*
X0061966Y0203860D01*
X0060899Y0202588D01*
X0059946Y0201227D01*
X0059116Y0199789D01*
X0058996Y0199531D02*
X0035429Y0199531D01*
X0035122Y0199000D02*
X0036623Y0201600D01*
X0037400Y0204499D01*
X0037400Y0207501D01*
X0036623Y0210400D01*
X0035122Y0213000D01*
X0033000Y0215122D01*
X0030400Y0216623D01*
X0027501Y0217400D01*
X0024499Y0217400D01*
X0021600Y0216623D01*
X0019000Y0215122D01*
X0016878Y0213000D01*
X0015377Y0210400D01*
X0014600Y0207501D01*
X0014600Y0204499D01*
X0015377Y0201600D01*
X0016878Y0199000D01*
X0019000Y0196878D01*
X0021600Y0195377D01*
X0024499Y0194600D01*
X0027501Y0194600D01*
X0030400Y0195377D01*
X0033000Y0196878D01*
X0035122Y0199000D01*
X0035055Y0198933D02*
X0058717Y0198933D01*
X0058437Y0198334D02*
X0034456Y0198334D01*
X0033858Y0197736D02*
X0058215Y0197736D01*
X0057997Y0197137D02*
X0056086Y0197137D01*
X0055848Y0197375D02*
X0056375Y0196848D01*
X0056375Y0185152D01*
X0055848Y0184625D01*
X0044152Y0184625D01*
X0043625Y0185152D01*
X0043625Y0196848D01*
X0044152Y0197375D01*
X0055848Y0197375D01*
X0056375Y0196539D02*
X0057797Y0196539D01*
X0057636Y0195940D02*
X0056375Y0195940D01*
X0056375Y0195341D02*
X0057476Y0195341D01*
X0057350Y0194743D02*
X0056375Y0194743D01*
X0056375Y0194144D02*
X0057245Y0194144D01*
X0057139Y0193546D02*
X0056375Y0193546D01*
X0056375Y0192947D02*
X0057081Y0192947D01*
X0057029Y0192349D02*
X0056375Y0192349D01*
X0056375Y0191750D02*
X0056983Y0191750D01*
X0056375Y0191152D02*
X0075700Y0191152D01*
X0075700Y0191300D02*
X0075700Y0190700D01*
X0076300Y0190700D01*
X0076300Y0191300D01*
X0095017Y0191300D01*
X0095017Y0191830D01*
X0094872Y0193485D01*
X0094583Y0195120D01*
X0094154Y0196724D01*
X0093586Y0198284D01*
X0092884Y0199789D01*
X0092054Y0201227D01*
X0091101Y0202588D01*
X0090034Y0203860D01*
X0088860Y0205034D01*
X0087588Y0206101D01*
X0086227Y0207054D01*
X0084789Y0207884D01*
X0083284Y0208586D01*
X0081724Y0209154D01*
X0080120Y0209583D01*
X0078485Y0209872D01*
X0076830Y0210017D01*
X0076300Y0210017D01*
X0076300Y0191300D01*
X0075700Y0191300D01*
X0075800Y0191000D02*
X0076000Y0191000D01*
X0076400Y0191000D01*
X0083600Y0198200D01*
X0120800Y0198200D01*
X0120488Y0196000D01*
X0120800Y0196400D01*
X0120800Y0198200D01*
X0120800Y0200600D01*
X0131000Y0210800D01*
X0131000Y0211000D01*
X0131000Y0211400D01*
X0140600Y0211400D01*
X0141000Y0211000D01*
X0141200Y0211400D01*
X0145400Y0215600D01*
X0173000Y0215600D01*
X0176000Y0212600D01*
X0176000Y0209000D01*
X0171800Y0204800D01*
X0171800Y0196400D01*
X0171512Y0196000D01*
X0171200Y0195800D01*
X0168200Y0195800D01*
X0154400Y0182000D01*
X0140600Y0195800D01*
X0140488Y0196000D01*
X0140000Y0195800D01*
X0135200Y0191000D01*
X0129800Y0191000D01*
X0119600Y0180800D01*
X0119600Y0177800D01*
X0119346Y0177496D01*
X0117378Y0177496D02*
X0117200Y0177800D01*
X0117200Y0180800D01*
X0131000Y0194600D01*
X0131000Y0195800D01*
X0131512Y0196000D01*
X0131600Y0196400D01*
X0134000Y0196400D01*
X0138200Y0200600D01*
X0147200Y0200600D01*
X0151400Y0196400D01*
X0151512Y0196000D01*
X0152000Y0196400D01*
X0160400Y0196400D01*
X0160488Y0196000D01*
X0161000Y0196400D01*
X0164600Y0200000D01*
X0166700Y0200130D02*
X0168319Y0200130D01*
X0168293Y0200084D02*
X0168204Y0199754D01*
X0168204Y0196300D01*
X0171212Y0196300D01*
X0171212Y0200883D01*
X0169333Y0200883D01*
X0169002Y0200794D01*
X0168706Y0200623D01*
X0168464Y0200381D01*
X0168293Y0200084D01*
X0168204Y0199531D02*
X0166700Y0199531D01*
X0166700Y0199130D02*
X0166700Y0200870D01*
X0165470Y0202100D01*
X0163730Y0202100D01*
X0162500Y0200870D01*
X0162500Y0200483D01*
X0158108Y0200483D01*
X0157580Y0199955D01*
X0157580Y0197600D01*
X0154420Y0197600D01*
X0154420Y0199955D01*
X0153892Y0200483D01*
X0149131Y0200483D01*
X0149073Y0200424D01*
X0147697Y0201800D01*
X0137703Y0201800D01*
X0137000Y0201097D01*
X0134420Y0198517D01*
X0134420Y0199955D01*
X0133892Y0200483D01*
X0130780Y0200483D01*
X0135097Y0204800D01*
X0166297Y0204800D01*
X0168538Y0207041D01*
X0170085Y0206400D01*
X0171915Y0206400D01*
X0173606Y0207100D01*
X0174900Y0208394D01*
X0175600Y0210085D01*
X0175600Y0211915D01*
X0174900Y0213606D01*
X0173606Y0214900D01*
X0171915Y0215600D01*
X0170085Y0215600D01*
X0168394Y0214900D01*
X0167100Y0213606D01*
X0166400Y0211915D01*
X0166400Y0210085D01*
X0166924Y0208821D01*
X0165303Y0207200D01*
X0163705Y0207200D01*
X0164900Y0208394D01*
X0165600Y0210085D01*
X0165600Y0211915D01*
X0164900Y0213606D01*
X0163606Y0214900D01*
X0161915Y0215600D01*
X0160085Y0215600D01*
X0158394Y0214900D01*
X0157100Y0213606D01*
X0156400Y0211915D01*
X0156400Y0210085D01*
X0157100Y0208394D01*
X0158295Y0207200D01*
X0153705Y0207200D01*
X0154900Y0208394D01*
X0155600Y0210085D01*
X0155600Y0211915D01*
X0154900Y0213606D01*
X0153606Y0214900D01*
X0151915Y0215600D01*
X0150085Y0215600D01*
X0148394Y0214900D01*
X0147100Y0213606D01*
X0146400Y0211915D01*
X0146400Y0210085D01*
X0147100Y0208394D01*
X0148295Y0207200D01*
X0144271Y0207200D01*
X0144814Y0207743D01*
X0145276Y0208379D01*
X0145634Y0209081D01*
X0145877Y0209829D01*
X0146000Y0210606D01*
X0146000Y0210700D01*
X0141300Y0210700D01*
X0141300Y0211300D01*
X0140700Y0211300D01*
X0140700Y0216000D01*
X0140606Y0216000D01*
X0139829Y0215877D01*
X0139081Y0215634D01*
X0138379Y0215276D01*
X0137743Y0214814D01*
X0137186Y0214257D01*
X0136724Y0213621D01*
X0136366Y0212919D01*
X0136123Y0212171D01*
X0136000Y0211394D01*
X0135877Y0212171D01*
X0135634Y0212919D01*
X0135276Y0213621D01*
X0134814Y0214257D01*
X0134257Y0214814D01*
X0133621Y0215276D01*
X0132919Y0215634D01*
X0132171Y0215877D01*
X0131394Y0216000D01*
X0131300Y0216000D01*
X0131300Y0211300D01*
X0130700Y0211300D01*
X0130700Y0216000D01*
X0130606Y0216000D01*
X0129829Y0215877D01*
X0129081Y0215634D01*
X0128379Y0215276D01*
X0127743Y0214814D01*
X0127186Y0214257D01*
X0126724Y0213621D01*
X0126366Y0212919D01*
X0126123Y0212171D01*
X0126000Y0211394D01*
X0126000Y0211300D01*
X0130700Y0211300D01*
X0130700Y0210700D01*
X0131300Y0210700D01*
X0131300Y0211300D01*
X0136000Y0211300D01*
X0136000Y0211394D01*
X0136000Y0211300D01*
X0140700Y0211300D01*
X0140700Y0210700D01*
X0136000Y0210700D01*
X0136000Y0210606D01*
X0136000Y0210700D01*
X0131300Y0210700D01*
X0131300Y0206000D01*
X0131394Y0206000D01*
X0132171Y0206123D01*
X0132919Y0206366D01*
X0133621Y0206724D01*
X0133643Y0206740D01*
X0133400Y0206497D01*
X0127400Y0200497D01*
X0127400Y0197497D01*
X0123796Y0193893D01*
X0123796Y0195700D01*
X0120788Y0195700D01*
X0120788Y0191117D01*
X0121020Y0191117D01*
X0114200Y0184297D01*
X0114200Y0171097D01*
X0113357Y0170254D01*
X0113357Y0170583D01*
X0112829Y0171111D01*
X0106178Y0171111D01*
X0105668Y0170600D01*
X0075903Y0170600D01*
X0055600Y0150297D01*
X0055600Y0151915D01*
X0054900Y0153606D01*
X0053606Y0154900D01*
X0051915Y0155600D01*
X0050085Y0155600D01*
X0048394Y0154900D01*
X0047100Y0153606D01*
X0046400Y0151915D01*
X0046400Y0151297D01*
X0045803Y0150700D01*
X0041300Y0150700D01*
X0041300Y0151300D01*
X0040700Y0151300D01*
X0040700Y0156000D01*
X0040606Y0156000D01*
X0039829Y0155877D01*
X0039081Y0155634D01*
X0038379Y0155276D01*
X0037743Y0154814D01*
X0037186Y0154257D01*
X0036724Y0153621D01*
X0036366Y0152919D01*
X0036123Y0152171D01*
X0036000Y0151394D01*
X0036000Y0151300D01*
X0040700Y0151300D01*
X0040700Y0150700D01*
X0036000Y0150700D01*
X0036000Y0150606D01*
X0036123Y0149829D01*
X0036366Y0149081D01*
X0036724Y0148379D01*
X0037186Y0147743D01*
X0037729Y0147200D01*
X0023705Y0147200D01*
X0024900Y0148394D01*
X0025600Y0150085D01*
X0025600Y0151915D01*
X0024900Y0153606D01*
X0023606Y0154900D01*
X0021915Y0155600D01*
X0020085Y0155600D01*
X0018394Y0154900D01*
X0017100Y0153606D01*
X0016400Y0151915D01*
X0016400Y0150085D01*
X0017100Y0148394D01*
X0018394Y0147100D01*
X0020000Y0146435D01*
X0020000Y0145565D01*
X0018394Y0144900D01*
X0017100Y0143606D01*
X0016400Y0141915D01*
X0016400Y0140085D01*
X0017100Y0138394D01*
X0018394Y0137100D01*
X0020085Y0136400D01*
X0021915Y0136400D01*
X0023606Y0137100D01*
X0024900Y0138394D01*
X0025600Y0140085D01*
X0025600Y0141915D01*
X0024900Y0143606D01*
X0023705Y0144800D01*
X0043297Y0144800D01*
X0044000Y0145503D01*
X0047039Y0148542D01*
X0047100Y0148394D01*
X0048394Y0147100D01*
X0050085Y0146400D01*
X0051703Y0146400D01*
X0044703Y0139400D01*
X0027903Y0139400D01*
X0023462Y0134959D01*
X0021915Y0135600D01*
X0020085Y0135600D01*
X0018394Y0134900D01*
X0017100Y0133606D01*
X0016400Y0131915D01*
X0016400Y0130085D01*
X0017100Y0128394D01*
X0018394Y0127100D01*
X0020085Y0126400D01*
X0021915Y0126400D01*
X0023606Y0127100D01*
X0024900Y0128394D01*
X0025600Y0130085D01*
X0025600Y0131915D01*
X0025076Y0133179D01*
X0028897Y0137000D01*
X0036903Y0137000D01*
X0025503Y0125600D01*
X0024800Y0124897D01*
X0024800Y0123705D01*
X0023606Y0124900D01*
X0021915Y0125600D01*
X0020085Y0125600D01*
X0018394Y0124900D01*
X0017100Y0123606D01*
X0016400Y0121915D01*
X0016400Y0120085D01*
X0017100Y0118394D01*
X0018394Y0117100D01*
X0020085Y0116400D01*
X0021915Y0116400D01*
X0023606Y0117100D01*
X0024800Y0118295D01*
X0024800Y0116497D01*
X0023321Y0115018D01*
X0021915Y0115600D01*
X0020085Y0115600D01*
X0018394Y0114900D01*
X0017100Y0113606D01*
X0016400Y0111915D01*
X0016400Y0110085D01*
X0017100Y0108394D01*
X0018394Y0107100D01*
X0020085Y0106400D01*
X0021915Y0106400D01*
X0023606Y0107100D01*
X0024900Y0108394D01*
X0025600Y0110085D01*
X0025600Y0111915D01*
X0025018Y0113321D01*
X0026000Y0114303D01*
X0026000Y0107497D01*
X0023462Y0104959D01*
X0021915Y0105600D01*
X0020085Y0105600D01*
X0018394Y0104900D01*
X0017100Y0103606D01*
X0016400Y0101915D01*
X0016400Y0100085D01*
X0017100Y0098394D01*
X0018394Y0097100D01*
X0020085Y0096400D01*
X0021915Y0096400D01*
X0023606Y0097100D01*
X0024900Y0098394D01*
X0025600Y0100085D01*
X0025600Y0101915D01*
X0025076Y0103179D01*
X0027200Y0105303D01*
X0027200Y0099097D01*
X0023179Y0095076D01*
X0021915Y0095600D01*
X0020085Y0095600D01*
X0018394Y0094900D01*
X0017100Y0093606D01*
X0016400Y0091915D01*
X0016400Y0090085D01*
X0017100Y0088394D01*
X0018394Y0087100D01*
X0018683Y0086981D01*
X0015903Y0084200D01*
X0015200Y0083497D01*
X0015200Y0054903D01*
X0016924Y0053179D01*
X0016400Y0051915D01*
X0016400Y0050085D01*
X0017100Y0048394D01*
X0018394Y0047100D01*
X0020085Y0046400D01*
X0021915Y0046400D01*
X0023606Y0047100D01*
X0024800Y0048295D01*
X0024800Y0046297D01*
X0023462Y0044959D01*
X0021915Y0045600D01*
X0020085Y0045600D01*
X0018394Y0044900D01*
X0017100Y0043606D01*
X0016400Y0041915D01*
X0016400Y0040085D01*
X0017100Y0038394D01*
X0018394Y0037100D01*
X0020085Y0036400D01*
X0021915Y0036400D01*
X0023606Y0037100D01*
X0024900Y0038394D01*
X0025600Y0040085D01*
X0025600Y0041915D01*
X0025076Y0043179D01*
X0027200Y0045303D01*
X0027200Y0057903D01*
X0037300Y0068003D01*
X0037300Y0066300D01*
X0040700Y0066300D01*
X0040700Y0065700D01*
X0041300Y0065700D01*
X0041300Y0066300D01*
X0044700Y0066300D01*
X0044700Y0068764D01*
X0044558Y0069479D01*
X0044279Y0070153D01*
X0043874Y0070759D01*
X0043359Y0071274D01*
X0042753Y0071679D01*
X0042079Y0071958D01*
X0041392Y0072095D01*
X0052297Y0083000D01*
X0055430Y0083000D01*
X0056330Y0082100D01*
X0058070Y0082100D01*
X0058210Y0082240D01*
X0058210Y0077084D01*
X0058737Y0076557D01*
X0060200Y0076557D01*
X0060200Y0071641D01*
X0059131Y0071198D01*
X0058202Y0070269D01*
X0057700Y0069056D01*
X0056000Y0069056D01*
X0056000Y0069654D02*
X0057948Y0069654D01*
X0057700Y0069056D02*
X0057700Y0062944D01*
X0058202Y0061731D01*
X0059131Y0060802D01*
X0060344Y0060300D01*
X0061656Y0060300D01*
X0062869Y0060802D01*
X0063200Y0061133D01*
X0063200Y0049897D01*
X0053685Y0040382D01*
X0052869Y0041198D01*
X0051656Y0041700D01*
X0050344Y0041700D01*
X0049131Y0041198D01*
X0048202Y0040269D01*
X0047700Y0039056D01*
X0047700Y0032944D01*
X0048202Y0031731D01*
X0049131Y0030802D01*
X0050344Y0030300D01*
X0051656Y0030300D01*
X0052248Y0030545D01*
X0045903Y0024200D01*
X0045200Y0023497D01*
X0045200Y0022881D01*
X0044900Y0023606D01*
X0043606Y0024900D01*
X0041915Y0025600D01*
X0040085Y0025600D01*
X0038394Y0024900D01*
X0037100Y0023606D01*
X0036601Y0022400D01*
X0035399Y0022400D01*
X0034900Y0023606D01*
X0033606Y0024900D01*
X0031915Y0025600D01*
X0030085Y0025600D01*
X0028394Y0024900D01*
X0027100Y0023606D01*
X0026400Y0021915D01*
X0026400Y0020085D01*
X0027100Y0018394D01*
X0028394Y0017100D01*
X0030085Y0016400D01*
X0031915Y0016400D01*
X0033606Y0017100D01*
X0034900Y0018394D01*
X0035565Y0020000D01*
X0036435Y0020000D01*
X0037100Y0018394D01*
X0038394Y0017100D01*
X0040085Y0016400D01*
X0041915Y0016400D01*
X0043606Y0017100D01*
X0044900Y0018394D01*
X0045200Y0019119D01*
X0045200Y0018303D01*
X0047600Y0015903D01*
X0048303Y0015200D01*
X0053497Y0015200D01*
X0056497Y0018200D01*
X0056981Y0018683D01*
X0057100Y0018394D01*
X0058394Y0017100D01*
X0060085Y0016400D01*
X0061915Y0016400D01*
X0063321Y0016982D01*
X0065103Y0015200D01*
X0073897Y0015200D01*
X0074600Y0015903D01*
X0077000Y0018303D01*
X0077000Y0018637D01*
X0077100Y0018394D01*
X0078394Y0017100D01*
X0080085Y0016400D01*
X0081915Y0016400D01*
X0083606Y0017100D01*
X0084900Y0018394D01*
X0085600Y0020085D01*
X0085600Y0021915D01*
X0084900Y0023606D01*
X0083606Y0024900D01*
X0081915Y0025600D01*
X0080697Y0025600D01*
X0098000Y0042903D01*
X0098000Y0076430D01*
X0098900Y0077330D01*
X0098900Y0079070D01*
X0097670Y0080300D01*
X0095930Y0080300D01*
X0094700Y0079070D01*
X0094700Y0077330D01*
X0095600Y0076430D01*
X0095600Y0043897D01*
X0075303Y0023600D01*
X0075019Y0023316D01*
X0074900Y0023606D01*
X0073606Y0024900D01*
X0071915Y0025600D01*
X0070085Y0025600D01*
X0068821Y0025076D01*
X0066697Y0027200D01*
X0061297Y0027200D01*
X0065600Y0031503D01*
X0065600Y0036303D01*
X0067700Y0038403D01*
X0067700Y0032944D01*
X0068202Y0031731D01*
X0069131Y0030802D01*
X0070344Y0030300D01*
X0071656Y0030300D01*
X0072869Y0030802D01*
X0073798Y0031731D01*
X0074300Y0032944D01*
X0074300Y0039056D01*
X0073798Y0040269D01*
X0072869Y0041198D01*
X0071656Y0041700D01*
X0070997Y0041700D01*
X0077000Y0047703D01*
X0077000Y0068703D01*
X0107600Y0099303D01*
X0107600Y0063448D01*
X0107400Y0063248D01*
X0106754Y0061687D01*
X0106754Y0059998D01*
X0107400Y0058437D01*
X0108595Y0057243D01*
X0110155Y0056596D01*
X0111845Y0056596D01*
X0113405Y0057243D01*
X0114600Y0058437D01*
X0115246Y0059998D01*
X0115246Y0061687D01*
X0114600Y0063248D01*
X0113405Y0064442D01*
X0111845Y0065089D01*
X0110155Y0065089D01*
X0110000Y0065025D01*
X0110000Y0099903D01*
X0111097Y0101000D01*
X0116497Y0101000D01*
X0117200Y0101703D01*
X0126148Y0110651D01*
X0126200Y0110651D01*
X0126200Y0107570D01*
X0125300Y0106670D01*
X0125300Y0104930D01*
X0126530Y0103700D01*
X0128270Y0103700D01*
X0129500Y0104930D01*
X0129500Y0106670D01*
X0128600Y0107570D01*
X0128600Y0110251D01*
X0129189Y0110251D01*
X0129800Y0110251D01*
X0129800Y0105097D01*
X0125540Y0100837D01*
X0111100Y0100837D01*
X0110572Y0100310D01*
X0110572Y0091690D01*
X0111100Y0091163D01*
X0119600Y0091163D01*
X0119600Y0085483D01*
X0118108Y0085483D01*
X0117580Y0084955D01*
X0117580Y0077045D01*
X0118108Y0076517D01*
X0122869Y0076517D01*
X0123396Y0077045D01*
X0123396Y0084955D01*
X0122869Y0085483D01*
X0122000Y0085483D01*
X0122000Y0091163D01*
X0133499Y0091163D01*
X0134026Y0091690D01*
X0134026Y0100310D01*
X0133499Y0100837D01*
X0128934Y0100837D01*
X0132200Y0104103D01*
X0132200Y0110651D01*
X0132200Y0108903D01*
X0145400Y0095703D01*
X0146103Y0095000D01*
X0147974Y0095000D01*
X0147974Y0091690D01*
X0148501Y0091163D01*
X0159800Y0091163D01*
X0159800Y0085483D01*
X0159131Y0085483D01*
X0158604Y0084955D01*
X0158604Y0077045D01*
X0159131Y0076517D01*
X0163892Y0076517D01*
X0164420Y0077045D01*
X0164420Y0084955D01*
X0163892Y0085483D01*
X0162200Y0085483D01*
X0162200Y0091163D01*
X0170600Y0091163D01*
X0170600Y0080497D01*
X0149774Y0059671D01*
X0149774Y0059719D01*
X0149247Y0060246D01*
X0144171Y0060246D01*
X0143643Y0059719D01*
X0143643Y0054740D01*
X0143000Y0054097D01*
X0143000Y0048770D01*
X0141710Y0048770D01*
X0141183Y0048243D01*
X0141183Y0043757D01*
X0141710Y0043230D01*
X0144733Y0043230D01*
X0133503Y0032000D01*
X0122570Y0032000D01*
X0121670Y0032900D01*
X0119930Y0032900D01*
X0118700Y0031670D01*
X0118700Y0029930D01*
X0119930Y0028700D01*
X0121670Y0028700D01*
X0122570Y0029600D01*
X0132903Y0029600D01*
X0130503Y0027200D01*
X0127970Y0027200D01*
X0127070Y0028100D01*
X0125330Y0028100D01*
X0124100Y0026870D01*
X0124100Y0025130D01*
X0125330Y0023900D01*
X0127070Y0023900D01*
X0127970Y0024800D01*
X0128295Y0024800D01*
X0127100Y0023606D01*
X0126400Y0021915D01*
X0126400Y0020085D01*
X0127100Y0018394D01*
X0128394Y0017100D01*
X0130085Y0016400D01*
X0131915Y0016400D01*
X0133606Y0017100D01*
X0134900Y0018394D01*
X0135600Y0020085D01*
X0135600Y0021915D01*
X0135275Y0022700D01*
X0136670Y0022700D01*
X0136764Y0022794D01*
X0136400Y0021915D01*
X0136400Y0020085D01*
X0137100Y0018394D01*
X0138394Y0017100D01*
X0140085Y0016400D01*
X0141915Y0016400D01*
X0143606Y0017100D01*
X0144900Y0018394D01*
X0145600Y0020085D01*
X0145600Y0021915D01*
X0144900Y0023606D01*
X0143606Y0024900D01*
X0141915Y0025600D01*
X0140085Y0025600D01*
X0138394Y0024900D01*
X0137900Y0024405D01*
X0137900Y0025203D01*
X0155000Y0042303D01*
X0155000Y0056103D01*
X0157226Y0058329D01*
X0157226Y0052281D01*
X0157753Y0051754D01*
X0159200Y0051754D01*
X0159200Y0049951D01*
X0157753Y0049951D01*
X0157226Y0049424D01*
X0157226Y0042576D01*
X0157753Y0042049D01*
X0162829Y0042049D01*
X0163357Y0042576D01*
X0163357Y0049424D01*
X0162829Y0049951D01*
X0161600Y0049951D01*
X0161600Y0051754D01*
X0162829Y0051754D01*
X0163357Y0052281D01*
X0163357Y0059600D01*
X0168265Y0059600D01*
X0168243Y0059518D01*
X0168243Y0056300D01*
X0171409Y0056300D01*
X0171409Y0055700D01*
X0172009Y0055700D01*
X0172009Y0051354D01*
X0172657Y0051354D01*
X0171254Y0049951D01*
X0169171Y0049951D01*
X0168643Y0049424D01*
X0168643Y0042576D01*
X0169171Y0042049D01*
X0174247Y0042049D01*
X0174774Y0042576D01*
X0174774Y0049424D01*
X0174448Y0049750D01*
X0175297Y0050600D01*
X0176000Y0051303D01*
X0176000Y0060697D01*
X0175400Y0061297D01*
X0174697Y0062000D01*
X0159097Y0062000D01*
X0175400Y0078303D01*
X0175400Y0100503D01*
X0182600Y0093303D01*
X0182600Y0041103D01*
X0188000Y0035703D01*
X0188411Y0035292D01*
X0188379Y0035276D01*
X0187743Y0034814D01*
X0187186Y0034257D01*
X0186724Y0033621D01*
X0186366Y0032919D01*
X0186123Y0032171D01*
X0186000Y0031394D01*
X0186000Y0031300D01*
X0190700Y0031300D01*
X0190700Y0030700D01*
X0191300Y0030700D01*
X0191300Y0031300D01*
X0196000Y0031300D01*
X0196000Y0031394D01*
X0195877Y0032171D01*
X0195634Y0032919D01*
X0195276Y0033621D01*
X0194814Y0034257D01*
X0194257Y0034814D01*
X0193621Y0035276D01*
X0193589Y0035292D01*
X0196297Y0038000D01*
X0197000Y0038703D01*
X0197000Y0046297D01*
X0194901Y0048396D01*
X0195600Y0050085D01*
X0195600Y0051915D01*
X0194900Y0053606D01*
X0193606Y0054900D01*
X0191915Y0055600D01*
X0190085Y0055600D01*
X0188394Y0054900D01*
X0187100Y0053606D01*
X0186400Y0051915D01*
X0186400Y0050085D01*
X0187100Y0048394D01*
X0188394Y0047100D01*
X0190085Y0046400D01*
X0191915Y0046400D01*
X0193038Y0046865D01*
X0194600Y0045303D01*
X0194600Y0043905D01*
X0193606Y0044900D01*
X0191915Y0045600D01*
X0190085Y0045600D01*
X0188679Y0045018D01*
X0186200Y0047497D01*
X0186200Y0074103D01*
X0186982Y0073321D01*
X0186400Y0071915D01*
X0186400Y0070085D01*
X0187100Y0068394D01*
X0188394Y0067100D01*
X0190085Y0066400D01*
X0191915Y0066400D01*
X0193606Y0067100D01*
X0194900Y0068394D01*
X0195600Y0070085D01*
X0195600Y0071915D01*
X0194900Y0073606D01*
X0193606Y0074900D01*
X0191915Y0075600D01*
X0190085Y0075600D01*
X0188679Y0075018D01*
X0187400Y0076297D01*
X0187400Y0078095D01*
X0188394Y0077100D01*
X0190085Y0076400D01*
X0191915Y0076400D01*
X0193606Y0077100D01*
X0194900Y0078394D01*
X0195600Y0080085D01*
X0195600Y0081915D01*
X0194959Y0083462D01*
X0197000Y0085503D01*
X0197000Y0093697D01*
X0196297Y0094400D01*
X0193897Y0096800D01*
X0192881Y0096800D01*
X0193606Y0097100D01*
X0194900Y0098394D01*
X0195600Y0100085D01*
X0195600Y0101915D01*
X0194900Y0103606D01*
X0193606Y0104900D01*
X0191915Y0105600D01*
X0190085Y0105600D01*
X0188679Y0105018D01*
X0186200Y0107497D01*
X0186200Y0114303D01*
X0187041Y0113462D01*
X0186400Y0111915D01*
X0186400Y0110085D01*
X0187100Y0108394D01*
X0188394Y0107100D01*
X0190085Y0106400D01*
X0191915Y0106400D01*
X0193606Y0107100D01*
X0194900Y0108394D01*
X0195600Y0110085D01*
X0195600Y0111915D01*
X0194900Y0113606D01*
X0193606Y0114900D01*
X0191915Y0115600D01*
X0190085Y0115600D01*
X0188821Y0115076D01*
X0187400Y0116497D01*
X0187400Y0118095D01*
X0188394Y0117100D01*
X0190085Y0116400D01*
X0191915Y0116400D01*
X0193606Y0117100D01*
X0194900Y0118394D01*
X0195600Y0120085D01*
X0195600Y0121915D01*
X0194900Y0123606D01*
X0193606Y0124900D01*
X0191915Y0125600D01*
X0190085Y0125600D01*
X0189811Y0125486D01*
X0176497Y0138800D01*
X0181503Y0138800D01*
X0186982Y0133321D01*
X0186400Y0131915D01*
X0186400Y0130085D01*
X0187100Y0128394D01*
X0188394Y0127100D01*
X0190085Y0126400D01*
X0191915Y0126400D01*
X0193606Y0127100D01*
X0194900Y0128394D01*
X0195600Y0130085D01*
X0195600Y0131915D01*
X0194900Y0133606D01*
X0193606Y0134900D01*
X0192881Y0135200D01*
X0193897Y0135200D01*
X0196297Y0137600D01*
X0197000Y0138303D01*
X0197000Y0196297D01*
X0194901Y0198396D01*
X0195600Y0200085D01*
X0195600Y0201915D01*
X0194900Y0203606D01*
X0193606Y0204900D01*
X0192200Y0205482D01*
X0192200Y0206518D01*
X0193606Y0207100D01*
X0194900Y0208394D01*
X0195600Y0210085D01*
X0195600Y0211915D01*
X0194900Y0213606D01*
X0193606Y0214900D01*
X0191915Y0215600D01*
X0190085Y0215600D01*
X0188394Y0214900D01*
X0187100Y0213606D01*
X0186400Y0211915D01*
X0186400Y0210085D01*
X0187100Y0208394D01*
X0188394Y0207100D01*
X0189800Y0206518D01*
X0189800Y0205482D01*
X0188394Y0204900D01*
X0187100Y0203606D01*
X0186400Y0201915D01*
X0186400Y0200085D01*
X0187099Y0198396D01*
X0180903Y0192200D01*
X0174807Y0192200D01*
X0174820Y0192246D01*
X0174820Y0195700D01*
X0171812Y0195700D01*
X0171812Y0196300D01*
X0174820Y0196300D01*
X0174820Y0199754D01*
X0174731Y0200084D01*
X0174560Y0200381D01*
X0174318Y0200623D01*
X0174021Y0200794D01*
X0173691Y0200883D01*
X0171812Y0200883D01*
X0171812Y0196300D01*
X0171212Y0196300D01*
X0171212Y0195700D01*
X0168204Y0195700D01*
X0168204Y0192246D01*
X0168216Y0192200D01*
X0166503Y0192200D01*
X0165800Y0191497D01*
X0155929Y0181626D01*
X0155870Y0181660D01*
X0155539Y0181749D01*
X0154780Y0181749D01*
X0154780Y0177496D01*
X0154780Y0173243D01*
X0155539Y0173243D01*
X0155870Y0173332D01*
X0156166Y0173503D01*
X0156307Y0173643D01*
X0157709Y0173643D01*
X0157732Y0173666D01*
X0157755Y0173643D01*
X0159678Y0173643D01*
X0159701Y0173666D01*
X0159724Y0173643D01*
X0161646Y0173643D01*
X0161669Y0173666D01*
X0161692Y0173643D01*
X0163615Y0173643D01*
X0163638Y0173666D01*
X0163661Y0173643D01*
X0165583Y0173643D01*
X0166111Y0174171D01*
X0166111Y0180822D01*
X0165583Y0181349D01*
X0163661Y0181349D01*
X0163638Y0181326D01*
X0163615Y0181349D01*
X0161692Y0181349D01*
X0161669Y0181326D01*
X0161646Y0181349D01*
X0159724Y0181349D01*
X0159701Y0181326D01*
X0159678Y0181349D01*
X0159046Y0181349D01*
X0167497Y0189800D01*
X0181897Y0189800D01*
X0188962Y0196865D01*
X0190085Y0196400D01*
X0191915Y0196400D01*
X0193038Y0196865D01*
X0194600Y0195303D01*
X0194600Y0193905D01*
X0193606Y0194900D01*
X0191915Y0195600D01*
X0190085Y0195600D01*
X0188394Y0194900D01*
X0187100Y0193606D01*
X0186400Y0191915D01*
X0186400Y0190085D01*
X0186982Y0188679D01*
X0171800Y0173497D01*
X0171800Y0171111D01*
X0169171Y0171111D01*
X0168643Y0170583D01*
X0168643Y0168661D01*
X0168666Y0168638D01*
X0168643Y0168615D01*
X0168643Y0166692D01*
X0168666Y0166669D01*
X0168643Y0166646D01*
X0168643Y0164724D01*
X0168666Y0164701D01*
X0168643Y0164678D01*
X0168643Y0162755D01*
X0168666Y0162732D01*
X0168643Y0162709D01*
X0168643Y0160787D01*
X0168666Y0160764D01*
X0168643Y0160741D01*
X0168643Y0158818D01*
X0168666Y0158795D01*
X0168643Y0158772D01*
X0168643Y0156850D01*
X0168666Y0156827D01*
X0168643Y0156804D01*
X0168643Y0154881D01*
X0168666Y0154858D01*
X0168643Y0154835D01*
X0168643Y0152913D01*
X0168666Y0152890D01*
X0168643Y0152867D01*
X0168643Y0150944D01*
X0168666Y0150921D01*
X0168643Y0150898D01*
X0168643Y0148976D01*
X0168666Y0148953D01*
X0168643Y0148930D01*
X0168643Y0147007D01*
X0168666Y0146984D01*
X0168643Y0146961D01*
X0168643Y0145559D01*
X0168503Y0145418D01*
X0168332Y0145122D01*
X0168243Y0144791D01*
X0168243Y0144032D01*
X0172496Y0144032D01*
X0172496Y0144031D01*
X0168243Y0144031D01*
X0168243Y0143272D01*
X0168332Y0142941D01*
X0168503Y0142645D01*
X0168643Y0142504D01*
X0168643Y0141102D01*
X0168666Y0141079D01*
X0168643Y0141056D01*
X0168643Y0139133D01*
X0168666Y0139110D01*
X0168643Y0139087D01*
X0168643Y0137165D01*
X0168666Y0137142D01*
X0168643Y0137119D01*
X0168643Y0135196D01*
X0168666Y0135173D01*
X0168643Y0135150D01*
X0168643Y0133228D01*
X0168666Y0133205D01*
X0168643Y0133182D01*
X0168643Y0133140D01*
X0168003Y0132500D01*
X0166730Y0132500D01*
X0165500Y0131270D01*
X0165500Y0129530D01*
X0166730Y0128300D01*
X0168470Y0128300D01*
X0168643Y0128473D01*
X0168643Y0127322D01*
X0168666Y0127299D01*
X0168643Y0127276D01*
X0168643Y0125354D01*
X0168650Y0125347D01*
X0167703Y0124400D01*
X0167000Y0123697D01*
X0167000Y0108903D01*
X0171303Y0104600D01*
X0166370Y0104600D01*
X0166700Y0104930D01*
X0166700Y0106670D01*
X0165800Y0107570D01*
X0165800Y0110868D01*
X0166111Y0111178D01*
X0166111Y0117829D01*
X0165583Y0118357D01*
X0163661Y0118357D01*
X0163638Y0118334D01*
X0163615Y0118357D01*
X0161692Y0118357D01*
X0161669Y0118334D01*
X0161646Y0118357D01*
X0159724Y0118357D01*
X0159701Y0118334D01*
X0159678Y0118357D01*
X0157755Y0118357D01*
X0157732Y0118334D01*
X0157709Y0118357D01*
X0155787Y0118357D01*
X0155764Y0118334D01*
X0155741Y0118357D01*
X0153818Y0118357D01*
X0153795Y0118334D01*
X0153772Y0118357D01*
X0151940Y0118357D01*
X0143000Y0127297D01*
X0142297Y0128000D01*
X0122103Y0128000D01*
X0116000Y0121897D01*
X0116000Y0136297D01*
X0115297Y0137000D01*
X0113357Y0138940D01*
X0113357Y0139087D01*
X0113334Y0139110D01*
X0113357Y0139133D01*
X0113357Y0141056D01*
X0113334Y0141079D01*
X0113357Y0141102D01*
X0113357Y0143024D01*
X0113334Y0143047D01*
X0113357Y0143070D01*
X0113357Y0144993D01*
X0113334Y0145016D01*
X0113357Y0145039D01*
X0113357Y0146961D01*
X0113334Y0146984D01*
X0113357Y0147007D01*
X0113357Y0148410D01*
X0113497Y0148550D01*
X0113668Y0148847D01*
X0113757Y0149177D01*
X0113757Y0149937D01*
X0113757Y0150697D01*
X0113729Y0150800D01*
X0117903Y0150800D01*
X0127400Y0141303D01*
X0128103Y0140600D01*
X0130297Y0140600D01*
X0132097Y0142400D01*
X0132800Y0143103D01*
X0132800Y0160297D01*
X0119854Y0173243D01*
X0120106Y0173243D01*
X0120437Y0173332D01*
X0120733Y0173503D01*
X0120874Y0173643D01*
X0122276Y0173643D01*
X0122299Y0173666D01*
X0122322Y0173643D01*
X0124245Y0173643D01*
X0124268Y0173666D01*
X0124291Y0173643D01*
X0126213Y0173643D01*
X0126236Y0173666D01*
X0126259Y0173643D01*
X0128182Y0173643D01*
X0128205Y0173666D01*
X0128228Y0173643D01*
X0130150Y0173643D01*
X0130173Y0173666D01*
X0130196Y0173643D01*
X0132119Y0173643D01*
X0132142Y0173666D01*
X0132165Y0173643D01*
X0134087Y0173643D01*
X0134110Y0173666D01*
X0134133Y0173643D01*
X0136056Y0173643D01*
X0136079Y0173666D01*
X0136102Y0173643D01*
X0138024Y0173643D01*
X0138047Y0173666D01*
X0138070Y0173643D01*
X0139993Y0173643D01*
X0140016Y0173666D01*
X0140039Y0173643D01*
X0141961Y0173643D01*
X0141984Y0173666D01*
X0142007Y0173643D01*
X0143930Y0173643D01*
X0143953Y0173666D01*
X0143976Y0173643D01*
X0145898Y0173643D01*
X0145921Y0173666D01*
X0145944Y0173643D01*
X0147867Y0173643D01*
X0147890Y0173666D01*
X0147913Y0173643D01*
X0149835Y0173643D01*
X0149858Y0173666D01*
X0149881Y0173643D01*
X0151804Y0173643D01*
X0151827Y0173666D01*
X0151850Y0173643D01*
X0153252Y0173643D01*
X0153393Y0173503D01*
X0153689Y0173332D01*
X0154020Y0173243D01*
X0154779Y0173243D01*
X0154779Y0177496D01*
X0154780Y0177496D01*
X0154779Y0177496D01*
X0154779Y0181749D01*
X0154020Y0181749D01*
X0153689Y0181660D01*
X0153393Y0181489D01*
X0153252Y0181349D01*
X0151850Y0181349D01*
X0151827Y0181326D01*
X0151804Y0181349D01*
X0149881Y0181349D01*
X0149858Y0181326D01*
X0149835Y0181349D01*
X0147913Y0181349D01*
X0147890Y0181326D01*
X0147867Y0181349D01*
X0145944Y0181349D01*
X0145921Y0181326D01*
X0145898Y0181349D01*
X0143976Y0181349D01*
X0143953Y0181326D01*
X0143930Y0181349D01*
X0142007Y0181349D01*
X0141984Y0181326D01*
X0141961Y0181349D01*
X0140039Y0181349D01*
X0140016Y0181326D01*
X0139993Y0181349D01*
X0138070Y0181349D01*
X0138047Y0181326D01*
X0138024Y0181349D01*
X0136102Y0181349D01*
X0136079Y0181326D01*
X0136056Y0181349D01*
X0134133Y0181349D01*
X0134110Y0181326D01*
X0134087Y0181349D01*
X0132165Y0181349D01*
X0132142Y0181326D01*
X0132119Y0181349D01*
X0130196Y0181349D01*
X0130173Y0181326D01*
X0130150Y0181349D01*
X0128228Y0181349D01*
X0128205Y0181326D01*
X0128182Y0181349D01*
X0126259Y0181349D01*
X0126236Y0181326D01*
X0126213Y0181349D01*
X0124291Y0181349D01*
X0124268Y0181326D01*
X0124245Y0181349D01*
X0122322Y0181349D01*
X0122299Y0181326D01*
X0122276Y0181349D01*
X0120874Y0181349D01*
X0120733Y0181489D01*
X0120437Y0181660D01*
X0120106Y0181749D01*
X0119846Y0181749D01*
X0129614Y0191517D01*
X0133892Y0191517D01*
X0134420Y0192045D01*
X0134420Y0195200D01*
X0134497Y0195200D01*
X0137180Y0197883D01*
X0137180Y0196300D01*
X0140188Y0196300D01*
X0140188Y0195700D01*
X0137180Y0195700D01*
X0137180Y0192246D01*
X0137269Y0191916D01*
X0137440Y0191619D01*
X0137682Y0191377D01*
X0137979Y0191206D01*
X0138309Y0191117D01*
X0140188Y0191117D01*
X0140188Y0195700D01*
X0140788Y0195700D01*
X0140788Y0191117D01*
X0142667Y0191117D01*
X0142998Y0191206D01*
X0143294Y0191377D01*
X0143536Y0191619D01*
X0143707Y0191916D01*
X0143796Y0192246D01*
X0143796Y0195700D01*
X0140788Y0195700D01*
X0140788Y0196300D01*
X0143796Y0196300D01*
X0143796Y0199400D01*
X0146703Y0199400D01*
X0148604Y0197499D01*
X0148604Y0192045D01*
X0149131Y0191517D01*
X0153892Y0191517D01*
X0154420Y0192045D01*
X0154420Y0195200D01*
X0157580Y0195200D01*
X0157580Y0192045D01*
X0158108Y0191517D01*
X0162869Y0191517D01*
X0163396Y0192045D01*
X0163396Y0197099D01*
X0164197Y0197900D01*
X0165470Y0197900D01*
X0166700Y0199130D01*
X0166502Y0198933D02*
X0168204Y0198933D01*
X0168204Y0198334D02*
X0165904Y0198334D01*
X0164033Y0197736D02*
X0168204Y0197736D01*
X0168204Y0197137D02*
X0163434Y0197137D01*
X0163396Y0196539D02*
X0168204Y0196539D01*
X0168204Y0195341D02*
X0163396Y0195341D01*
X0163396Y0194743D02*
X0168204Y0194743D01*
X0168204Y0194144D02*
X0163396Y0194144D01*
X0163396Y0193546D02*
X0168204Y0193546D01*
X0168204Y0192947D02*
X0163396Y0192947D01*
X0163396Y0192349D02*
X0168204Y0192349D01*
X0167000Y0191000D02*
X0181400Y0191000D01*
X0191000Y0200600D01*
X0191000Y0201000D01*
X0191000Y0211000D01*
X0189329Y0206713D02*
X0182671Y0206713D01*
X0181915Y0206400D02*
X0180085Y0206400D01*
X0178394Y0207100D01*
X0177100Y0208394D01*
X0176400Y0210085D01*
X0176400Y0211915D01*
X0177100Y0213606D01*
X0178394Y0214900D01*
X0180085Y0215600D01*
X0181915Y0215600D01*
X0183606Y0214900D01*
X0184900Y0213606D01*
X0185600Y0211915D01*
X0185600Y0210085D01*
X0184900Y0208394D01*
X0183606Y0207100D01*
X0181915Y0206400D01*
X0183817Y0207312D02*
X0188183Y0207312D01*
X0187584Y0207910D02*
X0184416Y0207910D01*
X0184947Y0208509D02*
X0187053Y0208509D01*
X0186805Y0209107D02*
X0185195Y0209107D01*
X0185443Y0209706D02*
X0186557Y0209706D01*
X0186400Y0210304D02*
X0185600Y0210304D01*
X0185600Y0210903D02*
X0186400Y0210903D01*
X0186400Y0211501D02*
X0185600Y0211501D01*
X0185523Y0212100D02*
X0186477Y0212100D01*
X0186724Y0212698D02*
X0185276Y0212698D01*
X0185028Y0213297D02*
X0186972Y0213297D01*
X0187390Y0213895D02*
X0184610Y0213895D01*
X0184012Y0214494D02*
X0187988Y0214494D01*
X0188859Y0215092D02*
X0183141Y0215092D01*
X0178859Y0215092D02*
X0173141Y0215092D01*
X0174012Y0214494D02*
X0177988Y0214494D01*
X0177390Y0213895D02*
X0174610Y0213895D01*
X0175028Y0213297D02*
X0176972Y0213297D01*
X0176724Y0212698D02*
X0175276Y0212698D01*
X0175523Y0212100D02*
X0176477Y0212100D01*
X0176400Y0211501D02*
X0175600Y0211501D01*
X0175600Y0210903D02*
X0176400Y0210903D01*
X0176400Y0210304D02*
X0175600Y0210304D01*
X0175443Y0209706D02*
X0176557Y0209706D01*
X0176805Y0209107D02*
X0175195Y0209107D01*
X0174947Y0208509D02*
X0177053Y0208509D01*
X0177584Y0207910D02*
X0174416Y0207910D01*
X0173817Y0207312D02*
X0178183Y0207312D01*
X0179329Y0206713D02*
X0172671Y0206713D01*
X0169329Y0206713D02*
X0168210Y0206713D01*
X0167612Y0206115D02*
X0189800Y0206115D01*
X0189800Y0205516D02*
X0167013Y0205516D01*
X0166415Y0204918D02*
X0188438Y0204918D01*
X0187814Y0204319D02*
X0134616Y0204319D01*
X0134018Y0203721D02*
X0187215Y0203721D01*
X0186900Y0203122D02*
X0133419Y0203122D01*
X0132821Y0202524D02*
X0186652Y0202524D01*
X0186404Y0201925D02*
X0165645Y0201925D01*
X0166243Y0201327D02*
X0186400Y0201327D01*
X0186400Y0200728D02*
X0174136Y0200728D01*
X0174705Y0200130D02*
X0186400Y0200130D01*
X0186629Y0199531D02*
X0174820Y0199531D01*
X0174820Y0198933D02*
X0186877Y0198933D01*
X0187037Y0198334D02*
X0174820Y0198334D01*
X0174820Y0197736D02*
X0186438Y0197736D01*
X0185840Y0197137D02*
X0174820Y0197137D01*
X0174820Y0196539D02*
X0185241Y0196539D01*
X0184643Y0195940D02*
X0171812Y0195940D01*
X0171812Y0196539D02*
X0171212Y0196539D01*
X0171212Y0197137D02*
X0171812Y0197137D01*
X0171812Y0197736D02*
X0171212Y0197736D01*
X0171212Y0198334D02*
X0171812Y0198334D01*
X0171812Y0198933D02*
X0171212Y0198933D01*
X0171212Y0199531D02*
X0171812Y0199531D01*
X0171812Y0200130D02*
X0171212Y0200130D01*
X0171212Y0200728D02*
X0171812Y0200728D01*
X0168888Y0200728D02*
X0166700Y0200728D01*
X0163555Y0201925D02*
X0132222Y0201925D01*
X0131624Y0201327D02*
X0137230Y0201327D01*
X0136631Y0200728D02*
X0131025Y0200728D01*
X0129427Y0202524D02*
X0091146Y0202524D01*
X0091565Y0201925D02*
X0128828Y0201925D01*
X0128230Y0201327D02*
X0091984Y0201327D01*
X0092342Y0200728D02*
X0117864Y0200728D01*
X0117979Y0200794D02*
X0117682Y0200623D01*
X0117440Y0200381D01*
X0117269Y0200084D01*
X0117180Y0199754D01*
X0117180Y0196300D01*
X0120188Y0196300D01*
X0120188Y0195700D01*
X0117180Y0195700D01*
X0117180Y0192246D01*
X0117269Y0191916D01*
X0117440Y0191619D01*
X0117682Y0191377D01*
X0117979Y0191206D01*
X0118309Y0191117D01*
X0120188Y0191117D01*
X0120188Y0195700D01*
X0120788Y0195700D01*
X0120788Y0196300D01*
X0120188Y0196300D01*
X0120188Y0200883D01*
X0118309Y0200883D01*
X0117979Y0200794D01*
X0117295Y0200130D02*
X0092687Y0200130D01*
X0093004Y0199531D02*
X0117180Y0199531D01*
X0117180Y0198933D02*
X0093283Y0198933D01*
X0093562Y0198334D02*
X0117180Y0198334D01*
X0117180Y0197736D02*
X0093785Y0197736D01*
X0094003Y0197137D02*
X0095914Y0197137D01*
X0096152Y0197375D02*
X0095625Y0196848D01*
X0095625Y0185152D01*
X0096152Y0184625D01*
X0107848Y0184625D01*
X0108375Y0185152D01*
X0108375Y0196848D01*
X0107848Y0197375D01*
X0096152Y0197375D01*
X0095625Y0196539D02*
X0094203Y0196539D01*
X0094364Y0195940D02*
X0095625Y0195940D01*
X0095625Y0195341D02*
X0094524Y0195341D01*
X0094650Y0194743D02*
X0095625Y0194743D01*
X0095625Y0194144D02*
X0094755Y0194144D01*
X0094861Y0193546D02*
X0095625Y0193546D01*
X0095625Y0192947D02*
X0094919Y0192947D01*
X0094971Y0192349D02*
X0095625Y0192349D01*
X0095625Y0191750D02*
X0095017Y0191750D01*
X0095625Y0191152D02*
X0076300Y0191152D01*
X0076300Y0190700D02*
X0095017Y0190700D01*
X0095017Y0190170D01*
X0094872Y0188515D01*
X0094583Y0186880D01*
X0094154Y0185276D01*
X0093586Y0183716D01*
X0092884Y0182211D01*
X0092054Y0180773D01*
X0091101Y0179412D01*
X0090034Y0178140D01*
X0088860Y0176966D01*
X0087588Y0175899D01*
X0086227Y0174946D01*
X0084789Y0174116D01*
X0083284Y0173414D01*
X0081724Y0172846D01*
X0080120Y0172417D01*
X0078485Y0172128D01*
X0076830Y0171983D01*
X0076300Y0171983D01*
X0076300Y0190700D01*
X0076300Y0190553D02*
X0075700Y0190553D01*
X0075700Y0190700D02*
X0075700Y0171983D01*
X0075170Y0171983D01*
X0073515Y0172128D01*
X0071880Y0172417D01*
X0070276Y0172846D01*
X0068716Y0173414D01*
X0067211Y0174116D01*
X0065773Y0174946D01*
X0064412Y0175899D01*
X0063140Y0176966D01*
X0061966Y0178140D01*
X0060899Y0179412D01*
X0059946Y0180773D01*
X0059116Y0182211D01*
X0058414Y0183716D01*
X0057846Y0185276D01*
X0057417Y0186880D01*
X0057128Y0188515D01*
X0056983Y0190170D01*
X0056983Y0190700D01*
X0075700Y0190700D01*
X0075800Y0191000D02*
X0041000Y0156200D01*
X0041000Y0151000D01*
X0041300Y0151052D02*
X0046155Y0151052D01*
X0046000Y0151300D02*
X0046000Y0151394D01*
X0045877Y0152171D01*
X0045634Y0152919D01*
X0045276Y0153621D01*
X0044814Y0154257D01*
X0044257Y0154814D01*
X0043621Y0155276D01*
X0042919Y0155634D01*
X0042171Y0155877D01*
X0041394Y0156000D01*
X0041300Y0156000D01*
X0041300Y0151300D01*
X0046000Y0151300D01*
X0045959Y0151650D02*
X0046400Y0151650D01*
X0046538Y0152249D02*
X0045852Y0152249D01*
X0045657Y0152847D02*
X0046786Y0152847D01*
X0047034Y0153446D02*
X0045365Y0153446D01*
X0044969Y0154044D02*
X0047539Y0154044D01*
X0048137Y0154643D02*
X0044428Y0154643D01*
X0043669Y0155241D02*
X0049219Y0155241D01*
X0051000Y0151000D02*
X0050600Y0150800D01*
X0047600Y0150800D01*
X0042800Y0146000D01*
X0021200Y0146000D01*
X0021200Y0141200D01*
X0021000Y0141000D01*
X0017610Y0137884D02*
X0011000Y0137884D01*
X0011000Y0137286D02*
X0018209Y0137286D01*
X0019391Y0136687D02*
X0011000Y0136687D01*
X0011000Y0136089D02*
X0024592Y0136089D01*
X0025190Y0136687D02*
X0022609Y0136687D01*
X0022180Y0135490D02*
X0023993Y0135490D01*
X0023791Y0137286D02*
X0025789Y0137286D01*
X0026387Y0137884D02*
X0024390Y0137884D01*
X0024936Y0138483D02*
X0026986Y0138483D01*
X0027584Y0139081D02*
X0025184Y0139081D01*
X0025432Y0139680D02*
X0044983Y0139680D01*
X0045581Y0140278D02*
X0025600Y0140278D01*
X0025600Y0140877D02*
X0046180Y0140877D01*
X0046778Y0141475D02*
X0025600Y0141475D01*
X0025534Y0142074D02*
X0047377Y0142074D01*
X0047975Y0142672D02*
X0025286Y0142672D01*
X0025038Y0143271D02*
X0048574Y0143271D01*
X0049172Y0143870D02*
X0024636Y0143870D01*
X0024037Y0144468D02*
X0049771Y0144468D01*
X0050370Y0145067D02*
X0043564Y0145067D01*
X0044162Y0145665D02*
X0050968Y0145665D01*
X0051567Y0146264D02*
X0044761Y0146264D01*
X0045359Y0146862D02*
X0048969Y0146862D01*
X0048034Y0147461D02*
X0045958Y0147461D01*
X0046556Y0148059D02*
X0047436Y0148059D01*
X0053600Y0144800D02*
X0045800Y0137000D01*
X0038600Y0137000D01*
X0026000Y0124400D01*
X0026000Y0116000D01*
X0021000Y0111000D01*
X0022788Y0106762D02*
X0025265Y0106762D01*
X0025863Y0107360D02*
X0023866Y0107360D01*
X0024464Y0107959D02*
X0026000Y0107959D01*
X0026000Y0108557D02*
X0024967Y0108557D01*
X0025215Y0109156D02*
X0026000Y0109156D01*
X0026000Y0109754D02*
X0025463Y0109754D01*
X0025600Y0110353D02*
X0026000Y0110353D01*
X0026000Y0110951D02*
X0025600Y0110951D01*
X0025600Y0111550D02*
X0026000Y0111550D01*
X0026000Y0112148D02*
X0025503Y0112148D01*
X0025255Y0112747D02*
X0026000Y0112747D01*
X0026000Y0113345D02*
X0025042Y0113345D01*
X0025641Y0113944D02*
X0026000Y0113944D01*
X0024042Y0115739D02*
X0011000Y0115739D01*
X0011000Y0115141D02*
X0018977Y0115141D01*
X0018037Y0114542D02*
X0011000Y0114542D01*
X0011000Y0113944D02*
X0017439Y0113944D01*
X0016993Y0113345D02*
X0011000Y0113345D01*
X0011000Y0112747D02*
X0016745Y0112747D01*
X0016497Y0112148D02*
X0011000Y0112148D01*
X0011000Y0111550D02*
X0016400Y0111550D01*
X0016400Y0110951D02*
X0011000Y0110951D01*
X0011000Y0110353D02*
X0016400Y0110353D01*
X0016537Y0109754D02*
X0011000Y0109754D01*
X0011000Y0109156D02*
X0016785Y0109156D01*
X0017033Y0108557D02*
X0011000Y0108557D01*
X0011000Y0107959D02*
X0017536Y0107959D01*
X0018134Y0107360D02*
X0011000Y0107360D01*
X0011000Y0106762D02*
X0019212Y0106762D01*
X0020000Y0105565D02*
X0011000Y0105565D01*
X0011000Y0106163D02*
X0024666Y0106163D01*
X0024068Y0105565D02*
X0022000Y0105565D01*
X0023445Y0104966D02*
X0023469Y0104966D01*
X0025080Y0103171D02*
X0027200Y0103171D01*
X0027200Y0103769D02*
X0025666Y0103769D01*
X0026265Y0104368D02*
X0027200Y0104368D01*
X0027200Y0104966D02*
X0026863Y0104966D01*
X0027200Y0107000D02*
X0021200Y0101000D01*
X0021000Y0101000D01*
X0017710Y0097784D02*
X0011000Y0097784D01*
X0011000Y0097186D02*
X0018309Y0097186D01*
X0019633Y0096587D02*
X0011000Y0096587D01*
X0011000Y0095989D02*
X0024092Y0095989D01*
X0024690Y0096587D02*
X0022367Y0096587D01*
X0022422Y0095390D02*
X0023493Y0095390D01*
X0023691Y0097186D02*
X0025289Y0097186D01*
X0025887Y0097784D02*
X0024290Y0097784D01*
X0024888Y0098383D02*
X0026486Y0098383D01*
X0027084Y0098981D02*
X0025143Y0098981D01*
X0025391Y0099580D02*
X0027200Y0099580D01*
X0027200Y0100178D02*
X0025600Y0100178D01*
X0025600Y0100777D02*
X0027200Y0100777D01*
X0027200Y0101375D02*
X0025600Y0101375D01*
X0025576Y0101974D02*
X0027200Y0101974D01*
X0027200Y0102572D02*
X0025328Y0102572D01*
X0027200Y0107000D02*
X0027200Y0123800D01*
X0039200Y0135800D01*
X0046400Y0135800D01*
X0054200Y0143600D01*
X0089600Y0143600D01*
X0090800Y0142400D01*
X0109400Y0142400D01*
X0109504Y0142063D01*
X0109504Y0140094D02*
X0109400Y0140000D01*
X0101600Y0140000D01*
X0089000Y0127400D01*
X0054200Y0127400D01*
X0052400Y0125600D01*
X0038600Y0125600D01*
X0028400Y0115400D01*
X0028400Y0098600D01*
X0021200Y0091400D01*
X0021000Y0091000D01*
X0017688Y0094193D02*
X0011000Y0094193D01*
X0011000Y0093595D02*
X0017096Y0093595D01*
X0016848Y0092996D02*
X0011000Y0092996D01*
X0011000Y0092398D02*
X0016600Y0092398D01*
X0016400Y0091799D02*
X0011000Y0091799D01*
X0011000Y0091201D02*
X0016400Y0091201D01*
X0016400Y0090602D02*
X0011000Y0090602D01*
X0011000Y0090003D02*
X0016434Y0090003D01*
X0016682Y0089405D02*
X0011000Y0089405D01*
X0011000Y0088806D02*
X0016930Y0088806D01*
X0017287Y0088208D02*
X0011000Y0088208D01*
X0011000Y0087609D02*
X0017885Y0087609D01*
X0018610Y0087011D02*
X0011000Y0087011D01*
X0011000Y0086412D02*
X0018115Y0086412D01*
X0017517Y0085814D02*
X0011000Y0085814D01*
X0011000Y0085215D02*
X0016918Y0085215D01*
X0016320Y0084617D02*
X0011000Y0084617D01*
X0011000Y0084018D02*
X0015721Y0084018D01*
X0015200Y0083420D02*
X0011000Y0083420D01*
X0011000Y0082821D02*
X0015200Y0082821D01*
X0015200Y0082223D02*
X0011000Y0082223D01*
X0011000Y0081624D02*
X0015200Y0081624D01*
X0015200Y0081026D02*
X0011000Y0081026D01*
X0011000Y0080427D02*
X0015200Y0080427D01*
X0015200Y0079829D02*
X0011000Y0079829D01*
X0011000Y0079230D02*
X0015200Y0079230D01*
X0015200Y0078632D02*
X0011000Y0078632D01*
X0011000Y0078033D02*
X0015200Y0078033D01*
X0015200Y0077435D02*
X0011000Y0077435D01*
X0011000Y0076836D02*
X0015200Y0076836D01*
X0015200Y0076238D02*
X0011000Y0076238D01*
X0011000Y0075639D02*
X0015200Y0075639D01*
X0015200Y0075041D02*
X0011000Y0075041D01*
X0011000Y0074442D02*
X0015200Y0074442D01*
X0015200Y0073844D02*
X0011000Y0073844D01*
X0011000Y0073245D02*
X0015200Y0073245D01*
X0015200Y0072647D02*
X0011000Y0072647D01*
X0011000Y0072048D02*
X0015200Y0072048D01*
X0015200Y0071450D02*
X0011000Y0071450D01*
X0011000Y0070851D02*
X0015200Y0070851D01*
X0015200Y0070253D02*
X0011000Y0070253D01*
X0011000Y0069654D02*
X0015200Y0069654D01*
X0015200Y0069056D02*
X0011000Y0069056D01*
X0011000Y0068457D02*
X0015200Y0068457D01*
X0015200Y0067859D02*
X0011000Y0067859D01*
X0011000Y0067260D02*
X0015200Y0067260D01*
X0015200Y0066662D02*
X0011000Y0066662D01*
X0011000Y0066063D02*
X0015200Y0066063D01*
X0015200Y0065465D02*
X0011000Y0065465D01*
X0011000Y0064866D02*
X0015200Y0064866D01*
X0015200Y0064268D02*
X0011000Y0064268D01*
X0011000Y0063669D02*
X0015200Y0063669D01*
X0015200Y0063070D02*
X0011000Y0063070D01*
X0011000Y0062472D02*
X0015200Y0062472D01*
X0015200Y0061873D02*
X0011000Y0061873D01*
X0011000Y0061275D02*
X0015200Y0061275D01*
X0015200Y0060676D02*
X0011000Y0060676D01*
X0011000Y0060078D02*
X0015200Y0060078D01*
X0015200Y0059479D02*
X0011000Y0059479D01*
X0011000Y0058881D02*
X0015200Y0058881D01*
X0015200Y0058282D02*
X0011000Y0058282D01*
X0011000Y0057684D02*
X0015200Y0057684D01*
X0015200Y0057085D02*
X0011000Y0057085D01*
X0011000Y0056487D02*
X0015200Y0056487D01*
X0015200Y0055888D02*
X0011000Y0055888D01*
X0011000Y0055290D02*
X0015200Y0055290D01*
X0015412Y0054691D02*
X0011000Y0054691D01*
X0011000Y0054093D02*
X0016010Y0054093D01*
X0016609Y0053494D02*
X0011000Y0053494D01*
X0011000Y0052896D02*
X0016806Y0052896D01*
X0016558Y0052297D02*
X0011000Y0052297D01*
X0011000Y0051699D02*
X0016400Y0051699D01*
X0016400Y0051100D02*
X0011000Y0051100D01*
X0011000Y0050502D02*
X0016400Y0050502D01*
X0016475Y0049903D02*
X0011000Y0049903D01*
X0011000Y0049305D02*
X0016723Y0049305D01*
X0016971Y0048706D02*
X0011000Y0048706D01*
X0011000Y0048108D02*
X0017387Y0048108D01*
X0017985Y0047509D02*
X0011000Y0047509D01*
X0011000Y0046911D02*
X0018852Y0046911D01*
X0018914Y0045115D02*
X0011000Y0045115D01*
X0011000Y0044517D02*
X0018011Y0044517D01*
X0017413Y0043918D02*
X0011000Y0043918D01*
X0011000Y0043320D02*
X0016982Y0043320D01*
X0016734Y0042721D02*
X0011000Y0042721D01*
X0011000Y0042123D02*
X0016486Y0042123D01*
X0016400Y0041524D02*
X0011000Y0041524D01*
X0011000Y0040926D02*
X0016400Y0040926D01*
X0016400Y0040327D02*
X0011000Y0040327D01*
X0011000Y0039729D02*
X0016548Y0039729D01*
X0016796Y0039130D02*
X0011000Y0039130D01*
X0011000Y0038532D02*
X0017043Y0038532D01*
X0017562Y0037933D02*
X0011000Y0037933D01*
X0011000Y0037334D02*
X0018160Y0037334D01*
X0019274Y0036736D02*
X0011000Y0036736D01*
X0011000Y0036137D02*
X0037700Y0036137D01*
X0037700Y0035539D02*
X0023105Y0035539D01*
X0022919Y0035634D02*
X0022171Y0035877D01*
X0021394Y0036000D01*
X0021300Y0036000D01*
X0021300Y0031300D01*
X0026000Y0031300D01*
X0026000Y0031394D01*
X0025877Y0032171D01*
X0025634Y0032919D01*
X0025276Y0033621D01*
X0024814Y0034257D01*
X0024257Y0034814D01*
X0023621Y0035276D01*
X0022919Y0035634D01*
X0022726Y0036736D02*
X0037700Y0036736D01*
X0037700Y0037334D02*
X0023840Y0037334D01*
X0024438Y0037933D02*
X0037700Y0037933D01*
X0037700Y0038532D02*
X0024957Y0038532D01*
X0025204Y0039130D02*
X0037730Y0039130D01*
X0037700Y0039056D02*
X0037700Y0032944D01*
X0038202Y0031731D01*
X0039131Y0030802D01*
X0040344Y0030300D01*
X0041656Y0030300D01*
X0042869Y0030802D01*
X0043798Y0031731D01*
X0044300Y0032944D01*
X0044300Y0037803D01*
X0056000Y0049503D01*
X0056000Y0075830D01*
X0056900Y0076730D01*
X0056900Y0078470D01*
X0055670Y0079700D01*
X0053930Y0079700D01*
X0052700Y0078470D01*
X0052700Y0076730D01*
X0053600Y0075830D01*
X0053600Y0070467D01*
X0052869Y0071198D01*
X0051656Y0071700D01*
X0050344Y0071700D01*
X0049131Y0071198D01*
X0048202Y0070269D01*
X0047700Y0069056D01*
X0044642Y0069056D01*
X0044700Y0068457D02*
X0047700Y0068457D01*
X0047700Y0067859D02*
X0044700Y0067859D01*
X0044700Y0067260D02*
X0047700Y0067260D01*
X0047700Y0066662D02*
X0044700Y0066662D01*
X0044700Y0065700D02*
X0041300Y0065700D01*
X0041300Y0059900D01*
X0041364Y0059900D01*
X0042079Y0060042D01*
X0042753Y0060321D01*
X0043359Y0060726D01*
X0043874Y0061241D01*
X0044279Y0061847D01*
X0044558Y0062521D01*
X0044700Y0063236D01*
X0044700Y0065700D01*
X0044700Y0065465D02*
X0047700Y0065465D01*
X0047700Y0066063D02*
X0041300Y0066063D01*
X0041000Y0066000D02*
X0041000Y0051200D01*
X0021200Y0031400D01*
X0021000Y0031000D01*
X0021200Y0030800D01*
X0021200Y0021200D01*
X0021000Y0021000D01*
X0021300Y0021175D02*
X0026400Y0021175D01*
X0026000Y0021300D02*
X0026000Y0021394D01*
X0025877Y0022171D01*
X0025634Y0022919D01*
X0025276Y0023621D01*
X0024814Y0024257D01*
X0024257Y0024814D01*
X0023621Y0025276D01*
X0022919Y0025634D01*
X0022171Y0025877D01*
X0021394Y0026000D01*
X0022171Y0026123D01*
X0022919Y0026366D01*
X0023621Y0026724D01*
X0024257Y0027186D01*
X0024814Y0027743D01*
X0025276Y0028379D01*
X0025634Y0029081D01*
X0025877Y0029829D01*
X0026000Y0030606D01*
X0026000Y0030700D01*
X0021300Y0030700D01*
X0021300Y0031300D01*
X0020700Y0031300D01*
X0020700Y0036000D01*
X0020606Y0036000D01*
X0019829Y0035877D01*
X0019081Y0035634D01*
X0018379Y0035276D01*
X0017743Y0034814D01*
X0017186Y0034257D01*
X0016724Y0033621D01*
X0016366Y0032919D01*
X0016123Y0032171D01*
X0016000Y0031394D01*
X0016000Y0031300D01*
X0020700Y0031300D01*
X0020700Y0030700D01*
X0021300Y0030700D01*
X0021300Y0026000D01*
X0021394Y0026000D01*
X0021300Y0026000D01*
X0021300Y0021300D01*
X0026000Y0021300D01*
X0025940Y0021773D02*
X0026400Y0021773D01*
X0026589Y0022372D02*
X0025812Y0022372D01*
X0025608Y0022970D02*
X0026837Y0022970D01*
X0027085Y0023569D02*
X0025303Y0023569D01*
X0024879Y0024167D02*
X0027662Y0024167D01*
X0028260Y0024766D02*
X0024305Y0024766D01*
X0023448Y0025364D02*
X0029516Y0025364D01*
X0032484Y0025364D02*
X0039516Y0025364D01*
X0038260Y0024766D02*
X0033740Y0024766D01*
X0034338Y0024167D02*
X0037662Y0024167D01*
X0037085Y0023569D02*
X0034915Y0023569D01*
X0035163Y0022970D02*
X0036837Y0022970D01*
X0036444Y0019978D02*
X0035556Y0019978D01*
X0035308Y0019379D02*
X0036692Y0019379D01*
X0036940Y0018781D02*
X0035060Y0018781D01*
X0034688Y0018182D02*
X0037312Y0018182D01*
X0037911Y0017584D02*
X0034089Y0017584D01*
X0033328Y0016985D02*
X0038672Y0016985D01*
X0041000Y0021000D02*
X0041000Y0021200D01*
X0031400Y0021200D01*
X0031000Y0021000D01*
X0026692Y0019379D02*
X0025731Y0019379D01*
X0025634Y0019081D02*
X0025877Y0019829D01*
X0026000Y0020606D01*
X0026000Y0020700D01*
X0021300Y0020700D01*
X0021300Y0021300D01*
X0020700Y0021300D01*
X0020700Y0026000D01*
X0020700Y0030700D01*
X0016000Y0030700D01*
X0016000Y0030606D01*
X0016123Y0029829D01*
X0016366Y0029081D01*
X0016724Y0028379D01*
X0017186Y0027743D01*
X0017743Y0027186D01*
X0018379Y0026724D01*
X0019081Y0026366D01*
X0019829Y0026123D01*
X0020606Y0026000D01*
X0020700Y0026000D01*
X0020606Y0026000D01*
X0019829Y0025877D01*
X0019081Y0025634D01*
X0018379Y0025276D01*
X0017743Y0024814D01*
X0017186Y0024257D01*
X0016724Y0023621D01*
X0016366Y0022919D01*
X0016123Y0022171D01*
X0016000Y0021394D01*
X0016000Y0021300D01*
X0020700Y0021300D01*
X0020700Y0020700D01*
X0021300Y0020700D01*
X0021300Y0016000D01*
X0021394Y0016000D01*
X0022171Y0016123D01*
X0022919Y0016366D01*
X0023621Y0016724D01*
X0024257Y0017186D01*
X0024814Y0017743D01*
X0025276Y0018379D01*
X0025634Y0019081D01*
X0025481Y0018781D02*
X0026940Y0018781D01*
X0027312Y0018182D02*
X0025133Y0018182D01*
X0024655Y0017584D02*
X0027911Y0017584D01*
X0028672Y0016985D02*
X0023980Y0016985D01*
X0022959Y0016387D02*
X0047116Y0016387D01*
X0046518Y0016985D02*
X0043328Y0016985D01*
X0044089Y0017584D02*
X0045919Y0017584D01*
X0045321Y0018182D02*
X0044688Y0018182D01*
X0045060Y0018781D02*
X0045200Y0018781D01*
X0046400Y0018800D02*
X0046400Y0023000D01*
X0054800Y0031400D01*
X0054800Y0037400D01*
X0074600Y0057200D01*
X0074600Y0077000D01*
X0119600Y0122000D01*
X0132800Y0122000D01*
X0137000Y0117800D01*
X0137000Y0114800D01*
X0137063Y0114504D01*
X0138800Y0114200D02*
X0139031Y0114504D01*
X0138800Y0114200D02*
X0138800Y0107000D01*
X0136137Y0104966D02*
X0132200Y0104966D01*
X0132200Y0104368D02*
X0136735Y0104368D01*
X0137334Y0103769D02*
X0131866Y0103769D01*
X0131268Y0103171D02*
X0137932Y0103171D01*
X0138531Y0102572D02*
X0130669Y0102572D01*
X0130071Y0101974D02*
X0139129Y0101974D01*
X0139728Y0101375D02*
X0129472Y0101375D01*
X0127874Y0103171D02*
X0118668Y0103171D01*
X0119266Y0103769D02*
X0126461Y0103769D01*
X0125862Y0104368D02*
X0119865Y0104368D01*
X0120463Y0104966D02*
X0125300Y0104966D01*
X0125300Y0105565D02*
X0121062Y0105565D01*
X0121660Y0106163D02*
X0125300Y0106163D01*
X0125392Y0106762D02*
X0122259Y0106762D01*
X0122857Y0107360D02*
X0125990Y0107360D01*
X0126200Y0107959D02*
X0123456Y0107959D01*
X0124054Y0108557D02*
X0126200Y0108557D01*
X0126200Y0109156D02*
X0124653Y0109156D01*
X0125251Y0109754D02*
X0126200Y0109754D01*
X0126200Y0110353D02*
X0125850Y0110353D01*
X0125000Y0111200D02*
X0116000Y0102200D01*
X0110600Y0102200D01*
X0108800Y0100400D01*
X0108800Y0063200D01*
X0110600Y0061400D01*
X0111000Y0060843D01*
X0112383Y0064866D02*
X0154969Y0064866D01*
X0154370Y0064268D02*
X0113580Y0064268D01*
X0114179Y0063669D02*
X0153772Y0063669D01*
X0153173Y0063070D02*
X0114673Y0063070D01*
X0114921Y0062472D02*
X0152575Y0062472D01*
X0151976Y0061873D02*
X0115169Y0061873D01*
X0115246Y0061275D02*
X0151378Y0061275D01*
X0150779Y0060676D02*
X0115246Y0060676D01*
X0115246Y0060078D02*
X0132047Y0060078D01*
X0132086Y0060145D02*
X0131915Y0059848D01*
X0131826Y0059518D01*
X0131826Y0056300D01*
X0134991Y0056300D01*
X0134991Y0055700D01*
X0131826Y0055700D01*
X0131826Y0052482D01*
X0131915Y0052152D01*
X0132086Y0051855D01*
X0132328Y0051613D01*
X0132624Y0051442D01*
X0132955Y0051354D01*
X0134991Y0051354D01*
X0134991Y0055700D01*
X0135591Y0055700D01*
X0135591Y0051354D01*
X0137628Y0051354D01*
X0137958Y0051442D01*
X0138255Y0051613D01*
X0138497Y0051855D01*
X0138668Y0052152D01*
X0138757Y0052482D01*
X0138757Y0055700D01*
X0135591Y0055700D01*
X0135591Y0056300D01*
X0134991Y0056300D01*
X0134991Y0060646D01*
X0132955Y0060646D01*
X0132624Y0060558D01*
X0132328Y0060387D01*
X0132086Y0060145D01*
X0131826Y0059479D02*
X0115032Y0059479D01*
X0114784Y0058881D02*
X0131826Y0058881D01*
X0131826Y0058282D02*
X0114445Y0058282D01*
X0113847Y0057684D02*
X0131826Y0057684D01*
X0131826Y0057085D02*
X0113026Y0057085D01*
X0108974Y0057085D02*
X0102200Y0057085D01*
X0102200Y0056487D02*
X0131826Y0056487D01*
X0131826Y0055290D02*
X0102200Y0055290D01*
X0102200Y0055888D02*
X0134991Y0055888D01*
X0135200Y0056000D02*
X0135291Y0056000D01*
X0135200Y0056000D02*
X0121400Y0056000D01*
X0111200Y0045800D01*
X0111200Y0041600D01*
X0111000Y0041157D01*
X0111200Y0041000D01*
X0111200Y0037400D01*
X0125600Y0023000D01*
X0125600Y0019400D01*
X0128600Y0016400D01*
X0163400Y0016400D01*
X0169400Y0022400D01*
X0171000Y0021000D01*
X0171200Y0021200D01*
X0180800Y0021200D01*
X0181000Y0021000D01*
X0181400Y0021200D01*
X0191000Y0021200D01*
X0191000Y0021000D01*
X0191000Y0021200D02*
X0191000Y0031000D01*
X0191300Y0030751D02*
X0201000Y0030751D01*
X0201000Y0031349D02*
X0196000Y0031349D01*
X0195912Y0031948D02*
X0201000Y0031948D01*
X0201000Y0032546D02*
X0195755Y0032546D01*
X0195519Y0033145D02*
X0201000Y0033145D01*
X0201000Y0033743D02*
X0195187Y0033743D01*
X0194729Y0034342D02*
X0201000Y0034342D01*
X0201000Y0034940D02*
X0194083Y0034940D01*
X0193836Y0035539D02*
X0201000Y0035539D01*
X0201000Y0036137D02*
X0194435Y0036137D01*
X0195033Y0036736D02*
X0201000Y0036736D01*
X0201000Y0037334D02*
X0195632Y0037334D01*
X0196230Y0037933D02*
X0201000Y0037933D01*
X0201000Y0038532D02*
X0196829Y0038532D01*
X0197000Y0039130D02*
X0201000Y0039130D01*
X0201000Y0039729D02*
X0197000Y0039729D01*
X0197000Y0040327D02*
X0201000Y0040327D01*
X0201000Y0040926D02*
X0197000Y0040926D01*
X0197000Y0041524D02*
X0201000Y0041524D01*
X0201000Y0042123D02*
X0197000Y0042123D01*
X0197000Y0042721D02*
X0201000Y0042721D01*
X0201000Y0043320D02*
X0197000Y0043320D01*
X0197000Y0043918D02*
X0201000Y0043918D01*
X0201000Y0044517D02*
X0197000Y0044517D01*
X0197000Y0045115D02*
X0201000Y0045115D01*
X0201000Y0045714D02*
X0197000Y0045714D01*
X0196985Y0046312D02*
X0201000Y0046312D01*
X0201000Y0046911D02*
X0196386Y0046911D01*
X0195788Y0047509D02*
X0201000Y0047509D01*
X0201000Y0048108D02*
X0195189Y0048108D01*
X0195029Y0048706D02*
X0201000Y0048706D01*
X0201000Y0049305D02*
X0195277Y0049305D01*
X0195525Y0049903D02*
X0201000Y0049903D01*
X0201000Y0050502D02*
X0195600Y0050502D01*
X0195600Y0051100D02*
X0201000Y0051100D01*
X0201000Y0051699D02*
X0195600Y0051699D01*
X0195442Y0052297D02*
X0201000Y0052297D01*
X0201000Y0052896D02*
X0195194Y0052896D01*
X0194946Y0053494D02*
X0201000Y0053494D01*
X0201000Y0054093D02*
X0194413Y0054093D01*
X0193814Y0054691D02*
X0201000Y0054691D01*
X0201000Y0055290D02*
X0192664Y0055290D01*
X0192125Y0056487D02*
X0201000Y0056487D01*
X0201000Y0057085D02*
X0193570Y0057085D01*
X0193606Y0057100D02*
X0194900Y0058394D01*
X0195600Y0060085D01*
X0195600Y0061915D01*
X0194900Y0063606D01*
X0193606Y0064900D01*
X0191915Y0065600D01*
X0190085Y0065600D01*
X0188394Y0064900D01*
X0187100Y0063606D01*
X0186400Y0061915D01*
X0186400Y0060085D01*
X0187100Y0058394D01*
X0188394Y0057100D01*
X0190085Y0056400D01*
X0191915Y0056400D01*
X0193606Y0057100D01*
X0194189Y0057684D02*
X0201000Y0057684D01*
X0201000Y0058282D02*
X0194788Y0058282D01*
X0195101Y0058881D02*
X0201000Y0058881D01*
X0201000Y0059479D02*
X0195349Y0059479D01*
X0195597Y0060078D02*
X0201000Y0060078D01*
X0201000Y0060676D02*
X0195600Y0060676D01*
X0195600Y0061275D02*
X0201000Y0061275D01*
X0201000Y0061873D02*
X0195600Y0061873D01*
X0195369Y0062472D02*
X0201000Y0062472D01*
X0201000Y0063070D02*
X0195121Y0063070D01*
X0194836Y0063669D02*
X0201000Y0063669D01*
X0201000Y0064268D02*
X0194238Y0064268D01*
X0193639Y0064866D02*
X0201000Y0064866D01*
X0201000Y0065465D02*
X0192242Y0065465D01*
X0192546Y0066662D02*
X0201000Y0066662D01*
X0201000Y0067260D02*
X0193765Y0067260D01*
X0194364Y0067859D02*
X0201000Y0067859D01*
X0201000Y0068457D02*
X0194926Y0068457D01*
X0195174Y0069056D02*
X0201000Y0069056D01*
X0201000Y0069654D02*
X0195422Y0069654D01*
X0195600Y0070253D02*
X0201000Y0070253D01*
X0201000Y0070851D02*
X0195600Y0070851D01*
X0195600Y0071450D02*
X0201000Y0071450D01*
X0201000Y0072048D02*
X0195545Y0072048D01*
X0195297Y0072647D02*
X0201000Y0072647D01*
X0201000Y0073245D02*
X0195049Y0073245D01*
X0194662Y0073844D02*
X0201000Y0073844D01*
X0201000Y0074442D02*
X0194063Y0074442D01*
X0193265Y0075041D02*
X0201000Y0075041D01*
X0201000Y0075639D02*
X0188058Y0075639D01*
X0188656Y0075041D02*
X0188735Y0075041D01*
X0187459Y0076238D02*
X0201000Y0076238D01*
X0201000Y0076836D02*
X0192968Y0076836D01*
X0193940Y0077435D02*
X0201000Y0077435D01*
X0201000Y0078033D02*
X0194539Y0078033D01*
X0194998Y0078632D02*
X0201000Y0078632D01*
X0201000Y0079230D02*
X0195246Y0079230D01*
X0195494Y0079829D02*
X0201000Y0079829D01*
X0201000Y0080427D02*
X0195600Y0080427D01*
X0195600Y0081026D02*
X0201000Y0081026D01*
X0201000Y0081624D02*
X0195600Y0081624D01*
X0195472Y0082223D02*
X0201000Y0082223D01*
X0201000Y0082821D02*
X0195225Y0082821D01*
X0194977Y0083420D02*
X0201000Y0083420D01*
X0201000Y0084018D02*
X0195515Y0084018D01*
X0196114Y0084617D02*
X0201000Y0084617D01*
X0201000Y0085215D02*
X0196712Y0085215D01*
X0197000Y0085814D02*
X0201000Y0085814D01*
X0201000Y0086412D02*
X0197000Y0086412D01*
X0197000Y0087011D02*
X0201000Y0087011D01*
X0201000Y0087609D02*
X0197000Y0087609D01*
X0197000Y0088208D02*
X0201000Y0088208D01*
X0201000Y0088806D02*
X0197000Y0088806D01*
X0197000Y0089405D02*
X0201000Y0089405D01*
X0201000Y0090003D02*
X0197000Y0090003D01*
X0197000Y0090602D02*
X0201000Y0090602D01*
X0201000Y0091201D02*
X0197000Y0091201D01*
X0197000Y0091799D02*
X0201000Y0091799D01*
X0201000Y0092398D02*
X0197000Y0092398D01*
X0197000Y0092996D02*
X0201000Y0092996D01*
X0201000Y0093595D02*
X0197000Y0093595D01*
X0196504Y0094193D02*
X0201000Y0094193D01*
X0201000Y0094792D02*
X0195905Y0094792D01*
X0195307Y0095390D02*
X0201000Y0095390D01*
X0201000Y0095989D02*
X0194708Y0095989D01*
X0194110Y0096587D02*
X0201000Y0096587D01*
X0201000Y0097186D02*
X0193691Y0097186D01*
X0194290Y0097784D02*
X0201000Y0097784D01*
X0201000Y0098383D02*
X0194888Y0098383D01*
X0195143Y0098981D02*
X0201000Y0098981D01*
X0201000Y0099580D02*
X0195391Y0099580D01*
X0195600Y0100178D02*
X0201000Y0100178D01*
X0201000Y0100777D02*
X0195600Y0100777D01*
X0195600Y0101375D02*
X0201000Y0101375D01*
X0201000Y0101974D02*
X0195576Y0101974D01*
X0195328Y0102572D02*
X0201000Y0102572D01*
X0201000Y0103171D02*
X0195080Y0103171D01*
X0194736Y0103769D02*
X0201000Y0103769D01*
X0201000Y0104368D02*
X0194138Y0104368D01*
X0193445Y0104966D02*
X0201000Y0104966D01*
X0201000Y0105565D02*
X0192000Y0105565D01*
X0192788Y0106762D02*
X0201000Y0106762D01*
X0201000Y0107360D02*
X0193866Y0107360D01*
X0194464Y0107959D02*
X0201000Y0107959D01*
X0201000Y0108557D02*
X0194967Y0108557D01*
X0195215Y0109156D02*
X0201000Y0109156D01*
X0201000Y0109754D02*
X0195463Y0109754D01*
X0195600Y0110353D02*
X0201000Y0110353D01*
X0201000Y0110951D02*
X0195600Y0110951D01*
X0195600Y0111550D02*
X0201000Y0111550D01*
X0201000Y0112148D02*
X0195503Y0112148D01*
X0195255Y0112747D02*
X0201000Y0112747D01*
X0201000Y0113345D02*
X0195007Y0113345D01*
X0194561Y0113944D02*
X0201000Y0113944D01*
X0201000Y0114542D02*
X0193963Y0114542D01*
X0193023Y0115141D02*
X0201000Y0115141D01*
X0201000Y0115739D02*
X0188158Y0115739D01*
X0188756Y0115141D02*
X0188977Y0115141D01*
X0188790Y0116937D02*
X0187400Y0116937D01*
X0187400Y0117535D02*
X0187960Y0117535D01*
X0187559Y0116338D02*
X0201000Y0116338D01*
X0201000Y0116937D02*
X0193210Y0116937D01*
X0194040Y0117535D02*
X0201000Y0117535D01*
X0201000Y0118134D02*
X0194639Y0118134D01*
X0195040Y0118732D02*
X0201000Y0118732D01*
X0201000Y0119331D02*
X0195287Y0119331D01*
X0195535Y0119929D02*
X0201000Y0119929D01*
X0201000Y0120528D02*
X0195600Y0120528D01*
X0195600Y0121126D02*
X0201000Y0121126D01*
X0201000Y0121725D02*
X0195600Y0121725D01*
X0195431Y0122323D02*
X0201000Y0122323D01*
X0201000Y0122922D02*
X0195183Y0122922D01*
X0194935Y0123520D02*
X0201000Y0123520D01*
X0201000Y0124119D02*
X0194387Y0124119D01*
X0193788Y0124717D02*
X0201000Y0124717D01*
X0201000Y0125316D02*
X0192601Y0125316D01*
X0192187Y0126513D02*
X0201000Y0126513D01*
X0201000Y0127111D02*
X0193617Y0127111D01*
X0194215Y0127710D02*
X0201000Y0127710D01*
X0201000Y0128308D02*
X0194814Y0128308D01*
X0195112Y0128907D02*
X0201000Y0128907D01*
X0201000Y0129505D02*
X0195360Y0129505D01*
X0195600Y0130104D02*
X0201000Y0130104D01*
X0201000Y0130702D02*
X0195600Y0130702D01*
X0195600Y0131301D02*
X0201000Y0131301D01*
X0201000Y0131899D02*
X0195600Y0131899D01*
X0195359Y0132498D02*
X0201000Y0132498D01*
X0201000Y0133096D02*
X0195111Y0133096D01*
X0194811Y0133695D02*
X0201000Y0133695D01*
X0201000Y0134293D02*
X0194212Y0134293D01*
X0193614Y0134892D02*
X0201000Y0134892D01*
X0201000Y0135490D02*
X0194187Y0135490D01*
X0194786Y0136089D02*
X0201000Y0136089D01*
X0201000Y0136687D02*
X0195384Y0136687D01*
X0195983Y0137286D02*
X0201000Y0137286D01*
X0201000Y0137884D02*
X0196581Y0137884D01*
X0197000Y0138483D02*
X0201000Y0138483D01*
X0201000Y0139081D02*
X0197000Y0139081D01*
X0197000Y0139680D02*
X0201000Y0139680D01*
X0201000Y0140278D02*
X0197000Y0140278D01*
X0197000Y0140877D02*
X0201000Y0140877D01*
X0201000Y0141475D02*
X0197000Y0141475D01*
X0197000Y0142074D02*
X0201000Y0142074D01*
X0201000Y0142672D02*
X0197000Y0142672D01*
X0197000Y0143271D02*
X0201000Y0143271D01*
X0201000Y0143870D02*
X0197000Y0143870D01*
X0197000Y0144468D02*
X0201000Y0144468D01*
X0201000Y0145067D02*
X0197000Y0145067D01*
X0197000Y0145665D02*
X0201000Y0145665D01*
X0201000Y0146264D02*
X0197000Y0146264D01*
X0197000Y0146862D02*
X0201000Y0146862D01*
X0201000Y0147461D02*
X0197000Y0147461D01*
X0197000Y0148059D02*
X0201000Y0148059D01*
X0201000Y0148658D02*
X0197000Y0148658D01*
X0197000Y0149256D02*
X0201000Y0149256D01*
X0201000Y0149855D02*
X0197000Y0149855D01*
X0197000Y0150453D02*
X0201000Y0150453D01*
X0201000Y0151052D02*
X0197000Y0151052D01*
X0197000Y0151650D02*
X0201000Y0151650D01*
X0201000Y0152249D02*
X0197000Y0152249D01*
X0197000Y0152847D02*
X0201000Y0152847D01*
X0201000Y0153446D02*
X0197000Y0153446D01*
X0197000Y0154044D02*
X0201000Y0154044D01*
X0201000Y0154643D02*
X0197000Y0154643D01*
X0197000Y0155241D02*
X0201000Y0155241D01*
X0201000Y0155840D02*
X0197000Y0155840D01*
X0197000Y0156438D02*
X0201000Y0156438D01*
X0201000Y0157037D02*
X0197000Y0157037D01*
X0197000Y0157635D02*
X0201000Y0157635D01*
X0201000Y0158234D02*
X0197000Y0158234D01*
X0197000Y0158832D02*
X0201000Y0158832D01*
X0201000Y0159431D02*
X0197000Y0159431D01*
X0197000Y0160029D02*
X0201000Y0160029D01*
X0201000Y0160628D02*
X0197000Y0160628D01*
X0197000Y0161226D02*
X0201000Y0161226D01*
X0201000Y0161825D02*
X0197000Y0161825D01*
X0197000Y0162423D02*
X0201000Y0162423D01*
X0201000Y0163022D02*
X0197000Y0163022D01*
X0197000Y0163620D02*
X0201000Y0163620D01*
X0201000Y0164219D02*
X0197000Y0164219D01*
X0197000Y0164817D02*
X0201000Y0164817D01*
X0201000Y0165416D02*
X0197000Y0165416D01*
X0197000Y0166014D02*
X0201000Y0166014D01*
X0201000Y0166613D02*
X0197000Y0166613D01*
X0197000Y0167211D02*
X0201000Y0167211D01*
X0201000Y0167810D02*
X0197000Y0167810D01*
X0197000Y0168408D02*
X0201000Y0168408D01*
X0201000Y0169007D02*
X0197000Y0169007D01*
X0197000Y0169605D02*
X0201000Y0169605D01*
X0201000Y0170204D02*
X0197000Y0170204D01*
X0197000Y0170803D02*
X0201000Y0170803D01*
X0201000Y0171401D02*
X0197000Y0171401D01*
X0197000Y0172000D02*
X0201000Y0172000D01*
X0201000Y0172598D02*
X0197000Y0172598D01*
X0197000Y0173197D02*
X0201000Y0173197D01*
X0201000Y0173795D02*
X0197000Y0173795D01*
X0197000Y0174394D02*
X0201000Y0174394D01*
X0201000Y0174992D02*
X0197000Y0174992D01*
X0197000Y0175591D02*
X0201000Y0175591D01*
X0201000Y0176189D02*
X0197000Y0176189D01*
X0197000Y0176788D02*
X0201000Y0176788D01*
X0201000Y0177386D02*
X0197000Y0177386D01*
X0197000Y0177985D02*
X0201000Y0177985D01*
X0201000Y0178583D02*
X0197000Y0178583D01*
X0197000Y0179182D02*
X0201000Y0179182D01*
X0201000Y0179780D02*
X0197000Y0179780D01*
X0197000Y0180379D02*
X0201000Y0180379D01*
X0201000Y0180977D02*
X0197000Y0180977D01*
X0197000Y0181576D02*
X0201000Y0181576D01*
X0201000Y0182174D02*
X0197000Y0182174D01*
X0197000Y0182773D02*
X0201000Y0182773D01*
X0201000Y0183371D02*
X0197000Y0183371D01*
X0197000Y0183970D02*
X0201000Y0183970D01*
X0201000Y0184568D02*
X0197000Y0184568D01*
X0197000Y0185167D02*
X0201000Y0185167D01*
X0201000Y0185765D02*
X0197000Y0185765D01*
X0197000Y0186364D02*
X0201000Y0186364D01*
X0201000Y0186962D02*
X0197000Y0186962D01*
X0197000Y0187561D02*
X0201000Y0187561D01*
X0201000Y0188159D02*
X0197000Y0188159D01*
X0197000Y0188758D02*
X0201000Y0188758D01*
X0201000Y0189356D02*
X0197000Y0189356D01*
X0197000Y0189955D02*
X0201000Y0189955D01*
X0201000Y0190553D02*
X0197000Y0190553D01*
X0197000Y0191152D02*
X0201000Y0191152D01*
X0201000Y0191750D02*
X0197000Y0191750D01*
X0197000Y0192349D02*
X0201000Y0192349D01*
X0201000Y0192947D02*
X0197000Y0192947D01*
X0197000Y0193546D02*
X0201000Y0193546D01*
X0201000Y0194144D02*
X0197000Y0194144D01*
X0197000Y0194743D02*
X0201000Y0194743D01*
X0201000Y0195341D02*
X0197000Y0195341D01*
X0197000Y0195940D02*
X0201000Y0195940D01*
X0201000Y0196539D02*
X0196759Y0196539D01*
X0196160Y0197137D02*
X0201000Y0197137D01*
X0201000Y0197736D02*
X0195562Y0197736D01*
X0194963Y0198334D02*
X0201000Y0198334D01*
X0201000Y0198933D02*
X0195123Y0198933D01*
X0195371Y0199531D02*
X0201000Y0199531D01*
X0201000Y0200130D02*
X0195600Y0200130D01*
X0195600Y0200728D02*
X0201000Y0200728D01*
X0201000Y0201327D02*
X0195600Y0201327D01*
X0195596Y0201925D02*
X0201000Y0201925D01*
X0201000Y0202524D02*
X0195348Y0202524D01*
X0195100Y0203122D02*
X0201000Y0203122D01*
X0201000Y0203721D02*
X0194785Y0203721D01*
X0194186Y0204319D02*
X0201000Y0204319D01*
X0201000Y0204918D02*
X0193562Y0204918D01*
X0192200Y0205516D02*
X0201000Y0205516D01*
X0201000Y0206115D02*
X0192200Y0206115D01*
X0192671Y0206713D02*
X0201000Y0206713D01*
X0201000Y0207312D02*
X0193817Y0207312D01*
X0194416Y0207910D02*
X0201000Y0207910D01*
X0201000Y0208509D02*
X0194947Y0208509D01*
X0195195Y0209107D02*
X0201000Y0209107D01*
X0201000Y0209706D02*
X0195443Y0209706D01*
X0195600Y0210304D02*
X0201000Y0210304D01*
X0201000Y0210903D02*
X0195600Y0210903D01*
X0195600Y0211501D02*
X0201000Y0211501D01*
X0201000Y0212100D02*
X0195523Y0212100D01*
X0195276Y0212698D02*
X0201000Y0212698D01*
X0201000Y0213297D02*
X0195028Y0213297D01*
X0194610Y0213895D02*
X0201000Y0213895D01*
X0201000Y0214494D02*
X0194012Y0214494D01*
X0193141Y0215092D02*
X0201000Y0215092D01*
X0201000Y0215691D02*
X0142743Y0215691D01*
X0142919Y0215634D02*
X0142171Y0215877D01*
X0141394Y0216000D01*
X0141300Y0216000D01*
X0141300Y0211300D01*
X0146000Y0211300D01*
X0146000Y0211394D01*
X0145877Y0212171D01*
X0145634Y0212919D01*
X0145276Y0213621D01*
X0144814Y0214257D01*
X0144257Y0214814D01*
X0143621Y0215276D01*
X0142919Y0215634D01*
X0143874Y0215092D02*
X0148859Y0215092D01*
X0147988Y0214494D02*
X0144577Y0214494D01*
X0145077Y0213895D02*
X0147390Y0213895D01*
X0146972Y0213297D02*
X0145441Y0213297D01*
X0145705Y0212698D02*
X0146724Y0212698D01*
X0146477Y0212100D02*
X0145888Y0212100D01*
X0145983Y0211501D02*
X0146400Y0211501D01*
X0146400Y0210903D02*
X0141300Y0210903D01*
X0141300Y0211501D02*
X0140700Y0211501D01*
X0140700Y0210903D02*
X0131300Y0210903D01*
X0131300Y0211501D02*
X0130700Y0211501D01*
X0130700Y0210903D02*
X0036333Y0210903D01*
X0036649Y0210304D02*
X0126048Y0210304D01*
X0126000Y0210606D02*
X0126123Y0209829D01*
X0126366Y0209081D01*
X0126724Y0208379D01*
X0127186Y0207743D01*
X0127743Y0207186D01*
X0128379Y0206724D01*
X0129081Y0206366D01*
X0129829Y0206123D01*
X0130606Y0206000D01*
X0130700Y0206000D01*
X0130700Y0210700D01*
X0126000Y0210700D01*
X0126000Y0210606D01*
X0126017Y0211501D02*
X0035987Y0211501D01*
X0035642Y0212100D02*
X0126112Y0212100D01*
X0126295Y0212698D02*
X0035296Y0212698D01*
X0034825Y0213297D02*
X0126559Y0213297D01*
X0126923Y0213895D02*
X0034227Y0213895D01*
X0033628Y0214494D02*
X0127423Y0214494D01*
X0128126Y0215092D02*
X0033030Y0215092D01*
X0032015Y0215691D02*
X0129257Y0215691D01*
X0130700Y0215691D02*
X0131300Y0215691D01*
X0131300Y0215092D02*
X0130700Y0215092D01*
X0130700Y0214494D02*
X0131300Y0214494D01*
X0131300Y0213895D02*
X0130700Y0213895D01*
X0130700Y0213297D02*
X0131300Y0213297D01*
X0131300Y0212698D02*
X0130700Y0212698D01*
X0130700Y0212100D02*
X0131300Y0212100D01*
X0131300Y0210304D02*
X0130700Y0210304D01*
X0130700Y0209706D02*
X0131300Y0209706D01*
X0131300Y0209107D02*
X0130700Y0209107D01*
X0130700Y0208509D02*
X0131300Y0208509D01*
X0131300Y0207910D02*
X0130700Y0207910D01*
X0130700Y0207312D02*
X0131300Y0207312D01*
X0131300Y0206713D02*
X0130700Y0206713D01*
X0130700Y0206115D02*
X0131300Y0206115D01*
X0132118Y0206115D02*
X0133018Y0206115D01*
X0133600Y0206713D02*
X0133616Y0206713D01*
X0134271Y0207200D02*
X0134814Y0207743D01*
X0135276Y0208379D01*
X0135634Y0209081D01*
X0135877Y0209829D01*
X0136000Y0210606D01*
X0136123Y0209829D01*
X0136366Y0209081D01*
X0136724Y0208379D01*
X0137186Y0207743D01*
X0137729Y0207200D01*
X0134271Y0207200D01*
X0134383Y0207312D02*
X0137617Y0207312D01*
X0137064Y0207910D02*
X0134935Y0207910D01*
X0135342Y0208509D02*
X0136658Y0208509D01*
X0136358Y0209107D02*
X0135642Y0209107D01*
X0135837Y0209706D02*
X0136163Y0209706D01*
X0136048Y0210304D02*
X0135952Y0210304D01*
X0135983Y0211501D02*
X0136017Y0211501D01*
X0136112Y0212100D02*
X0135888Y0212100D01*
X0135705Y0212698D02*
X0136295Y0212698D01*
X0136559Y0213297D02*
X0135441Y0213297D01*
X0135077Y0213895D02*
X0136923Y0213895D01*
X0137423Y0214494D02*
X0134577Y0214494D01*
X0133874Y0215092D02*
X0138126Y0215092D01*
X0139257Y0215691D02*
X0132743Y0215691D01*
X0140700Y0215691D02*
X0141300Y0215691D01*
X0141300Y0215092D02*
X0140700Y0215092D01*
X0140700Y0214494D02*
X0141300Y0214494D01*
X0141300Y0213895D02*
X0140700Y0213895D01*
X0140700Y0213297D02*
X0141300Y0213297D01*
X0141300Y0212698D02*
X0140700Y0212698D01*
X0140700Y0212100D02*
X0141300Y0212100D01*
X0145952Y0210304D02*
X0146400Y0210304D01*
X0146557Y0209706D02*
X0145837Y0209706D01*
X0145642Y0209107D02*
X0146805Y0209107D01*
X0147053Y0208509D02*
X0145342Y0208509D01*
X0144935Y0207910D02*
X0147584Y0207910D01*
X0148183Y0207312D02*
X0144383Y0207312D01*
X0148170Y0201327D02*
X0162957Y0201327D01*
X0162500Y0200728D02*
X0148769Y0200728D01*
X0147170Y0198933D02*
X0143796Y0198933D01*
X0143796Y0198334D02*
X0147769Y0198334D01*
X0148367Y0197736D02*
X0143796Y0197736D01*
X0143796Y0197137D02*
X0148604Y0197137D01*
X0148604Y0196539D02*
X0143796Y0196539D01*
X0143796Y0195341D02*
X0148604Y0195341D01*
X0148604Y0194743D02*
X0143796Y0194743D01*
X0143796Y0194144D02*
X0148604Y0194144D01*
X0148604Y0193546D02*
X0143796Y0193546D01*
X0143796Y0192947D02*
X0148604Y0192947D01*
X0148604Y0192349D02*
X0143796Y0192349D01*
X0143612Y0191750D02*
X0148898Y0191750D01*
X0148604Y0195940D02*
X0140788Y0195940D01*
X0140788Y0195341D02*
X0140188Y0195341D01*
X0140188Y0194743D02*
X0140788Y0194743D01*
X0140788Y0194144D02*
X0140188Y0194144D01*
X0140188Y0193546D02*
X0140788Y0193546D01*
X0140788Y0192947D02*
X0140188Y0192947D01*
X0140188Y0192349D02*
X0140788Y0192349D01*
X0140788Y0191750D02*
X0140188Y0191750D01*
X0140188Y0191152D02*
X0140788Y0191152D01*
X0142796Y0191152D02*
X0165455Y0191152D01*
X0166053Y0191750D02*
X0163102Y0191750D01*
X0164856Y0190553D02*
X0128650Y0190553D01*
X0128052Y0189955D02*
X0164258Y0189955D01*
X0163659Y0189356D02*
X0127453Y0189356D01*
X0126855Y0188758D02*
X0163061Y0188758D01*
X0162462Y0188159D02*
X0126256Y0188159D01*
X0125658Y0187561D02*
X0161864Y0187561D01*
X0161265Y0186962D02*
X0125059Y0186962D01*
X0124461Y0186364D02*
X0160667Y0186364D01*
X0160068Y0185765D02*
X0123862Y0185765D01*
X0123264Y0185167D02*
X0159470Y0185167D01*
X0158871Y0184568D02*
X0122665Y0184568D01*
X0122067Y0183970D02*
X0158273Y0183970D01*
X0157674Y0183371D02*
X0121468Y0183371D01*
X0120870Y0182773D02*
X0157076Y0182773D01*
X0156477Y0182174D02*
X0120271Y0182174D01*
X0120583Y0181576D02*
X0153543Y0181576D01*
X0154400Y0182000D02*
X0154400Y0177800D01*
X0154780Y0177496D01*
X0154400Y0177200D01*
X0154400Y0140600D01*
X0128000Y0140600D01*
X0119000Y0149600D01*
X0110000Y0149600D01*
X0109504Y0149937D01*
X0113757Y0149937D01*
X0109504Y0149937D01*
X0109504Y0149937D01*
X0105251Y0149937D01*
X0105251Y0149177D01*
X0105340Y0148847D01*
X0105511Y0148550D01*
X0105651Y0148410D01*
X0105651Y0147007D01*
X0105674Y0146984D01*
X0105651Y0146961D01*
X0105651Y0145039D01*
X0105674Y0145016D01*
X0105651Y0144993D01*
X0105651Y0143600D01*
X0091297Y0143600D01*
X0090800Y0144097D01*
X0090097Y0144800D01*
X0089497Y0144800D01*
X0101497Y0156800D01*
X0105651Y0156800D01*
X0105651Y0154881D01*
X0105674Y0154858D01*
X0105651Y0154835D01*
X0105651Y0152913D01*
X0105674Y0152890D01*
X0105651Y0152867D01*
X0105651Y0151464D01*
X0105511Y0151324D01*
X0105340Y0151027D01*
X0105251Y0150697D01*
X0105251Y0149937D01*
X0109504Y0149937D01*
X0109504Y0149937D01*
X0109504Y0151906D02*
X0110000Y0152000D01*
X0118400Y0152000D01*
X0128600Y0141800D01*
X0129800Y0141800D01*
X0131600Y0143600D01*
X0131600Y0159800D01*
X0117200Y0174200D01*
X0117200Y0177200D01*
X0117378Y0177496D01*
X0114200Y0177386D02*
X0089280Y0177386D01*
X0089878Y0177985D02*
X0114200Y0177985D01*
X0114200Y0178583D02*
X0090405Y0178583D01*
X0090908Y0179182D02*
X0114200Y0179182D01*
X0114200Y0179780D02*
X0091359Y0179780D01*
X0091778Y0180379D02*
X0114200Y0180379D01*
X0114200Y0180977D02*
X0092172Y0180977D01*
X0092517Y0181576D02*
X0114200Y0181576D01*
X0114200Y0182174D02*
X0092863Y0182174D01*
X0093146Y0182773D02*
X0114200Y0182773D01*
X0114200Y0183371D02*
X0093425Y0183371D01*
X0093678Y0183970D02*
X0114200Y0183970D01*
X0114471Y0184568D02*
X0093896Y0184568D01*
X0094114Y0185167D02*
X0095625Y0185167D01*
X0095625Y0185765D02*
X0094285Y0185765D01*
X0094445Y0186364D02*
X0095625Y0186364D01*
X0095625Y0186962D02*
X0094598Y0186962D01*
X0094703Y0187561D02*
X0095625Y0187561D01*
X0095625Y0188159D02*
X0094809Y0188159D01*
X0094893Y0188758D02*
X0095625Y0188758D01*
X0095625Y0189356D02*
X0094945Y0189356D01*
X0094998Y0189955D02*
X0095625Y0189955D01*
X0095625Y0190553D02*
X0095017Y0190553D01*
X0090653Y0203122D02*
X0130025Y0203122D01*
X0130624Y0203721D02*
X0090150Y0203721D01*
X0089574Y0204319D02*
X0131222Y0204319D01*
X0131821Y0204918D02*
X0088976Y0204918D01*
X0088285Y0205516D02*
X0132419Y0205516D01*
X0134600Y0206000D02*
X0165800Y0206000D01*
X0170600Y0210800D01*
X0171000Y0211000D01*
X0166724Y0212698D02*
X0165276Y0212698D01*
X0165523Y0212100D02*
X0166477Y0212100D01*
X0166400Y0211501D02*
X0165600Y0211501D01*
X0165600Y0210903D02*
X0166400Y0210903D01*
X0166400Y0210304D02*
X0165600Y0210304D01*
X0165443Y0209706D02*
X0166557Y0209706D01*
X0166805Y0209107D02*
X0165195Y0209107D01*
X0164947Y0208509D02*
X0166612Y0208509D01*
X0166013Y0207910D02*
X0164416Y0207910D01*
X0163817Y0207312D02*
X0165415Y0207312D01*
X0165028Y0213297D02*
X0166972Y0213297D01*
X0167390Y0213895D02*
X0164610Y0213895D01*
X0164012Y0214494D02*
X0167988Y0214494D01*
X0168859Y0215092D02*
X0163141Y0215092D01*
X0158859Y0215092D02*
X0153141Y0215092D01*
X0154012Y0214494D02*
X0157988Y0214494D01*
X0157390Y0213895D02*
X0154610Y0213895D01*
X0155028Y0213297D02*
X0156972Y0213297D01*
X0156724Y0212698D02*
X0155276Y0212698D01*
X0155523Y0212100D02*
X0156477Y0212100D01*
X0156400Y0211501D02*
X0155600Y0211501D01*
X0155600Y0210903D02*
X0156400Y0210903D01*
X0156400Y0210304D02*
X0155600Y0210304D01*
X0155443Y0209706D02*
X0156557Y0209706D01*
X0156805Y0209107D02*
X0155195Y0209107D01*
X0154947Y0208509D02*
X0157053Y0208509D01*
X0157584Y0207910D02*
X0154416Y0207910D01*
X0153817Y0207312D02*
X0158183Y0207312D01*
X0157754Y0200130D02*
X0154246Y0200130D01*
X0154420Y0199531D02*
X0157580Y0199531D01*
X0157580Y0198933D02*
X0154420Y0198933D01*
X0154420Y0198334D02*
X0157580Y0198334D01*
X0157580Y0197736D02*
X0154420Y0197736D01*
X0154420Y0194743D02*
X0157580Y0194743D01*
X0157580Y0194144D02*
X0154420Y0194144D01*
X0154420Y0193546D02*
X0157580Y0193546D01*
X0157580Y0192947D02*
X0154420Y0192947D01*
X0154420Y0192349D02*
X0157580Y0192349D01*
X0157874Y0191750D02*
X0154126Y0191750D01*
X0161667Y0183970D02*
X0182273Y0183970D01*
X0182871Y0184568D02*
X0162265Y0184568D01*
X0162864Y0185167D02*
X0183470Y0185167D01*
X0184068Y0185765D02*
X0163462Y0185765D01*
X0164061Y0186364D02*
X0184667Y0186364D01*
X0185265Y0186962D02*
X0164659Y0186962D01*
X0165258Y0187561D02*
X0185864Y0187561D01*
X0186462Y0188159D02*
X0165856Y0188159D01*
X0166455Y0188758D02*
X0186950Y0188758D01*
X0186702Y0189356D02*
X0167053Y0189356D01*
X0167000Y0191000D02*
X0156800Y0180800D01*
X0156800Y0177800D01*
X0156748Y0177496D01*
X0154780Y0177386D02*
X0154779Y0177386D01*
X0154779Y0176788D02*
X0154780Y0176788D01*
X0154779Y0176189D02*
X0154780Y0176189D01*
X0154779Y0175591D02*
X0154780Y0175591D01*
X0154779Y0174992D02*
X0154780Y0174992D01*
X0154779Y0174394D02*
X0154780Y0174394D01*
X0154779Y0173795D02*
X0154780Y0173795D01*
X0154779Y0177985D02*
X0154780Y0177985D01*
X0154779Y0178583D02*
X0154780Y0178583D01*
X0154779Y0179182D02*
X0154780Y0179182D01*
X0154779Y0179780D02*
X0154780Y0179780D01*
X0154779Y0180379D02*
X0154780Y0180379D01*
X0154779Y0180977D02*
X0154780Y0180977D01*
X0154779Y0181576D02*
X0154780Y0181576D01*
X0159273Y0181576D02*
X0179879Y0181576D01*
X0180477Y0182174D02*
X0159871Y0182174D01*
X0160470Y0182773D02*
X0181076Y0182773D01*
X0181674Y0183371D02*
X0161068Y0183371D01*
X0165955Y0180977D02*
X0179280Y0180977D01*
X0178682Y0180379D02*
X0166111Y0180379D01*
X0166111Y0179780D02*
X0178083Y0179780D01*
X0177485Y0179182D02*
X0166111Y0179182D01*
X0166111Y0178583D02*
X0176886Y0178583D01*
X0176288Y0177985D02*
X0166111Y0177985D01*
X0166111Y0177386D02*
X0175689Y0177386D01*
X0175091Y0176788D02*
X0166111Y0176788D01*
X0166111Y0176189D02*
X0174492Y0176189D01*
X0173894Y0175591D02*
X0166111Y0175591D01*
X0166111Y0174992D02*
X0173295Y0174992D01*
X0172697Y0174394D02*
X0166111Y0174394D01*
X0165735Y0173795D02*
X0172098Y0173795D01*
X0171800Y0173197D02*
X0119900Y0173197D01*
X0120499Y0172598D02*
X0171800Y0172598D01*
X0171800Y0172000D02*
X0121097Y0172000D01*
X0121696Y0171401D02*
X0171800Y0171401D01*
X0173000Y0170000D02*
X0172496Y0169622D01*
X0173000Y0170000D02*
X0173000Y0173000D01*
X0191000Y0191000D01*
X0187639Y0194144D02*
X0186241Y0194144D01*
X0185643Y0193546D02*
X0187076Y0193546D01*
X0186828Y0192947D02*
X0185044Y0192947D01*
X0184446Y0192349D02*
X0186580Y0192349D01*
X0186400Y0191750D02*
X0183847Y0191750D01*
X0183249Y0191152D02*
X0186400Y0191152D01*
X0186400Y0190553D02*
X0182650Y0190553D01*
X0182052Y0189955D02*
X0186454Y0189955D01*
X0186840Y0194743D02*
X0188238Y0194743D01*
X0187439Y0195341D02*
X0189461Y0195341D01*
X0189751Y0196539D02*
X0188636Y0196539D01*
X0188037Y0195940D02*
X0193963Y0195940D01*
X0194561Y0195341D02*
X0192539Y0195341D01*
X0192249Y0196539D02*
X0193364Y0196539D01*
X0193762Y0194743D02*
X0194600Y0194743D01*
X0194600Y0194144D02*
X0194361Y0194144D01*
X0195800Y0195800D02*
X0191000Y0200600D01*
X0195800Y0195800D02*
X0195800Y0138800D01*
X0193400Y0136400D01*
X0188600Y0136400D01*
X0183200Y0141800D01*
X0173000Y0141800D01*
X0172496Y0142063D01*
X0172496Y0144031D02*
X0172496Y0144032D01*
X0176749Y0144032D01*
X0176749Y0144791D01*
X0176660Y0145122D01*
X0176489Y0145418D01*
X0176349Y0145559D01*
X0176349Y0146961D01*
X0176326Y0146984D01*
X0176349Y0147007D01*
X0176349Y0148930D01*
X0176326Y0148953D01*
X0176349Y0148976D01*
X0176349Y0150898D01*
X0176326Y0150921D01*
X0176349Y0150944D01*
X0176349Y0152867D01*
X0176326Y0152890D01*
X0176349Y0152913D01*
X0176349Y0154835D01*
X0176326Y0154858D01*
X0176349Y0154881D01*
X0176349Y0156804D01*
X0176326Y0156827D01*
X0176349Y0156850D01*
X0176349Y0157754D01*
X0185000Y0149103D01*
X0185000Y0145503D01*
X0187041Y0143462D01*
X0186400Y0141915D01*
X0186400Y0140297D01*
X0183697Y0143000D01*
X0182703Y0143000D01*
X0176676Y0143000D01*
X0176749Y0143272D01*
X0176749Y0144031D01*
X0172496Y0144031D01*
X0172400Y0144200D01*
X0169400Y0144200D01*
X0165800Y0140600D01*
X0154400Y0140600D01*
X0165531Y0131301D02*
X0116000Y0131301D01*
X0116000Y0131899D02*
X0166129Y0131899D01*
X0166728Y0132498D02*
X0116000Y0132498D01*
X0116000Y0133096D02*
X0168599Y0133096D01*
X0168643Y0133695D02*
X0116000Y0133695D01*
X0116000Y0134293D02*
X0168643Y0134293D01*
X0168643Y0134892D02*
X0116000Y0134892D01*
X0116000Y0135490D02*
X0168643Y0135490D01*
X0168643Y0136089D02*
X0116000Y0136089D01*
X0115610Y0136687D02*
X0168643Y0136687D01*
X0168643Y0137286D02*
X0115011Y0137286D01*
X0114413Y0137884D02*
X0168643Y0137884D01*
X0168643Y0138483D02*
X0113814Y0138483D01*
X0113357Y0139081D02*
X0168643Y0139081D01*
X0168643Y0139680D02*
X0113357Y0139680D01*
X0113357Y0140278D02*
X0168643Y0140278D01*
X0168643Y0140877D02*
X0130574Y0140877D01*
X0131173Y0141475D02*
X0168643Y0141475D01*
X0168643Y0142074D02*
X0131771Y0142074D01*
X0132370Y0142672D02*
X0168487Y0142672D01*
X0168244Y0143271D02*
X0132800Y0143271D01*
X0132800Y0143870D02*
X0168243Y0143870D01*
X0168243Y0144468D02*
X0132800Y0144468D01*
X0132800Y0145067D02*
X0168317Y0145067D01*
X0168643Y0145665D02*
X0132800Y0145665D01*
X0132800Y0146264D02*
X0168643Y0146264D01*
X0168643Y0146862D02*
X0132800Y0146862D01*
X0132800Y0147461D02*
X0168643Y0147461D01*
X0168643Y0148059D02*
X0132800Y0148059D01*
X0132800Y0148658D02*
X0168643Y0148658D01*
X0168643Y0149256D02*
X0132800Y0149256D01*
X0132800Y0149855D02*
X0168643Y0149855D01*
X0168643Y0150453D02*
X0132800Y0150453D01*
X0132800Y0151052D02*
X0168643Y0151052D01*
X0168643Y0151650D02*
X0132800Y0151650D01*
X0132800Y0152249D02*
X0168643Y0152249D01*
X0168643Y0152847D02*
X0132800Y0152847D01*
X0132800Y0153446D02*
X0168643Y0153446D01*
X0168643Y0154044D02*
X0132800Y0154044D01*
X0132800Y0154643D02*
X0168643Y0154643D01*
X0168643Y0155241D02*
X0132800Y0155241D01*
X0132800Y0155840D02*
X0168643Y0155840D01*
X0168643Y0156438D02*
X0132800Y0156438D01*
X0132800Y0157037D02*
X0168643Y0157037D01*
X0168643Y0157635D02*
X0132800Y0157635D01*
X0132800Y0158234D02*
X0168643Y0158234D01*
X0168643Y0158832D02*
X0132800Y0158832D01*
X0132800Y0159431D02*
X0168643Y0159431D01*
X0168643Y0160029D02*
X0132800Y0160029D01*
X0132469Y0160628D02*
X0168643Y0160628D01*
X0168643Y0161226D02*
X0131871Y0161226D01*
X0131272Y0161825D02*
X0168643Y0161825D01*
X0168643Y0162423D02*
X0130674Y0162423D01*
X0130075Y0163022D02*
X0168643Y0163022D01*
X0168643Y0163620D02*
X0129477Y0163620D01*
X0128878Y0164219D02*
X0168643Y0164219D01*
X0168643Y0164817D02*
X0128280Y0164817D01*
X0127681Y0165416D02*
X0168643Y0165416D01*
X0168643Y0166014D02*
X0127083Y0166014D01*
X0126484Y0166613D02*
X0168643Y0166613D01*
X0168643Y0167211D02*
X0125886Y0167211D01*
X0125287Y0167810D02*
X0168643Y0167810D01*
X0168643Y0168408D02*
X0124689Y0168408D01*
X0124090Y0169007D02*
X0168643Y0169007D01*
X0168643Y0169605D02*
X0123492Y0169605D01*
X0122893Y0170204D02*
X0168643Y0170204D01*
X0168862Y0170803D02*
X0122295Y0170803D01*
X0117800Y0170600D02*
X0113000Y0165800D01*
X0110000Y0165800D01*
X0109504Y0165685D01*
X0109504Y0167654D02*
X0110000Y0167600D01*
X0112400Y0167600D01*
X0115400Y0170600D01*
X0115400Y0183800D01*
X0128600Y0197000D01*
X0128600Y0200000D01*
X0134600Y0206000D01*
X0129882Y0206115D02*
X0087568Y0206115D01*
X0086714Y0206713D02*
X0128400Y0206713D01*
X0127617Y0207312D02*
X0085780Y0207312D01*
X0084733Y0207910D02*
X0127064Y0207910D01*
X0126658Y0208509D02*
X0083449Y0208509D01*
X0081851Y0209107D02*
X0126358Y0209107D01*
X0126163Y0209706D02*
X0079426Y0209706D01*
X0076300Y0209706D02*
X0075700Y0209706D01*
X0075700Y0209107D02*
X0076300Y0209107D01*
X0076300Y0208509D02*
X0075700Y0208509D01*
X0075700Y0207910D02*
X0076300Y0207910D01*
X0076300Y0207312D02*
X0075700Y0207312D01*
X0075700Y0206713D02*
X0076300Y0206713D01*
X0076300Y0206115D02*
X0075700Y0206115D01*
X0075700Y0205516D02*
X0076300Y0205516D01*
X0076300Y0204918D02*
X0075700Y0204918D01*
X0075700Y0204319D02*
X0076300Y0204319D01*
X0076300Y0203721D02*
X0075700Y0203721D01*
X0075700Y0203122D02*
X0076300Y0203122D01*
X0076300Y0202524D02*
X0075700Y0202524D01*
X0075700Y0201925D02*
X0076300Y0201925D01*
X0076300Y0201327D02*
X0075700Y0201327D01*
X0075700Y0200728D02*
X0076300Y0200728D01*
X0076300Y0200130D02*
X0075700Y0200130D01*
X0075700Y0199531D02*
X0076300Y0199531D01*
X0076300Y0198933D02*
X0075700Y0198933D01*
X0075700Y0198334D02*
X0076300Y0198334D01*
X0076300Y0197736D02*
X0075700Y0197736D01*
X0075700Y0197137D02*
X0076300Y0197137D01*
X0076300Y0196539D02*
X0075700Y0196539D01*
X0075700Y0195940D02*
X0076300Y0195940D01*
X0076300Y0195341D02*
X0075700Y0195341D01*
X0075700Y0194743D02*
X0076300Y0194743D01*
X0076300Y0194144D02*
X0075700Y0194144D01*
X0075700Y0193546D02*
X0076300Y0193546D01*
X0076300Y0192947D02*
X0075700Y0192947D01*
X0075700Y0192349D02*
X0076300Y0192349D01*
X0076300Y0191750D02*
X0075700Y0191750D01*
X0075700Y0189955D02*
X0076300Y0189955D01*
X0076300Y0189356D02*
X0075700Y0189356D01*
X0075700Y0188758D02*
X0076300Y0188758D01*
X0076300Y0188159D02*
X0075700Y0188159D01*
X0075700Y0187561D02*
X0076300Y0187561D01*
X0076300Y0186962D02*
X0075700Y0186962D01*
X0075700Y0186364D02*
X0076300Y0186364D01*
X0076300Y0185765D02*
X0075700Y0185765D01*
X0075700Y0185167D02*
X0076300Y0185167D01*
X0076300Y0184568D02*
X0075700Y0184568D01*
X0075700Y0183970D02*
X0076300Y0183970D01*
X0076300Y0183371D02*
X0075700Y0183371D01*
X0075700Y0182773D02*
X0076300Y0182773D01*
X0076300Y0182174D02*
X0075700Y0182174D01*
X0075700Y0181576D02*
X0076300Y0181576D01*
X0076300Y0180977D02*
X0075700Y0180977D01*
X0075700Y0180379D02*
X0076300Y0180379D01*
X0076300Y0179780D02*
X0075700Y0179780D01*
X0075700Y0179182D02*
X0076300Y0179182D01*
X0076300Y0178583D02*
X0075700Y0178583D01*
X0075700Y0177985D02*
X0076300Y0177985D01*
X0076300Y0177386D02*
X0075700Y0177386D01*
X0075700Y0176788D02*
X0076300Y0176788D01*
X0076300Y0176189D02*
X0075700Y0176189D01*
X0075700Y0175591D02*
X0076300Y0175591D01*
X0076300Y0174992D02*
X0075700Y0174992D01*
X0075700Y0174394D02*
X0076300Y0174394D01*
X0076300Y0173795D02*
X0075700Y0173795D01*
X0075700Y0173197D02*
X0076300Y0173197D01*
X0076300Y0172598D02*
X0075700Y0172598D01*
X0075700Y0172000D02*
X0076300Y0172000D01*
X0077014Y0172000D02*
X0114200Y0172000D01*
X0114200Y0172598D02*
X0080797Y0172598D01*
X0082686Y0173197D02*
X0114200Y0173197D01*
X0114200Y0173795D02*
X0084101Y0173795D01*
X0085270Y0174394D02*
X0114200Y0174394D01*
X0114200Y0174992D02*
X0086293Y0174992D01*
X0087147Y0175591D02*
X0114200Y0175591D01*
X0114200Y0176189D02*
X0087934Y0176189D01*
X0088647Y0176788D02*
X0114200Y0176788D01*
X0114200Y0171401D02*
X0011000Y0171401D01*
X0011000Y0170803D02*
X0105870Y0170803D01*
X0109400Y0169400D02*
X0109504Y0169622D01*
X0109400Y0169400D02*
X0076400Y0169400D01*
X0045200Y0138200D01*
X0028400Y0138200D01*
X0021200Y0131000D01*
X0021000Y0131000D01*
X0017785Y0127710D02*
X0011000Y0127710D01*
X0011000Y0128308D02*
X0017186Y0128308D01*
X0016888Y0128907D02*
X0011000Y0128907D01*
X0011000Y0129505D02*
X0016640Y0129505D01*
X0016400Y0130104D02*
X0011000Y0130104D01*
X0011000Y0130702D02*
X0016400Y0130702D01*
X0016400Y0131301D02*
X0011000Y0131301D01*
X0011000Y0131899D02*
X0016400Y0131899D01*
X0016641Y0132498D02*
X0011000Y0132498D01*
X0011000Y0133096D02*
X0016889Y0133096D01*
X0017189Y0133695D02*
X0011000Y0133695D01*
X0011000Y0134293D02*
X0017788Y0134293D01*
X0018386Y0134892D02*
X0011000Y0134892D01*
X0011000Y0135490D02*
X0019820Y0135490D01*
X0017064Y0138483D02*
X0011000Y0138483D01*
X0011000Y0139081D02*
X0016816Y0139081D01*
X0016568Y0139680D02*
X0011000Y0139680D01*
X0011000Y0140278D02*
X0016400Y0140278D01*
X0016400Y0140877D02*
X0011000Y0140877D01*
X0011000Y0141475D02*
X0016400Y0141475D01*
X0016466Y0142074D02*
X0011000Y0142074D01*
X0011000Y0142672D02*
X0016714Y0142672D01*
X0016962Y0143271D02*
X0011000Y0143271D01*
X0011000Y0143870D02*
X0017364Y0143870D01*
X0017963Y0144468D02*
X0011000Y0144468D01*
X0011000Y0145067D02*
X0018797Y0145067D01*
X0020000Y0145665D02*
X0011000Y0145665D01*
X0011000Y0146264D02*
X0020000Y0146264D01*
X0018969Y0146862D02*
X0011000Y0146862D01*
X0011000Y0147461D02*
X0018034Y0147461D01*
X0017436Y0148059D02*
X0011000Y0148059D01*
X0011000Y0148658D02*
X0016991Y0148658D01*
X0016743Y0149256D02*
X0011000Y0149256D01*
X0011000Y0149855D02*
X0016495Y0149855D01*
X0016400Y0150453D02*
X0011000Y0150453D01*
X0011000Y0151052D02*
X0016400Y0151052D01*
X0016400Y0151650D02*
X0011000Y0151650D01*
X0011000Y0152249D02*
X0016538Y0152249D01*
X0016786Y0152847D02*
X0011000Y0152847D01*
X0011000Y0153446D02*
X0017034Y0153446D01*
X0017539Y0154044D02*
X0011000Y0154044D01*
X0011000Y0154643D02*
X0018137Y0154643D01*
X0019219Y0155241D02*
X0011000Y0155241D01*
X0011000Y0155840D02*
X0039715Y0155840D01*
X0040700Y0155840D02*
X0041300Y0155840D01*
X0041300Y0155241D02*
X0040700Y0155241D01*
X0040700Y0154643D02*
X0041300Y0154643D01*
X0041300Y0154044D02*
X0040700Y0154044D01*
X0040700Y0153446D02*
X0041300Y0153446D01*
X0041300Y0152847D02*
X0040700Y0152847D01*
X0040700Y0152249D02*
X0041300Y0152249D01*
X0041300Y0151650D02*
X0040700Y0151650D01*
X0040700Y0151052D02*
X0025600Y0151052D01*
X0025600Y0151650D02*
X0036041Y0151650D01*
X0036148Y0152249D02*
X0025462Y0152249D01*
X0025214Y0152847D02*
X0036343Y0152847D01*
X0036635Y0153446D02*
X0024966Y0153446D01*
X0024461Y0154044D02*
X0037031Y0154044D01*
X0037572Y0154643D02*
X0023863Y0154643D01*
X0022781Y0155241D02*
X0038331Y0155241D01*
X0042285Y0155840D02*
X0061143Y0155840D01*
X0061741Y0156438D02*
X0011000Y0156438D01*
X0011000Y0157037D02*
X0062340Y0157037D01*
X0062938Y0157635D02*
X0011000Y0157635D01*
X0011000Y0158234D02*
X0063537Y0158234D01*
X0064135Y0158832D02*
X0011000Y0158832D01*
X0011000Y0159431D02*
X0064734Y0159431D01*
X0065332Y0160029D02*
X0011000Y0160029D01*
X0011000Y0160628D02*
X0065931Y0160628D01*
X0066529Y0161226D02*
X0011000Y0161226D01*
X0011000Y0161825D02*
X0067128Y0161825D01*
X0067726Y0162423D02*
X0011000Y0162423D01*
X0011000Y0163022D02*
X0068325Y0163022D01*
X0068923Y0163620D02*
X0011000Y0163620D01*
X0011000Y0164219D02*
X0069522Y0164219D01*
X0070120Y0164817D02*
X0011000Y0164817D01*
X0011000Y0165416D02*
X0070719Y0165416D01*
X0071317Y0166014D02*
X0011000Y0166014D01*
X0011000Y0166613D02*
X0071916Y0166613D01*
X0072514Y0167211D02*
X0011000Y0167211D01*
X0011000Y0167810D02*
X0073113Y0167810D01*
X0073711Y0168408D02*
X0011000Y0168408D01*
X0011000Y0169007D02*
X0074310Y0169007D01*
X0074908Y0169605D02*
X0011000Y0169605D01*
X0011000Y0170204D02*
X0075507Y0170204D01*
X0074986Y0172000D02*
X0011000Y0172000D01*
X0011000Y0172598D02*
X0071203Y0172598D01*
X0069314Y0173197D02*
X0011000Y0173197D01*
X0011000Y0173795D02*
X0067899Y0173795D01*
X0066730Y0174394D02*
X0011000Y0174394D01*
X0011000Y0174992D02*
X0065707Y0174992D01*
X0064853Y0175591D02*
X0011000Y0175591D01*
X0011000Y0176189D02*
X0064066Y0176189D01*
X0063353Y0176788D02*
X0011000Y0176788D01*
X0011000Y0177386D02*
X0062720Y0177386D01*
X0062122Y0177985D02*
X0011000Y0177985D01*
X0011000Y0178583D02*
X0061595Y0178583D01*
X0061092Y0179182D02*
X0011000Y0179182D01*
X0011000Y0179780D02*
X0060641Y0179780D01*
X0060222Y0180379D02*
X0011000Y0180379D01*
X0011000Y0180977D02*
X0059828Y0180977D01*
X0059483Y0181576D02*
X0011000Y0181576D01*
X0011000Y0182174D02*
X0059137Y0182174D01*
X0058854Y0182773D02*
X0011000Y0182773D01*
X0011000Y0183371D02*
X0058575Y0183371D01*
X0058322Y0183970D02*
X0011000Y0183970D01*
X0011000Y0184568D02*
X0058104Y0184568D01*
X0057886Y0185167D02*
X0056375Y0185167D01*
X0056375Y0185765D02*
X0057715Y0185765D01*
X0057555Y0186364D02*
X0056375Y0186364D01*
X0056375Y0186962D02*
X0057402Y0186962D01*
X0057297Y0187561D02*
X0056375Y0187561D01*
X0056375Y0188159D02*
X0057191Y0188159D01*
X0057107Y0188758D02*
X0056375Y0188758D01*
X0056375Y0189356D02*
X0057055Y0189356D01*
X0057002Y0189955D02*
X0056375Y0189955D01*
X0056375Y0190553D02*
X0056983Y0190553D01*
X0059658Y0200728D02*
X0036120Y0200728D01*
X0036465Y0201327D02*
X0060016Y0201327D01*
X0060435Y0201925D02*
X0036710Y0201925D01*
X0036871Y0202524D02*
X0060854Y0202524D01*
X0061347Y0203122D02*
X0037031Y0203122D01*
X0037191Y0203721D02*
X0061850Y0203721D01*
X0062426Y0204319D02*
X0037352Y0204319D01*
X0037400Y0204918D02*
X0063024Y0204918D01*
X0063715Y0205516D02*
X0037400Y0205516D01*
X0037400Y0206115D02*
X0064432Y0206115D01*
X0065286Y0206713D02*
X0037400Y0206713D01*
X0037400Y0207312D02*
X0066220Y0207312D01*
X0067267Y0207910D02*
X0037290Y0207910D01*
X0037130Y0208509D02*
X0068551Y0208509D01*
X0070149Y0209107D02*
X0036970Y0209107D01*
X0036809Y0209706D02*
X0072574Y0209706D01*
X0043914Y0197137D02*
X0033259Y0197137D01*
X0032412Y0196539D02*
X0043625Y0196539D01*
X0043625Y0195940D02*
X0031376Y0195940D01*
X0030268Y0195341D02*
X0043625Y0195341D01*
X0043625Y0194743D02*
X0028034Y0194743D01*
X0023966Y0194743D02*
X0011000Y0194743D01*
X0011000Y0195341D02*
X0021732Y0195341D01*
X0020624Y0195940D02*
X0011000Y0195940D01*
X0011000Y0196539D02*
X0019588Y0196539D01*
X0018741Y0197137D02*
X0011000Y0197137D01*
X0011000Y0197736D02*
X0018142Y0197736D01*
X0017544Y0198334D02*
X0011000Y0198334D01*
X0011000Y0198933D02*
X0016945Y0198933D01*
X0016571Y0199531D02*
X0011000Y0199531D01*
X0011000Y0200130D02*
X0016226Y0200130D01*
X0015880Y0200728D02*
X0011000Y0200728D01*
X0011000Y0201327D02*
X0015535Y0201327D01*
X0015290Y0201925D02*
X0011000Y0201925D01*
X0011000Y0202524D02*
X0015129Y0202524D01*
X0014969Y0203122D02*
X0011000Y0203122D01*
X0011000Y0203721D02*
X0014809Y0203721D01*
X0014648Y0204319D02*
X0011000Y0204319D01*
X0011000Y0204918D02*
X0014600Y0204918D01*
X0014600Y0205516D02*
X0011000Y0205516D01*
X0011000Y0206115D02*
X0014600Y0206115D01*
X0014600Y0206713D02*
X0011000Y0206713D01*
X0011000Y0207312D02*
X0014600Y0207312D01*
X0014710Y0207910D02*
X0011000Y0207910D01*
X0011000Y0208509D02*
X0014870Y0208509D01*
X0015030Y0209107D02*
X0011000Y0209107D01*
X0011000Y0209706D02*
X0015191Y0209706D01*
X0015351Y0210304D02*
X0011000Y0210304D01*
X0011000Y0210903D02*
X0015667Y0210903D01*
X0016013Y0211501D02*
X0011000Y0211501D01*
X0011000Y0212100D02*
X0016358Y0212100D01*
X0016704Y0212698D02*
X0011000Y0212698D01*
X0011000Y0213297D02*
X0017175Y0213297D01*
X0017773Y0213895D02*
X0011000Y0213895D01*
X0011000Y0214494D02*
X0018372Y0214494D01*
X0018970Y0215092D02*
X0011000Y0215092D01*
X0011000Y0215691D02*
X0019985Y0215691D01*
X0021022Y0216289D02*
X0011000Y0216289D01*
X0011000Y0216888D02*
X0022588Y0216888D01*
X0029412Y0216888D02*
X0201000Y0216888D01*
X0201000Y0217486D02*
X0011000Y0217486D01*
X0011000Y0218085D02*
X0201000Y0218085D01*
X0201000Y0218683D02*
X0011000Y0218683D01*
X0011000Y0219282D02*
X0201000Y0219282D01*
X0201000Y0219880D02*
X0011000Y0219880D01*
X0011000Y0220479D02*
X0201000Y0220479D01*
X0201000Y0221000D02*
X0011000Y0221000D01*
X0011000Y0011000D01*
X0201000Y0011000D01*
X0011000Y0011000D01*
X0011000Y0011599D02*
X0201000Y0011599D01*
X0201000Y0012197D02*
X0011000Y0012197D01*
X0011000Y0012796D02*
X0163435Y0012796D01*
X0163730Y0012500D02*
X0165470Y0012500D01*
X0166700Y0013730D01*
X0166700Y0015470D01*
X0165470Y0016700D01*
X0163730Y0016700D01*
X0162830Y0015800D01*
X0097897Y0015800D01*
X0095018Y0018679D01*
X0095600Y0020085D01*
X0095600Y0021915D01*
X0094900Y0023606D01*
X0093606Y0024900D01*
X0091915Y0025600D01*
X0090085Y0025600D01*
X0088394Y0024900D01*
X0087100Y0023606D01*
X0086400Y0021915D01*
X0086400Y0020085D01*
X0087100Y0018394D01*
X0088394Y0017100D01*
X0090085Y0016400D01*
X0091915Y0016400D01*
X0093321Y0016982D01*
X0096903Y0013400D01*
X0162830Y0013400D01*
X0163730Y0012500D01*
X0162836Y0013394D02*
X0011000Y0013394D01*
X0011000Y0013993D02*
X0096310Y0013993D01*
X0095712Y0014591D02*
X0011000Y0014591D01*
X0011000Y0015190D02*
X0095113Y0015190D01*
X0094515Y0015788D02*
X0074485Y0015788D01*
X0075084Y0016387D02*
X0093916Y0016387D01*
X0095515Y0018182D02*
X0097312Y0018182D01*
X0097100Y0018394D02*
X0098394Y0017100D01*
X0100085Y0016400D01*
X0101915Y0016400D01*
X0103606Y0017100D01*
X0104900Y0018394D01*
X0105600Y0020085D01*
X0105600Y0021915D01*
X0104900Y0023606D01*
X0103606Y0024900D01*
X0102200Y0025482D01*
X0102200Y0083630D01*
X0103100Y0084530D01*
X0103100Y0086270D01*
X0101870Y0087500D01*
X0100130Y0087500D01*
X0098900Y0086270D01*
X0098900Y0084530D01*
X0099800Y0083630D01*
X0099800Y0025482D01*
X0098394Y0024900D01*
X0097100Y0023606D01*
X0096400Y0021915D01*
X0096400Y0020085D01*
X0097100Y0018394D01*
X0096940Y0018781D02*
X0095060Y0018781D01*
X0095308Y0019379D02*
X0096692Y0019379D01*
X0096444Y0019978D02*
X0095556Y0019978D01*
X0095600Y0020576D02*
X0096400Y0020576D01*
X0096400Y0021175D02*
X0095600Y0021175D01*
X0095600Y0021773D02*
X0096400Y0021773D01*
X0096589Y0022372D02*
X0095411Y0022372D01*
X0095163Y0022970D02*
X0096837Y0022970D01*
X0097085Y0023569D02*
X0094915Y0023569D01*
X0094338Y0024167D02*
X0097662Y0024167D01*
X0098260Y0024766D02*
X0093740Y0024766D01*
X0092484Y0025364D02*
X0099516Y0025364D01*
X0099800Y0025963D02*
X0081060Y0025963D01*
X0081658Y0026561D02*
X0099800Y0026561D01*
X0099800Y0027160D02*
X0082257Y0027160D01*
X0082855Y0027758D02*
X0099800Y0027758D01*
X0099800Y0028357D02*
X0083454Y0028357D01*
X0084052Y0028955D02*
X0099800Y0028955D01*
X0099800Y0029554D02*
X0084651Y0029554D01*
X0085249Y0030152D02*
X0099800Y0030152D01*
X0099800Y0030751D02*
X0085848Y0030751D01*
X0086446Y0031349D02*
X0099800Y0031349D01*
X0099800Y0031948D02*
X0087045Y0031948D01*
X0087643Y0032546D02*
X0099800Y0032546D01*
X0099800Y0033145D02*
X0088242Y0033145D01*
X0088840Y0033743D02*
X0099800Y0033743D01*
X0099800Y0034342D02*
X0089439Y0034342D01*
X0090037Y0034940D02*
X0099800Y0034940D01*
X0099800Y0035539D02*
X0090636Y0035539D01*
X0091235Y0036137D02*
X0099800Y0036137D01*
X0099800Y0036736D02*
X0091833Y0036736D01*
X0092432Y0037334D02*
X0099800Y0037334D01*
X0099800Y0037933D02*
X0093030Y0037933D01*
X0093629Y0038532D02*
X0099800Y0038532D01*
X0099800Y0039130D02*
X0094227Y0039130D01*
X0094826Y0039729D02*
X0099800Y0039729D01*
X0099800Y0040327D02*
X0095424Y0040327D01*
X0096023Y0040926D02*
X0099800Y0040926D01*
X0099800Y0041524D02*
X0096621Y0041524D01*
X0097220Y0042123D02*
X0099800Y0042123D01*
X0099800Y0042721D02*
X0097818Y0042721D01*
X0098000Y0043320D02*
X0099800Y0043320D01*
X0099800Y0043918D02*
X0098000Y0043918D01*
X0098000Y0044517D02*
X0099800Y0044517D01*
X0099800Y0045115D02*
X0098000Y0045115D01*
X0098000Y0045714D02*
X0099800Y0045714D01*
X0099800Y0046312D02*
X0098000Y0046312D01*
X0098000Y0046911D02*
X0099800Y0046911D01*
X0099800Y0047509D02*
X0098000Y0047509D01*
X0098000Y0048108D02*
X0099800Y0048108D01*
X0099800Y0048706D02*
X0098000Y0048706D01*
X0098000Y0049305D02*
X0099800Y0049305D01*
X0099800Y0049903D02*
X0098000Y0049903D01*
X0098000Y0050502D02*
X0099800Y0050502D01*
X0099800Y0051100D02*
X0098000Y0051100D01*
X0098000Y0051699D02*
X0099800Y0051699D01*
X0099800Y0052297D02*
X0098000Y0052297D01*
X0098000Y0052896D02*
X0099800Y0052896D01*
X0099800Y0053494D02*
X0098000Y0053494D01*
X0098000Y0054093D02*
X0099800Y0054093D01*
X0099800Y0054691D02*
X0098000Y0054691D01*
X0098000Y0055290D02*
X0099800Y0055290D01*
X0099800Y0055888D02*
X0098000Y0055888D01*
X0098000Y0056487D02*
X0099800Y0056487D01*
X0099800Y0057085D02*
X0098000Y0057085D01*
X0098000Y0057684D02*
X0099800Y0057684D01*
X0099800Y0058282D02*
X0098000Y0058282D01*
X0098000Y0058881D02*
X0099800Y0058881D01*
X0099800Y0059479D02*
X0098000Y0059479D01*
X0098000Y0060078D02*
X0099800Y0060078D01*
X0099800Y0060676D02*
X0098000Y0060676D01*
X0098000Y0061275D02*
X0099800Y0061275D01*
X0099800Y0061873D02*
X0098000Y0061873D01*
X0098000Y0062472D02*
X0099800Y0062472D01*
X0099800Y0063070D02*
X0098000Y0063070D01*
X0098000Y0063669D02*
X0099800Y0063669D01*
X0099800Y0064268D02*
X0098000Y0064268D01*
X0098000Y0064866D02*
X0099800Y0064866D01*
X0099800Y0065465D02*
X0098000Y0065465D01*
X0098000Y0066063D02*
X0099800Y0066063D01*
X0099800Y0066662D02*
X0098000Y0066662D01*
X0098000Y0067260D02*
X0099800Y0067260D01*
X0099800Y0067859D02*
X0098000Y0067859D01*
X0098000Y0068457D02*
X0099800Y0068457D01*
X0099800Y0069056D02*
X0098000Y0069056D01*
X0098000Y0069654D02*
X0099800Y0069654D01*
X0099800Y0070253D02*
X0098000Y0070253D01*
X0098000Y0070851D02*
X0099800Y0070851D01*
X0099800Y0071450D02*
X0098000Y0071450D01*
X0098000Y0072048D02*
X0099800Y0072048D01*
X0099800Y0072647D02*
X0098000Y0072647D01*
X0098000Y0073245D02*
X0099800Y0073245D01*
X0099800Y0073844D02*
X0098000Y0073844D01*
X0098000Y0074442D02*
X0099800Y0074442D01*
X0099800Y0075041D02*
X0098000Y0075041D01*
X0098000Y0075639D02*
X0099800Y0075639D01*
X0099800Y0076238D02*
X0098000Y0076238D01*
X0098406Y0076836D02*
X0099800Y0076836D01*
X0099800Y0077435D02*
X0098900Y0077435D01*
X0098900Y0078033D02*
X0099800Y0078033D01*
X0099800Y0078632D02*
X0098900Y0078632D01*
X0098740Y0079230D02*
X0099800Y0079230D01*
X0099800Y0079829D02*
X0098141Y0079829D01*
X0099800Y0080427D02*
X0088724Y0080427D01*
X0088126Y0079829D02*
X0095459Y0079829D01*
X0094860Y0079230D02*
X0087527Y0079230D01*
X0086929Y0078632D02*
X0094700Y0078632D01*
X0094700Y0078033D02*
X0086330Y0078033D01*
X0085732Y0077435D02*
X0094700Y0077435D01*
X0095194Y0076836D02*
X0085133Y0076836D01*
X0084535Y0076238D02*
X0095600Y0076238D01*
X0095600Y0075639D02*
X0083936Y0075639D01*
X0083338Y0075041D02*
X0095600Y0075041D01*
X0095600Y0074442D02*
X0082739Y0074442D01*
X0082141Y0073844D02*
X0095600Y0073844D01*
X0095600Y0073245D02*
X0081542Y0073245D01*
X0080944Y0072647D02*
X0095600Y0072647D01*
X0095600Y0072048D02*
X0080345Y0072048D01*
X0079747Y0071450D02*
X0095600Y0071450D01*
X0095600Y0070851D02*
X0079148Y0070851D01*
X0078550Y0070253D02*
X0095600Y0070253D01*
X0095600Y0069654D02*
X0077951Y0069654D01*
X0077353Y0069056D02*
X0095600Y0069056D01*
X0095600Y0068457D02*
X0077000Y0068457D01*
X0077000Y0067859D02*
X0095600Y0067859D01*
X0095600Y0067260D02*
X0077000Y0067260D01*
X0077000Y0066662D02*
X0095600Y0066662D01*
X0095600Y0066063D02*
X0077000Y0066063D01*
X0077000Y0065465D02*
X0095600Y0065465D01*
X0095600Y0064866D02*
X0077000Y0064866D01*
X0077000Y0064268D02*
X0095600Y0064268D01*
X0095600Y0063669D02*
X0077000Y0063669D01*
X0077000Y0063070D02*
X0095600Y0063070D01*
X0095600Y0062472D02*
X0077000Y0062472D01*
X0077000Y0061873D02*
X0095600Y0061873D01*
X0095600Y0061275D02*
X0077000Y0061275D01*
X0077000Y0060676D02*
X0095600Y0060676D01*
X0095600Y0060078D02*
X0077000Y0060078D01*
X0077000Y0059479D02*
X0095600Y0059479D01*
X0095600Y0058881D02*
X0077000Y0058881D01*
X0077000Y0058282D02*
X0095600Y0058282D01*
X0095600Y0057684D02*
X0077000Y0057684D01*
X0077000Y0057085D02*
X0095600Y0057085D01*
X0095600Y0056487D02*
X0077000Y0056487D01*
X0077000Y0055888D02*
X0095600Y0055888D01*
X0095600Y0055290D02*
X0077000Y0055290D01*
X0077000Y0054691D02*
X0095600Y0054691D01*
X0095600Y0054093D02*
X0077000Y0054093D01*
X0077000Y0053494D02*
X0095600Y0053494D01*
X0095600Y0052896D02*
X0077000Y0052896D01*
X0077000Y0052297D02*
X0095600Y0052297D01*
X0095600Y0051699D02*
X0077000Y0051699D01*
X0077000Y0051100D02*
X0095600Y0051100D01*
X0095600Y0050502D02*
X0077000Y0050502D01*
X0077000Y0049903D02*
X0095600Y0049903D01*
X0095600Y0049305D02*
X0077000Y0049305D01*
X0077000Y0048706D02*
X0095600Y0048706D01*
X0095600Y0048108D02*
X0077000Y0048108D01*
X0076806Y0047509D02*
X0095600Y0047509D01*
X0095600Y0046911D02*
X0076208Y0046911D01*
X0075609Y0046312D02*
X0095600Y0046312D01*
X0095600Y0045714D02*
X0075011Y0045714D01*
X0074412Y0045115D02*
X0095600Y0045115D01*
X0095600Y0044517D02*
X0073814Y0044517D01*
X0073215Y0043918D02*
X0095600Y0043918D01*
X0095023Y0043320D02*
X0072617Y0043320D01*
X0072018Y0042721D02*
X0094424Y0042721D01*
X0093826Y0042123D02*
X0071420Y0042123D01*
X0072081Y0041524D02*
X0093227Y0041524D01*
X0092629Y0040926D02*
X0073141Y0040926D01*
X0073740Y0040327D02*
X0092030Y0040327D01*
X0091431Y0039729D02*
X0074022Y0039729D01*
X0074270Y0039130D02*
X0090833Y0039130D01*
X0090234Y0038532D02*
X0074300Y0038532D01*
X0074300Y0037933D02*
X0089636Y0037933D01*
X0089037Y0037334D02*
X0074300Y0037334D01*
X0074300Y0036736D02*
X0088439Y0036736D01*
X0087840Y0036137D02*
X0074300Y0036137D01*
X0074300Y0035539D02*
X0087242Y0035539D01*
X0086643Y0034940D02*
X0074300Y0034940D01*
X0074300Y0034342D02*
X0086045Y0034342D01*
X0085446Y0033743D02*
X0074300Y0033743D01*
X0074300Y0033145D02*
X0084848Y0033145D01*
X0084249Y0032546D02*
X0074135Y0032546D01*
X0073888Y0031948D02*
X0083651Y0031948D01*
X0083052Y0031349D02*
X0073416Y0031349D01*
X0072745Y0030751D02*
X0082454Y0030751D01*
X0081855Y0030152D02*
X0064249Y0030152D01*
X0063651Y0029554D02*
X0081257Y0029554D01*
X0080658Y0028955D02*
X0063052Y0028955D01*
X0062454Y0028357D02*
X0080060Y0028357D01*
X0079461Y0027758D02*
X0061855Y0027758D01*
X0059600Y0027200D02*
X0057200Y0027200D01*
X0051000Y0021000D01*
X0053000Y0016400D02*
X0048800Y0016400D01*
X0046400Y0018800D01*
X0045200Y0022970D02*
X0045163Y0022970D01*
X0045272Y0023569D02*
X0044915Y0023569D01*
X0044338Y0024167D02*
X0045870Y0024167D01*
X0046469Y0024766D02*
X0043740Y0024766D01*
X0042484Y0025364D02*
X0047067Y0025364D01*
X0047666Y0025963D02*
X0021628Y0025963D01*
X0021300Y0025963D02*
X0020700Y0025963D01*
X0020372Y0025963D02*
X0011000Y0025963D01*
X0011000Y0026561D02*
X0018698Y0026561D01*
X0017779Y0027160D02*
X0011000Y0027160D01*
X0011000Y0027758D02*
X0017175Y0027758D01*
X0016740Y0028357D02*
X0011000Y0028357D01*
X0011000Y0028955D02*
X0016430Y0028955D01*
X0016213Y0029554D02*
X0011000Y0029554D01*
X0011000Y0030152D02*
X0016072Y0030152D01*
X0016000Y0031349D02*
X0011000Y0031349D01*
X0011000Y0030751D02*
X0020700Y0030751D01*
X0020700Y0031349D02*
X0021300Y0031349D01*
X0021300Y0030751D02*
X0039255Y0030751D01*
X0038584Y0031349D02*
X0026000Y0031349D01*
X0025912Y0031948D02*
X0038112Y0031948D01*
X0037865Y0032546D02*
X0025755Y0032546D01*
X0025519Y0033145D02*
X0037700Y0033145D01*
X0037700Y0033743D02*
X0025187Y0033743D01*
X0024729Y0034342D02*
X0037700Y0034342D01*
X0037700Y0034940D02*
X0024083Y0034940D01*
X0021300Y0034940D02*
X0020700Y0034940D01*
X0020700Y0034342D02*
X0021300Y0034342D01*
X0021300Y0033743D02*
X0020700Y0033743D01*
X0020700Y0033145D02*
X0021300Y0033145D01*
X0021300Y0032546D02*
X0020700Y0032546D01*
X0020700Y0031948D02*
X0021300Y0031948D01*
X0021300Y0030152D02*
X0020700Y0030152D01*
X0020700Y0029554D02*
X0021300Y0029554D01*
X0021300Y0028955D02*
X0020700Y0028955D01*
X0020700Y0028357D02*
X0021300Y0028357D01*
X0021300Y0027758D02*
X0020700Y0027758D01*
X0020700Y0027160D02*
X0021300Y0027160D01*
X0021300Y0026561D02*
X0020700Y0026561D01*
X0020700Y0025364D02*
X0021300Y0025364D01*
X0021300Y0024766D02*
X0020700Y0024766D01*
X0020700Y0024167D02*
X0021300Y0024167D01*
X0021300Y0023569D02*
X0020700Y0023569D01*
X0020700Y0022970D02*
X0021300Y0022970D01*
X0021300Y0022372D02*
X0020700Y0022372D01*
X0020700Y0021773D02*
X0021300Y0021773D01*
X0020700Y0021175D02*
X0011000Y0021175D01*
X0011000Y0021773D02*
X0016060Y0021773D01*
X0016188Y0022372D02*
X0011000Y0022372D01*
X0011000Y0022970D02*
X0016392Y0022970D01*
X0016697Y0023569D02*
X0011000Y0023569D01*
X0011000Y0024167D02*
X0017121Y0024167D01*
X0017695Y0024766D02*
X0011000Y0024766D01*
X0011000Y0025364D02*
X0018552Y0025364D01*
X0020700Y0020700D02*
X0016000Y0020700D01*
X0016000Y0020606D01*
X0016123Y0019829D01*
X0016366Y0019081D01*
X0016724Y0018379D01*
X0017186Y0017743D01*
X0017743Y0017186D01*
X0018379Y0016724D01*
X0019081Y0016366D01*
X0019829Y0016123D01*
X0020606Y0016000D01*
X0020700Y0016000D01*
X0020700Y0020700D01*
X0020700Y0020576D02*
X0021300Y0020576D01*
X0021300Y0019978D02*
X0020700Y0019978D01*
X0020700Y0019379D02*
X0021300Y0019379D01*
X0021300Y0018781D02*
X0020700Y0018781D01*
X0020700Y0018182D02*
X0021300Y0018182D01*
X0021300Y0017584D02*
X0020700Y0017584D01*
X0020700Y0016985D02*
X0021300Y0016985D01*
X0021300Y0016387D02*
X0020700Y0016387D01*
X0019041Y0016387D02*
X0011000Y0016387D01*
X0011000Y0016985D02*
X0018019Y0016985D01*
X0017345Y0017584D02*
X0011000Y0017584D01*
X0011000Y0018182D02*
X0016867Y0018182D01*
X0016519Y0018781D02*
X0011000Y0018781D01*
X0011000Y0019379D02*
X0016269Y0019379D01*
X0016100Y0019978D02*
X0011000Y0019978D01*
X0011000Y0020576D02*
X0016005Y0020576D01*
X0011000Y0015788D02*
X0047715Y0015788D01*
X0053000Y0016400D02*
X0056000Y0019400D01*
X0056000Y0023000D01*
X0059000Y0026000D01*
X0066200Y0026000D01*
X0071000Y0021200D01*
X0071000Y0021000D01*
X0069516Y0025364D02*
X0068533Y0025364D01*
X0067934Y0025963D02*
X0077666Y0025963D01*
X0078264Y0026561D02*
X0067336Y0026561D01*
X0066737Y0027160D02*
X0078863Y0027160D01*
X0077067Y0025364D02*
X0072484Y0025364D01*
X0073740Y0024766D02*
X0076469Y0024766D01*
X0075870Y0024167D02*
X0074338Y0024167D01*
X0074915Y0023569D02*
X0075272Y0023569D01*
X0075800Y0022400D02*
X0075800Y0018800D01*
X0073400Y0016400D01*
X0065600Y0016400D01*
X0061000Y0021000D01*
X0057911Y0017584D02*
X0055881Y0017584D01*
X0056479Y0018182D02*
X0057312Y0018182D01*
X0058672Y0016985D02*
X0055282Y0016985D01*
X0054684Y0016387D02*
X0063916Y0016387D01*
X0064515Y0015788D02*
X0054085Y0015788D01*
X0048264Y0026561D02*
X0023302Y0026561D01*
X0024221Y0027160D02*
X0048863Y0027160D01*
X0049461Y0027758D02*
X0024825Y0027758D01*
X0025260Y0028357D02*
X0050060Y0028357D01*
X0050658Y0028955D02*
X0025570Y0028955D01*
X0025787Y0029554D02*
X0051257Y0029554D01*
X0051855Y0030152D02*
X0025928Y0030152D01*
X0021300Y0035539D02*
X0020700Y0035539D01*
X0018895Y0035539D02*
X0011000Y0035539D01*
X0011000Y0034940D02*
X0017917Y0034940D01*
X0017271Y0034342D02*
X0011000Y0034342D01*
X0011000Y0033743D02*
X0016813Y0033743D01*
X0016481Y0033145D02*
X0011000Y0033145D01*
X0011000Y0032546D02*
X0016245Y0032546D01*
X0016088Y0031948D02*
X0011000Y0031948D01*
X0021000Y0041000D02*
X0021200Y0041000D01*
X0026000Y0045800D01*
X0026000Y0058400D01*
X0051800Y0084200D01*
X0057200Y0084200D01*
X0055609Y0082821D02*
X0052118Y0082821D01*
X0051520Y0082223D02*
X0056207Y0082223D01*
X0058193Y0082223D02*
X0058210Y0082223D01*
X0058210Y0081624D02*
X0050921Y0081624D01*
X0050323Y0081026D02*
X0058210Y0081026D01*
X0058210Y0080427D02*
X0049724Y0080427D01*
X0049126Y0079829D02*
X0058210Y0079829D01*
X0058210Y0079230D02*
X0056140Y0079230D01*
X0056738Y0078632D02*
X0058210Y0078632D01*
X0058210Y0078033D02*
X0056900Y0078033D01*
X0056900Y0077435D02*
X0058210Y0077435D01*
X0058458Y0076836D02*
X0056900Y0076836D01*
X0056408Y0076238D02*
X0060200Y0076238D01*
X0060200Y0075639D02*
X0056000Y0075639D01*
X0056000Y0075041D02*
X0060200Y0075041D01*
X0060200Y0074442D02*
X0056000Y0074442D01*
X0056000Y0073844D02*
X0060200Y0073844D01*
X0060200Y0073245D02*
X0056000Y0073245D01*
X0056000Y0072647D02*
X0060200Y0072647D01*
X0060200Y0072048D02*
X0056000Y0072048D01*
X0056000Y0071450D02*
X0059739Y0071450D01*
X0058784Y0070851D02*
X0056000Y0070851D01*
X0056000Y0070253D02*
X0058195Y0070253D01*
X0057700Y0068457D02*
X0056000Y0068457D01*
X0056000Y0067859D02*
X0057700Y0067859D01*
X0057700Y0067260D02*
X0056000Y0067260D01*
X0056000Y0066662D02*
X0057700Y0066662D01*
X0057700Y0066063D02*
X0056000Y0066063D01*
X0056000Y0065465D02*
X0057700Y0065465D01*
X0057700Y0064866D02*
X0056000Y0064866D01*
X0056000Y0064268D02*
X0057700Y0064268D01*
X0057700Y0063669D02*
X0056000Y0063669D01*
X0056000Y0063070D02*
X0057700Y0063070D01*
X0057895Y0062472D02*
X0056000Y0062472D01*
X0056000Y0061873D02*
X0058143Y0061873D01*
X0058658Y0061275D02*
X0056000Y0061275D01*
X0056000Y0060676D02*
X0059435Y0060676D01*
X0062565Y0060676D02*
X0063200Y0060676D01*
X0063200Y0060078D02*
X0056000Y0060078D01*
X0056000Y0059479D02*
X0063200Y0059479D01*
X0063200Y0058881D02*
X0056000Y0058881D01*
X0056000Y0058282D02*
X0063200Y0058282D01*
X0063200Y0057684D02*
X0056000Y0057684D01*
X0056000Y0057085D02*
X0063200Y0057085D01*
X0063200Y0056487D02*
X0056000Y0056487D01*
X0056000Y0055888D02*
X0063200Y0055888D01*
X0063200Y0055290D02*
X0056000Y0055290D01*
X0056000Y0054691D02*
X0063200Y0054691D01*
X0063200Y0054093D02*
X0056000Y0054093D01*
X0056000Y0053494D02*
X0063200Y0053494D01*
X0063200Y0052896D02*
X0056000Y0052896D01*
X0056000Y0052297D02*
X0063200Y0052297D01*
X0063200Y0051699D02*
X0056000Y0051699D01*
X0056000Y0051100D02*
X0063200Y0051100D01*
X0063200Y0050502D02*
X0056000Y0050502D01*
X0056000Y0049903D02*
X0063200Y0049903D01*
X0062608Y0049305D02*
X0055802Y0049305D01*
X0055203Y0048706D02*
X0062009Y0048706D01*
X0061411Y0048108D02*
X0054605Y0048108D01*
X0054006Y0047509D02*
X0060812Y0047509D01*
X0060214Y0046911D02*
X0053408Y0046911D01*
X0052809Y0046312D02*
X0059615Y0046312D01*
X0059017Y0045714D02*
X0052211Y0045714D01*
X0051612Y0045115D02*
X0058418Y0045115D01*
X0057820Y0044517D02*
X0051014Y0044517D01*
X0050415Y0043918D02*
X0057221Y0043918D01*
X0056623Y0043320D02*
X0049817Y0043320D01*
X0049218Y0042721D02*
X0056024Y0042721D01*
X0055426Y0042123D02*
X0048620Y0042123D01*
X0048021Y0041524D02*
X0049919Y0041524D01*
X0048859Y0040926D02*
X0047423Y0040926D01*
X0046824Y0040327D02*
X0048260Y0040327D01*
X0047978Y0039729D02*
X0046226Y0039729D01*
X0045627Y0039130D02*
X0047730Y0039130D01*
X0047700Y0038532D02*
X0045029Y0038532D01*
X0044430Y0037933D02*
X0047700Y0037933D01*
X0047700Y0037334D02*
X0044300Y0037334D01*
X0044300Y0036736D02*
X0047700Y0036736D01*
X0047700Y0036137D02*
X0044300Y0036137D01*
X0044300Y0035539D02*
X0047700Y0035539D01*
X0047700Y0034940D02*
X0044300Y0034940D01*
X0044300Y0034342D02*
X0047700Y0034342D01*
X0047700Y0033743D02*
X0044300Y0033743D01*
X0044300Y0033145D02*
X0047700Y0033145D01*
X0047865Y0032546D02*
X0044135Y0032546D01*
X0043888Y0031948D02*
X0048112Y0031948D01*
X0048584Y0031349D02*
X0043416Y0031349D01*
X0042745Y0030751D02*
X0049255Y0030751D01*
X0051000Y0036000D02*
X0064400Y0049400D01*
X0064400Y0081800D01*
X0068600Y0086000D01*
X0072200Y0086000D01*
X0072200Y0095000D01*
X0072200Y0086000D02*
X0081800Y0086000D01*
X0122600Y0126800D01*
X0141800Y0126800D01*
X0150800Y0117800D01*
X0150800Y0114800D01*
X0150843Y0114504D01*
X0152600Y0114200D02*
X0152811Y0114504D01*
X0152600Y0114200D02*
X0152600Y0108200D01*
X0149000Y0108800D02*
X0154400Y0103400D01*
X0172400Y0103400D01*
X0174200Y0101600D01*
X0174200Y0078800D01*
X0152600Y0057200D01*
X0152600Y0044600D01*
X0131000Y0023000D01*
X0131000Y0021000D01*
X0127662Y0024167D02*
X0127337Y0024167D01*
X0127085Y0023569D02*
X0124915Y0023569D01*
X0124900Y0023606D02*
X0123606Y0024900D01*
X0121915Y0025600D01*
X0120085Y0025600D01*
X0118394Y0024900D01*
X0117100Y0023606D01*
X0116400Y0021915D01*
X0116400Y0020085D01*
X0117100Y0018394D01*
X0118394Y0017100D01*
X0120085Y0016400D01*
X0121915Y0016400D01*
X0123606Y0017100D01*
X0124900Y0018394D01*
X0125600Y0020085D01*
X0125600Y0021915D01*
X0124900Y0023606D01*
X0125063Y0024167D02*
X0124338Y0024167D01*
X0124464Y0024766D02*
X0123740Y0024766D01*
X0124100Y0025364D02*
X0122484Y0025364D01*
X0124100Y0025963D02*
X0102200Y0025963D01*
X0102200Y0026561D02*
X0124100Y0026561D01*
X0124390Y0027160D02*
X0102200Y0027160D01*
X0102200Y0027758D02*
X0124988Y0027758D01*
X0126200Y0026000D02*
X0131000Y0026000D01*
X0151400Y0046400D01*
X0151400Y0057800D01*
X0173000Y0079400D01*
X0173000Y0101000D01*
X0171800Y0102200D01*
X0153800Y0102200D01*
X0147200Y0108800D01*
X0147200Y0114200D01*
X0146906Y0114504D01*
X0148874Y0114504D02*
X0149000Y0114200D01*
X0149000Y0108800D01*
X0144800Y0109400D02*
X0153200Y0101000D01*
X0171200Y0101000D01*
X0171800Y0100400D01*
X0171800Y0080000D01*
X0150200Y0058400D01*
X0150200Y0047000D01*
X0134000Y0030800D01*
X0120800Y0030800D01*
X0118700Y0030751D02*
X0102200Y0030751D01*
X0102200Y0031349D02*
X0118700Y0031349D01*
X0118978Y0031948D02*
X0102200Y0031948D01*
X0102200Y0032546D02*
X0119577Y0032546D01*
X0122023Y0032546D02*
X0134049Y0032546D01*
X0134648Y0033145D02*
X0102200Y0033145D01*
X0102200Y0033743D02*
X0135246Y0033743D01*
X0135845Y0034342D02*
X0102200Y0034342D01*
X0102200Y0034940D02*
X0136443Y0034940D01*
X0137042Y0035539D02*
X0102200Y0035539D01*
X0102200Y0036137D02*
X0137640Y0036137D01*
X0138239Y0036736D02*
X0112428Y0036736D01*
X0112088Y0036625D02*
X0112784Y0036851D01*
X0113435Y0037183D01*
X0114027Y0037613D01*
X0114544Y0038131D01*
X0114974Y0038722D01*
X0115306Y0039374D01*
X0115532Y0040069D01*
X0115646Y0040792D01*
X0115646Y0040857D01*
X0111300Y0040857D01*
X0111300Y0036511D01*
X0111366Y0036511D01*
X0112088Y0036625D01*
X0111300Y0036736D02*
X0110700Y0036736D01*
X0110700Y0036511D02*
X0110700Y0040857D01*
X0111300Y0040857D01*
X0111300Y0041457D01*
X0115646Y0041457D01*
X0115646Y0041523D01*
X0115532Y0042246D01*
X0115306Y0042941D01*
X0114974Y0043593D01*
X0114896Y0043700D01*
X0115070Y0043700D01*
X0115970Y0044600D01*
X0135277Y0044600D01*
X0135277Y0043757D01*
X0135804Y0043230D01*
X0140290Y0043230D01*
X0140817Y0043757D01*
X0140817Y0048243D01*
X0140290Y0048770D01*
X0135804Y0048770D01*
X0135277Y0048243D01*
X0135277Y0047000D01*
X0115970Y0047000D01*
X0115070Y0047900D01*
X0113330Y0047900D01*
X0112100Y0046670D01*
X0112100Y0045686D01*
X0112088Y0045690D01*
X0111366Y0045804D01*
X0111300Y0045804D01*
X0111300Y0041458D01*
X0110700Y0041458D01*
X0110700Y0045804D01*
X0110634Y0045804D01*
X0109912Y0045690D01*
X0109216Y0045464D01*
X0108565Y0045131D01*
X0107973Y0044702D01*
X0107456Y0044184D01*
X0107026Y0043593D01*
X0106694Y0042941D01*
X0106468Y0042246D01*
X0106354Y0041523D01*
X0106354Y0041457D01*
X0110700Y0041457D01*
X0110700Y0040857D01*
X0106354Y0040857D01*
X0106354Y0040792D01*
X0106468Y0040069D01*
X0106694Y0039374D01*
X0107026Y0038722D01*
X0107456Y0038131D01*
X0107973Y0037613D01*
X0108565Y0037183D01*
X0109216Y0036851D01*
X0109912Y0036625D01*
X0110634Y0036511D01*
X0110700Y0036511D01*
X0110700Y0037334D02*
X0111300Y0037334D01*
X0111300Y0037933D02*
X0110700Y0037933D01*
X0110700Y0038532D02*
X0111300Y0038532D01*
X0111300Y0039130D02*
X0110700Y0039130D01*
X0110700Y0039729D02*
X0111300Y0039729D01*
X0111300Y0040327D02*
X0110700Y0040327D01*
X0110700Y0040926D02*
X0102200Y0040926D01*
X0102200Y0041524D02*
X0106354Y0041524D01*
X0106448Y0042123D02*
X0102200Y0042123D01*
X0102200Y0042721D02*
X0106622Y0042721D01*
X0106887Y0043320D02*
X0102200Y0043320D01*
X0102200Y0043918D02*
X0107262Y0043918D01*
X0107788Y0044517D02*
X0102200Y0044517D01*
X0102200Y0045115D02*
X0108542Y0045115D01*
X0110064Y0045714D02*
X0102200Y0045714D01*
X0102200Y0046312D02*
X0112100Y0046312D01*
X0112100Y0045714D02*
X0111936Y0045714D01*
X0111300Y0045714D02*
X0110700Y0045714D01*
X0110700Y0045115D02*
X0111300Y0045115D01*
X0111300Y0044517D02*
X0110700Y0044517D01*
X0110700Y0043918D02*
X0111300Y0043918D01*
X0111300Y0043320D02*
X0110700Y0043320D01*
X0110700Y0042721D02*
X0111300Y0042721D01*
X0111300Y0042123D02*
X0110700Y0042123D01*
X0110700Y0041524D02*
X0111300Y0041524D01*
X0111300Y0040926D02*
X0142429Y0040926D01*
X0143027Y0041524D02*
X0115646Y0041524D01*
X0115552Y0042123D02*
X0143626Y0042123D01*
X0144224Y0042721D02*
X0115378Y0042721D01*
X0115113Y0043320D02*
X0135715Y0043320D01*
X0135277Y0043918D02*
X0115288Y0043918D01*
X0115886Y0044517D02*
X0135277Y0044517D01*
X0137600Y0045800D02*
X0138047Y0046000D01*
X0137600Y0045800D02*
X0114200Y0045800D01*
X0115461Y0047509D02*
X0135277Y0047509D01*
X0135277Y0048108D02*
X0102200Y0048108D01*
X0102200Y0048706D02*
X0135741Y0048706D01*
X0135591Y0051699D02*
X0134991Y0051699D01*
X0134991Y0052297D02*
X0135591Y0052297D01*
X0135591Y0052896D02*
X0134991Y0052896D01*
X0134991Y0053494D02*
X0135591Y0053494D01*
X0135591Y0054093D02*
X0134991Y0054093D01*
X0134991Y0054691D02*
X0135591Y0054691D01*
X0135591Y0055290D02*
X0134991Y0055290D01*
X0135200Y0056000D02*
X0135200Y0068000D01*
X0126800Y0076400D01*
X0131000Y0080600D01*
X0131512Y0081000D01*
X0131600Y0081200D01*
X0150200Y0081200D01*
X0150488Y0081000D01*
X0150188Y0081026D02*
X0131812Y0081026D01*
X0131812Y0081300D02*
X0131812Y0080700D01*
X0134820Y0080700D01*
X0134820Y0077246D01*
X0134731Y0076916D01*
X0134560Y0076619D01*
X0134318Y0076377D01*
X0134021Y0076206D01*
X0133691Y0076117D01*
X0131812Y0076117D01*
X0131812Y0080700D01*
X0131212Y0080700D01*
X0131212Y0076117D01*
X0129333Y0076117D01*
X0129002Y0076206D01*
X0128706Y0076377D01*
X0128464Y0076619D01*
X0128293Y0076916D01*
X0128204Y0077246D01*
X0128204Y0080700D01*
X0131212Y0080700D01*
X0131212Y0081300D01*
X0131212Y0085883D01*
X0129333Y0085883D01*
X0129002Y0085794D01*
X0128706Y0085623D01*
X0128464Y0085381D01*
X0128293Y0085084D01*
X0128204Y0084754D01*
X0128204Y0081300D01*
X0131212Y0081300D01*
X0131812Y0081300D01*
X0134820Y0081300D01*
X0134820Y0084754D01*
X0134731Y0085084D01*
X0134560Y0085381D01*
X0134318Y0085623D01*
X0134021Y0085794D01*
X0133691Y0085883D01*
X0131812Y0085883D01*
X0131812Y0081300D01*
X0131812Y0081624D02*
X0131212Y0081624D01*
X0131212Y0081026D02*
X0123396Y0081026D01*
X0123396Y0081624D02*
X0128204Y0081624D01*
X0128204Y0082223D02*
X0123396Y0082223D01*
X0123396Y0082821D02*
X0128204Y0082821D01*
X0128204Y0083420D02*
X0123396Y0083420D01*
X0123396Y0084018D02*
X0128204Y0084018D01*
X0128204Y0084617D02*
X0123396Y0084617D01*
X0123136Y0085215D02*
X0128368Y0085215D01*
X0129076Y0085814D02*
X0122000Y0085814D01*
X0122000Y0086412D02*
X0159800Y0086412D01*
X0159800Y0085814D02*
X0152924Y0085814D01*
X0152998Y0085794D02*
X0152667Y0085883D01*
X0150788Y0085883D01*
X0150788Y0081300D01*
X0150188Y0081300D01*
X0150188Y0080700D01*
X0147180Y0080700D01*
X0147180Y0077246D01*
X0147269Y0076916D01*
X0147440Y0076619D01*
X0147682Y0076377D01*
X0147979Y0076206D01*
X0148309Y0076117D01*
X0150188Y0076117D01*
X0150188Y0080700D01*
X0150788Y0080700D01*
X0150788Y0076117D01*
X0152667Y0076117D01*
X0152998Y0076206D01*
X0153294Y0076377D01*
X0153536Y0076619D01*
X0153707Y0076916D01*
X0153796Y0077246D01*
X0153796Y0080700D01*
X0150788Y0080700D01*
X0150788Y0081300D01*
X0153796Y0081300D01*
X0153796Y0084754D01*
X0153707Y0085084D01*
X0153536Y0085381D01*
X0153294Y0085623D01*
X0152998Y0085794D01*
X0153632Y0085215D02*
X0158864Y0085215D01*
X0158604Y0084617D02*
X0153796Y0084617D01*
X0153796Y0084018D02*
X0158604Y0084018D01*
X0158604Y0083420D02*
X0153796Y0083420D01*
X0153796Y0082821D02*
X0158604Y0082821D01*
X0158604Y0082223D02*
X0153796Y0082223D01*
X0153796Y0081624D02*
X0158604Y0081624D01*
X0158604Y0081026D02*
X0150788Y0081026D01*
X0150788Y0081624D02*
X0150188Y0081624D01*
X0150188Y0081300D02*
X0150188Y0085883D01*
X0148309Y0085883D01*
X0147979Y0085794D01*
X0147682Y0085623D01*
X0147440Y0085381D01*
X0147269Y0085084D01*
X0147180Y0084754D01*
X0147180Y0081300D01*
X0150188Y0081300D01*
X0150188Y0080427D02*
X0150788Y0080427D01*
X0150788Y0079829D02*
X0150188Y0079829D01*
X0150188Y0079230D02*
X0150788Y0079230D01*
X0150788Y0078632D02*
X0150188Y0078632D01*
X0150188Y0078033D02*
X0150788Y0078033D01*
X0150788Y0077435D02*
X0150188Y0077435D01*
X0150188Y0076836D02*
X0150788Y0076836D01*
X0150788Y0076238D02*
X0150188Y0076238D01*
X0147923Y0076238D02*
X0134077Y0076238D01*
X0134685Y0076836D02*
X0147315Y0076836D01*
X0147180Y0077435D02*
X0134820Y0077435D01*
X0134820Y0078033D02*
X0147180Y0078033D01*
X0147180Y0078632D02*
X0134820Y0078632D01*
X0134820Y0079230D02*
X0147180Y0079230D01*
X0147180Y0079829D02*
X0134820Y0079829D01*
X0134820Y0080427D02*
X0147180Y0080427D01*
X0147180Y0081624D02*
X0134820Y0081624D01*
X0134820Y0082223D02*
X0147180Y0082223D01*
X0147180Y0082821D02*
X0134820Y0082821D01*
X0134820Y0083420D02*
X0147180Y0083420D01*
X0147180Y0084018D02*
X0134820Y0084018D01*
X0134820Y0084617D02*
X0147180Y0084617D01*
X0147345Y0085215D02*
X0134655Y0085215D01*
X0133947Y0085814D02*
X0148053Y0085814D01*
X0150188Y0085814D02*
X0150788Y0085814D01*
X0150788Y0085215D02*
X0150188Y0085215D01*
X0150188Y0084617D02*
X0150788Y0084617D01*
X0150788Y0084018D02*
X0150188Y0084018D01*
X0150188Y0083420D02*
X0150788Y0083420D01*
X0150788Y0082821D02*
X0150188Y0082821D01*
X0150188Y0082223D02*
X0150788Y0082223D01*
X0153796Y0080427D02*
X0158604Y0080427D01*
X0158604Y0079829D02*
X0153796Y0079829D01*
X0153796Y0079230D02*
X0158604Y0079230D01*
X0158604Y0078632D02*
X0153796Y0078632D01*
X0153796Y0078033D02*
X0158604Y0078033D01*
X0158604Y0077435D02*
X0153796Y0077435D01*
X0153662Y0076836D02*
X0158812Y0076836D01*
X0161000Y0081200D02*
X0161512Y0081000D01*
X0161000Y0081200D02*
X0161000Y0094400D01*
X0159800Y0095600D01*
X0159701Y0096000D01*
X0159200Y0096200D01*
X0146600Y0096200D01*
X0133400Y0109400D01*
X0133400Y0114200D01*
X0133126Y0114504D01*
X0135094Y0114504D02*
X0135200Y0114800D01*
X0135200Y0117800D01*
X0133400Y0119600D01*
X0127400Y0119600D01*
X0127400Y0124400D02*
X0136400Y0124400D01*
X0143000Y0117800D01*
X0143000Y0114800D01*
X0142969Y0114504D01*
X0141200Y0114200D02*
X0141000Y0114504D01*
X0141200Y0114200D02*
X0141200Y0104600D01*
X0146600Y0099200D01*
X0144516Y0096587D02*
X0134026Y0096587D01*
X0134026Y0095989D02*
X0145114Y0095989D01*
X0145713Y0095390D02*
X0134026Y0095390D01*
X0134026Y0094792D02*
X0147974Y0094792D01*
X0147974Y0094193D02*
X0134026Y0094193D01*
X0134026Y0093595D02*
X0147974Y0093595D01*
X0147974Y0092996D02*
X0134026Y0092996D01*
X0134026Y0092398D02*
X0147974Y0092398D01*
X0147974Y0091799D02*
X0134026Y0091799D01*
X0133536Y0091201D02*
X0148464Y0091201D01*
X0143917Y0097186D02*
X0134026Y0097186D01*
X0134026Y0097784D02*
X0143319Y0097784D01*
X0142720Y0098383D02*
X0134026Y0098383D01*
X0134026Y0098981D02*
X0142122Y0098981D01*
X0141523Y0099580D02*
X0134026Y0099580D01*
X0134026Y0100178D02*
X0140925Y0100178D01*
X0140326Y0100777D02*
X0133559Y0100777D01*
X0131000Y0104600D02*
X0122600Y0096200D01*
X0122299Y0096000D01*
X0122000Y0095600D01*
X0120800Y0094400D01*
X0120800Y0081200D01*
X0120488Y0081000D01*
X0123396Y0080427D02*
X0128204Y0080427D01*
X0128204Y0079829D02*
X0123396Y0079829D01*
X0123396Y0079230D02*
X0128204Y0079230D01*
X0128204Y0078632D02*
X0123396Y0078632D01*
X0123396Y0078033D02*
X0128204Y0078033D01*
X0128204Y0077435D02*
X0123396Y0077435D01*
X0123188Y0076836D02*
X0128338Y0076836D01*
X0128947Y0076238D02*
X0110000Y0076238D01*
X0110000Y0076836D02*
X0117789Y0076836D01*
X0117800Y0076400D02*
X0126800Y0076400D01*
X0131212Y0076238D02*
X0131812Y0076238D01*
X0131812Y0076836D02*
X0131212Y0076836D01*
X0131212Y0077435D02*
X0131812Y0077435D01*
X0131812Y0078033D02*
X0131212Y0078033D01*
X0131212Y0078632D02*
X0131812Y0078632D01*
X0131812Y0079230D02*
X0131212Y0079230D01*
X0131212Y0079829D02*
X0131812Y0079829D01*
X0131812Y0080427D02*
X0131212Y0080427D01*
X0131212Y0082223D02*
X0131812Y0082223D01*
X0131812Y0082821D02*
X0131212Y0082821D01*
X0131212Y0083420D02*
X0131812Y0083420D01*
X0131812Y0084018D02*
X0131212Y0084018D01*
X0131212Y0084617D02*
X0131812Y0084617D01*
X0131812Y0085215D02*
X0131212Y0085215D01*
X0131212Y0085814D02*
X0131812Y0085814D01*
X0122000Y0087011D02*
X0159800Y0087011D01*
X0159800Y0087609D02*
X0122000Y0087609D01*
X0122000Y0088208D02*
X0159800Y0088208D01*
X0159800Y0088806D02*
X0122000Y0088806D01*
X0122000Y0089405D02*
X0159800Y0089405D01*
X0159800Y0090003D02*
X0122000Y0090003D01*
X0122000Y0090602D02*
X0159800Y0090602D01*
X0162200Y0090602D02*
X0170600Y0090602D01*
X0170600Y0090003D02*
X0162200Y0090003D01*
X0162200Y0089405D02*
X0170600Y0089405D01*
X0170600Y0088806D02*
X0162200Y0088806D01*
X0162200Y0088208D02*
X0170600Y0088208D01*
X0170600Y0087609D02*
X0162200Y0087609D01*
X0162200Y0087011D02*
X0170600Y0087011D01*
X0170600Y0086412D02*
X0162200Y0086412D01*
X0162200Y0085814D02*
X0170600Y0085814D01*
X0170600Y0085215D02*
X0164160Y0085215D01*
X0164420Y0084617D02*
X0170600Y0084617D01*
X0170600Y0084018D02*
X0164420Y0084018D01*
X0164420Y0083420D02*
X0170600Y0083420D01*
X0170600Y0082821D02*
X0164420Y0082821D01*
X0164420Y0082223D02*
X0170600Y0082223D01*
X0170600Y0081624D02*
X0164420Y0081624D01*
X0164420Y0081026D02*
X0170600Y0081026D01*
X0170530Y0080427D02*
X0164420Y0080427D01*
X0164420Y0079829D02*
X0169932Y0079829D01*
X0169333Y0079230D02*
X0164420Y0079230D01*
X0164420Y0078632D02*
X0168735Y0078632D01*
X0168136Y0078033D02*
X0164420Y0078033D01*
X0164420Y0077435D02*
X0167538Y0077435D01*
X0166939Y0076836D02*
X0164211Y0076836D01*
X0165742Y0075639D02*
X0110000Y0075639D01*
X0110000Y0075041D02*
X0165144Y0075041D01*
X0164545Y0074442D02*
X0110000Y0074442D01*
X0110000Y0073844D02*
X0163947Y0073844D01*
X0163348Y0073245D02*
X0110000Y0073245D01*
X0110000Y0072647D02*
X0162750Y0072647D01*
X0162151Y0072048D02*
X0110000Y0072048D01*
X0110000Y0071450D02*
X0161553Y0071450D01*
X0160954Y0070851D02*
X0110000Y0070851D01*
X0110000Y0070253D02*
X0160356Y0070253D01*
X0159757Y0069654D02*
X0110000Y0069654D01*
X0110000Y0069056D02*
X0159159Y0069056D01*
X0158560Y0068457D02*
X0110000Y0068457D01*
X0110000Y0067859D02*
X0157962Y0067859D01*
X0157363Y0067260D02*
X0110000Y0067260D01*
X0110000Y0066662D02*
X0156765Y0066662D01*
X0156166Y0066063D02*
X0110000Y0066063D01*
X0110000Y0065465D02*
X0155567Y0065465D01*
X0159569Y0062472D02*
X0182600Y0062472D01*
X0182600Y0063070D02*
X0160168Y0063070D01*
X0160766Y0063669D02*
X0182600Y0063669D01*
X0182600Y0064268D02*
X0161365Y0064268D01*
X0161963Y0064866D02*
X0182600Y0064866D01*
X0182600Y0065465D02*
X0162562Y0065465D01*
X0163160Y0066063D02*
X0182600Y0066063D01*
X0182600Y0066662D02*
X0163759Y0066662D01*
X0164357Y0067260D02*
X0182600Y0067260D01*
X0182600Y0067859D02*
X0164956Y0067859D01*
X0165554Y0068457D02*
X0182600Y0068457D01*
X0182600Y0069056D02*
X0166153Y0069056D01*
X0166751Y0069654D02*
X0182600Y0069654D01*
X0182600Y0070253D02*
X0167350Y0070253D01*
X0167948Y0070851D02*
X0182600Y0070851D01*
X0182600Y0071450D02*
X0168547Y0071450D01*
X0169145Y0072048D02*
X0182600Y0072048D01*
X0182600Y0072647D02*
X0169744Y0072647D01*
X0170342Y0073245D02*
X0182600Y0073245D01*
X0182600Y0073844D02*
X0170941Y0073844D01*
X0171539Y0074442D02*
X0182600Y0074442D01*
X0182600Y0075041D02*
X0172138Y0075041D01*
X0172736Y0075639D02*
X0182600Y0075639D01*
X0182600Y0076238D02*
X0173335Y0076238D01*
X0173933Y0076836D02*
X0182600Y0076836D01*
X0182600Y0077435D02*
X0174532Y0077435D01*
X0175130Y0078033D02*
X0182600Y0078033D01*
X0182600Y0078632D02*
X0175400Y0078632D01*
X0175400Y0079230D02*
X0182600Y0079230D01*
X0182600Y0079829D02*
X0175400Y0079829D01*
X0175400Y0080427D02*
X0182600Y0080427D01*
X0182600Y0081026D02*
X0175400Y0081026D01*
X0175400Y0081624D02*
X0182600Y0081624D01*
X0182600Y0082223D02*
X0175400Y0082223D01*
X0175400Y0082821D02*
X0182600Y0082821D01*
X0182600Y0083420D02*
X0175400Y0083420D01*
X0175400Y0084018D02*
X0182600Y0084018D01*
X0182600Y0084617D02*
X0175400Y0084617D01*
X0175400Y0085215D02*
X0182600Y0085215D01*
X0182600Y0085814D02*
X0175400Y0085814D01*
X0175400Y0086412D02*
X0182600Y0086412D01*
X0182600Y0087011D02*
X0175400Y0087011D01*
X0175400Y0087609D02*
X0182600Y0087609D01*
X0182600Y0088208D02*
X0175400Y0088208D01*
X0175400Y0088806D02*
X0182600Y0088806D01*
X0182600Y0089405D02*
X0175400Y0089405D01*
X0175400Y0090003D02*
X0182600Y0090003D01*
X0182600Y0090602D02*
X0175400Y0090602D01*
X0175400Y0091201D02*
X0182600Y0091201D01*
X0182600Y0091799D02*
X0175400Y0091799D01*
X0175400Y0092398D02*
X0182600Y0092398D01*
X0182600Y0092996D02*
X0175400Y0092996D01*
X0175400Y0093595D02*
X0182308Y0093595D01*
X0181710Y0094193D02*
X0175400Y0094193D01*
X0175400Y0094792D02*
X0181111Y0094792D01*
X0180513Y0095390D02*
X0175400Y0095390D01*
X0175400Y0095989D02*
X0179914Y0095989D01*
X0179316Y0096587D02*
X0175400Y0096587D01*
X0175400Y0097186D02*
X0178717Y0097186D01*
X0178119Y0097784D02*
X0175400Y0097784D01*
X0175400Y0098383D02*
X0177520Y0098383D01*
X0176922Y0098981D02*
X0175400Y0098981D01*
X0175400Y0099580D02*
X0176323Y0099580D01*
X0175725Y0100178D02*
X0175400Y0100178D01*
X0179000Y0103400D02*
X0179000Y0123200D01*
X0176000Y0126200D01*
X0173000Y0126200D01*
X0172496Y0126315D01*
X0173000Y0128000D02*
X0172496Y0128283D01*
X0173000Y0128000D02*
X0176000Y0128000D01*
X0182600Y0121400D01*
X0182600Y0098600D01*
X0186200Y0095000D01*
X0186200Y0075800D01*
X0191000Y0071000D01*
X0187636Y0067859D02*
X0186200Y0067859D01*
X0186200Y0068457D02*
X0187074Y0068457D01*
X0186826Y0069056D02*
X0186200Y0069056D01*
X0186200Y0069654D02*
X0186578Y0069654D01*
X0186400Y0070253D02*
X0186200Y0070253D01*
X0186200Y0070851D02*
X0186400Y0070851D01*
X0186400Y0071450D02*
X0186200Y0071450D01*
X0186200Y0072048D02*
X0186455Y0072048D01*
X0186703Y0072647D02*
X0186200Y0072647D01*
X0186200Y0073245D02*
X0186951Y0073245D01*
X0186459Y0073844D02*
X0186200Y0073844D01*
X0187400Y0076836D02*
X0189032Y0076836D01*
X0188060Y0077435D02*
X0187400Y0077435D01*
X0187400Y0078033D02*
X0187461Y0078033D01*
X0191000Y0081000D02*
X0191000Y0081200D01*
X0195800Y0086000D01*
X0195800Y0093200D01*
X0193400Y0095600D01*
X0189800Y0095600D01*
X0183800Y0101600D01*
X0183800Y0122000D01*
X0175400Y0130400D01*
X0173000Y0130400D01*
X0172496Y0130252D01*
X0172400Y0132200D02*
X0172496Y0132220D01*
X0172400Y0132200D02*
X0169400Y0132200D01*
X0167600Y0130400D01*
X0166123Y0128907D02*
X0116000Y0128907D01*
X0116000Y0129505D02*
X0165525Y0129505D01*
X0165500Y0130104D02*
X0116000Y0130104D01*
X0116000Y0130702D02*
X0165500Y0130702D01*
X0166722Y0128308D02*
X0116000Y0128308D01*
X0116000Y0127710D02*
X0121813Y0127710D01*
X0121214Y0127111D02*
X0116000Y0127111D01*
X0116000Y0126513D02*
X0120616Y0126513D01*
X0120017Y0125914D02*
X0116000Y0125914D01*
X0116000Y0125316D02*
X0119419Y0125316D01*
X0118820Y0124717D02*
X0116000Y0124717D01*
X0116000Y0124119D02*
X0118222Y0124119D01*
X0117623Y0123520D02*
X0116000Y0123520D01*
X0116000Y0122922D02*
X0117025Y0122922D01*
X0116426Y0122323D02*
X0116000Y0122323D01*
X0114800Y0120800D02*
X0091400Y0097400D01*
X0037400Y0097400D01*
X0021000Y0081000D01*
X0016400Y0083000D02*
X0016400Y0055400D01*
X0020600Y0051200D01*
X0021000Y0051000D01*
X0023148Y0046911D02*
X0024800Y0046911D01*
X0024800Y0047509D02*
X0024015Y0047509D01*
X0024613Y0048108D02*
X0024800Y0048108D01*
X0024800Y0046312D02*
X0011000Y0046312D01*
X0011000Y0045714D02*
X0024217Y0045714D01*
X0023618Y0045115D02*
X0023085Y0045115D01*
X0025217Y0043320D02*
X0046423Y0043320D01*
X0047021Y0043918D02*
X0025815Y0043918D01*
X0026414Y0044517D02*
X0047620Y0044517D01*
X0048218Y0045115D02*
X0027012Y0045115D01*
X0027200Y0045714D02*
X0048817Y0045714D01*
X0049415Y0046312D02*
X0027200Y0046312D01*
X0027200Y0046911D02*
X0050014Y0046911D01*
X0050612Y0047509D02*
X0027200Y0047509D01*
X0027200Y0048108D02*
X0051211Y0048108D01*
X0051809Y0048706D02*
X0027200Y0048706D01*
X0027200Y0049305D02*
X0052408Y0049305D01*
X0053006Y0049903D02*
X0027200Y0049903D01*
X0027200Y0050502D02*
X0053600Y0050502D01*
X0053600Y0050497D02*
X0043585Y0040482D01*
X0042869Y0041198D01*
X0041656Y0041700D01*
X0040344Y0041700D01*
X0039131Y0041198D01*
X0038202Y0040269D01*
X0037700Y0039056D01*
X0037978Y0039729D02*
X0025452Y0039729D01*
X0025600Y0040327D02*
X0038260Y0040327D01*
X0038859Y0040926D02*
X0025600Y0040926D01*
X0025600Y0041524D02*
X0039919Y0041524D01*
X0042081Y0041524D02*
X0044627Y0041524D01*
X0044029Y0040926D02*
X0043141Y0040926D01*
X0045226Y0042123D02*
X0025514Y0042123D01*
X0025266Y0042721D02*
X0045824Y0042721D01*
X0052081Y0041524D02*
X0054827Y0041524D01*
X0054229Y0040926D02*
X0053141Y0040926D01*
X0054800Y0050000D02*
X0041000Y0036200D01*
X0041000Y0036000D01*
X0053600Y0050497D02*
X0053600Y0061533D01*
X0052869Y0060802D01*
X0051656Y0060300D01*
X0050344Y0060300D01*
X0049131Y0060802D01*
X0048202Y0061731D01*
X0047700Y0062944D01*
X0047700Y0069056D01*
X0047948Y0069654D02*
X0044485Y0069654D01*
X0044212Y0070253D02*
X0048195Y0070253D01*
X0048784Y0070851D02*
X0043781Y0070851D01*
X0043096Y0071450D02*
X0049739Y0071450D01*
X0052261Y0071450D02*
X0053600Y0071450D01*
X0053600Y0072048D02*
X0041625Y0072048D01*
X0041944Y0072647D02*
X0053600Y0072647D01*
X0053600Y0073245D02*
X0042542Y0073245D01*
X0043141Y0073844D02*
X0053600Y0073844D01*
X0053600Y0074442D02*
X0043739Y0074442D01*
X0044338Y0075041D02*
X0053600Y0075041D01*
X0053600Y0075639D02*
X0044936Y0075639D01*
X0045535Y0076238D02*
X0053192Y0076238D01*
X0052700Y0076836D02*
X0046133Y0076836D01*
X0046732Y0077435D02*
X0052700Y0077435D01*
X0052700Y0078033D02*
X0047330Y0078033D01*
X0047929Y0078632D02*
X0052862Y0078632D01*
X0053460Y0079230D02*
X0048527Y0079230D01*
X0054800Y0077600D02*
X0054800Y0050000D01*
X0053600Y0051100D02*
X0027200Y0051100D01*
X0027200Y0051699D02*
X0053600Y0051699D01*
X0053600Y0052297D02*
X0027200Y0052297D01*
X0027200Y0052896D02*
X0053600Y0052896D01*
X0053600Y0053494D02*
X0027200Y0053494D01*
X0027200Y0054093D02*
X0053600Y0054093D01*
X0053600Y0054691D02*
X0027200Y0054691D01*
X0027200Y0055290D02*
X0053600Y0055290D01*
X0053600Y0055888D02*
X0027200Y0055888D01*
X0027200Y0056487D02*
X0053600Y0056487D01*
X0053600Y0057085D02*
X0027200Y0057085D01*
X0027200Y0057684D02*
X0053600Y0057684D01*
X0053600Y0058282D02*
X0027579Y0058282D01*
X0028178Y0058881D02*
X0053600Y0058881D01*
X0053600Y0059479D02*
X0028776Y0059479D01*
X0029375Y0060078D02*
X0039834Y0060078D01*
X0039921Y0060042D02*
X0040636Y0059900D01*
X0040700Y0059900D01*
X0040700Y0065700D01*
X0037300Y0065700D01*
X0037300Y0063236D01*
X0037442Y0062521D01*
X0037721Y0061847D01*
X0038126Y0061241D01*
X0038641Y0060726D01*
X0039247Y0060321D01*
X0039921Y0060042D01*
X0040700Y0060078D02*
X0041300Y0060078D01*
X0041300Y0060676D02*
X0040700Y0060676D01*
X0040700Y0061275D02*
X0041300Y0061275D01*
X0041300Y0061873D02*
X0040700Y0061873D01*
X0040700Y0062472D02*
X0041300Y0062472D01*
X0041300Y0063070D02*
X0040700Y0063070D01*
X0040700Y0063669D02*
X0041300Y0063669D01*
X0041300Y0064268D02*
X0040700Y0064268D01*
X0040700Y0064866D02*
X0041300Y0064866D01*
X0041300Y0065465D02*
X0040700Y0065465D01*
X0040700Y0066063D02*
X0035360Y0066063D01*
X0034762Y0065465D02*
X0037300Y0065465D01*
X0037300Y0064866D02*
X0034163Y0064866D01*
X0033565Y0064268D02*
X0037300Y0064268D01*
X0037300Y0063669D02*
X0032966Y0063669D01*
X0032368Y0063070D02*
X0037333Y0063070D01*
X0037462Y0062472D02*
X0031769Y0062472D01*
X0031170Y0061873D02*
X0037710Y0061873D01*
X0038104Y0061275D02*
X0030572Y0061275D01*
X0029973Y0060676D02*
X0038716Y0060676D01*
X0042166Y0060078D02*
X0053600Y0060078D01*
X0053600Y0060676D02*
X0052565Y0060676D01*
X0053342Y0061275D02*
X0053600Y0061275D01*
X0049435Y0060676D02*
X0043284Y0060676D01*
X0043896Y0061275D02*
X0048658Y0061275D01*
X0048143Y0061873D02*
X0044290Y0061873D01*
X0044538Y0062472D02*
X0047895Y0062472D01*
X0047700Y0063070D02*
X0044667Y0063070D01*
X0044700Y0063669D02*
X0047700Y0063669D01*
X0047700Y0064268D02*
X0044700Y0064268D01*
X0044700Y0064866D02*
X0047700Y0064866D01*
X0053216Y0070851D02*
X0053600Y0070851D01*
X0061000Y0066000D02*
X0061400Y0066200D01*
X0061400Y0080600D01*
X0061079Y0081000D01*
X0070921Y0081000D02*
X0071000Y0080600D01*
X0071000Y0066000D01*
X0075800Y0069200D02*
X0075800Y0048200D01*
X0064400Y0036800D01*
X0064400Y0032000D01*
X0059600Y0027200D01*
X0064848Y0030751D02*
X0069255Y0030751D01*
X0068584Y0031349D02*
X0065446Y0031349D01*
X0065600Y0031948D02*
X0068112Y0031948D01*
X0067865Y0032546D02*
X0065600Y0032546D01*
X0065600Y0033145D02*
X0067700Y0033145D01*
X0067700Y0033743D02*
X0065600Y0033743D01*
X0065600Y0034342D02*
X0067700Y0034342D01*
X0067700Y0034940D02*
X0065600Y0034940D01*
X0065600Y0035539D02*
X0067700Y0035539D01*
X0067700Y0036137D02*
X0065600Y0036137D01*
X0066033Y0036736D02*
X0067700Y0036736D01*
X0067700Y0037334D02*
X0066632Y0037334D01*
X0067230Y0037933D02*
X0067700Y0037933D01*
X0075800Y0022400D02*
X0096800Y0043400D01*
X0096800Y0078200D01*
X0099800Y0081026D02*
X0089323Y0081026D01*
X0089921Y0081624D02*
X0099800Y0081624D01*
X0099800Y0082223D02*
X0090520Y0082223D01*
X0091118Y0082821D02*
X0099800Y0082821D01*
X0099800Y0083420D02*
X0091717Y0083420D01*
X0092315Y0084018D02*
X0099412Y0084018D01*
X0098900Y0084617D02*
X0092914Y0084617D01*
X0093512Y0085215D02*
X0098900Y0085215D01*
X0098900Y0085814D02*
X0094111Y0085814D01*
X0094709Y0086412D02*
X0099043Y0086412D01*
X0099641Y0087011D02*
X0095308Y0087011D01*
X0095906Y0087609D02*
X0107600Y0087609D01*
X0107600Y0087011D02*
X0102359Y0087011D01*
X0102957Y0086412D02*
X0107600Y0086412D01*
X0107600Y0085814D02*
X0103100Y0085814D01*
X0103100Y0085215D02*
X0107600Y0085215D01*
X0107600Y0084617D02*
X0103100Y0084617D01*
X0102588Y0084018D02*
X0107600Y0084018D01*
X0107600Y0083420D02*
X0102200Y0083420D01*
X0102200Y0082821D02*
X0107600Y0082821D01*
X0107600Y0082223D02*
X0102200Y0082223D01*
X0102200Y0081624D02*
X0107600Y0081624D01*
X0107600Y0081026D02*
X0102200Y0081026D01*
X0102200Y0080427D02*
X0107600Y0080427D01*
X0107600Y0079829D02*
X0102200Y0079829D01*
X0102200Y0079230D02*
X0107600Y0079230D01*
X0107600Y0078632D02*
X0102200Y0078632D01*
X0102200Y0078033D02*
X0107600Y0078033D01*
X0107600Y0077435D02*
X0102200Y0077435D01*
X0102200Y0076836D02*
X0107600Y0076836D01*
X0107600Y0076238D02*
X0102200Y0076238D01*
X0102200Y0075639D02*
X0107600Y0075639D01*
X0107600Y0075041D02*
X0102200Y0075041D01*
X0102200Y0074442D02*
X0107600Y0074442D01*
X0107600Y0073844D02*
X0102200Y0073844D01*
X0102200Y0073245D02*
X0107600Y0073245D01*
X0107600Y0072647D02*
X0102200Y0072647D01*
X0102200Y0072048D02*
X0107600Y0072048D01*
X0107600Y0071450D02*
X0102200Y0071450D01*
X0102200Y0070851D02*
X0107600Y0070851D01*
X0107600Y0070253D02*
X0102200Y0070253D01*
X0102200Y0069654D02*
X0107600Y0069654D01*
X0107600Y0069056D02*
X0102200Y0069056D01*
X0102200Y0068457D02*
X0107600Y0068457D01*
X0107600Y0067859D02*
X0102200Y0067859D01*
X0102200Y0067260D02*
X0107600Y0067260D01*
X0107600Y0066662D02*
X0102200Y0066662D01*
X0102200Y0066063D02*
X0107600Y0066063D01*
X0107600Y0065465D02*
X0102200Y0065465D01*
X0102200Y0064866D02*
X0107600Y0064866D01*
X0107600Y0064268D02*
X0102200Y0064268D01*
X0102200Y0063669D02*
X0107600Y0063669D01*
X0107327Y0063070D02*
X0102200Y0063070D01*
X0102200Y0062472D02*
X0107079Y0062472D01*
X0106831Y0061873D02*
X0102200Y0061873D01*
X0102200Y0061275D02*
X0106754Y0061275D01*
X0106754Y0060676D02*
X0102200Y0060676D01*
X0102200Y0060078D02*
X0106754Y0060078D01*
X0106968Y0059479D02*
X0102200Y0059479D01*
X0102200Y0058881D02*
X0107216Y0058881D01*
X0107555Y0058282D02*
X0102200Y0058282D01*
X0102200Y0057684D02*
X0108153Y0057684D01*
X0102200Y0054691D02*
X0131826Y0054691D01*
X0131826Y0054093D02*
X0102200Y0054093D01*
X0102200Y0053494D02*
X0131826Y0053494D01*
X0131826Y0052896D02*
X0102200Y0052896D01*
X0102200Y0052297D02*
X0131876Y0052297D01*
X0132242Y0051699D02*
X0102200Y0051699D01*
X0102200Y0051100D02*
X0143000Y0051100D01*
X0143000Y0050502D02*
X0102200Y0050502D01*
X0102200Y0049903D02*
X0143000Y0049903D01*
X0143000Y0049305D02*
X0102200Y0049305D01*
X0102200Y0047509D02*
X0112939Y0047509D01*
X0112341Y0046911D02*
X0102200Y0046911D01*
X0102200Y0040327D02*
X0106427Y0040327D01*
X0106579Y0039729D02*
X0102200Y0039729D01*
X0102200Y0039130D02*
X0106818Y0039130D01*
X0107165Y0038532D02*
X0102200Y0038532D01*
X0102200Y0037933D02*
X0107653Y0037933D01*
X0108357Y0037334D02*
X0102200Y0037334D01*
X0102200Y0036736D02*
X0109572Y0036736D01*
X0113643Y0037334D02*
X0138837Y0037334D01*
X0139436Y0037933D02*
X0114347Y0037933D01*
X0114835Y0038532D02*
X0140034Y0038532D01*
X0140633Y0039130D02*
X0115182Y0039130D01*
X0115421Y0039729D02*
X0141232Y0039729D01*
X0141830Y0040327D02*
X0115573Y0040327D01*
X0118700Y0030152D02*
X0102200Y0030152D01*
X0102200Y0029554D02*
X0119076Y0029554D01*
X0119675Y0028955D02*
X0102200Y0028955D01*
X0102200Y0028357D02*
X0131660Y0028357D01*
X0132258Y0028955D02*
X0121925Y0028955D01*
X0122524Y0029554D02*
X0132857Y0029554D01*
X0131061Y0027758D02*
X0127412Y0027758D01*
X0127936Y0024766D02*
X0128260Y0024766D01*
X0126837Y0022970D02*
X0125163Y0022970D01*
X0125411Y0022372D02*
X0126589Y0022372D01*
X0126400Y0021773D02*
X0125600Y0021773D01*
X0125600Y0021175D02*
X0126400Y0021175D01*
X0126400Y0020576D02*
X0125600Y0020576D01*
X0125556Y0019978D02*
X0126444Y0019978D01*
X0126692Y0019379D02*
X0125308Y0019379D01*
X0125060Y0018781D02*
X0126940Y0018781D01*
X0127312Y0018182D02*
X0124688Y0018182D01*
X0124089Y0017584D02*
X0127911Y0017584D01*
X0128672Y0016985D02*
X0123328Y0016985D01*
X0118672Y0016985D02*
X0113328Y0016985D01*
X0113606Y0017100D02*
X0114900Y0018394D01*
X0115600Y0020085D01*
X0115600Y0021915D01*
X0114900Y0023606D01*
X0113606Y0024900D01*
X0111915Y0025600D01*
X0110085Y0025600D01*
X0108394Y0024900D01*
X0107100Y0023606D01*
X0106400Y0021915D01*
X0106400Y0020085D01*
X0107100Y0018394D01*
X0108394Y0017100D01*
X0110085Y0016400D01*
X0111915Y0016400D01*
X0113606Y0017100D01*
X0114089Y0017584D02*
X0117911Y0017584D01*
X0117312Y0018182D02*
X0114688Y0018182D01*
X0115060Y0018781D02*
X0116940Y0018781D01*
X0116692Y0019379D02*
X0115308Y0019379D01*
X0115556Y0019978D02*
X0116444Y0019978D01*
X0116400Y0020576D02*
X0115600Y0020576D01*
X0115600Y0021175D02*
X0116400Y0021175D01*
X0116400Y0021773D02*
X0115600Y0021773D01*
X0115411Y0022372D02*
X0116589Y0022372D01*
X0116837Y0022970D02*
X0115163Y0022970D01*
X0114915Y0023569D02*
X0117085Y0023569D01*
X0117662Y0024167D02*
X0114338Y0024167D01*
X0113740Y0024766D02*
X0118260Y0024766D01*
X0119516Y0025364D02*
X0112484Y0025364D01*
X0109516Y0025364D02*
X0102484Y0025364D01*
X0103740Y0024766D02*
X0108260Y0024766D01*
X0107662Y0024167D02*
X0104338Y0024167D01*
X0104915Y0023569D02*
X0107085Y0023569D01*
X0106837Y0022970D02*
X0105163Y0022970D01*
X0105411Y0022372D02*
X0106589Y0022372D01*
X0106400Y0021773D02*
X0105600Y0021773D01*
X0105600Y0021175D02*
X0106400Y0021175D01*
X0106400Y0020576D02*
X0105600Y0020576D01*
X0105556Y0019978D02*
X0106444Y0019978D01*
X0106692Y0019379D02*
X0105308Y0019379D01*
X0105060Y0018781D02*
X0106940Y0018781D01*
X0107312Y0018182D02*
X0104688Y0018182D01*
X0104089Y0017584D02*
X0107911Y0017584D01*
X0108672Y0016985D02*
X0103328Y0016985D01*
X0101000Y0021000D02*
X0101000Y0085400D01*
X0097104Y0088806D02*
X0107600Y0088806D01*
X0107600Y0088208D02*
X0096505Y0088208D01*
X0097702Y0089405D02*
X0107600Y0089405D01*
X0107600Y0090003D02*
X0098301Y0090003D01*
X0098899Y0090602D02*
X0107600Y0090602D01*
X0107600Y0091201D02*
X0099498Y0091201D01*
X0100096Y0091799D02*
X0107600Y0091799D01*
X0107600Y0092398D02*
X0100695Y0092398D01*
X0101293Y0092996D02*
X0107600Y0092996D01*
X0107600Y0093595D02*
X0101892Y0093595D01*
X0102490Y0094193D02*
X0107600Y0094193D01*
X0107600Y0094792D02*
X0103089Y0094792D01*
X0103687Y0095390D02*
X0107600Y0095390D01*
X0107600Y0095989D02*
X0104286Y0095989D01*
X0104884Y0096587D02*
X0107600Y0096587D01*
X0107600Y0097186D02*
X0105483Y0097186D01*
X0106081Y0097784D02*
X0107600Y0097784D01*
X0107600Y0098383D02*
X0106680Y0098383D01*
X0107278Y0098981D02*
X0107600Y0098981D01*
X0110000Y0098981D02*
X0110572Y0098981D01*
X0110572Y0098383D02*
X0110000Y0098383D01*
X0110000Y0097784D02*
X0110572Y0097784D01*
X0110572Y0097186D02*
X0110000Y0097186D01*
X0110000Y0096587D02*
X0110572Y0096587D01*
X0110572Y0095989D02*
X0110000Y0095989D01*
X0110000Y0095390D02*
X0110572Y0095390D01*
X0110572Y0094792D02*
X0110000Y0094792D01*
X0110000Y0094193D02*
X0110572Y0094193D01*
X0110572Y0093595D02*
X0110000Y0093595D01*
X0110000Y0092996D02*
X0110572Y0092996D01*
X0110572Y0092398D02*
X0110000Y0092398D01*
X0110000Y0091799D02*
X0110572Y0091799D01*
X0111062Y0091201D02*
X0110000Y0091201D01*
X0110000Y0090602D02*
X0119600Y0090602D01*
X0119600Y0090003D02*
X0110000Y0090003D01*
X0110000Y0089405D02*
X0119600Y0089405D01*
X0119600Y0088806D02*
X0110000Y0088806D01*
X0110000Y0088208D02*
X0119600Y0088208D01*
X0119600Y0087609D02*
X0110000Y0087609D01*
X0110000Y0087011D02*
X0119600Y0087011D01*
X0119600Y0086412D02*
X0110000Y0086412D01*
X0110000Y0085814D02*
X0119600Y0085814D01*
X0117840Y0085215D02*
X0110000Y0085215D01*
X0110000Y0084617D02*
X0117580Y0084617D01*
X0117580Y0084018D02*
X0110000Y0084018D01*
X0110000Y0084200D02*
X0117800Y0076400D01*
X0117580Y0077435D02*
X0110000Y0077435D01*
X0110000Y0078033D02*
X0117580Y0078033D01*
X0117580Y0078632D02*
X0110000Y0078632D01*
X0110000Y0079230D02*
X0117580Y0079230D01*
X0117580Y0079829D02*
X0110000Y0079829D01*
X0110000Y0080427D02*
X0117580Y0080427D01*
X0117580Y0081026D02*
X0110000Y0081026D01*
X0110000Y0081624D02*
X0117580Y0081624D01*
X0117580Y0082223D02*
X0110000Y0082223D01*
X0110000Y0082821D02*
X0117580Y0082821D01*
X0117580Y0083420D02*
X0110000Y0083420D01*
X0110000Y0084200D02*
X0110000Y0099800D01*
X0111200Y0101000D01*
X0125600Y0101000D01*
X0129800Y0105200D01*
X0129800Y0106400D01*
X0129200Y0107000D01*
X0129200Y0114200D01*
X0129189Y0114504D01*
X0129189Y0110251D01*
X0129189Y0114504D01*
X0129189Y0114504D01*
X0129189Y0113944D02*
X0129189Y0113944D01*
X0129189Y0113345D02*
X0129189Y0113345D01*
X0129189Y0112747D02*
X0129189Y0112747D01*
X0129189Y0112148D02*
X0129189Y0112148D01*
X0129189Y0111550D02*
X0129189Y0111550D01*
X0129189Y0110951D02*
X0129189Y0110951D01*
X0129189Y0110353D02*
X0129189Y0110353D01*
X0128600Y0109754D02*
X0129800Y0109754D01*
X0129800Y0109156D02*
X0128600Y0109156D01*
X0128600Y0108557D02*
X0129800Y0108557D01*
X0129800Y0107959D02*
X0128600Y0107959D01*
X0128810Y0107360D02*
X0129800Y0107360D01*
X0129800Y0106762D02*
X0129408Y0106762D01*
X0129500Y0106163D02*
X0129800Y0106163D01*
X0129800Y0105565D02*
X0129500Y0105565D01*
X0129500Y0104966D02*
X0129669Y0104966D01*
X0129071Y0104368D02*
X0128938Y0104368D01*
X0128472Y0103769D02*
X0128339Y0103769D01*
X0127275Y0102572D02*
X0118069Y0102572D01*
X0117471Y0101974D02*
X0126677Y0101974D01*
X0126078Y0101375D02*
X0116872Y0101375D01*
X0111039Y0100777D02*
X0110874Y0100777D01*
X0110572Y0100178D02*
X0110275Y0100178D01*
X0110000Y0099580D02*
X0110572Y0099580D01*
X0117200Y0110600D02*
X0075800Y0069200D01*
X0057200Y0095000D02*
X0045200Y0095000D01*
X0021200Y0071000D01*
X0021000Y0071000D01*
X0016400Y0083000D02*
X0019400Y0086000D01*
X0023000Y0086000D01*
X0035600Y0098600D01*
X0061400Y0098600D01*
X0080600Y0117800D01*
X0080600Y0122000D01*
X0082400Y0123800D01*
X0090800Y0123800D01*
X0091400Y0124400D01*
X0109400Y0124400D01*
X0109504Y0124346D01*
X0109400Y0126200D02*
X0109504Y0126315D01*
X0109400Y0126200D02*
X0091400Y0126200D01*
X0090200Y0125000D01*
X0072200Y0125000D01*
X0065000Y0117800D01*
X0065000Y0111800D01*
X0054200Y0101000D01*
X0038600Y0101000D01*
X0045800Y0109400D02*
X0045800Y0116000D01*
X0041000Y0120800D01*
X0041000Y0121000D01*
X0036619Y0125316D02*
X0030413Y0125316D01*
X0031011Y0125914D02*
X0037217Y0125914D01*
X0037816Y0126513D02*
X0031610Y0126513D01*
X0032208Y0127111D02*
X0037846Y0127111D01*
X0037743Y0127186D02*
X0038274Y0126800D01*
X0038103Y0126800D01*
X0028400Y0117097D01*
X0028400Y0123303D01*
X0036397Y0131300D01*
X0040700Y0131300D01*
X0040700Y0130700D01*
X0036000Y0130700D01*
X0036000Y0130606D01*
X0036123Y0129829D01*
X0036366Y0129081D01*
X0036724Y0128379D01*
X0037186Y0127743D01*
X0037743Y0127186D01*
X0037219Y0127710D02*
X0032807Y0127710D01*
X0033405Y0128308D02*
X0036775Y0128308D01*
X0036455Y0128907D02*
X0034004Y0128907D01*
X0034602Y0129505D02*
X0036228Y0129505D01*
X0036080Y0130104D02*
X0035201Y0130104D01*
X0035799Y0130702D02*
X0040700Y0130702D01*
X0041300Y0130702D02*
X0046400Y0130702D01*
X0046000Y0130700D02*
X0041300Y0130700D01*
X0041300Y0131300D01*
X0046000Y0131300D01*
X0046000Y0131394D01*
X0045877Y0132171D01*
X0045634Y0132919D01*
X0045276Y0133621D01*
X0044814Y0134257D01*
X0044471Y0134600D01*
X0046897Y0134600D01*
X0047600Y0135303D01*
X0054697Y0142400D01*
X0059030Y0142400D01*
X0058700Y0142070D01*
X0058700Y0140330D01*
X0059930Y0139100D01*
X0061203Y0139100D01*
X0069303Y0131000D01*
X0071754Y0131000D01*
X0071754Y0129171D01*
X0072281Y0128643D01*
X0079719Y0128643D01*
X0080246Y0129171D01*
X0080246Y0130400D01*
X0081754Y0130400D01*
X0081754Y0129171D01*
X0082281Y0128643D01*
X0088546Y0128643D01*
X0088503Y0128600D01*
X0054985Y0128600D01*
X0055600Y0130085D01*
X0055600Y0131915D01*
X0054900Y0133606D01*
X0053606Y0134900D01*
X0051915Y0135600D01*
X0050085Y0135600D01*
X0048394Y0134900D01*
X0047100Y0133606D01*
X0046400Y0131915D01*
X0046400Y0130085D01*
X0047100Y0128394D01*
X0048394Y0127100D01*
X0049119Y0126800D01*
X0043726Y0126800D01*
X0044257Y0127186D01*
X0044814Y0127743D01*
X0045276Y0128379D01*
X0045634Y0129081D01*
X0045877Y0129829D01*
X0046000Y0130606D01*
X0046000Y0130700D01*
X0046000Y0131301D02*
X0046400Y0131301D01*
X0046400Y0131899D02*
X0045920Y0131899D01*
X0045771Y0132498D02*
X0046641Y0132498D01*
X0046889Y0133096D02*
X0045544Y0133096D01*
X0045222Y0133695D02*
X0047189Y0133695D01*
X0047788Y0134293D02*
X0044778Y0134293D01*
X0047189Y0134892D02*
X0048386Y0134892D01*
X0047787Y0135490D02*
X0049820Y0135490D01*
X0048984Y0136687D02*
X0063616Y0136687D01*
X0064214Y0136089D02*
X0048386Y0136089D01*
X0049583Y0137286D02*
X0063017Y0137286D01*
X0062419Y0137884D02*
X0050181Y0137884D01*
X0050780Y0138483D02*
X0061820Y0138483D01*
X0061222Y0139081D02*
X0051378Y0139081D01*
X0051977Y0139680D02*
X0059350Y0139680D01*
X0058752Y0140278D02*
X0052575Y0140278D01*
X0053174Y0140877D02*
X0058700Y0140877D01*
X0058700Y0141475D02*
X0053773Y0141475D01*
X0054371Y0142074D02*
X0058704Y0142074D01*
X0060800Y0141200D02*
X0069800Y0132200D01*
X0075800Y0132200D01*
X0076000Y0131709D01*
X0076400Y0131600D01*
X0086000Y0131600D01*
X0086000Y0131709D01*
X0086000Y0135800D02*
X0086000Y0140291D01*
X0087800Y0144800D02*
X0053600Y0144800D01*
X0055600Y0150453D02*
X0055756Y0150453D01*
X0055600Y0151052D02*
X0056355Y0151052D01*
X0056953Y0151650D02*
X0055600Y0151650D01*
X0055462Y0152249D02*
X0057552Y0152249D01*
X0058150Y0152847D02*
X0055214Y0152847D01*
X0054966Y0153446D02*
X0058749Y0153446D01*
X0059347Y0154044D02*
X0054461Y0154044D01*
X0053863Y0154643D02*
X0059946Y0154643D01*
X0060544Y0155241D02*
X0052781Y0155241D01*
X0037468Y0147461D02*
X0023966Y0147461D01*
X0024564Y0148059D02*
X0036956Y0148059D01*
X0036582Y0148658D02*
X0025009Y0148658D01*
X0025257Y0149256D02*
X0036309Y0149256D01*
X0036119Y0149855D02*
X0025505Y0149855D01*
X0025600Y0150453D02*
X0036024Y0150453D01*
X0036590Y0136687D02*
X0028584Y0136687D01*
X0027986Y0136089D02*
X0035992Y0136089D01*
X0035393Y0135490D02*
X0027387Y0135490D01*
X0026789Y0134892D02*
X0034795Y0134892D01*
X0034196Y0134293D02*
X0026190Y0134293D01*
X0025592Y0133695D02*
X0033598Y0133695D01*
X0032999Y0133096D02*
X0025111Y0133096D01*
X0025359Y0132498D02*
X0032401Y0132498D01*
X0031802Y0131899D02*
X0025600Y0131899D01*
X0025600Y0131301D02*
X0031204Y0131301D01*
X0030605Y0130702D02*
X0025600Y0130702D01*
X0025600Y0130104D02*
X0030007Y0130104D01*
X0029408Y0129505D02*
X0025360Y0129505D01*
X0025112Y0128907D02*
X0028810Y0128907D01*
X0028211Y0128308D02*
X0024814Y0128308D01*
X0024215Y0127710D02*
X0027613Y0127710D01*
X0027014Y0127111D02*
X0023617Y0127111D01*
X0022187Y0126513D02*
X0026416Y0126513D01*
X0025817Y0125914D02*
X0011000Y0125914D01*
X0011000Y0125316D02*
X0019399Y0125316D01*
X0019813Y0126513D02*
X0011000Y0126513D01*
X0011000Y0127111D02*
X0018383Y0127111D01*
X0018212Y0124717D02*
X0011000Y0124717D01*
X0011000Y0124119D02*
X0017613Y0124119D01*
X0017065Y0123520D02*
X0011000Y0123520D01*
X0011000Y0122922D02*
X0016817Y0122922D01*
X0016569Y0122323D02*
X0011000Y0122323D01*
X0011000Y0121725D02*
X0016400Y0121725D01*
X0016400Y0121126D02*
X0011000Y0121126D01*
X0011000Y0120528D02*
X0016400Y0120528D01*
X0016465Y0119929D02*
X0011000Y0119929D01*
X0011000Y0119331D02*
X0016713Y0119331D01*
X0016960Y0118732D02*
X0011000Y0118732D01*
X0011000Y0118134D02*
X0017361Y0118134D01*
X0017960Y0117535D02*
X0011000Y0117535D01*
X0011000Y0116937D02*
X0018790Y0116937D01*
X0023023Y0115141D02*
X0023444Y0115141D01*
X0024641Y0116338D02*
X0011000Y0116338D01*
X0011000Y0104966D02*
X0018555Y0104966D01*
X0017862Y0104368D02*
X0011000Y0104368D01*
X0011000Y0103769D02*
X0017264Y0103769D01*
X0016920Y0103171D02*
X0011000Y0103171D01*
X0011000Y0102572D02*
X0016672Y0102572D01*
X0016424Y0101974D02*
X0011000Y0101974D01*
X0011000Y0101375D02*
X0016400Y0101375D01*
X0016400Y0100777D02*
X0011000Y0100777D01*
X0011000Y0100178D02*
X0016400Y0100178D01*
X0016609Y0099580D02*
X0011000Y0099580D01*
X0011000Y0098981D02*
X0016857Y0098981D01*
X0017112Y0098383D02*
X0011000Y0098383D01*
X0011000Y0095390D02*
X0019578Y0095390D01*
X0018286Y0094792D02*
X0011000Y0094792D01*
X0023210Y0116937D02*
X0024800Y0116937D01*
X0024800Y0117535D02*
X0024040Y0117535D01*
X0024639Y0118134D02*
X0024800Y0118134D01*
X0028400Y0118134D02*
X0029436Y0118134D01*
X0028838Y0117535D02*
X0028400Y0117535D01*
X0028400Y0118732D02*
X0030035Y0118732D01*
X0030634Y0119331D02*
X0028400Y0119331D01*
X0028400Y0119929D02*
X0031232Y0119929D01*
X0031831Y0120528D02*
X0028400Y0120528D01*
X0028400Y0121126D02*
X0032429Y0121126D01*
X0033028Y0121725D02*
X0028400Y0121725D01*
X0028400Y0122323D02*
X0033626Y0122323D01*
X0034225Y0122922D02*
X0028400Y0122922D01*
X0028617Y0123520D02*
X0034823Y0123520D01*
X0035422Y0124119D02*
X0029216Y0124119D01*
X0029814Y0124717D02*
X0036020Y0124717D01*
X0044154Y0127111D02*
X0048383Y0127111D01*
X0047785Y0127710D02*
X0044781Y0127710D01*
X0045225Y0128308D02*
X0047186Y0128308D01*
X0046888Y0128907D02*
X0045545Y0128907D01*
X0045772Y0129505D02*
X0046640Y0129505D01*
X0046400Y0130104D02*
X0045920Y0130104D01*
X0052180Y0135490D02*
X0064813Y0135490D01*
X0065411Y0134892D02*
X0053614Y0134892D01*
X0054212Y0134293D02*
X0066010Y0134293D01*
X0066608Y0133695D02*
X0054811Y0133695D01*
X0055111Y0133096D02*
X0067207Y0133096D01*
X0067805Y0132498D02*
X0055359Y0132498D01*
X0055600Y0131899D02*
X0068404Y0131899D01*
X0069002Y0131301D02*
X0055600Y0131301D01*
X0055600Y0130702D02*
X0071754Y0130702D01*
X0071754Y0130104D02*
X0055600Y0130104D01*
X0055360Y0129505D02*
X0071754Y0129505D01*
X0072017Y0128907D02*
X0055112Y0128907D01*
X0066200Y0126200D02*
X0051000Y0111000D01*
X0053000Y0106400D02*
X0048800Y0106400D01*
X0045800Y0109400D01*
X0053000Y0106400D02*
X0059000Y0112400D01*
X0062600Y0112400D01*
X0070400Y0120200D02*
X0075800Y0120200D01*
X0076000Y0120291D01*
X0077600Y0113000D02*
X0077600Y0105200D01*
X0083000Y0099800D01*
X0080000Y0112400D02*
X0104600Y0112400D01*
X0113600Y0121400D01*
X0113600Y0129200D01*
X0112400Y0130400D01*
X0110000Y0130400D01*
X0109504Y0130252D01*
X0109400Y0132200D02*
X0109504Y0132220D01*
X0109400Y0132200D02*
X0102200Y0132200D01*
X0101000Y0136400D02*
X0109400Y0136400D01*
X0109504Y0136157D01*
X0109504Y0138126D02*
X0110000Y0138200D01*
X0112400Y0138200D01*
X0114800Y0135800D01*
X0114800Y0120800D01*
X0109504Y0122378D02*
X0109400Y0122000D01*
X0095000Y0122000D01*
X0087800Y0114800D01*
X0086000Y0120200D02*
X0086000Y0120291D01*
X0086000Y0120200D02*
X0084800Y0120200D01*
X0077600Y0113000D01*
X0066200Y0126200D02*
X0089600Y0126200D01*
X0091400Y0128000D01*
X0109400Y0128000D01*
X0109504Y0128283D01*
X0113357Y0140877D02*
X0127826Y0140877D01*
X0127227Y0141475D02*
X0113357Y0141475D01*
X0113357Y0142074D02*
X0126629Y0142074D01*
X0126030Y0142672D02*
X0113357Y0142672D01*
X0113357Y0143271D02*
X0125432Y0143271D01*
X0124833Y0143870D02*
X0113357Y0143870D01*
X0113357Y0144468D02*
X0124235Y0144468D01*
X0123636Y0145067D02*
X0113357Y0145067D01*
X0113357Y0145665D02*
X0123038Y0145665D01*
X0122439Y0146264D02*
X0113357Y0146264D01*
X0113357Y0146862D02*
X0121841Y0146862D01*
X0121242Y0147461D02*
X0113357Y0147461D01*
X0113357Y0148059D02*
X0120644Y0148059D01*
X0120045Y0148658D02*
X0113559Y0148658D01*
X0113757Y0149256D02*
X0119447Y0149256D01*
X0118848Y0149855D02*
X0113757Y0149855D01*
X0113757Y0150453D02*
X0118250Y0150453D01*
X0113600Y0159800D02*
X0110000Y0159800D01*
X0109504Y0159780D01*
X0109400Y0159800D01*
X0101000Y0159800D01*
X0088400Y0147200D01*
X0087200Y0147200D01*
X0087800Y0144800D02*
X0101000Y0158000D01*
X0109400Y0158000D01*
X0109504Y0157811D01*
X0109400Y0161600D02*
X0109504Y0161748D01*
X0109400Y0161600D02*
X0071600Y0161600D01*
X0069800Y0151400D02*
X0075800Y0151400D01*
X0076000Y0151709D01*
X0076400Y0152000D01*
X0086000Y0152000D01*
X0086000Y0151709D01*
X0090961Y0146264D02*
X0105651Y0146264D01*
X0105651Y0146862D02*
X0091559Y0146862D01*
X0092158Y0147461D02*
X0105651Y0147461D01*
X0105651Y0148059D02*
X0092756Y0148059D01*
X0093355Y0148658D02*
X0105449Y0148658D01*
X0105251Y0149256D02*
X0093953Y0149256D01*
X0094552Y0149855D02*
X0105251Y0149855D01*
X0105251Y0150453D02*
X0095150Y0150453D01*
X0095749Y0151052D02*
X0105354Y0151052D01*
X0105651Y0151650D02*
X0096347Y0151650D01*
X0096946Y0152249D02*
X0105651Y0152249D01*
X0105651Y0152847D02*
X0097544Y0152847D01*
X0098143Y0153446D02*
X0105651Y0153446D01*
X0105651Y0154044D02*
X0098741Y0154044D01*
X0099340Y0154643D02*
X0105651Y0154643D01*
X0105651Y0155241D02*
X0099938Y0155241D01*
X0100537Y0155840D02*
X0105651Y0155840D01*
X0105651Y0156438D02*
X0101135Y0156438D01*
X0105651Y0145665D02*
X0090362Y0145665D01*
X0089764Y0145067D02*
X0105651Y0145067D01*
X0105651Y0144468D02*
X0090429Y0144468D01*
X0091028Y0143870D02*
X0105651Y0143870D01*
X0113600Y0159800D02*
X0129200Y0144200D01*
X0142587Y0127710D02*
X0168643Y0127710D01*
X0168643Y0128308D02*
X0168478Y0128308D01*
X0168643Y0127111D02*
X0143186Y0127111D01*
X0143784Y0126513D02*
X0168643Y0126513D01*
X0168643Y0125914D02*
X0144383Y0125914D01*
X0144981Y0125316D02*
X0168619Y0125316D01*
X0168020Y0124717D02*
X0145580Y0124717D01*
X0146178Y0124119D02*
X0167422Y0124119D01*
X0167000Y0123520D02*
X0146777Y0123520D01*
X0147375Y0122922D02*
X0167000Y0122922D01*
X0167000Y0122323D02*
X0147974Y0122323D01*
X0148572Y0121725D02*
X0167000Y0121725D01*
X0167000Y0121126D02*
X0149171Y0121126D01*
X0149769Y0120528D02*
X0167000Y0120528D01*
X0167000Y0119929D02*
X0150368Y0119929D01*
X0150966Y0119331D02*
X0167000Y0119331D01*
X0167000Y0118732D02*
X0151565Y0118732D01*
X0144937Y0114504D02*
X0144800Y0114200D01*
X0144800Y0109400D01*
X0135538Y0105565D02*
X0132200Y0105565D01*
X0132200Y0106163D02*
X0134940Y0106163D01*
X0134341Y0106762D02*
X0132200Y0106762D01*
X0132200Y0107360D02*
X0133743Y0107360D01*
X0133144Y0107959D02*
X0132200Y0107959D01*
X0132200Y0108557D02*
X0132546Y0108557D01*
X0132200Y0109156D02*
X0132200Y0109156D01*
X0132200Y0109754D02*
X0132200Y0109754D01*
X0132200Y0110353D02*
X0132200Y0110353D01*
X0132200Y0110651D02*
X0132200Y0110651D01*
X0131000Y0114200D02*
X0131000Y0104600D01*
X0127400Y0105800D02*
X0127400Y0114200D01*
X0127220Y0114504D01*
X0125252Y0114504D02*
X0125000Y0114200D01*
X0125000Y0111200D01*
X0131000Y0114200D02*
X0131157Y0114504D01*
X0117378Y0114504D02*
X0117200Y0114200D01*
X0117200Y0110600D01*
X0082017Y0128907D02*
X0079983Y0128907D01*
X0080246Y0129505D02*
X0081754Y0129505D01*
X0081754Y0130104D02*
X0080246Y0130104D01*
X0075800Y0135800D02*
X0075800Y0140000D01*
X0076000Y0140291D01*
X0113138Y0170803D02*
X0113905Y0170803D01*
X0115070Y0185167D02*
X0108375Y0185167D01*
X0108375Y0185765D02*
X0115668Y0185765D01*
X0116267Y0186364D02*
X0108375Y0186364D01*
X0108375Y0186962D02*
X0116865Y0186962D01*
X0117464Y0187561D02*
X0108375Y0187561D01*
X0108375Y0188159D02*
X0118062Y0188159D01*
X0118661Y0188758D02*
X0108375Y0188758D01*
X0108375Y0189356D02*
X0119259Y0189356D01*
X0119858Y0189955D02*
X0108375Y0189955D01*
X0108375Y0190553D02*
X0120456Y0190553D01*
X0120188Y0191152D02*
X0120788Y0191152D01*
X0120788Y0191750D02*
X0120188Y0191750D01*
X0120188Y0192349D02*
X0120788Y0192349D01*
X0120788Y0192947D02*
X0120188Y0192947D01*
X0120188Y0193546D02*
X0120788Y0193546D01*
X0120788Y0194144D02*
X0120188Y0194144D01*
X0120188Y0194743D02*
X0120788Y0194743D01*
X0120788Y0195341D02*
X0120188Y0195341D01*
X0120188Y0195940D02*
X0108375Y0195940D01*
X0108375Y0196539D02*
X0117180Y0196539D01*
X0117180Y0197137D02*
X0108086Y0197137D01*
X0108375Y0195341D02*
X0117180Y0195341D01*
X0117180Y0194743D02*
X0108375Y0194743D01*
X0108375Y0194144D02*
X0117180Y0194144D01*
X0117180Y0193546D02*
X0108375Y0193546D01*
X0108375Y0192947D02*
X0117180Y0192947D01*
X0117180Y0192349D02*
X0108375Y0192349D01*
X0108375Y0191750D02*
X0117364Y0191750D01*
X0118180Y0191152D02*
X0108375Y0191152D01*
X0120188Y0196539D02*
X0120788Y0196539D01*
X0120788Y0196300D02*
X0120788Y0200883D01*
X0122667Y0200883D01*
X0122998Y0200794D01*
X0123294Y0200623D01*
X0123536Y0200381D01*
X0123707Y0200084D01*
X0123796Y0199754D01*
X0123796Y0196300D01*
X0120788Y0196300D01*
X0120788Y0195940D02*
X0125843Y0195940D01*
X0126441Y0196539D02*
X0123796Y0196539D01*
X0123796Y0197137D02*
X0127040Y0197137D01*
X0127400Y0197736D02*
X0123796Y0197736D01*
X0123796Y0198334D02*
X0127400Y0198334D01*
X0127400Y0198933D02*
X0123796Y0198933D01*
X0123796Y0199531D02*
X0127400Y0199531D01*
X0127400Y0200130D02*
X0123681Y0200130D01*
X0123112Y0200728D02*
X0127631Y0200728D01*
X0125244Y0195341D02*
X0123796Y0195341D01*
X0123796Y0194743D02*
X0124646Y0194743D01*
X0124047Y0194144D02*
X0123796Y0194144D01*
X0120788Y0197137D02*
X0120188Y0197137D01*
X0120188Y0197736D02*
X0120788Y0197736D01*
X0120788Y0198334D02*
X0120188Y0198334D01*
X0120188Y0198933D02*
X0120788Y0198933D01*
X0120788Y0199531D02*
X0120188Y0199531D01*
X0120188Y0200130D02*
X0120788Y0200130D01*
X0120788Y0200728D02*
X0120188Y0200728D01*
X0129249Y0191152D02*
X0138180Y0191152D01*
X0137364Y0191750D02*
X0134126Y0191750D01*
X0134420Y0192349D02*
X0137180Y0192349D01*
X0137180Y0192947D02*
X0134420Y0192947D01*
X0134420Y0193546D02*
X0137180Y0193546D01*
X0137180Y0194144D02*
X0134420Y0194144D01*
X0134420Y0194743D02*
X0137180Y0194743D01*
X0137180Y0195341D02*
X0134639Y0195341D01*
X0135237Y0195940D02*
X0140188Y0195940D01*
X0137180Y0196539D02*
X0135836Y0196539D01*
X0136434Y0197137D02*
X0137180Y0197137D01*
X0137180Y0197736D02*
X0137033Y0197736D01*
X0135434Y0199531D02*
X0134420Y0199531D01*
X0134420Y0198933D02*
X0134836Y0198933D01*
X0134246Y0200130D02*
X0136033Y0200130D01*
X0163396Y0195940D02*
X0171212Y0195940D01*
X0174820Y0195341D02*
X0184044Y0195341D01*
X0183446Y0194743D02*
X0174820Y0194743D01*
X0174820Y0194144D02*
X0182847Y0194144D01*
X0182249Y0193546D02*
X0174820Y0193546D01*
X0174820Y0192947D02*
X0181650Y0192947D01*
X0181052Y0192349D02*
X0174820Y0192349D01*
X0191000Y0181000D02*
X0191000Y0180800D01*
X0177800Y0167600D01*
X0173000Y0167600D01*
X0172496Y0167654D01*
X0173000Y0165800D02*
X0172496Y0165685D01*
X0173000Y0165800D02*
X0186200Y0165800D01*
X0191000Y0170600D01*
X0191000Y0171000D01*
X0188600Y0163400D02*
X0191000Y0161000D01*
X0188600Y0163400D02*
X0173000Y0163400D01*
X0172496Y0163717D01*
X0172496Y0161748D02*
X0173000Y0161600D01*
X0180800Y0161600D01*
X0191000Y0151400D01*
X0191000Y0151000D01*
X0186200Y0149600D02*
X0186200Y0146000D01*
X0191000Y0141200D01*
X0191000Y0141000D01*
X0186714Y0142672D02*
X0184025Y0142672D01*
X0184623Y0142074D02*
X0186466Y0142074D01*
X0186400Y0141475D02*
X0185222Y0141475D01*
X0185820Y0140877D02*
X0186400Y0140877D01*
X0186962Y0143271D02*
X0176749Y0143271D01*
X0176749Y0143870D02*
X0186633Y0143870D01*
X0186035Y0144468D02*
X0176749Y0144468D01*
X0176675Y0145067D02*
X0185436Y0145067D01*
X0185000Y0145665D02*
X0176349Y0145665D01*
X0176349Y0146264D02*
X0185000Y0146264D01*
X0185000Y0146862D02*
X0176349Y0146862D01*
X0176349Y0147461D02*
X0185000Y0147461D01*
X0185000Y0148059D02*
X0176349Y0148059D01*
X0176349Y0148658D02*
X0185000Y0148658D01*
X0184847Y0149256D02*
X0176349Y0149256D01*
X0176349Y0149855D02*
X0184248Y0149855D01*
X0183650Y0150453D02*
X0176349Y0150453D01*
X0176349Y0151052D02*
X0183051Y0151052D01*
X0182453Y0151650D02*
X0176349Y0151650D01*
X0176349Y0152249D02*
X0181854Y0152249D01*
X0181256Y0152847D02*
X0176349Y0152847D01*
X0176349Y0153446D02*
X0180657Y0153446D01*
X0180059Y0154044D02*
X0176349Y0154044D01*
X0176349Y0154643D02*
X0179460Y0154643D01*
X0178862Y0155241D02*
X0176349Y0155241D01*
X0176349Y0155840D02*
X0178263Y0155840D01*
X0177665Y0156438D02*
X0176349Y0156438D01*
X0176349Y0157037D02*
X0177066Y0157037D01*
X0176468Y0157635D02*
X0176349Y0157635D01*
X0176000Y0159800D02*
X0173000Y0159800D01*
X0172496Y0159780D01*
X0176000Y0159800D02*
X0186200Y0149600D01*
X0182000Y0140000D02*
X0191000Y0131000D01*
X0187785Y0127710D02*
X0187587Y0127710D01*
X0187186Y0128308D02*
X0186989Y0128308D01*
X0186888Y0128907D02*
X0186390Y0128907D01*
X0186640Y0129505D02*
X0185792Y0129505D01*
X0185193Y0130104D02*
X0186400Y0130104D01*
X0186400Y0130702D02*
X0184595Y0130702D01*
X0183996Y0131301D02*
X0186400Y0131301D01*
X0186400Y0131899D02*
X0183398Y0131899D01*
X0182799Y0132498D02*
X0186641Y0132498D01*
X0186889Y0133096D02*
X0182201Y0133096D01*
X0181602Y0133695D02*
X0186608Y0133695D01*
X0186010Y0134293D02*
X0181004Y0134293D01*
X0180405Y0134892D02*
X0185411Y0134892D01*
X0184813Y0135490D02*
X0179807Y0135490D01*
X0179208Y0136089D02*
X0184214Y0136089D01*
X0183616Y0136687D02*
X0178610Y0136687D01*
X0178011Y0137286D02*
X0183017Y0137286D01*
X0182419Y0137884D02*
X0177413Y0137884D01*
X0176814Y0138483D02*
X0181820Y0138483D01*
X0182000Y0140000D02*
X0173000Y0140000D01*
X0172496Y0140094D01*
X0173000Y0138200D02*
X0172496Y0138126D01*
X0173000Y0138200D02*
X0175400Y0138200D01*
X0191000Y0122600D01*
X0191000Y0121000D01*
X0189383Y0125914D02*
X0201000Y0125914D01*
X0189813Y0126513D02*
X0188784Y0126513D01*
X0188383Y0127111D02*
X0188186Y0127111D01*
X0186200Y0125600D02*
X0186200Y0116000D01*
X0191000Y0111200D01*
X0191000Y0111000D01*
X0189212Y0106762D02*
X0186935Y0106762D01*
X0186337Y0107360D02*
X0188134Y0107360D01*
X0187536Y0107959D02*
X0186200Y0107959D01*
X0186200Y0108557D02*
X0187033Y0108557D01*
X0186785Y0109156D02*
X0186200Y0109156D01*
X0186200Y0109754D02*
X0186537Y0109754D01*
X0186400Y0110353D02*
X0186200Y0110353D01*
X0186200Y0110951D02*
X0186400Y0110951D01*
X0186400Y0111550D02*
X0186200Y0111550D01*
X0186200Y0112148D02*
X0186497Y0112148D01*
X0186745Y0112747D02*
X0186200Y0112747D01*
X0186200Y0113345D02*
X0186993Y0113345D01*
X0186559Y0113944D02*
X0186200Y0113944D01*
X0185000Y0107000D02*
X0191000Y0101000D01*
X0190000Y0105565D02*
X0188132Y0105565D01*
X0187534Y0106163D02*
X0201000Y0106163D01*
X0185000Y0107000D02*
X0185000Y0125000D01*
X0176000Y0134000D01*
X0173000Y0134000D01*
X0172496Y0134189D01*
X0173000Y0135800D02*
X0172496Y0136157D01*
X0173000Y0135800D02*
X0176000Y0135800D01*
X0186200Y0125600D01*
X0173000Y0122000D02*
X0172496Y0122378D01*
X0173000Y0122000D02*
X0173000Y0106400D01*
X0185000Y0094400D01*
X0185000Y0047000D01*
X0191000Y0041000D01*
X0188914Y0045115D02*
X0188582Y0045115D01*
X0187983Y0045714D02*
X0194189Y0045714D01*
X0194600Y0045115D02*
X0193086Y0045115D01*
X0193989Y0044517D02*
X0194600Y0044517D01*
X0194587Y0043918D02*
X0194600Y0043918D01*
X0195800Y0045800D02*
X0191000Y0050600D01*
X0191000Y0051000D01*
X0187985Y0047509D02*
X0186200Y0047509D01*
X0186200Y0048108D02*
X0187387Y0048108D01*
X0186971Y0048706D02*
X0186200Y0048706D01*
X0186200Y0049305D02*
X0186723Y0049305D01*
X0186475Y0049903D02*
X0186200Y0049903D01*
X0186200Y0050502D02*
X0186400Y0050502D01*
X0186400Y0051100D02*
X0186200Y0051100D01*
X0186200Y0051699D02*
X0186400Y0051699D01*
X0186558Y0052297D02*
X0186200Y0052297D01*
X0186200Y0052896D02*
X0186806Y0052896D01*
X0187054Y0053494D02*
X0186200Y0053494D01*
X0186200Y0054093D02*
X0187587Y0054093D01*
X0188186Y0054691D02*
X0186200Y0054691D01*
X0186200Y0055290D02*
X0189336Y0055290D01*
X0189875Y0056487D02*
X0186200Y0056487D01*
X0186200Y0057085D02*
X0188430Y0057085D01*
X0187811Y0057684D02*
X0186200Y0057684D01*
X0186200Y0058282D02*
X0187212Y0058282D01*
X0186899Y0058881D02*
X0186200Y0058881D01*
X0186200Y0059479D02*
X0186651Y0059479D01*
X0186403Y0060078D02*
X0186200Y0060078D01*
X0186200Y0060676D02*
X0186400Y0060676D01*
X0186400Y0061275D02*
X0186200Y0061275D01*
X0186200Y0061873D02*
X0186400Y0061873D01*
X0186200Y0062472D02*
X0186631Y0062472D01*
X0186879Y0063070D02*
X0186200Y0063070D01*
X0186200Y0063669D02*
X0187164Y0063669D01*
X0187762Y0064268D02*
X0186200Y0064268D01*
X0186200Y0064866D02*
X0188361Y0064866D01*
X0189758Y0065465D02*
X0186200Y0065465D01*
X0186200Y0066063D02*
X0201000Y0066063D01*
X0201000Y0055888D02*
X0186200Y0055888D01*
X0182600Y0055888D02*
X0176000Y0055888D01*
X0176000Y0055290D02*
X0182600Y0055290D01*
X0182600Y0054691D02*
X0176000Y0054691D01*
X0176000Y0054093D02*
X0182600Y0054093D01*
X0182600Y0053494D02*
X0176000Y0053494D01*
X0176000Y0052896D02*
X0182600Y0052896D01*
X0182600Y0052297D02*
X0176000Y0052297D01*
X0176000Y0051699D02*
X0182600Y0051699D01*
X0182600Y0051100D02*
X0175797Y0051100D01*
X0175199Y0050502D02*
X0182600Y0050502D01*
X0182600Y0049903D02*
X0174600Y0049903D01*
X0174774Y0049305D02*
X0182600Y0049305D01*
X0182600Y0048706D02*
X0174774Y0048706D01*
X0174774Y0048108D02*
X0182600Y0048108D01*
X0182600Y0047509D02*
X0174774Y0047509D01*
X0174774Y0046911D02*
X0182600Y0046911D01*
X0182600Y0046312D02*
X0174774Y0046312D01*
X0174774Y0045714D02*
X0182600Y0045714D01*
X0182600Y0045115D02*
X0174774Y0045115D01*
X0174774Y0044517D02*
X0182600Y0044517D01*
X0182600Y0043918D02*
X0174774Y0043918D01*
X0174774Y0043320D02*
X0182600Y0043320D01*
X0182600Y0042721D02*
X0174774Y0042721D01*
X0174321Y0042123D02*
X0182600Y0042123D01*
X0182600Y0041524D02*
X0154221Y0041524D01*
X0153623Y0040926D02*
X0182777Y0040926D01*
X0183376Y0040327D02*
X0153024Y0040327D01*
X0152426Y0039729D02*
X0183974Y0039729D01*
X0184573Y0039130D02*
X0151827Y0039130D01*
X0151229Y0038532D02*
X0185171Y0038532D01*
X0185770Y0037933D02*
X0150630Y0037933D01*
X0150032Y0037334D02*
X0186368Y0037334D01*
X0186967Y0036736D02*
X0149433Y0036736D01*
X0148835Y0036137D02*
X0187565Y0036137D01*
X0188164Y0035539D02*
X0148236Y0035539D01*
X0147638Y0034940D02*
X0187917Y0034940D01*
X0187271Y0034342D02*
X0147039Y0034342D01*
X0146440Y0033743D02*
X0186813Y0033743D01*
X0186481Y0033145D02*
X0145842Y0033145D01*
X0145243Y0032546D02*
X0186245Y0032546D01*
X0186088Y0031948D02*
X0144645Y0031948D01*
X0144046Y0031349D02*
X0186000Y0031349D01*
X0186000Y0030700D02*
X0186000Y0030606D01*
X0186123Y0029829D01*
X0186366Y0029081D01*
X0186724Y0028379D01*
X0187186Y0027743D01*
X0187743Y0027186D01*
X0188379Y0026724D01*
X0189081Y0026366D01*
X0189829Y0026123D01*
X0190606Y0026000D01*
X0189829Y0025877D01*
X0189081Y0025634D01*
X0188379Y0025276D01*
X0187743Y0024814D01*
X0187186Y0024257D01*
X0186724Y0023621D01*
X0186366Y0022919D01*
X0186123Y0022171D01*
X0186000Y0021394D01*
X0186000Y0021300D01*
X0190700Y0021300D01*
X0190700Y0026000D01*
X0190700Y0030700D01*
X0186000Y0030700D01*
X0186072Y0030152D02*
X0142849Y0030152D01*
X0142251Y0029554D02*
X0186213Y0029554D01*
X0186430Y0028955D02*
X0141652Y0028955D01*
X0141054Y0028357D02*
X0186740Y0028357D01*
X0187175Y0027758D02*
X0140455Y0027758D01*
X0139857Y0027160D02*
X0187779Y0027160D01*
X0188698Y0026561D02*
X0139258Y0026561D01*
X0138660Y0025963D02*
X0170372Y0025963D01*
X0170606Y0026000D02*
X0169829Y0025877D01*
X0169081Y0025634D01*
X0168379Y0025276D01*
X0167743Y0024814D01*
X0167186Y0024257D01*
X0166724Y0023621D01*
X0166366Y0022919D01*
X0166123Y0022171D01*
X0166000Y0021394D01*
X0166000Y0021300D01*
X0170700Y0021300D01*
X0170700Y0026000D01*
X0170606Y0026000D01*
X0170700Y0025963D02*
X0171300Y0025963D01*
X0171300Y0026000D02*
X0171300Y0021300D01*
X0170700Y0021300D01*
X0170700Y0020700D01*
X0166000Y0020700D01*
X0166000Y0020606D01*
X0166123Y0019829D01*
X0166366Y0019081D01*
X0166724Y0018379D01*
X0167186Y0017743D01*
X0167743Y0017186D01*
X0168379Y0016724D01*
X0169081Y0016366D01*
X0169829Y0016123D01*
X0170606Y0016000D01*
X0170700Y0016000D01*
X0170700Y0020700D01*
X0171300Y0020700D01*
X0171300Y0021300D01*
X0176000Y0021300D01*
X0180700Y0021300D01*
X0180700Y0026000D01*
X0180606Y0026000D01*
X0179829Y0025877D01*
X0179081Y0025634D01*
X0178379Y0025276D01*
X0177743Y0024814D01*
X0177186Y0024257D01*
X0176724Y0023621D01*
X0176366Y0022919D01*
X0176123Y0022171D01*
X0176000Y0021394D01*
X0176000Y0021300D01*
X0176000Y0021394D01*
X0175877Y0022171D01*
X0175634Y0022919D01*
X0175276Y0023621D01*
X0174814Y0024257D01*
X0174257Y0024814D01*
X0173621Y0025276D01*
X0172919Y0025634D01*
X0172171Y0025877D01*
X0171394Y0026000D01*
X0171300Y0026000D01*
X0171628Y0025963D02*
X0180372Y0025963D01*
X0180700Y0025963D02*
X0181300Y0025963D01*
X0181300Y0026000D02*
X0181300Y0021300D01*
X0180700Y0021300D01*
X0180700Y0020700D01*
X0176000Y0020700D01*
X0176000Y0020606D01*
X0176123Y0019829D01*
X0176366Y0019081D01*
X0176724Y0018379D01*
X0177186Y0017743D01*
X0177743Y0017186D01*
X0178379Y0016724D01*
X0179081Y0016366D01*
X0179829Y0016123D01*
X0180606Y0016000D01*
X0180700Y0016000D01*
X0180700Y0020700D01*
X0181300Y0020700D01*
X0181300Y0021300D01*
X0186000Y0021300D01*
X0186000Y0021394D01*
X0185877Y0022171D01*
X0185634Y0022919D01*
X0185276Y0023621D01*
X0184814Y0024257D01*
X0184257Y0024814D01*
X0183621Y0025276D01*
X0182919Y0025634D01*
X0182171Y0025877D01*
X0181394Y0026000D01*
X0181300Y0026000D01*
X0181628Y0025963D02*
X0190372Y0025963D01*
X0190606Y0026000D02*
X0190700Y0026000D01*
X0190606Y0026000D01*
X0190700Y0025963D02*
X0191300Y0025963D01*
X0191300Y0026000D02*
X0191394Y0026000D01*
X0192171Y0025877D01*
X0192919Y0025634D01*
X0193621Y0025276D01*
X0194257Y0024814D01*
X0194814Y0024257D01*
X0195276Y0023621D01*
X0195634Y0022919D01*
X0195877Y0022171D01*
X0196000Y0021394D01*
X0196000Y0021300D01*
X0191300Y0021300D01*
X0191300Y0020700D01*
X0196000Y0020700D01*
X0196000Y0020606D01*
X0195877Y0019829D01*
X0195634Y0019081D01*
X0195276Y0018379D01*
X0194814Y0017743D01*
X0194257Y0017186D01*
X0193621Y0016724D01*
X0192919Y0016366D01*
X0192171Y0016123D01*
X0191394Y0016000D01*
X0191300Y0016000D01*
X0191300Y0020700D01*
X0190700Y0020700D01*
X0190700Y0016000D01*
X0190606Y0016000D01*
X0189829Y0016123D01*
X0189081Y0016366D01*
X0188379Y0016724D01*
X0187743Y0017186D01*
X0187186Y0017743D01*
X0186724Y0018379D01*
X0186366Y0019081D01*
X0186123Y0019829D01*
X0186000Y0020606D01*
X0186000Y0020700D01*
X0190700Y0020700D01*
X0190700Y0021300D01*
X0191300Y0021300D01*
X0191300Y0026000D01*
X0191394Y0026000D01*
X0192171Y0026123D01*
X0192919Y0026366D01*
X0193621Y0026724D01*
X0194257Y0027186D01*
X0194814Y0027743D01*
X0195276Y0028379D01*
X0195634Y0029081D01*
X0195877Y0029829D01*
X0196000Y0030606D01*
X0196000Y0030700D01*
X0191300Y0030700D01*
X0191300Y0026000D01*
X0191628Y0025963D02*
X0201000Y0025963D01*
X0201000Y0026561D02*
X0193302Y0026561D01*
X0194221Y0027160D02*
X0201000Y0027160D01*
X0201000Y0027758D02*
X0194825Y0027758D01*
X0195260Y0028357D02*
X0201000Y0028357D01*
X0201000Y0028955D02*
X0195570Y0028955D01*
X0195787Y0029554D02*
X0201000Y0029554D01*
X0201000Y0030152D02*
X0195928Y0030152D01*
X0191300Y0030152D02*
X0190700Y0030152D01*
X0190700Y0029554D02*
X0191300Y0029554D01*
X0191300Y0028955D02*
X0190700Y0028955D01*
X0190700Y0028357D02*
X0191300Y0028357D01*
X0191300Y0027758D02*
X0190700Y0027758D01*
X0190700Y0027160D02*
X0191300Y0027160D01*
X0191300Y0026561D02*
X0190700Y0026561D01*
X0190700Y0025364D02*
X0191300Y0025364D01*
X0191300Y0024766D02*
X0190700Y0024766D01*
X0190700Y0024167D02*
X0191300Y0024167D01*
X0191300Y0023569D02*
X0190700Y0023569D01*
X0190700Y0022970D02*
X0191300Y0022970D01*
X0191300Y0022372D02*
X0190700Y0022372D01*
X0190700Y0021773D02*
X0191300Y0021773D01*
X0191300Y0021175D02*
X0201000Y0021175D01*
X0201000Y0021773D02*
X0195940Y0021773D01*
X0195812Y0022372D02*
X0201000Y0022372D01*
X0201000Y0022970D02*
X0195608Y0022970D01*
X0195303Y0023569D02*
X0201000Y0023569D01*
X0201000Y0024167D02*
X0194879Y0024167D01*
X0194305Y0024766D02*
X0201000Y0024766D01*
X0201000Y0025364D02*
X0193448Y0025364D01*
X0190700Y0021175D02*
X0181300Y0021175D01*
X0181300Y0020700D02*
X0186000Y0020700D01*
X0186000Y0020606D01*
X0185877Y0019829D01*
X0185634Y0019081D01*
X0185276Y0018379D01*
X0184814Y0017743D01*
X0184257Y0017186D01*
X0183621Y0016724D01*
X0182919Y0016366D01*
X0182171Y0016123D01*
X0181394Y0016000D01*
X0181300Y0016000D01*
X0181300Y0020700D01*
X0181300Y0020576D02*
X0180700Y0020576D01*
X0180700Y0019978D02*
X0181300Y0019978D01*
X0181300Y0019379D02*
X0180700Y0019379D01*
X0180700Y0018781D02*
X0181300Y0018781D01*
X0181300Y0018182D02*
X0180700Y0018182D01*
X0180700Y0017584D02*
X0181300Y0017584D01*
X0181300Y0016985D02*
X0180700Y0016985D01*
X0180700Y0016387D02*
X0181300Y0016387D01*
X0182959Y0016387D02*
X0189041Y0016387D01*
X0188019Y0016985D02*
X0183980Y0016985D01*
X0184655Y0017584D02*
X0187345Y0017584D01*
X0186867Y0018182D02*
X0185133Y0018182D01*
X0185481Y0018781D02*
X0186519Y0018781D01*
X0186269Y0019379D02*
X0185731Y0019379D01*
X0185900Y0019978D02*
X0186100Y0019978D01*
X0186005Y0020576D02*
X0185995Y0020576D01*
X0185940Y0021773D02*
X0186060Y0021773D01*
X0186188Y0022372D02*
X0185812Y0022372D01*
X0185608Y0022970D02*
X0186392Y0022970D01*
X0186697Y0023569D02*
X0185303Y0023569D01*
X0184879Y0024167D02*
X0187121Y0024167D01*
X0187695Y0024766D02*
X0184305Y0024766D01*
X0183448Y0025364D02*
X0188552Y0025364D01*
X0190700Y0020576D02*
X0191300Y0020576D01*
X0191300Y0019978D02*
X0190700Y0019978D01*
X0190700Y0019379D02*
X0191300Y0019379D01*
X0191300Y0018781D02*
X0190700Y0018781D01*
X0190700Y0018182D02*
X0191300Y0018182D01*
X0191300Y0017584D02*
X0190700Y0017584D01*
X0190700Y0016985D02*
X0191300Y0016985D01*
X0191300Y0016387D02*
X0190700Y0016387D01*
X0192959Y0016387D02*
X0201000Y0016387D01*
X0201000Y0016985D02*
X0193980Y0016985D01*
X0194655Y0017584D02*
X0201000Y0017584D01*
X0201000Y0018182D02*
X0195133Y0018182D01*
X0195481Y0018781D02*
X0201000Y0018781D01*
X0201000Y0019379D02*
X0195731Y0019379D01*
X0195900Y0019978D02*
X0201000Y0019978D01*
X0201000Y0020576D02*
X0195995Y0020576D01*
X0201000Y0015788D02*
X0166382Y0015788D01*
X0166700Y0015190D02*
X0201000Y0015190D01*
X0201000Y0014591D02*
X0166700Y0014591D01*
X0166700Y0013993D02*
X0201000Y0013993D01*
X0201000Y0013394D02*
X0166364Y0013394D01*
X0165765Y0012796D02*
X0201000Y0012796D01*
X0201000Y0011000D02*
X0201000Y0221000D01*
X0201000Y0216289D02*
X0030978Y0216289D01*
X0043625Y0194144D02*
X0011000Y0194144D01*
X0011000Y0193546D02*
X0043625Y0193546D01*
X0043625Y0192947D02*
X0011000Y0192947D01*
X0011000Y0192349D02*
X0043625Y0192349D01*
X0043625Y0191750D02*
X0011000Y0191750D01*
X0011000Y0191152D02*
X0043625Y0191152D01*
X0043625Y0190553D02*
X0011000Y0190553D01*
X0011000Y0189955D02*
X0043625Y0189955D01*
X0043625Y0189356D02*
X0011000Y0189356D01*
X0011000Y0188758D02*
X0043625Y0188758D01*
X0043625Y0188159D02*
X0011000Y0188159D01*
X0011000Y0187561D02*
X0043625Y0187561D01*
X0043625Y0186962D02*
X0011000Y0186962D01*
X0011000Y0186364D02*
X0043625Y0186364D01*
X0043625Y0185765D02*
X0011000Y0185765D01*
X0011000Y0185167D02*
X0043625Y0185167D01*
X0021000Y0151000D02*
X0021200Y0150800D01*
X0021200Y0146000D01*
X0022601Y0125316D02*
X0025219Y0125316D01*
X0024800Y0124717D02*
X0023788Y0124717D01*
X0024387Y0124119D02*
X0024800Y0124119D01*
X0037156Y0067859D02*
X0037300Y0067859D01*
X0037300Y0067260D02*
X0036557Y0067260D01*
X0035959Y0066662D02*
X0037300Y0066662D01*
X0026400Y0020576D02*
X0025995Y0020576D01*
X0025900Y0019978D02*
X0026444Y0019978D01*
X0075682Y0016985D02*
X0078672Y0016985D01*
X0077911Y0017584D02*
X0076281Y0017584D01*
X0076879Y0018182D02*
X0077312Y0018182D01*
X0083328Y0016985D02*
X0088672Y0016985D01*
X0087911Y0017584D02*
X0084089Y0017584D01*
X0084688Y0018182D02*
X0087312Y0018182D01*
X0086940Y0018781D02*
X0085060Y0018781D01*
X0085308Y0019379D02*
X0086692Y0019379D01*
X0086444Y0019978D02*
X0085556Y0019978D01*
X0085600Y0020576D02*
X0086400Y0020576D01*
X0086400Y0021175D02*
X0085600Y0021175D01*
X0085600Y0021773D02*
X0086400Y0021773D01*
X0086589Y0022372D02*
X0085411Y0022372D01*
X0085163Y0022970D02*
X0086837Y0022970D01*
X0087085Y0023569D02*
X0084915Y0023569D01*
X0084338Y0024167D02*
X0087662Y0024167D01*
X0088260Y0024766D02*
X0083740Y0024766D01*
X0082484Y0025364D02*
X0089516Y0025364D01*
X0091000Y0021000D02*
X0097400Y0014600D01*
X0164600Y0014600D01*
X0163417Y0016387D02*
X0097310Y0016387D01*
X0096712Y0016985D02*
X0098672Y0016985D01*
X0097911Y0017584D02*
X0096113Y0017584D01*
X0133328Y0016985D02*
X0138672Y0016985D01*
X0137911Y0017584D02*
X0134089Y0017584D01*
X0134688Y0018182D02*
X0137312Y0018182D01*
X0136940Y0018781D02*
X0135060Y0018781D01*
X0135308Y0019379D02*
X0136692Y0019379D01*
X0136444Y0019978D02*
X0135556Y0019978D01*
X0135600Y0020576D02*
X0136400Y0020576D01*
X0136400Y0021175D02*
X0135600Y0021175D01*
X0135600Y0021773D02*
X0136400Y0021773D01*
X0136589Y0022372D02*
X0135411Y0022372D01*
X0135800Y0024800D02*
X0153800Y0042800D01*
X0153800Y0056600D01*
X0158000Y0060800D01*
X0174200Y0060800D01*
X0174800Y0060200D01*
X0174800Y0051800D01*
X0171800Y0048800D01*
X0171800Y0046400D01*
X0171709Y0046000D01*
X0168643Y0045714D02*
X0163357Y0045714D01*
X0163357Y0046312D02*
X0168643Y0046312D01*
X0168643Y0046911D02*
X0163357Y0046911D01*
X0163357Y0047509D02*
X0168643Y0047509D01*
X0168643Y0048108D02*
X0163357Y0048108D01*
X0163357Y0048706D02*
X0168643Y0048706D01*
X0168643Y0049305D02*
X0163357Y0049305D01*
X0162877Y0049903D02*
X0169123Y0049903D01*
X0168200Y0049400D02*
X0171200Y0052400D01*
X0171200Y0056000D01*
X0171709Y0056000D01*
X0171409Y0055888D02*
X0163357Y0055888D01*
X0163357Y0055290D02*
X0168243Y0055290D01*
X0168243Y0055700D02*
X0168243Y0052482D01*
X0168332Y0052152D01*
X0168503Y0051855D01*
X0168745Y0051613D01*
X0169042Y0051442D01*
X0169372Y0051354D01*
X0171409Y0051354D01*
X0171409Y0055700D01*
X0168243Y0055700D01*
X0168243Y0056487D02*
X0163357Y0056487D01*
X0163357Y0057085D02*
X0168243Y0057085D01*
X0168243Y0057684D02*
X0163357Y0057684D01*
X0163357Y0058282D02*
X0168243Y0058282D01*
X0168243Y0058881D02*
X0163357Y0058881D01*
X0163357Y0059479D02*
X0168243Y0059479D01*
X0168243Y0054691D02*
X0163357Y0054691D01*
X0163357Y0054093D02*
X0168243Y0054093D01*
X0168243Y0053494D02*
X0163357Y0053494D01*
X0163357Y0052896D02*
X0168243Y0052896D01*
X0168293Y0052297D02*
X0163357Y0052297D01*
X0161600Y0051699D02*
X0168660Y0051699D01*
X0168200Y0049400D02*
X0168200Y0023600D01*
X0169400Y0022400D01*
X0170600Y0021200D01*
X0171000Y0021000D01*
X0171300Y0021175D02*
X0180700Y0021175D01*
X0180700Y0021773D02*
X0181300Y0021773D01*
X0181300Y0022372D02*
X0180700Y0022372D01*
X0180700Y0022970D02*
X0181300Y0022970D01*
X0181300Y0023569D02*
X0180700Y0023569D01*
X0180700Y0024167D02*
X0181300Y0024167D01*
X0181300Y0024766D02*
X0180700Y0024766D01*
X0180700Y0025364D02*
X0181300Y0025364D01*
X0178552Y0025364D02*
X0173448Y0025364D01*
X0174305Y0024766D02*
X0177695Y0024766D01*
X0177121Y0024167D02*
X0174879Y0024167D01*
X0175303Y0023569D02*
X0176697Y0023569D01*
X0176392Y0022970D02*
X0175608Y0022970D01*
X0175812Y0022372D02*
X0176188Y0022372D01*
X0176060Y0021773D02*
X0175940Y0021773D01*
X0176000Y0020700D02*
X0171300Y0020700D01*
X0171300Y0016000D01*
X0171394Y0016000D01*
X0172171Y0016123D01*
X0172919Y0016366D01*
X0173621Y0016724D01*
X0174257Y0017186D01*
X0174814Y0017743D01*
X0175276Y0018379D01*
X0175634Y0019081D01*
X0175877Y0019829D01*
X0176000Y0020606D01*
X0176000Y0020700D01*
X0175995Y0020576D02*
X0176005Y0020576D01*
X0176100Y0019978D02*
X0175900Y0019978D01*
X0175731Y0019379D02*
X0176269Y0019379D01*
X0176519Y0018781D02*
X0175481Y0018781D01*
X0175133Y0018182D02*
X0176867Y0018182D01*
X0177345Y0017584D02*
X0174655Y0017584D01*
X0173980Y0016985D02*
X0178019Y0016985D01*
X0179041Y0016387D02*
X0172959Y0016387D01*
X0171300Y0016387D02*
X0170700Y0016387D01*
X0170700Y0016985D02*
X0171300Y0016985D01*
X0171300Y0017584D02*
X0170700Y0017584D01*
X0170700Y0018182D02*
X0171300Y0018182D01*
X0171300Y0018781D02*
X0170700Y0018781D01*
X0170700Y0019379D02*
X0171300Y0019379D01*
X0171300Y0019978D02*
X0170700Y0019978D01*
X0170700Y0020576D02*
X0171300Y0020576D01*
X0170700Y0021175D02*
X0165600Y0021175D01*
X0165600Y0021773D02*
X0166060Y0021773D01*
X0165600Y0021915D02*
X0164900Y0023606D01*
X0163606Y0024900D01*
X0161915Y0025600D01*
X0160085Y0025600D01*
X0158394Y0024900D01*
X0157100Y0023606D01*
X0156400Y0021915D01*
X0156400Y0020085D01*
X0157100Y0018394D01*
X0158394Y0017100D01*
X0160085Y0016400D01*
X0161915Y0016400D01*
X0163606Y0017100D01*
X0164900Y0018394D01*
X0165600Y0020085D01*
X0165600Y0021915D01*
X0165411Y0022372D02*
X0166188Y0022372D01*
X0166392Y0022970D02*
X0165163Y0022970D01*
X0164915Y0023569D02*
X0166697Y0023569D01*
X0167121Y0024167D02*
X0164338Y0024167D01*
X0163740Y0024766D02*
X0167695Y0024766D01*
X0168552Y0025364D02*
X0162484Y0025364D01*
X0159516Y0025364D02*
X0152484Y0025364D01*
X0151915Y0025600D02*
X0153606Y0024900D01*
X0154900Y0023606D01*
X0155600Y0021915D01*
X0155600Y0020085D01*
X0154900Y0018394D01*
X0153606Y0017100D01*
X0151915Y0016400D01*
X0150085Y0016400D01*
X0148394Y0017100D01*
X0147100Y0018394D01*
X0146400Y0020085D01*
X0146400Y0021915D01*
X0147100Y0023606D01*
X0148394Y0024900D01*
X0150085Y0025600D01*
X0151915Y0025600D01*
X0153740Y0024766D02*
X0158260Y0024766D01*
X0157662Y0024167D02*
X0154338Y0024167D01*
X0154915Y0023569D02*
X0157085Y0023569D01*
X0156837Y0022970D02*
X0155163Y0022970D01*
X0155411Y0022372D02*
X0156589Y0022372D01*
X0156400Y0021773D02*
X0155600Y0021773D01*
X0155600Y0021175D02*
X0156400Y0021175D01*
X0156400Y0020576D02*
X0155600Y0020576D01*
X0155556Y0019978D02*
X0156444Y0019978D01*
X0156692Y0019379D02*
X0155308Y0019379D01*
X0155060Y0018781D02*
X0156940Y0018781D01*
X0157312Y0018182D02*
X0154688Y0018182D01*
X0154089Y0017584D02*
X0157911Y0017584D01*
X0158672Y0016985D02*
X0153328Y0016985D01*
X0148672Y0016985D02*
X0143328Y0016985D01*
X0144089Y0017584D02*
X0147911Y0017584D01*
X0147312Y0018182D02*
X0144688Y0018182D01*
X0145060Y0018781D02*
X0146940Y0018781D01*
X0146692Y0019379D02*
X0145308Y0019379D01*
X0145556Y0019978D02*
X0146444Y0019978D01*
X0146400Y0020576D02*
X0145600Y0020576D01*
X0145600Y0021175D02*
X0146400Y0021175D01*
X0146400Y0021773D02*
X0145600Y0021773D01*
X0145411Y0022372D02*
X0146589Y0022372D01*
X0146837Y0022970D02*
X0145163Y0022970D01*
X0144915Y0023569D02*
X0147085Y0023569D01*
X0147662Y0024167D02*
X0144338Y0024167D01*
X0143740Y0024766D02*
X0148260Y0024766D01*
X0149516Y0025364D02*
X0142484Y0025364D01*
X0139516Y0025364D02*
X0138061Y0025364D01*
X0137900Y0024766D02*
X0138260Y0024766D01*
X0143448Y0030751D02*
X0190700Y0030751D01*
X0189200Y0036200D02*
X0192800Y0036200D01*
X0195800Y0039200D01*
X0195800Y0045800D01*
X0193591Y0046312D02*
X0187385Y0046312D01*
X0186786Y0046911D02*
X0188852Y0046911D01*
X0183800Y0041600D02*
X0189200Y0036200D01*
X0183800Y0041600D02*
X0183800Y0093800D01*
X0168200Y0109400D01*
X0168200Y0123200D01*
X0169400Y0124400D01*
X0172400Y0124400D01*
X0172496Y0124346D01*
X0167000Y0118134D02*
X0165807Y0118134D01*
X0166111Y0117535D02*
X0167000Y0117535D01*
X0167000Y0116937D02*
X0166111Y0116937D01*
X0166111Y0116338D02*
X0167000Y0116338D01*
X0167000Y0115739D02*
X0166111Y0115739D01*
X0166111Y0115141D02*
X0167000Y0115141D01*
X0167000Y0114542D02*
X0166111Y0114542D01*
X0166111Y0113944D02*
X0167000Y0113944D01*
X0167000Y0113345D02*
X0166111Y0113345D01*
X0166111Y0112747D02*
X0167000Y0112747D01*
X0167000Y0112148D02*
X0166111Y0112148D01*
X0166111Y0111550D02*
X0167000Y0111550D01*
X0167000Y0110951D02*
X0165884Y0110951D01*
X0165800Y0110353D02*
X0167000Y0110353D01*
X0167000Y0109754D02*
X0165800Y0109754D01*
X0165800Y0109156D02*
X0167000Y0109156D01*
X0167346Y0108557D02*
X0165800Y0108557D01*
X0165800Y0107959D02*
X0167944Y0107959D01*
X0168543Y0107360D02*
X0166010Y0107360D01*
X0166608Y0106762D02*
X0169141Y0106762D01*
X0169740Y0106163D02*
X0166700Y0106163D01*
X0166700Y0105565D02*
X0170338Y0105565D01*
X0170937Y0104966D02*
X0166700Y0104966D01*
X0164600Y0105800D02*
X0164600Y0114200D01*
X0164622Y0114504D01*
X0166341Y0076238D02*
X0153053Y0076238D01*
X0150181Y0060078D02*
X0149415Y0060078D01*
X0146709Y0056000D02*
X0146600Y0056000D01*
X0144200Y0053600D01*
X0144200Y0046400D01*
X0143953Y0046000D01*
X0141183Y0045714D02*
X0140817Y0045714D01*
X0140817Y0046312D02*
X0141183Y0046312D01*
X0141183Y0046911D02*
X0140817Y0046911D01*
X0140817Y0047509D02*
X0141183Y0047509D01*
X0141183Y0048108D02*
X0140817Y0048108D01*
X0140354Y0048706D02*
X0141646Y0048706D01*
X0141183Y0045115D02*
X0140817Y0045115D01*
X0140817Y0044517D02*
X0141183Y0044517D01*
X0141183Y0043918D02*
X0140817Y0043918D01*
X0140380Y0043320D02*
X0141620Y0043320D01*
X0143000Y0051699D02*
X0138340Y0051699D01*
X0138707Y0052297D02*
X0143000Y0052297D01*
X0143000Y0052896D02*
X0138757Y0052896D01*
X0138757Y0053494D02*
X0143000Y0053494D01*
X0143000Y0054093D02*
X0138757Y0054093D01*
X0138757Y0054691D02*
X0143594Y0054691D01*
X0143643Y0055290D02*
X0138757Y0055290D01*
X0138757Y0056300D02*
X0135591Y0056300D01*
X0135591Y0060646D01*
X0137628Y0060646D01*
X0137958Y0060558D01*
X0138255Y0060387D01*
X0138497Y0060145D01*
X0138668Y0059848D01*
X0138757Y0059518D01*
X0138757Y0056300D01*
X0138757Y0056487D02*
X0143643Y0056487D01*
X0143643Y0057085D02*
X0138757Y0057085D01*
X0138757Y0057684D02*
X0143643Y0057684D01*
X0143643Y0058282D02*
X0138757Y0058282D01*
X0138757Y0058881D02*
X0143643Y0058881D01*
X0143643Y0059479D02*
X0138757Y0059479D01*
X0138535Y0060078D02*
X0144002Y0060078D01*
X0143643Y0055888D02*
X0135591Y0055888D01*
X0135591Y0056487D02*
X0134991Y0056487D01*
X0134991Y0057085D02*
X0135591Y0057085D01*
X0135591Y0057684D02*
X0134991Y0057684D01*
X0134991Y0058282D02*
X0135591Y0058282D01*
X0135591Y0058881D02*
X0134991Y0058881D01*
X0134991Y0059479D02*
X0135591Y0059479D01*
X0135591Y0060078D02*
X0134991Y0060078D01*
X0155000Y0055888D02*
X0157226Y0055888D01*
X0157226Y0055290D02*
X0155000Y0055290D01*
X0155000Y0054691D02*
X0157226Y0054691D01*
X0157226Y0054093D02*
X0155000Y0054093D01*
X0155000Y0053494D02*
X0157226Y0053494D01*
X0157226Y0052896D02*
X0155000Y0052896D01*
X0155000Y0052297D02*
X0157226Y0052297D01*
X0159200Y0051699D02*
X0155000Y0051699D01*
X0155000Y0051100D02*
X0159200Y0051100D01*
X0159200Y0050502D02*
X0155000Y0050502D01*
X0155000Y0049903D02*
X0157705Y0049903D01*
X0157226Y0049305D02*
X0155000Y0049305D01*
X0155000Y0048706D02*
X0157226Y0048706D01*
X0157226Y0048108D02*
X0155000Y0048108D01*
X0155000Y0047509D02*
X0157226Y0047509D01*
X0157226Y0046911D02*
X0155000Y0046911D01*
X0155000Y0046312D02*
X0157226Y0046312D01*
X0157226Y0045714D02*
X0155000Y0045714D01*
X0155000Y0045115D02*
X0157226Y0045115D01*
X0157226Y0044517D02*
X0155000Y0044517D01*
X0155000Y0043918D02*
X0157226Y0043918D01*
X0157226Y0043320D02*
X0155000Y0043320D01*
X0155000Y0042721D02*
X0157226Y0042721D01*
X0157679Y0042123D02*
X0154820Y0042123D01*
X0160291Y0046000D02*
X0160400Y0046400D01*
X0160400Y0056000D01*
X0160291Y0056000D01*
X0157226Y0056487D02*
X0155384Y0056487D01*
X0155982Y0057085D02*
X0157226Y0057085D01*
X0157226Y0057684D02*
X0156581Y0057684D01*
X0157179Y0058282D02*
X0157226Y0058282D01*
X0161600Y0051100D02*
X0172403Y0051100D01*
X0172009Y0051699D02*
X0171409Y0051699D01*
X0171409Y0052297D02*
X0172009Y0052297D01*
X0172009Y0052896D02*
X0171409Y0052896D01*
X0171409Y0053494D02*
X0172009Y0053494D01*
X0172009Y0054093D02*
X0171409Y0054093D01*
X0171409Y0054691D02*
X0172009Y0054691D01*
X0172009Y0055290D02*
X0171409Y0055290D01*
X0176000Y0056487D02*
X0182600Y0056487D01*
X0182600Y0057085D02*
X0176000Y0057085D01*
X0176000Y0057684D02*
X0182600Y0057684D01*
X0182600Y0058282D02*
X0176000Y0058282D01*
X0176000Y0058881D02*
X0182600Y0058881D01*
X0182600Y0059479D02*
X0176000Y0059479D01*
X0176000Y0060078D02*
X0182600Y0060078D01*
X0182600Y0060676D02*
X0176000Y0060676D01*
X0175422Y0061275D02*
X0182600Y0061275D01*
X0182600Y0061873D02*
X0174824Y0061873D01*
X0171805Y0050502D02*
X0161600Y0050502D01*
X0163357Y0045115D02*
X0168643Y0045115D01*
X0168643Y0044517D02*
X0163357Y0044517D01*
X0163357Y0043918D02*
X0168643Y0043918D01*
X0168643Y0043320D02*
X0163357Y0043320D01*
X0163357Y0042721D02*
X0168643Y0042721D01*
X0169097Y0042123D02*
X0162903Y0042123D01*
X0170700Y0025364D02*
X0171300Y0025364D01*
X0171300Y0024766D02*
X0170700Y0024766D01*
X0170700Y0024167D02*
X0171300Y0024167D01*
X0171300Y0023569D02*
X0170700Y0023569D01*
X0170700Y0022970D02*
X0171300Y0022970D01*
X0171300Y0022372D02*
X0170700Y0022372D01*
X0170700Y0021773D02*
X0171300Y0021773D01*
X0166519Y0018781D02*
X0165060Y0018781D01*
X0165308Y0019379D02*
X0166269Y0019379D01*
X0166100Y0019978D02*
X0165556Y0019978D01*
X0165600Y0020576D02*
X0166005Y0020576D01*
X0166867Y0018182D02*
X0164688Y0018182D01*
X0164089Y0017584D02*
X0167345Y0017584D01*
X0168019Y0016985D02*
X0163328Y0016985D01*
X0165783Y0016387D02*
X0169041Y0016387D01*
X0186200Y0066662D02*
X0189454Y0066662D01*
X0188235Y0067260D02*
X0186200Y0067260D01*
D27*
X0179000Y0103400D03*
X0164600Y0105800D03*
X0152600Y0108200D03*
X0146600Y0099200D03*
X0138800Y0107000D03*
X0127400Y0105800D03*
X0127400Y0119600D03*
X0127400Y0124400D03*
X0129200Y0144200D03*
X0117800Y0170600D03*
X0087200Y0147200D03*
X0086000Y0135800D03*
X0075800Y0135800D03*
X0060800Y0141200D03*
X0069800Y0151400D03*
X0071600Y0161600D03*
X0101000Y0136400D03*
X0102200Y0132200D03*
X0087800Y0114800D03*
X0080000Y0112400D03*
X0070400Y0120200D03*
X0062600Y0112400D03*
X0057200Y0095000D03*
X0057200Y0084200D03*
X0054800Y0077600D03*
X0072200Y0095000D03*
X0083000Y0099800D03*
X0101000Y0085400D03*
X0096800Y0078200D03*
X0114200Y0045800D03*
X0120800Y0030800D03*
X0126200Y0026000D03*
X0135800Y0024800D03*
X0164600Y0014600D03*
X0167600Y0130400D03*
X0164600Y0200000D03*
X0038600Y0101000D03*
M02*
