G75*
%MOIN*%
%OFA0B0*%
%FSLAX25Y25*%
%IPPOS*%
%LPD*%
%AMOC8*
5,1,8,0,0,1.08239X$1,22.5*
%
%ADD10C,0.00000*%
%ADD11R,0.10950X0.10950*%
%ADD12C,0.04800*%
%ADD13C,0.07400*%
%ADD14C,0.06693*%
%ADD15C,0.21000*%
%ADD16C,0.00600*%
%ADD17C,0.02400*%
D10*
X0001000Y0001000D02*
X0001000Y0230961D01*
X0209701Y0230961D01*
X0209701Y0001000D01*
X0001000Y0001000D01*
D11*
X0050000Y0191000D03*
X0102000Y0191000D03*
D12*
X0071000Y0068400D02*
X0071000Y0063600D01*
X0061000Y0063600D02*
X0061000Y0068400D01*
X0051000Y0068400D02*
X0051000Y0063600D01*
X0041000Y0063600D02*
X0041000Y0068400D01*
X0041000Y0038400D02*
X0041000Y0033600D01*
X0051000Y0033600D02*
X0051000Y0038400D01*
X0061000Y0038400D02*
X0061000Y0033600D01*
X0071000Y0033600D02*
X0071000Y0038400D01*
D13*
X0071000Y0021000D03*
X0061000Y0021000D03*
X0051000Y0021000D03*
X0041000Y0021000D03*
X0031000Y0021000D03*
X0021000Y0021000D03*
X0021000Y0031000D03*
X0021000Y0041000D03*
X0021000Y0051000D03*
X0021000Y0061000D03*
X0021000Y0071000D03*
X0021000Y0081000D03*
X0021000Y0091000D03*
X0021000Y0101000D03*
X0021000Y0111000D03*
X0021000Y0121000D03*
X0021000Y0131000D03*
X0021000Y0141000D03*
X0021000Y0151000D03*
X0041000Y0151000D03*
X0051000Y0151000D03*
X0051000Y0131000D03*
X0051000Y0121000D03*
X0051000Y0111000D03*
X0041000Y0111000D03*
X0041000Y0121000D03*
X0041000Y0131000D03*
X0131000Y0211000D03*
X0141000Y0211000D03*
X0151000Y0211000D03*
X0161000Y0211000D03*
X0171000Y0211000D03*
X0181000Y0211000D03*
X0191000Y0211000D03*
X0191000Y0201000D03*
X0191000Y0191000D03*
X0191000Y0181000D03*
X0191000Y0171000D03*
X0191000Y0161000D03*
X0191000Y0151000D03*
X0191000Y0141000D03*
X0191000Y0131000D03*
X0191000Y0121000D03*
X0191000Y0111000D03*
X0191000Y0101000D03*
X0191000Y0091000D03*
X0191000Y0081000D03*
X0191000Y0071000D03*
X0191000Y0061000D03*
X0191000Y0051000D03*
X0191000Y0041000D03*
X0191000Y0031000D03*
X0191000Y0021000D03*
X0181000Y0021000D03*
X0171000Y0021000D03*
X0161000Y0021000D03*
X0151000Y0021000D03*
X0141000Y0021000D03*
X0131000Y0021000D03*
X0121000Y0021000D03*
X0111000Y0021000D03*
X0101000Y0021000D03*
X0091000Y0021000D03*
X0081000Y0021000D03*
D14*
X0111000Y0041157D03*
X0111000Y0060843D03*
D15*
X0026000Y0206000D03*
D16*
X0035774Y0200130D02*
X0097033Y0200130D01*
X0097631Y0200728D02*
X0036120Y0200728D01*
X0036465Y0201327D02*
X0098230Y0201327D01*
X0098828Y0201925D02*
X0036710Y0201925D01*
X0036623Y0201600D02*
X0037400Y0204499D01*
X0037400Y0207501D01*
X0036623Y0210400D01*
X0035122Y0213000D01*
X0033000Y0215122D01*
X0030400Y0216623D01*
X0027501Y0217400D01*
X0024499Y0217400D01*
X0021600Y0216623D01*
X0019000Y0215122D01*
X0016878Y0213000D01*
X0015377Y0210400D01*
X0014600Y0207501D01*
X0014600Y0204499D01*
X0015377Y0201600D01*
X0016878Y0199000D01*
X0019000Y0196878D01*
X0021600Y0195377D01*
X0024499Y0194600D01*
X0027501Y0194600D01*
X0030400Y0195377D01*
X0033000Y0196878D01*
X0035122Y0199000D01*
X0036623Y0201600D01*
X0036871Y0202524D02*
X0099427Y0202524D01*
X0100025Y0203122D02*
X0037031Y0203122D01*
X0037191Y0203721D02*
X0100624Y0203721D01*
X0101222Y0204319D02*
X0037352Y0204319D01*
X0037400Y0204918D02*
X0101821Y0204918D01*
X0102419Y0205516D02*
X0037400Y0205516D01*
X0037400Y0206115D02*
X0103018Y0206115D01*
X0103616Y0206713D02*
X0037400Y0206713D01*
X0037400Y0207312D02*
X0104215Y0207312D01*
X0104813Y0207910D02*
X0037290Y0207910D01*
X0037130Y0208509D02*
X0105412Y0208509D01*
X0106010Y0209107D02*
X0036970Y0209107D01*
X0036809Y0209706D02*
X0106609Y0209706D01*
X0107207Y0210304D02*
X0036649Y0210304D01*
X0036333Y0210903D02*
X0107806Y0210903D01*
X0108404Y0211501D02*
X0035987Y0211501D01*
X0035642Y0212100D02*
X0109003Y0212100D01*
X0109601Y0212698D02*
X0035296Y0212698D01*
X0034825Y0213297D02*
X0110200Y0213297D01*
X0110798Y0213895D02*
X0034227Y0213895D01*
X0033628Y0214494D02*
X0111397Y0214494D01*
X0111995Y0215092D02*
X0033030Y0215092D01*
X0032015Y0215691D02*
X0112594Y0215691D01*
X0113192Y0216289D02*
X0030978Y0216289D01*
X0029412Y0216888D02*
X0113791Y0216888D01*
X0114200Y0217297D02*
X0094400Y0197497D01*
X0094400Y0173497D01*
X0071900Y0150997D01*
X0071900Y0152270D01*
X0070670Y0153500D01*
X0068930Y0153500D01*
X0067700Y0152270D01*
X0067700Y0150997D01*
X0060200Y0143497D01*
X0055018Y0148679D01*
X0055600Y0150085D01*
X0055600Y0151915D01*
X0054900Y0153606D01*
X0053606Y0154900D01*
X0051915Y0155600D01*
X0050085Y0155600D01*
X0048394Y0154900D01*
X0047100Y0153606D01*
X0046400Y0151915D01*
X0046400Y0150085D01*
X0047100Y0148394D01*
X0048394Y0147100D01*
X0050085Y0146400D01*
X0051915Y0146400D01*
X0053321Y0146982D01*
X0058700Y0141603D01*
X0058700Y0140330D01*
X0059930Y0139100D01*
X0060003Y0139100D01*
X0054704Y0133801D01*
X0053606Y0134900D01*
X0051915Y0135600D01*
X0050085Y0135600D01*
X0048394Y0134900D01*
X0047100Y0133606D01*
X0046400Y0131915D01*
X0046400Y0130085D01*
X0047100Y0128394D01*
X0048394Y0127100D01*
X0050085Y0126400D01*
X0051915Y0126400D01*
X0053606Y0127100D01*
X0054900Y0128394D01*
X0055600Y0130085D01*
X0055600Y0131303D01*
X0096097Y0171800D01*
X0096800Y0172503D01*
X0096800Y0184625D01*
X0103400Y0184625D01*
X0103400Y0138697D01*
X0092000Y0150097D01*
X0091297Y0150800D01*
X0078903Y0150800D01*
X0053179Y0125076D01*
X0051915Y0125600D01*
X0050085Y0125600D01*
X0048394Y0124900D01*
X0047100Y0123606D01*
X0046400Y0121915D01*
X0046400Y0120085D01*
X0047100Y0118394D01*
X0048394Y0117100D01*
X0050085Y0116400D01*
X0051915Y0116400D01*
X0053606Y0117100D01*
X0054900Y0118394D01*
X0055600Y0120085D01*
X0055600Y0121915D01*
X0054959Y0123462D01*
X0079897Y0148400D01*
X0085430Y0148400D01*
X0085100Y0148070D01*
X0085100Y0146330D01*
X0086000Y0145430D01*
X0086000Y0142297D01*
X0077000Y0133297D01*
X0077000Y0134030D01*
X0077900Y0134930D01*
X0077900Y0136670D01*
X0076670Y0137900D01*
X0074930Y0137900D01*
X0073700Y0136670D01*
X0073700Y0134930D01*
X0074600Y0134030D01*
X0074600Y0129097D01*
X0055600Y0110097D01*
X0055600Y0111915D01*
X0054900Y0113606D01*
X0053606Y0114900D01*
X0051915Y0115600D01*
X0050085Y0115600D01*
X0048394Y0114900D01*
X0047100Y0113606D01*
X0046400Y0111915D01*
X0046400Y0110085D01*
X0047100Y0108394D01*
X0048394Y0107100D01*
X0050085Y0106400D01*
X0051915Y0106400D01*
X0053600Y0107098D01*
X0053600Y0079370D01*
X0052700Y0078470D01*
X0052700Y0076730D01*
X0053930Y0075500D01*
X0054003Y0075500D01*
X0050703Y0072200D01*
X0050703Y0072200D01*
X0050103Y0071601D01*
X0049131Y0071198D01*
X0048202Y0070269D01*
X0047700Y0069056D01*
X0044642Y0069056D01*
X0044700Y0068764D02*
X0044558Y0069479D01*
X0044279Y0070153D01*
X0043874Y0070759D01*
X0043359Y0071274D01*
X0042753Y0071679D01*
X0042079Y0071958D01*
X0041364Y0072100D01*
X0041300Y0072100D01*
X0041300Y0066300D01*
X0040700Y0066300D01*
X0040700Y0072100D01*
X0040636Y0072100D01*
X0039921Y0071958D01*
X0039247Y0071679D01*
X0038641Y0071274D01*
X0038600Y0071233D01*
X0038600Y0085503D01*
X0042200Y0089103D01*
X0042200Y0106518D01*
X0043606Y0107100D01*
X0044900Y0108394D01*
X0045600Y0110085D01*
X0045600Y0111915D01*
X0044900Y0113606D01*
X0043606Y0114900D01*
X0041915Y0115600D01*
X0041297Y0115600D01*
X0040497Y0116400D01*
X0041915Y0116400D01*
X0043606Y0117100D01*
X0044900Y0118394D01*
X0045600Y0120085D01*
X0045600Y0121915D01*
X0044900Y0123606D01*
X0043606Y0124900D01*
X0041915Y0125600D01*
X0040085Y0125600D01*
X0038394Y0124900D01*
X0037100Y0123606D01*
X0036400Y0121915D01*
X0036400Y0120497D01*
X0027200Y0129697D01*
X0027200Y0136297D01*
X0024959Y0138538D01*
X0025600Y0140085D01*
X0025600Y0141915D01*
X0024900Y0143606D01*
X0023606Y0144900D01*
X0023599Y0144902D01*
X0024200Y0145503D01*
X0039097Y0160400D01*
X0069830Y0160400D01*
X0070730Y0159500D01*
X0072470Y0159500D01*
X0073700Y0160730D01*
X0073700Y0162470D01*
X0072470Y0163700D01*
X0070730Y0163700D01*
X0069830Y0162800D01*
X0038103Y0162800D01*
X0025600Y0150297D01*
X0025600Y0151915D01*
X0024900Y0153606D01*
X0023606Y0154900D01*
X0021915Y0155600D01*
X0020085Y0155600D01*
X0018394Y0154900D01*
X0017100Y0153606D01*
X0016400Y0151915D01*
X0016400Y0150085D01*
X0017100Y0148394D01*
X0018394Y0147100D01*
X0018683Y0146981D01*
X0015903Y0144200D01*
X0015200Y0143497D01*
X0015200Y0125103D01*
X0016982Y0123321D01*
X0016400Y0121915D01*
X0016400Y0120085D01*
X0017100Y0118394D01*
X0018394Y0117100D01*
X0020085Y0116400D01*
X0021915Y0116400D01*
X0023606Y0117100D01*
X0024900Y0118394D01*
X0025600Y0120085D01*
X0025600Y0121915D01*
X0024900Y0123606D01*
X0023606Y0124900D01*
X0021915Y0125600D01*
X0020085Y0125600D01*
X0018679Y0125018D01*
X0017600Y0126097D01*
X0017600Y0127895D01*
X0018394Y0127100D01*
X0020085Y0126400D01*
X0021915Y0126400D01*
X0023606Y0127100D01*
X0024900Y0128394D01*
X0024961Y0128542D01*
X0025503Y0128000D01*
X0038542Y0114961D01*
X0038394Y0114900D01*
X0037100Y0113606D01*
X0036400Y0111915D01*
X0036400Y0110085D01*
X0037100Y0108394D01*
X0038394Y0107100D01*
X0039800Y0106518D01*
X0039800Y0102770D01*
X0039470Y0103100D01*
X0037730Y0103100D01*
X0036500Y0101870D01*
X0036500Y0100130D01*
X0037400Y0099230D01*
X0037400Y0089497D01*
X0025503Y0077600D01*
X0024800Y0076897D01*
X0024800Y0073705D01*
X0023606Y0074900D01*
X0021915Y0075600D01*
X0020085Y0075600D01*
X0018394Y0074900D01*
X0017100Y0073606D01*
X0016400Y0071915D01*
X0016400Y0070085D01*
X0017100Y0068394D01*
X0018394Y0067100D01*
X0020085Y0066400D01*
X0021915Y0066400D01*
X0023606Y0067100D01*
X0024800Y0068295D01*
X0024800Y0066697D01*
X0023179Y0065076D01*
X0021915Y0065600D01*
X0020085Y0065600D01*
X0018394Y0064900D01*
X0017100Y0063606D01*
X0016400Y0061915D01*
X0016400Y0060085D01*
X0017100Y0058394D01*
X0018394Y0057100D01*
X0020085Y0056400D01*
X0021915Y0056400D01*
X0023606Y0057100D01*
X0024900Y0058394D01*
X0025600Y0060085D01*
X0025600Y0061915D01*
X0024959Y0063462D01*
X0027200Y0065703D01*
X0027200Y0075903D01*
X0036200Y0084903D01*
X0036200Y0054303D01*
X0048303Y0042200D01*
X0046400Y0040297D01*
X0046400Y0035497D01*
X0044300Y0033397D01*
X0044300Y0039056D01*
X0043798Y0040269D01*
X0042869Y0041198D01*
X0041656Y0041700D01*
X0040344Y0041700D01*
X0039131Y0041198D01*
X0038202Y0040269D01*
X0037700Y0039056D01*
X0037700Y0033997D01*
X0035000Y0031297D01*
X0035000Y0023363D01*
X0034900Y0023606D01*
X0033606Y0024900D01*
X0031915Y0025600D01*
X0030085Y0025600D01*
X0028394Y0024900D01*
X0027100Y0023606D01*
X0026400Y0021915D01*
X0026400Y0020085D01*
X0027100Y0018394D01*
X0028394Y0017100D01*
X0030085Y0016400D01*
X0031915Y0016400D01*
X0033606Y0017100D01*
X0034900Y0018394D01*
X0035000Y0018637D01*
X0035000Y0018303D01*
X0035703Y0017600D01*
X0039303Y0014000D01*
X0144097Y0014000D01*
X0144800Y0014703D01*
X0147796Y0017699D01*
X0148394Y0017100D01*
X0150085Y0016400D01*
X0151915Y0016400D01*
X0153606Y0017100D01*
X0154900Y0018394D01*
X0155000Y0018637D01*
X0155000Y0018303D01*
X0159200Y0014103D01*
X0159903Y0013400D01*
X0162830Y0013400D01*
X0163730Y0012500D01*
X0165470Y0012500D01*
X0166700Y0013730D01*
X0166700Y0015470D01*
X0165470Y0016700D01*
X0163730Y0016700D01*
X0162830Y0015800D01*
X0160897Y0015800D01*
X0160297Y0016400D01*
X0161915Y0016400D01*
X0163606Y0017100D01*
X0164900Y0018394D01*
X0165600Y0020085D01*
X0165600Y0021915D01*
X0164959Y0023462D01*
X0165800Y0024303D01*
X0165800Y0104030D01*
X0166700Y0104930D01*
X0166700Y0106670D01*
X0165470Y0107900D01*
X0163730Y0107900D01*
X0162500Y0106670D01*
X0162500Y0104930D01*
X0163400Y0104030D01*
X0163400Y0025297D01*
X0163179Y0025076D01*
X0161915Y0025600D01*
X0160085Y0025600D01*
X0158394Y0024900D01*
X0157100Y0023606D01*
X0156981Y0023316D01*
X0156697Y0023600D01*
X0147800Y0032497D01*
X0147800Y0097430D01*
X0148700Y0098330D01*
X0148700Y0100070D01*
X0147470Y0101300D01*
X0147397Y0101300D01*
X0152197Y0106100D01*
X0153470Y0106100D01*
X0154700Y0107330D01*
X0154700Y0109070D01*
X0153470Y0110300D01*
X0151730Y0110300D01*
X0150500Y0109070D01*
X0150500Y0107797D01*
X0143703Y0101000D01*
X0143000Y0100297D01*
X0143000Y0027697D01*
X0140000Y0030697D01*
X0140000Y0105230D01*
X0140900Y0106130D01*
X0140900Y0107870D01*
X0139670Y0109100D01*
X0137930Y0109100D01*
X0136700Y0107870D01*
X0136700Y0106130D01*
X0137600Y0105230D01*
X0137600Y0029703D01*
X0141703Y0025600D01*
X0140085Y0025600D01*
X0139811Y0025486D01*
X0130400Y0034897D01*
X0129697Y0035600D01*
X0115297Y0035600D01*
X0131497Y0051800D01*
X0132200Y0052503D01*
X0132200Y0142897D01*
X0131300Y0143797D01*
X0131300Y0145070D01*
X0130070Y0146300D01*
X0129997Y0146300D01*
X0165800Y0182103D01*
X0165800Y0198230D01*
X0166700Y0199130D01*
X0166700Y0200000D01*
X0186435Y0200000D01*
X0187100Y0198394D01*
X0188394Y0197100D01*
X0190085Y0196400D01*
X0191915Y0196400D01*
X0193606Y0197100D01*
X0194900Y0198394D01*
X0195600Y0200085D01*
X0195600Y0201915D01*
X0194900Y0203606D01*
X0193606Y0204900D01*
X0191915Y0205600D01*
X0190085Y0205600D01*
X0188394Y0204900D01*
X0187100Y0203606D01*
X0186601Y0202400D01*
X0164497Y0202400D01*
X0160497Y0206400D01*
X0161915Y0206400D01*
X0163606Y0207100D01*
X0164900Y0208394D01*
X0165600Y0210085D01*
X0165600Y0211915D01*
X0164900Y0213606D01*
X0163606Y0214900D01*
X0161915Y0215600D01*
X0160085Y0215600D01*
X0158962Y0215135D01*
X0158497Y0215600D01*
X0174903Y0215600D01*
X0177041Y0213462D01*
X0176400Y0211915D01*
X0176400Y0210085D01*
X0177100Y0208394D01*
X0178394Y0207100D01*
X0180085Y0206400D01*
X0181915Y0206400D01*
X0183606Y0207100D01*
X0184900Y0208394D01*
X0185600Y0210085D01*
X0185600Y0211915D01*
X0184900Y0213606D01*
X0183606Y0214900D01*
X0181915Y0215600D01*
X0180085Y0215600D01*
X0178821Y0215076D01*
X0175897Y0218000D01*
X0114903Y0218000D01*
X0114200Y0217297D01*
X0114389Y0217486D02*
X0011000Y0217486D01*
X0011000Y0216888D02*
X0022588Y0216888D01*
X0021022Y0216289D02*
X0011000Y0216289D01*
X0011000Y0215691D02*
X0019985Y0215691D01*
X0018970Y0215092D02*
X0011000Y0215092D01*
X0011000Y0214494D02*
X0018372Y0214494D01*
X0017773Y0213895D02*
X0011000Y0213895D01*
X0011000Y0213297D02*
X0017175Y0213297D01*
X0016704Y0212698D02*
X0011000Y0212698D01*
X0011000Y0212100D02*
X0016358Y0212100D01*
X0016013Y0211501D02*
X0011000Y0211501D01*
X0011000Y0210903D02*
X0015667Y0210903D01*
X0015351Y0210304D02*
X0011000Y0210304D01*
X0011000Y0209706D02*
X0015191Y0209706D01*
X0015030Y0209107D02*
X0011000Y0209107D01*
X0011000Y0208509D02*
X0014870Y0208509D01*
X0014710Y0207910D02*
X0011000Y0207910D01*
X0011000Y0207312D02*
X0014600Y0207312D01*
X0014600Y0206713D02*
X0011000Y0206713D01*
X0011000Y0206115D02*
X0014600Y0206115D01*
X0014600Y0205516D02*
X0011000Y0205516D01*
X0011000Y0204918D02*
X0014600Y0204918D01*
X0014648Y0204319D02*
X0011000Y0204319D01*
X0011000Y0203721D02*
X0014809Y0203721D01*
X0014969Y0203122D02*
X0011000Y0203122D01*
X0011000Y0202524D02*
X0015129Y0202524D01*
X0015290Y0201925D02*
X0011000Y0201925D01*
X0011000Y0201327D02*
X0015535Y0201327D01*
X0015880Y0200728D02*
X0011000Y0200728D01*
X0011000Y0200130D02*
X0016226Y0200130D01*
X0016571Y0199531D02*
X0011000Y0199531D01*
X0011000Y0198933D02*
X0016945Y0198933D01*
X0017544Y0198334D02*
X0011000Y0198334D01*
X0011000Y0197736D02*
X0018142Y0197736D01*
X0018741Y0197137D02*
X0011000Y0197137D01*
X0011000Y0196539D02*
X0019588Y0196539D01*
X0020624Y0195940D02*
X0011000Y0195940D01*
X0011000Y0195341D02*
X0021732Y0195341D01*
X0023966Y0194743D02*
X0011000Y0194743D01*
X0011000Y0194144D02*
X0043625Y0194144D01*
X0043625Y0193546D02*
X0011000Y0193546D01*
X0011000Y0192947D02*
X0043625Y0192947D01*
X0043625Y0192349D02*
X0011000Y0192349D01*
X0011000Y0191750D02*
X0043625Y0191750D01*
X0043625Y0191152D02*
X0011000Y0191152D01*
X0011000Y0190553D02*
X0043625Y0190553D01*
X0043625Y0189955D02*
X0011000Y0189955D01*
X0011000Y0189356D02*
X0043625Y0189356D01*
X0043625Y0188758D02*
X0011000Y0188758D01*
X0011000Y0188159D02*
X0043625Y0188159D01*
X0043625Y0187561D02*
X0011000Y0187561D01*
X0011000Y0186962D02*
X0043625Y0186962D01*
X0043625Y0186364D02*
X0011000Y0186364D01*
X0011000Y0185765D02*
X0043625Y0185765D01*
X0043625Y0185167D02*
X0011000Y0185167D01*
X0011000Y0184568D02*
X0094400Y0184568D01*
X0094400Y0183970D02*
X0011000Y0183970D01*
X0011000Y0183371D02*
X0094400Y0183371D01*
X0094400Y0182773D02*
X0011000Y0182773D01*
X0011000Y0182174D02*
X0094400Y0182174D01*
X0094400Y0181576D02*
X0011000Y0181576D01*
X0011000Y0180977D02*
X0094400Y0180977D01*
X0094400Y0180379D02*
X0011000Y0180379D01*
X0011000Y0179780D02*
X0094400Y0179780D01*
X0094400Y0179182D02*
X0011000Y0179182D01*
X0011000Y0178583D02*
X0094400Y0178583D01*
X0094400Y0177985D02*
X0011000Y0177985D01*
X0011000Y0177386D02*
X0094400Y0177386D01*
X0094400Y0176788D02*
X0011000Y0176788D01*
X0011000Y0176189D02*
X0094400Y0176189D01*
X0094400Y0175591D02*
X0011000Y0175591D01*
X0011000Y0174992D02*
X0094400Y0174992D01*
X0094400Y0174394D02*
X0011000Y0174394D01*
X0011000Y0173795D02*
X0094400Y0173795D01*
X0094100Y0173197D02*
X0011000Y0173197D01*
X0011000Y0172598D02*
X0093501Y0172598D01*
X0092903Y0172000D02*
X0011000Y0172000D01*
X0011000Y0171401D02*
X0092304Y0171401D01*
X0091705Y0170803D02*
X0011000Y0170803D01*
X0011000Y0170204D02*
X0091107Y0170204D01*
X0090508Y0169605D02*
X0011000Y0169605D01*
X0011000Y0169007D02*
X0089910Y0169007D01*
X0089311Y0168408D02*
X0011000Y0168408D01*
X0011000Y0167810D02*
X0088713Y0167810D01*
X0088114Y0167211D02*
X0011000Y0167211D01*
X0011000Y0166613D02*
X0087516Y0166613D01*
X0086917Y0166014D02*
X0011000Y0166014D01*
X0011000Y0165416D02*
X0086319Y0165416D01*
X0085720Y0164817D02*
X0011000Y0164817D01*
X0011000Y0164219D02*
X0085122Y0164219D01*
X0084523Y0163620D02*
X0072549Y0163620D01*
X0073148Y0163022D02*
X0083925Y0163022D01*
X0083326Y0162423D02*
X0073700Y0162423D01*
X0073700Y0161825D02*
X0082728Y0161825D01*
X0082129Y0161226D02*
X0073700Y0161226D01*
X0073598Y0160628D02*
X0081531Y0160628D01*
X0080932Y0160029D02*
X0072999Y0160029D01*
X0071600Y0161600D02*
X0038600Y0161600D01*
X0023000Y0146000D01*
X0019400Y0146000D01*
X0016400Y0143000D01*
X0016400Y0125600D01*
X0021000Y0121000D01*
X0016960Y0118732D02*
X0011000Y0118732D01*
X0011000Y0118134D02*
X0017361Y0118134D01*
X0017960Y0117535D02*
X0011000Y0117535D01*
X0011000Y0116937D02*
X0018790Y0116937D01*
X0018977Y0115141D02*
X0011000Y0115141D01*
X0011000Y0115739D02*
X0037763Y0115739D01*
X0038362Y0115141D02*
X0023023Y0115141D01*
X0023606Y0114900D02*
X0021915Y0115600D01*
X0020085Y0115600D01*
X0018394Y0114900D01*
X0017100Y0113606D01*
X0016400Y0111915D01*
X0016400Y0110085D01*
X0017100Y0108394D01*
X0018394Y0107100D01*
X0020085Y0106400D01*
X0021915Y0106400D01*
X0023606Y0107100D01*
X0024900Y0108394D01*
X0025600Y0110085D01*
X0025600Y0111915D01*
X0024900Y0113606D01*
X0023606Y0114900D01*
X0023963Y0114542D02*
X0038037Y0114542D01*
X0037439Y0113944D02*
X0024561Y0113944D01*
X0025007Y0113345D02*
X0036993Y0113345D01*
X0036745Y0112747D02*
X0025255Y0112747D01*
X0025503Y0112148D02*
X0036497Y0112148D01*
X0036400Y0111550D02*
X0025600Y0111550D01*
X0025600Y0110951D02*
X0036400Y0110951D01*
X0036400Y0110353D02*
X0025600Y0110353D01*
X0025463Y0109754D02*
X0036537Y0109754D01*
X0036785Y0109156D02*
X0025215Y0109156D01*
X0024967Y0108557D02*
X0037033Y0108557D01*
X0037536Y0107959D02*
X0024464Y0107959D01*
X0023866Y0107360D02*
X0038134Y0107360D01*
X0039212Y0106762D02*
X0022788Y0106762D01*
X0022000Y0105565D02*
X0039800Y0105565D01*
X0039800Y0106163D02*
X0011000Y0106163D01*
X0011000Y0105565D02*
X0020000Y0105565D01*
X0020085Y0105600D02*
X0018394Y0104900D01*
X0017100Y0103606D01*
X0016400Y0101915D01*
X0016400Y0100085D01*
X0017100Y0098394D01*
X0018394Y0097100D01*
X0020085Y0096400D01*
X0021915Y0096400D01*
X0023606Y0097100D01*
X0024900Y0098394D01*
X0025600Y0100085D01*
X0025600Y0101915D01*
X0024900Y0103606D01*
X0023606Y0104900D01*
X0021915Y0105600D01*
X0020085Y0105600D01*
X0019212Y0106762D02*
X0011000Y0106762D01*
X0011000Y0107360D02*
X0018134Y0107360D01*
X0017536Y0107959D02*
X0011000Y0107959D01*
X0011000Y0108557D02*
X0017033Y0108557D01*
X0016785Y0109156D02*
X0011000Y0109156D01*
X0011000Y0109754D02*
X0016537Y0109754D01*
X0016400Y0110353D02*
X0011000Y0110353D01*
X0011000Y0110951D02*
X0016400Y0110951D01*
X0016400Y0111550D02*
X0011000Y0111550D01*
X0011000Y0112148D02*
X0016497Y0112148D01*
X0016745Y0112747D02*
X0011000Y0112747D01*
X0011000Y0113345D02*
X0016993Y0113345D01*
X0017439Y0113944D02*
X0011000Y0113944D01*
X0011000Y0114542D02*
X0018037Y0114542D01*
X0016713Y0119331D02*
X0011000Y0119331D01*
X0011000Y0119929D02*
X0016465Y0119929D01*
X0016400Y0120528D02*
X0011000Y0120528D01*
X0011000Y0121126D02*
X0016400Y0121126D01*
X0016400Y0121725D02*
X0011000Y0121725D01*
X0011000Y0122323D02*
X0016569Y0122323D01*
X0016817Y0122922D02*
X0011000Y0122922D01*
X0011000Y0123520D02*
X0016783Y0123520D01*
X0016184Y0124119D02*
X0011000Y0124119D01*
X0011000Y0124717D02*
X0015586Y0124717D01*
X0015200Y0125316D02*
X0011000Y0125316D01*
X0011000Y0125914D02*
X0015200Y0125914D01*
X0015200Y0126513D02*
X0011000Y0126513D01*
X0011000Y0127111D02*
X0015200Y0127111D01*
X0015200Y0127710D02*
X0011000Y0127710D01*
X0011000Y0128308D02*
X0015200Y0128308D01*
X0015200Y0128907D02*
X0011000Y0128907D01*
X0011000Y0129505D02*
X0015200Y0129505D01*
X0015200Y0130104D02*
X0011000Y0130104D01*
X0011000Y0130702D02*
X0015200Y0130702D01*
X0015200Y0131301D02*
X0011000Y0131301D01*
X0011000Y0131899D02*
X0015200Y0131899D01*
X0015200Y0132498D02*
X0011000Y0132498D01*
X0011000Y0133096D02*
X0015200Y0133096D01*
X0015200Y0133695D02*
X0011000Y0133695D01*
X0011000Y0134293D02*
X0015200Y0134293D01*
X0015200Y0134892D02*
X0011000Y0134892D01*
X0011000Y0135490D02*
X0015200Y0135490D01*
X0015200Y0136089D02*
X0011000Y0136089D01*
X0011000Y0136687D02*
X0015200Y0136687D01*
X0015200Y0137286D02*
X0011000Y0137286D01*
X0011000Y0137884D02*
X0015200Y0137884D01*
X0015200Y0138483D02*
X0011000Y0138483D01*
X0011000Y0139081D02*
X0015200Y0139081D01*
X0015200Y0139680D02*
X0011000Y0139680D01*
X0011000Y0140278D02*
X0015200Y0140278D01*
X0015200Y0140877D02*
X0011000Y0140877D01*
X0011000Y0141475D02*
X0015200Y0141475D01*
X0015200Y0142074D02*
X0011000Y0142074D01*
X0011000Y0142672D02*
X0015200Y0142672D01*
X0015200Y0143271D02*
X0011000Y0143271D01*
X0011000Y0143870D02*
X0015572Y0143870D01*
X0016171Y0144468D02*
X0011000Y0144468D01*
X0011000Y0145067D02*
X0016770Y0145067D01*
X0017368Y0145665D02*
X0011000Y0145665D01*
X0011000Y0146264D02*
X0017967Y0146264D01*
X0018565Y0146862D02*
X0011000Y0146862D01*
X0011000Y0147461D02*
X0018034Y0147461D01*
X0017436Y0148059D02*
X0011000Y0148059D01*
X0011000Y0148658D02*
X0016991Y0148658D01*
X0016743Y0149256D02*
X0011000Y0149256D01*
X0011000Y0149855D02*
X0016495Y0149855D01*
X0016400Y0150453D02*
X0011000Y0150453D01*
X0011000Y0151052D02*
X0016400Y0151052D01*
X0016400Y0151650D02*
X0011000Y0151650D01*
X0011000Y0152249D02*
X0016538Y0152249D01*
X0016786Y0152847D02*
X0011000Y0152847D01*
X0011000Y0153446D02*
X0017034Y0153446D01*
X0017539Y0154044D02*
X0011000Y0154044D01*
X0011000Y0154643D02*
X0018137Y0154643D01*
X0019219Y0155241D02*
X0011000Y0155241D01*
X0011000Y0155840D02*
X0031143Y0155840D01*
X0031741Y0156438D02*
X0011000Y0156438D01*
X0011000Y0157037D02*
X0032340Y0157037D01*
X0032938Y0157635D02*
X0011000Y0157635D01*
X0011000Y0158234D02*
X0033537Y0158234D01*
X0034135Y0158832D02*
X0011000Y0158832D01*
X0011000Y0159431D02*
X0034734Y0159431D01*
X0035332Y0160029D02*
X0011000Y0160029D01*
X0011000Y0160628D02*
X0035931Y0160628D01*
X0036529Y0161226D02*
X0011000Y0161226D01*
X0011000Y0161825D02*
X0037128Y0161825D01*
X0037726Y0162423D02*
X0011000Y0162423D01*
X0011000Y0163022D02*
X0070052Y0163022D01*
X0070651Y0163620D02*
X0011000Y0163620D01*
X0022781Y0155241D02*
X0030544Y0155241D01*
X0029946Y0154643D02*
X0023863Y0154643D01*
X0024461Y0154044D02*
X0029347Y0154044D01*
X0028749Y0153446D02*
X0024966Y0153446D01*
X0025214Y0152847D02*
X0028150Y0152847D01*
X0027552Y0152249D02*
X0025462Y0152249D01*
X0025600Y0151650D02*
X0026953Y0151650D01*
X0026355Y0151052D02*
X0025600Y0151052D01*
X0025600Y0150453D02*
X0025756Y0150453D01*
X0027355Y0148658D02*
X0036582Y0148658D01*
X0036724Y0148379D02*
X0036366Y0149081D01*
X0036123Y0149829D01*
X0036000Y0150606D01*
X0036000Y0150700D01*
X0040700Y0150700D01*
X0040700Y0151300D01*
X0040700Y0156000D01*
X0040606Y0156000D01*
X0039829Y0155877D01*
X0039081Y0155634D01*
X0038379Y0155276D01*
X0037743Y0154814D01*
X0037186Y0154257D01*
X0036724Y0153621D01*
X0036366Y0152919D01*
X0036123Y0152171D01*
X0036000Y0151394D01*
X0036000Y0151300D01*
X0040700Y0151300D01*
X0041300Y0151300D01*
X0041300Y0156000D01*
X0041394Y0156000D01*
X0042171Y0155877D01*
X0042919Y0155634D01*
X0043621Y0155276D01*
X0044257Y0154814D01*
X0044814Y0154257D01*
X0045276Y0153621D01*
X0045634Y0152919D01*
X0045877Y0152171D01*
X0046000Y0151394D01*
X0046000Y0151300D01*
X0041300Y0151300D01*
X0041300Y0150700D01*
X0046000Y0150700D01*
X0046000Y0150606D01*
X0045877Y0149829D01*
X0045634Y0149081D01*
X0045276Y0148379D01*
X0044814Y0147743D01*
X0044257Y0147186D01*
X0043621Y0146724D01*
X0042919Y0146366D01*
X0042171Y0146123D01*
X0041394Y0146000D01*
X0041300Y0146000D01*
X0041300Y0150700D01*
X0040700Y0150700D01*
X0040700Y0146000D01*
X0040606Y0146000D01*
X0039829Y0146123D01*
X0039081Y0146366D01*
X0038379Y0146724D01*
X0037743Y0147186D01*
X0037186Y0147743D01*
X0036724Y0148379D01*
X0036956Y0148059D02*
X0026756Y0148059D01*
X0026158Y0147461D02*
X0037468Y0147461D01*
X0038189Y0146862D02*
X0025559Y0146862D01*
X0024961Y0146264D02*
X0039397Y0146264D01*
X0040700Y0146264D02*
X0041300Y0146264D01*
X0041300Y0146862D02*
X0040700Y0146862D01*
X0040700Y0147461D02*
X0041300Y0147461D01*
X0041300Y0148059D02*
X0040700Y0148059D01*
X0040700Y0148658D02*
X0041300Y0148658D01*
X0041300Y0149256D02*
X0040700Y0149256D01*
X0040700Y0149855D02*
X0041300Y0149855D01*
X0041300Y0150453D02*
X0040700Y0150453D01*
X0040700Y0151052D02*
X0029749Y0151052D01*
X0030347Y0151650D02*
X0036041Y0151650D01*
X0036148Y0152249D02*
X0030946Y0152249D01*
X0031544Y0152847D02*
X0036343Y0152847D01*
X0036635Y0153446D02*
X0032143Y0153446D01*
X0032741Y0154044D02*
X0037031Y0154044D01*
X0037572Y0154643D02*
X0033340Y0154643D01*
X0033938Y0155241D02*
X0038331Y0155241D01*
X0039715Y0155840D02*
X0034537Y0155840D01*
X0035135Y0156438D02*
X0077341Y0156438D01*
X0076743Y0155840D02*
X0042285Y0155840D01*
X0041300Y0155840D02*
X0040700Y0155840D01*
X0040700Y0155241D02*
X0041300Y0155241D01*
X0041300Y0154643D02*
X0040700Y0154643D01*
X0040700Y0154044D02*
X0041300Y0154044D01*
X0041300Y0153446D02*
X0040700Y0153446D01*
X0040700Y0152847D02*
X0041300Y0152847D01*
X0041300Y0152249D02*
X0040700Y0152249D01*
X0040700Y0151650D02*
X0041300Y0151650D01*
X0041300Y0151052D02*
X0046400Y0151052D01*
X0046400Y0151650D02*
X0045959Y0151650D01*
X0045852Y0152249D02*
X0046538Y0152249D01*
X0046786Y0152847D02*
X0045657Y0152847D01*
X0045365Y0153446D02*
X0047034Y0153446D01*
X0047539Y0154044D02*
X0044969Y0154044D01*
X0044428Y0154643D02*
X0048137Y0154643D01*
X0049219Y0155241D02*
X0043669Y0155241D01*
X0041000Y0151000D02*
X0041000Y0131000D01*
X0045800Y0126200D01*
X0045800Y0092600D01*
X0041000Y0087800D01*
X0041000Y0066000D01*
X0041000Y0065600D01*
X0046400Y0060200D01*
X0102800Y0060200D01*
X0116600Y0046400D01*
X0116600Y0045200D01*
X0113000Y0041600D01*
X0111200Y0041600D01*
X0111000Y0041157D01*
X0111300Y0040926D02*
X0115429Y0040926D01*
X0115360Y0040857D02*
X0111300Y0040857D01*
X0111300Y0041457D01*
X0115646Y0041457D01*
X0115646Y0041523D01*
X0115532Y0042246D01*
X0115306Y0042941D01*
X0114974Y0043593D01*
X0114896Y0043700D01*
X0115070Y0043700D01*
X0116300Y0044930D01*
X0116300Y0046670D01*
X0115070Y0047900D01*
X0113330Y0047900D01*
X0112430Y0047000D01*
X0080103Y0047000D01*
X0073585Y0040482D01*
X0072869Y0041198D01*
X0071656Y0041700D01*
X0070344Y0041700D01*
X0069131Y0041198D01*
X0068415Y0040482D01*
X0065497Y0043400D01*
X0050497Y0043400D01*
X0038600Y0055297D01*
X0038600Y0060767D01*
X0038641Y0060726D01*
X0039247Y0060321D01*
X0039921Y0060042D01*
X0040636Y0059900D01*
X0040700Y0059900D01*
X0040700Y0065700D01*
X0041300Y0065700D01*
X0041300Y0066300D01*
X0044700Y0066300D01*
X0044700Y0068764D01*
X0044700Y0068457D02*
X0047700Y0068457D01*
X0047700Y0067859D02*
X0044700Y0067859D01*
X0044700Y0067260D02*
X0047700Y0067260D01*
X0047700Y0066662D02*
X0044700Y0066662D01*
X0044700Y0065700D02*
X0041300Y0065700D01*
X0041300Y0059900D01*
X0041364Y0059900D01*
X0042079Y0060042D01*
X0042753Y0060321D01*
X0043359Y0060726D01*
X0043874Y0061241D01*
X0044279Y0061847D01*
X0044558Y0062521D01*
X0044700Y0063236D01*
X0044700Y0065700D01*
X0044700Y0065465D02*
X0047700Y0065465D01*
X0047700Y0066063D02*
X0041300Y0066063D01*
X0041300Y0065465D02*
X0040700Y0065465D01*
X0040700Y0064866D02*
X0041300Y0064866D01*
X0041300Y0064268D02*
X0040700Y0064268D01*
X0040700Y0063669D02*
X0041300Y0063669D01*
X0041300Y0063070D02*
X0040700Y0063070D01*
X0040700Y0062472D02*
X0041300Y0062472D01*
X0041300Y0061873D02*
X0040700Y0061873D01*
X0040700Y0061275D02*
X0041300Y0061275D01*
X0041300Y0060676D02*
X0040700Y0060676D01*
X0040700Y0060078D02*
X0041300Y0060078D01*
X0042166Y0060078D02*
X0106754Y0060078D01*
X0106754Y0059998D02*
X0107400Y0058437D01*
X0108595Y0057243D01*
X0110155Y0056596D01*
X0111845Y0056596D01*
X0113405Y0057243D01*
X0114600Y0058437D01*
X0115246Y0059998D01*
X0115246Y0061687D01*
X0114600Y0063248D01*
X0113405Y0064442D01*
X0111845Y0065089D01*
X0110155Y0065089D01*
X0109061Y0064636D01*
X0097597Y0076100D01*
X0097670Y0076100D01*
X0098900Y0077330D01*
X0098900Y0078603D01*
X0125300Y0105003D01*
X0125300Y0104930D01*
X0126200Y0104030D01*
X0126200Y0051697D01*
X0115360Y0040857D01*
X0115646Y0041524D02*
X0116027Y0041524D01*
X0115552Y0042123D02*
X0116626Y0042123D01*
X0117224Y0042721D02*
X0115378Y0042721D01*
X0115113Y0043320D02*
X0117823Y0043320D01*
X0118421Y0043918D02*
X0115288Y0043918D01*
X0115886Y0044517D02*
X0119020Y0044517D01*
X0119618Y0045115D02*
X0116300Y0045115D01*
X0116300Y0045714D02*
X0120217Y0045714D01*
X0120815Y0046312D02*
X0116300Y0046312D01*
X0116059Y0046911D02*
X0121414Y0046911D01*
X0122012Y0047509D02*
X0115461Y0047509D01*
X0114200Y0045800D02*
X0106400Y0045800D01*
X0106400Y0039200D01*
X0108800Y0036800D01*
X0113000Y0036800D01*
X0127400Y0051200D01*
X0127400Y0105800D01*
X0129800Y0108200D01*
X0129800Y0125000D01*
X0126800Y0128000D01*
X0126800Y0144800D01*
X0164600Y0182600D01*
X0164600Y0200000D01*
X0164600Y0201200D01*
X0164000Y0201200D01*
X0154400Y0210800D01*
X0151400Y0210800D01*
X0151000Y0211000D01*
X0149329Y0206713D02*
X0145410Y0206713D01*
X0144812Y0206115D02*
X0157388Y0206115D01*
X0156790Y0206713D02*
X0152671Y0206713D01*
X0151915Y0206400D02*
X0153606Y0207100D01*
X0154900Y0208394D01*
X0154961Y0208542D01*
X0162567Y0200936D01*
X0162500Y0200870D01*
X0162500Y0199130D01*
X0163400Y0198230D01*
X0163400Y0183097D01*
X0126303Y0146000D01*
X0125600Y0145297D01*
X0125600Y0127503D01*
X0126603Y0126500D01*
X0126530Y0126500D01*
X0125300Y0125270D01*
X0125300Y0123530D01*
X0125967Y0122864D01*
X0100503Y0097400D01*
X0100503Y0097400D01*
X0099800Y0096697D01*
X0099800Y0087170D01*
X0098900Y0086270D01*
X0098900Y0084530D01*
X0100130Y0083300D01*
X0100203Y0083300D01*
X0097203Y0080300D01*
X0095930Y0080300D01*
X0094700Y0079070D01*
X0094700Y0078997D01*
X0084200Y0089497D01*
X0084200Y0098030D01*
X0085100Y0098930D01*
X0085100Y0100670D01*
X0083870Y0101900D01*
X0083797Y0101900D01*
X0105097Y0123200D01*
X0105097Y0123200D01*
X0105800Y0123903D01*
X0105800Y0184625D01*
X0107848Y0184625D01*
X0108375Y0185152D01*
X0108375Y0196848D01*
X0107848Y0197375D01*
X0097672Y0197375D01*
X0115897Y0215600D01*
X0129015Y0215600D01*
X0128379Y0215276D01*
X0127743Y0214814D01*
X0127186Y0214257D01*
X0126724Y0213621D01*
X0126366Y0212919D01*
X0126123Y0212171D01*
X0126000Y0211394D01*
X0126000Y0211300D01*
X0130700Y0211300D01*
X0130700Y0210700D01*
X0131300Y0210700D01*
X0131300Y0211300D01*
X0136000Y0211300D01*
X0140700Y0211300D01*
X0140700Y0210700D01*
X0141300Y0210700D01*
X0141300Y0206000D01*
X0141303Y0206000D01*
X0116600Y0181297D01*
X0116600Y0172370D01*
X0115700Y0171470D01*
X0115700Y0169730D01*
X0116930Y0168500D01*
X0118670Y0168500D01*
X0119900Y0169730D01*
X0119900Y0171470D01*
X0119000Y0172370D01*
X0119000Y0180303D01*
X0146497Y0207800D01*
X0147098Y0208401D01*
X0147100Y0208394D01*
X0148394Y0207100D01*
X0150085Y0206400D01*
X0151915Y0206400D01*
X0153817Y0207312D02*
X0156191Y0207312D01*
X0155593Y0207910D02*
X0154416Y0207910D01*
X0154947Y0208509D02*
X0154994Y0208509D01*
X0157987Y0205516D02*
X0144213Y0205516D01*
X0143615Y0204918D02*
X0158585Y0204918D01*
X0159184Y0204319D02*
X0143016Y0204319D01*
X0142418Y0203721D02*
X0159782Y0203721D01*
X0160381Y0203122D02*
X0141819Y0203122D01*
X0141221Y0202524D02*
X0160979Y0202524D01*
X0161578Y0201925D02*
X0140622Y0201925D01*
X0140024Y0201327D02*
X0162176Y0201327D01*
X0162500Y0200728D02*
X0139425Y0200728D01*
X0138827Y0200130D02*
X0162500Y0200130D01*
X0162500Y0199531D02*
X0138228Y0199531D01*
X0137630Y0198933D02*
X0162698Y0198933D01*
X0163296Y0198334D02*
X0137031Y0198334D01*
X0136433Y0197736D02*
X0163400Y0197736D01*
X0163400Y0197137D02*
X0135834Y0197137D01*
X0135236Y0196539D02*
X0163400Y0196539D01*
X0163400Y0195940D02*
X0134637Y0195940D01*
X0134039Y0195341D02*
X0163400Y0195341D01*
X0163400Y0194743D02*
X0133440Y0194743D01*
X0132842Y0194144D02*
X0163400Y0194144D01*
X0163400Y0193546D02*
X0132243Y0193546D01*
X0131644Y0192947D02*
X0163400Y0192947D01*
X0163400Y0192349D02*
X0131046Y0192349D01*
X0130447Y0191750D02*
X0163400Y0191750D01*
X0163400Y0191152D02*
X0129849Y0191152D01*
X0129250Y0190553D02*
X0163400Y0190553D01*
X0163400Y0189955D02*
X0128652Y0189955D01*
X0128053Y0189356D02*
X0163400Y0189356D01*
X0163400Y0188758D02*
X0127455Y0188758D01*
X0126856Y0188159D02*
X0163400Y0188159D01*
X0163400Y0187561D02*
X0126258Y0187561D01*
X0125659Y0186962D02*
X0163400Y0186962D01*
X0163400Y0186364D02*
X0125061Y0186364D01*
X0124462Y0185765D02*
X0163400Y0185765D01*
X0163400Y0185167D02*
X0123864Y0185167D01*
X0123265Y0184568D02*
X0163400Y0184568D01*
X0163400Y0183970D02*
X0122667Y0183970D01*
X0122068Y0183371D02*
X0163400Y0183371D01*
X0163076Y0182773D02*
X0121470Y0182773D01*
X0120871Y0182174D02*
X0162477Y0182174D01*
X0161879Y0181576D02*
X0120273Y0181576D01*
X0119674Y0180977D02*
X0161280Y0180977D01*
X0160682Y0180379D02*
X0119076Y0180379D01*
X0119000Y0179780D02*
X0160083Y0179780D01*
X0159485Y0179182D02*
X0119000Y0179182D01*
X0119000Y0178583D02*
X0158886Y0178583D01*
X0158288Y0177985D02*
X0119000Y0177985D01*
X0119000Y0177386D02*
X0157689Y0177386D01*
X0157091Y0176788D02*
X0119000Y0176788D01*
X0119000Y0176189D02*
X0156492Y0176189D01*
X0155894Y0175591D02*
X0119000Y0175591D01*
X0119000Y0174992D02*
X0155295Y0174992D01*
X0154697Y0174394D02*
X0119000Y0174394D01*
X0119000Y0173795D02*
X0154098Y0173795D01*
X0153500Y0173197D02*
X0119000Y0173197D01*
X0119000Y0172598D02*
X0152901Y0172598D01*
X0152302Y0172000D02*
X0119370Y0172000D01*
X0119900Y0171401D02*
X0151704Y0171401D01*
X0151105Y0170803D02*
X0119900Y0170803D01*
X0119900Y0170204D02*
X0150507Y0170204D01*
X0149908Y0169605D02*
X0119775Y0169605D01*
X0119177Y0169007D02*
X0149310Y0169007D01*
X0148711Y0168408D02*
X0105800Y0168408D01*
X0105800Y0167810D02*
X0148113Y0167810D01*
X0147514Y0167211D02*
X0105800Y0167211D01*
X0105800Y0166613D02*
X0146916Y0166613D01*
X0146317Y0166014D02*
X0105800Y0166014D01*
X0105800Y0165416D02*
X0145719Y0165416D01*
X0145120Y0164817D02*
X0105800Y0164817D01*
X0105800Y0164219D02*
X0144522Y0164219D01*
X0143923Y0163620D02*
X0105800Y0163620D01*
X0105800Y0163022D02*
X0143325Y0163022D01*
X0142726Y0162423D02*
X0105800Y0162423D01*
X0105800Y0161825D02*
X0142128Y0161825D01*
X0141529Y0161226D02*
X0105800Y0161226D01*
X0105800Y0160628D02*
X0140931Y0160628D01*
X0140332Y0160029D02*
X0105800Y0160029D01*
X0105800Y0159431D02*
X0139734Y0159431D01*
X0139135Y0158832D02*
X0105800Y0158832D01*
X0105800Y0158234D02*
X0138537Y0158234D01*
X0137938Y0157635D02*
X0105800Y0157635D01*
X0105800Y0157037D02*
X0137340Y0157037D01*
X0136741Y0156438D02*
X0105800Y0156438D01*
X0105800Y0155840D02*
X0136143Y0155840D01*
X0135544Y0155241D02*
X0105800Y0155241D01*
X0105800Y0154643D02*
X0134946Y0154643D01*
X0134347Y0154044D02*
X0105800Y0154044D01*
X0105800Y0153446D02*
X0133749Y0153446D01*
X0133150Y0152847D02*
X0105800Y0152847D01*
X0105800Y0152249D02*
X0132552Y0152249D01*
X0131953Y0151650D02*
X0105800Y0151650D01*
X0105800Y0151052D02*
X0131355Y0151052D01*
X0130756Y0150453D02*
X0105800Y0150453D01*
X0105800Y0149855D02*
X0130158Y0149855D01*
X0129559Y0149256D02*
X0105800Y0149256D01*
X0105800Y0148658D02*
X0128961Y0148658D01*
X0128362Y0148059D02*
X0105800Y0148059D01*
X0105800Y0147461D02*
X0127764Y0147461D01*
X0127165Y0146862D02*
X0105800Y0146862D01*
X0105800Y0146264D02*
X0126567Y0146264D01*
X0125968Y0145665D02*
X0105800Y0145665D01*
X0105800Y0145067D02*
X0125600Y0145067D01*
X0125600Y0144468D02*
X0105800Y0144468D01*
X0105800Y0143870D02*
X0125600Y0143870D01*
X0125600Y0143271D02*
X0105800Y0143271D01*
X0105800Y0142672D02*
X0125600Y0142672D01*
X0125600Y0142074D02*
X0105800Y0142074D01*
X0105800Y0141475D02*
X0125600Y0141475D01*
X0125600Y0140877D02*
X0105800Y0140877D01*
X0105800Y0140278D02*
X0125600Y0140278D01*
X0125600Y0139680D02*
X0105800Y0139680D01*
X0105800Y0139081D02*
X0125600Y0139081D01*
X0125600Y0138483D02*
X0105800Y0138483D01*
X0105800Y0137884D02*
X0125600Y0137884D01*
X0125600Y0137286D02*
X0105800Y0137286D01*
X0105800Y0136687D02*
X0125600Y0136687D01*
X0125600Y0136089D02*
X0105800Y0136089D01*
X0105800Y0135490D02*
X0125600Y0135490D01*
X0125600Y0134892D02*
X0105800Y0134892D01*
X0105800Y0134293D02*
X0125600Y0134293D01*
X0125600Y0133695D02*
X0105800Y0133695D01*
X0105800Y0133096D02*
X0125600Y0133096D01*
X0125600Y0132498D02*
X0105800Y0132498D01*
X0105800Y0131899D02*
X0125600Y0131899D01*
X0125600Y0131301D02*
X0105800Y0131301D01*
X0105800Y0130702D02*
X0125600Y0130702D01*
X0125600Y0130104D02*
X0105800Y0130104D01*
X0105800Y0129505D02*
X0125600Y0129505D01*
X0125600Y0128907D02*
X0105800Y0128907D01*
X0105800Y0128308D02*
X0125600Y0128308D01*
X0125600Y0127710D02*
X0105800Y0127710D01*
X0105800Y0127111D02*
X0125992Y0127111D01*
X0126590Y0126513D02*
X0105800Y0126513D01*
X0105800Y0125914D02*
X0125944Y0125914D01*
X0125346Y0125316D02*
X0105800Y0125316D01*
X0105800Y0124717D02*
X0125300Y0124717D01*
X0125300Y0124119D02*
X0105800Y0124119D01*
X0105417Y0123520D02*
X0125310Y0123520D01*
X0125909Y0122922D02*
X0104819Y0122922D01*
X0104220Y0122323D02*
X0125426Y0122323D01*
X0124828Y0121725D02*
X0103622Y0121725D01*
X0103023Y0121126D02*
X0124229Y0121126D01*
X0123631Y0120528D02*
X0102425Y0120528D01*
X0101826Y0119929D02*
X0123032Y0119929D01*
X0122434Y0119331D02*
X0101228Y0119331D01*
X0100629Y0118732D02*
X0121835Y0118732D01*
X0121236Y0118134D02*
X0100031Y0118134D01*
X0099432Y0117535D02*
X0120638Y0117535D01*
X0120039Y0116937D02*
X0098834Y0116937D01*
X0098235Y0116338D02*
X0119441Y0116338D01*
X0118842Y0115739D02*
X0097637Y0115739D01*
X0097038Y0115141D02*
X0118244Y0115141D01*
X0117645Y0114542D02*
X0096439Y0114542D01*
X0095841Y0113944D02*
X0117047Y0113944D01*
X0116448Y0113345D02*
X0095242Y0113345D01*
X0094644Y0112747D02*
X0115850Y0112747D01*
X0115251Y0112148D02*
X0094045Y0112148D01*
X0093447Y0111550D02*
X0114653Y0111550D01*
X0114054Y0110951D02*
X0092848Y0110951D01*
X0092250Y0110353D02*
X0113456Y0110353D01*
X0112857Y0109754D02*
X0091651Y0109754D01*
X0091053Y0109156D02*
X0112259Y0109156D01*
X0111660Y0108557D02*
X0090454Y0108557D01*
X0089856Y0107959D02*
X0111062Y0107959D01*
X0110463Y0107360D02*
X0089257Y0107360D01*
X0088659Y0106762D02*
X0109865Y0106762D01*
X0109266Y0106163D02*
X0088060Y0106163D01*
X0087462Y0105565D02*
X0108668Y0105565D01*
X0108069Y0104966D02*
X0086863Y0104966D01*
X0086265Y0104368D02*
X0107471Y0104368D01*
X0106872Y0103769D02*
X0085666Y0103769D01*
X0085068Y0103171D02*
X0106274Y0103171D01*
X0105675Y0102572D02*
X0084469Y0102572D01*
X0083871Y0101974D02*
X0105077Y0101974D01*
X0104478Y0101375D02*
X0084395Y0101375D01*
X0084993Y0100777D02*
X0103880Y0100777D01*
X0103281Y0100178D02*
X0085100Y0100178D01*
X0085100Y0099580D02*
X0102683Y0099580D01*
X0102084Y0098981D02*
X0085100Y0098981D01*
X0084552Y0098383D02*
X0101486Y0098383D01*
X0100887Y0097784D02*
X0084200Y0097784D01*
X0084200Y0097186D02*
X0100289Y0097186D01*
X0099800Y0096587D02*
X0084200Y0096587D01*
X0084200Y0095989D02*
X0099800Y0095989D01*
X0099800Y0095390D02*
X0084200Y0095390D01*
X0084200Y0094792D02*
X0099800Y0094792D01*
X0099800Y0094193D02*
X0084200Y0094193D01*
X0084200Y0093595D02*
X0099800Y0093595D01*
X0099800Y0092996D02*
X0084200Y0092996D01*
X0084200Y0092398D02*
X0099800Y0092398D01*
X0099800Y0091799D02*
X0084200Y0091799D01*
X0084200Y0091201D02*
X0099800Y0091201D01*
X0099800Y0090602D02*
X0084200Y0090602D01*
X0084200Y0090003D02*
X0099800Y0090003D01*
X0099800Y0089405D02*
X0084292Y0089405D01*
X0084891Y0088806D02*
X0099800Y0088806D01*
X0099800Y0088208D02*
X0085489Y0088208D01*
X0086088Y0087609D02*
X0099800Y0087609D01*
X0099641Y0087011D02*
X0086686Y0087011D01*
X0087285Y0086412D02*
X0099043Y0086412D01*
X0098900Y0085814D02*
X0087883Y0085814D01*
X0088482Y0085215D02*
X0098900Y0085215D01*
X0098900Y0084617D02*
X0089080Y0084617D01*
X0089679Y0084018D02*
X0099412Y0084018D01*
X0100010Y0083420D02*
X0090277Y0083420D01*
X0090876Y0082821D02*
X0099724Y0082821D01*
X0099126Y0082223D02*
X0091474Y0082223D01*
X0092073Y0081624D02*
X0098527Y0081624D01*
X0097929Y0081026D02*
X0092671Y0081026D01*
X0093270Y0080427D02*
X0097330Y0080427D01*
X0095459Y0079829D02*
X0093868Y0079829D01*
X0094467Y0079230D02*
X0094860Y0079230D01*
X0096800Y0078200D02*
X0127400Y0108800D01*
X0127400Y0119600D01*
X0127400Y0122600D02*
X0101000Y0096200D01*
X0101000Y0085400D01*
X0103118Y0082821D02*
X0126200Y0082821D01*
X0126200Y0082223D02*
X0102520Y0082223D01*
X0101921Y0081624D02*
X0126200Y0081624D01*
X0126200Y0081026D02*
X0101323Y0081026D01*
X0100724Y0080427D02*
X0126200Y0080427D01*
X0126200Y0079829D02*
X0100126Y0079829D01*
X0099527Y0079230D02*
X0126200Y0079230D01*
X0126200Y0078632D02*
X0098929Y0078632D01*
X0098900Y0078033D02*
X0126200Y0078033D01*
X0126200Y0077435D02*
X0098900Y0077435D01*
X0098406Y0076836D02*
X0126200Y0076836D01*
X0126200Y0076238D02*
X0097808Y0076238D01*
X0098058Y0075639D02*
X0126200Y0075639D01*
X0126200Y0075041D02*
X0098656Y0075041D01*
X0099255Y0074442D02*
X0126200Y0074442D01*
X0126200Y0073844D02*
X0099853Y0073844D01*
X0100452Y0073245D02*
X0126200Y0073245D01*
X0126200Y0072647D02*
X0101050Y0072647D01*
X0101649Y0072048D02*
X0126200Y0072048D01*
X0126200Y0071450D02*
X0102247Y0071450D01*
X0102846Y0070851D02*
X0126200Y0070851D01*
X0126200Y0070253D02*
X0103444Y0070253D01*
X0104043Y0069654D02*
X0126200Y0069654D01*
X0126200Y0069056D02*
X0104641Y0069056D01*
X0105240Y0068457D02*
X0126200Y0068457D01*
X0126200Y0067859D02*
X0105838Y0067859D01*
X0106437Y0067260D02*
X0126200Y0067260D01*
X0126200Y0066662D02*
X0107035Y0066662D01*
X0107634Y0066063D02*
X0126200Y0066063D01*
X0126200Y0065465D02*
X0108232Y0065465D01*
X0108831Y0064866D02*
X0109617Y0064866D01*
X0112383Y0064866D02*
X0126200Y0064866D01*
X0126200Y0064268D02*
X0113580Y0064268D01*
X0114179Y0063669D02*
X0126200Y0063669D01*
X0126200Y0063070D02*
X0114673Y0063070D01*
X0114921Y0062472D02*
X0126200Y0062472D01*
X0126200Y0061873D02*
X0115169Y0061873D01*
X0115246Y0061275D02*
X0126200Y0061275D01*
X0126200Y0060676D02*
X0115246Y0060676D01*
X0115246Y0060078D02*
X0126200Y0060078D01*
X0126200Y0059479D02*
X0115032Y0059479D01*
X0114784Y0058881D02*
X0126200Y0058881D01*
X0126200Y0058282D02*
X0114445Y0058282D01*
X0113847Y0057684D02*
X0126200Y0057684D01*
X0126200Y0057085D02*
X0113026Y0057085D01*
X0108974Y0057085D02*
X0038600Y0057085D01*
X0038600Y0056487D02*
X0126200Y0056487D01*
X0126200Y0055888D02*
X0038600Y0055888D01*
X0038607Y0055290D02*
X0126200Y0055290D01*
X0126200Y0054691D02*
X0039206Y0054691D01*
X0039804Y0054093D02*
X0126200Y0054093D01*
X0126200Y0053494D02*
X0040403Y0053494D01*
X0041001Y0052896D02*
X0126200Y0052896D01*
X0126200Y0052297D02*
X0041600Y0052297D01*
X0042198Y0051699D02*
X0126200Y0051699D01*
X0125603Y0051100D02*
X0042797Y0051100D01*
X0043395Y0050502D02*
X0125005Y0050502D01*
X0124406Y0049903D02*
X0043994Y0049903D01*
X0044592Y0049305D02*
X0123808Y0049305D01*
X0123209Y0048706D02*
X0045191Y0048706D01*
X0045789Y0048108D02*
X0122611Y0048108D01*
X0125411Y0045714D02*
X0137600Y0045714D01*
X0137600Y0046312D02*
X0126009Y0046312D01*
X0126608Y0046911D02*
X0137600Y0046911D01*
X0137600Y0047509D02*
X0127206Y0047509D01*
X0127805Y0048108D02*
X0137600Y0048108D01*
X0137600Y0048706D02*
X0128403Y0048706D01*
X0129002Y0049305D02*
X0137600Y0049305D01*
X0137600Y0049903D02*
X0129600Y0049903D01*
X0130199Y0050502D02*
X0137600Y0050502D01*
X0137600Y0051100D02*
X0130797Y0051100D01*
X0131396Y0051699D02*
X0137600Y0051699D01*
X0137600Y0052297D02*
X0131994Y0052297D01*
X0132200Y0052896D02*
X0137600Y0052896D01*
X0137600Y0053494D02*
X0132200Y0053494D01*
X0132200Y0054093D02*
X0137600Y0054093D01*
X0137600Y0054691D02*
X0132200Y0054691D01*
X0132200Y0055290D02*
X0137600Y0055290D01*
X0137600Y0055888D02*
X0132200Y0055888D01*
X0132200Y0056487D02*
X0137600Y0056487D01*
X0137600Y0057085D02*
X0132200Y0057085D01*
X0132200Y0057684D02*
X0137600Y0057684D01*
X0137600Y0058282D02*
X0132200Y0058282D01*
X0132200Y0058881D02*
X0137600Y0058881D01*
X0137600Y0059479D02*
X0132200Y0059479D01*
X0132200Y0060078D02*
X0137600Y0060078D01*
X0137600Y0060676D02*
X0132200Y0060676D01*
X0132200Y0061275D02*
X0137600Y0061275D01*
X0137600Y0061873D02*
X0132200Y0061873D01*
X0132200Y0062472D02*
X0137600Y0062472D01*
X0137600Y0063070D02*
X0132200Y0063070D01*
X0132200Y0063669D02*
X0137600Y0063669D01*
X0137600Y0064268D02*
X0132200Y0064268D01*
X0132200Y0064866D02*
X0137600Y0064866D01*
X0137600Y0065465D02*
X0132200Y0065465D01*
X0132200Y0066063D02*
X0137600Y0066063D01*
X0137600Y0066662D02*
X0132200Y0066662D01*
X0132200Y0067260D02*
X0137600Y0067260D01*
X0137600Y0067859D02*
X0132200Y0067859D01*
X0132200Y0068457D02*
X0137600Y0068457D01*
X0137600Y0069056D02*
X0132200Y0069056D01*
X0132200Y0069654D02*
X0137600Y0069654D01*
X0137600Y0070253D02*
X0132200Y0070253D01*
X0132200Y0070851D02*
X0137600Y0070851D01*
X0137600Y0071450D02*
X0132200Y0071450D01*
X0132200Y0072048D02*
X0137600Y0072048D01*
X0137600Y0072647D02*
X0132200Y0072647D01*
X0132200Y0073245D02*
X0137600Y0073245D01*
X0137600Y0073844D02*
X0132200Y0073844D01*
X0132200Y0074442D02*
X0137600Y0074442D01*
X0137600Y0075041D02*
X0132200Y0075041D01*
X0132200Y0075639D02*
X0137600Y0075639D01*
X0137600Y0076238D02*
X0132200Y0076238D01*
X0132200Y0076836D02*
X0137600Y0076836D01*
X0137600Y0077435D02*
X0132200Y0077435D01*
X0132200Y0078033D02*
X0137600Y0078033D01*
X0137600Y0078632D02*
X0132200Y0078632D01*
X0132200Y0079230D02*
X0137600Y0079230D01*
X0137600Y0079829D02*
X0132200Y0079829D01*
X0132200Y0080427D02*
X0137600Y0080427D01*
X0137600Y0081026D02*
X0132200Y0081026D01*
X0132200Y0081624D02*
X0137600Y0081624D01*
X0137600Y0082223D02*
X0132200Y0082223D01*
X0132200Y0082821D02*
X0137600Y0082821D01*
X0137600Y0083420D02*
X0132200Y0083420D01*
X0132200Y0084018D02*
X0137600Y0084018D01*
X0137600Y0084617D02*
X0132200Y0084617D01*
X0132200Y0085215D02*
X0137600Y0085215D01*
X0137600Y0085814D02*
X0132200Y0085814D01*
X0132200Y0086412D02*
X0137600Y0086412D01*
X0137600Y0087011D02*
X0132200Y0087011D01*
X0132200Y0087609D02*
X0137600Y0087609D01*
X0137600Y0088208D02*
X0132200Y0088208D01*
X0132200Y0088806D02*
X0137600Y0088806D01*
X0137600Y0089405D02*
X0132200Y0089405D01*
X0132200Y0090003D02*
X0137600Y0090003D01*
X0137600Y0090602D02*
X0132200Y0090602D01*
X0132200Y0091201D02*
X0137600Y0091201D01*
X0137600Y0091799D02*
X0132200Y0091799D01*
X0132200Y0092398D02*
X0137600Y0092398D01*
X0137600Y0092996D02*
X0132200Y0092996D01*
X0132200Y0093595D02*
X0137600Y0093595D01*
X0137600Y0094193D02*
X0132200Y0094193D01*
X0132200Y0094792D02*
X0137600Y0094792D01*
X0137600Y0095390D02*
X0132200Y0095390D01*
X0132200Y0095989D02*
X0137600Y0095989D01*
X0137600Y0096587D02*
X0132200Y0096587D01*
X0132200Y0097186D02*
X0137600Y0097186D01*
X0137600Y0097784D02*
X0132200Y0097784D01*
X0132200Y0098383D02*
X0137600Y0098383D01*
X0137600Y0098981D02*
X0132200Y0098981D01*
X0132200Y0099580D02*
X0137600Y0099580D01*
X0137600Y0100178D02*
X0132200Y0100178D01*
X0132200Y0100777D02*
X0137600Y0100777D01*
X0137600Y0101375D02*
X0132200Y0101375D01*
X0132200Y0101974D02*
X0137600Y0101974D01*
X0137600Y0102572D02*
X0132200Y0102572D01*
X0132200Y0103171D02*
X0137600Y0103171D01*
X0137600Y0103769D02*
X0132200Y0103769D01*
X0132200Y0104368D02*
X0137600Y0104368D01*
X0137600Y0104966D02*
X0132200Y0104966D01*
X0132200Y0105565D02*
X0137265Y0105565D01*
X0136700Y0106163D02*
X0132200Y0106163D01*
X0132200Y0106762D02*
X0136700Y0106762D01*
X0136700Y0107360D02*
X0132200Y0107360D01*
X0132200Y0107959D02*
X0136789Y0107959D01*
X0137388Y0108557D02*
X0132200Y0108557D01*
X0132200Y0109156D02*
X0150586Y0109156D01*
X0150500Y0108557D02*
X0140212Y0108557D01*
X0140811Y0107959D02*
X0150500Y0107959D01*
X0150063Y0107360D02*
X0140900Y0107360D01*
X0140900Y0106762D02*
X0149465Y0106762D01*
X0148866Y0106163D02*
X0140900Y0106163D01*
X0140335Y0105565D02*
X0148268Y0105565D01*
X0147669Y0104966D02*
X0140000Y0104966D01*
X0140000Y0104368D02*
X0147071Y0104368D01*
X0146472Y0103769D02*
X0140000Y0103769D01*
X0140000Y0103171D02*
X0145874Y0103171D01*
X0145275Y0102572D02*
X0140000Y0102572D01*
X0140000Y0101974D02*
X0144677Y0101974D01*
X0144078Y0101375D02*
X0140000Y0101375D01*
X0140000Y0100777D02*
X0143480Y0100777D01*
X0143000Y0100178D02*
X0140000Y0100178D01*
X0140000Y0099580D02*
X0143000Y0099580D01*
X0143000Y0098981D02*
X0140000Y0098981D01*
X0140000Y0098383D02*
X0143000Y0098383D01*
X0143000Y0097784D02*
X0140000Y0097784D01*
X0140000Y0097186D02*
X0143000Y0097186D01*
X0143000Y0096587D02*
X0140000Y0096587D01*
X0140000Y0095989D02*
X0143000Y0095989D01*
X0143000Y0095390D02*
X0140000Y0095390D01*
X0140000Y0094792D02*
X0143000Y0094792D01*
X0143000Y0094193D02*
X0140000Y0094193D01*
X0140000Y0093595D02*
X0143000Y0093595D01*
X0143000Y0092996D02*
X0140000Y0092996D01*
X0140000Y0092398D02*
X0143000Y0092398D01*
X0143000Y0091799D02*
X0140000Y0091799D01*
X0140000Y0091201D02*
X0143000Y0091201D01*
X0143000Y0090602D02*
X0140000Y0090602D01*
X0140000Y0090003D02*
X0143000Y0090003D01*
X0143000Y0089405D02*
X0140000Y0089405D01*
X0140000Y0088806D02*
X0143000Y0088806D01*
X0143000Y0088208D02*
X0140000Y0088208D01*
X0140000Y0087609D02*
X0143000Y0087609D01*
X0143000Y0087011D02*
X0140000Y0087011D01*
X0140000Y0086412D02*
X0143000Y0086412D01*
X0143000Y0085814D02*
X0140000Y0085814D01*
X0140000Y0085215D02*
X0143000Y0085215D01*
X0143000Y0084617D02*
X0140000Y0084617D01*
X0140000Y0084018D02*
X0143000Y0084018D01*
X0143000Y0083420D02*
X0140000Y0083420D01*
X0140000Y0082821D02*
X0143000Y0082821D01*
X0143000Y0082223D02*
X0140000Y0082223D01*
X0140000Y0081624D02*
X0143000Y0081624D01*
X0143000Y0081026D02*
X0140000Y0081026D01*
X0140000Y0080427D02*
X0143000Y0080427D01*
X0143000Y0079829D02*
X0140000Y0079829D01*
X0140000Y0079230D02*
X0143000Y0079230D01*
X0143000Y0078632D02*
X0140000Y0078632D01*
X0140000Y0078033D02*
X0143000Y0078033D01*
X0143000Y0077435D02*
X0140000Y0077435D01*
X0140000Y0076836D02*
X0143000Y0076836D01*
X0143000Y0076238D02*
X0140000Y0076238D01*
X0140000Y0075639D02*
X0143000Y0075639D01*
X0143000Y0075041D02*
X0140000Y0075041D01*
X0140000Y0074442D02*
X0143000Y0074442D01*
X0143000Y0073844D02*
X0140000Y0073844D01*
X0140000Y0073245D02*
X0143000Y0073245D01*
X0143000Y0072647D02*
X0140000Y0072647D01*
X0140000Y0072048D02*
X0143000Y0072048D01*
X0143000Y0071450D02*
X0140000Y0071450D01*
X0140000Y0070851D02*
X0143000Y0070851D01*
X0143000Y0070253D02*
X0140000Y0070253D01*
X0140000Y0069654D02*
X0143000Y0069654D01*
X0143000Y0069056D02*
X0140000Y0069056D01*
X0140000Y0068457D02*
X0143000Y0068457D01*
X0143000Y0067859D02*
X0140000Y0067859D01*
X0140000Y0067260D02*
X0143000Y0067260D01*
X0143000Y0066662D02*
X0140000Y0066662D01*
X0140000Y0066063D02*
X0143000Y0066063D01*
X0143000Y0065465D02*
X0140000Y0065465D01*
X0140000Y0064866D02*
X0143000Y0064866D01*
X0143000Y0064268D02*
X0140000Y0064268D01*
X0140000Y0063669D02*
X0143000Y0063669D01*
X0143000Y0063070D02*
X0140000Y0063070D01*
X0140000Y0062472D02*
X0143000Y0062472D01*
X0143000Y0061873D02*
X0140000Y0061873D01*
X0140000Y0061275D02*
X0143000Y0061275D01*
X0143000Y0060676D02*
X0140000Y0060676D01*
X0140000Y0060078D02*
X0143000Y0060078D01*
X0143000Y0059479D02*
X0140000Y0059479D01*
X0140000Y0058881D02*
X0143000Y0058881D01*
X0143000Y0058282D02*
X0140000Y0058282D01*
X0140000Y0057684D02*
X0143000Y0057684D01*
X0143000Y0057085D02*
X0140000Y0057085D01*
X0140000Y0056487D02*
X0143000Y0056487D01*
X0143000Y0055888D02*
X0140000Y0055888D01*
X0140000Y0055290D02*
X0143000Y0055290D01*
X0143000Y0054691D02*
X0140000Y0054691D01*
X0140000Y0054093D02*
X0143000Y0054093D01*
X0143000Y0053494D02*
X0140000Y0053494D01*
X0140000Y0052896D02*
X0143000Y0052896D01*
X0143000Y0052297D02*
X0140000Y0052297D01*
X0140000Y0051699D02*
X0143000Y0051699D01*
X0143000Y0051100D02*
X0140000Y0051100D01*
X0140000Y0050502D02*
X0143000Y0050502D01*
X0143000Y0049903D02*
X0140000Y0049903D01*
X0140000Y0049305D02*
X0143000Y0049305D01*
X0143000Y0048706D02*
X0140000Y0048706D01*
X0140000Y0048108D02*
X0143000Y0048108D01*
X0143000Y0047509D02*
X0140000Y0047509D01*
X0140000Y0046911D02*
X0143000Y0046911D01*
X0143000Y0046312D02*
X0140000Y0046312D01*
X0140000Y0045714D02*
X0143000Y0045714D01*
X0143000Y0045115D02*
X0140000Y0045115D01*
X0140000Y0044517D02*
X0143000Y0044517D01*
X0143000Y0043918D02*
X0140000Y0043918D01*
X0140000Y0043320D02*
X0143000Y0043320D01*
X0143000Y0042721D02*
X0140000Y0042721D01*
X0140000Y0042123D02*
X0143000Y0042123D01*
X0143000Y0041524D02*
X0140000Y0041524D01*
X0140000Y0040926D02*
X0143000Y0040926D01*
X0143000Y0040327D02*
X0140000Y0040327D01*
X0140000Y0039729D02*
X0143000Y0039729D01*
X0143000Y0039130D02*
X0140000Y0039130D01*
X0140000Y0038532D02*
X0143000Y0038532D01*
X0143000Y0037933D02*
X0140000Y0037933D01*
X0140000Y0037334D02*
X0143000Y0037334D01*
X0143000Y0036736D02*
X0140000Y0036736D01*
X0140000Y0036137D02*
X0143000Y0036137D01*
X0143000Y0035539D02*
X0140000Y0035539D01*
X0140000Y0034940D02*
X0143000Y0034940D01*
X0143000Y0034342D02*
X0140000Y0034342D01*
X0140000Y0033743D02*
X0143000Y0033743D01*
X0143000Y0033145D02*
X0140000Y0033145D01*
X0140000Y0032546D02*
X0143000Y0032546D01*
X0143000Y0031948D02*
X0140000Y0031948D01*
X0140000Y0031349D02*
X0143000Y0031349D01*
X0143000Y0030751D02*
X0140000Y0030751D01*
X0140545Y0030152D02*
X0143000Y0030152D01*
X0143000Y0029554D02*
X0141143Y0029554D01*
X0141742Y0028955D02*
X0143000Y0028955D01*
X0143000Y0028357D02*
X0142340Y0028357D01*
X0142939Y0027758D02*
X0143000Y0027758D01*
X0144200Y0027800D02*
X0150200Y0021800D01*
X0143600Y0015200D01*
X0039800Y0015200D01*
X0036200Y0018800D01*
X0036200Y0030800D01*
X0041000Y0035600D01*
X0041000Y0036000D01*
X0044300Y0036137D02*
X0046400Y0036137D01*
X0046400Y0035539D02*
X0044300Y0035539D01*
X0044300Y0034940D02*
X0045843Y0034940D01*
X0045245Y0034342D02*
X0044300Y0034342D01*
X0044300Y0033743D02*
X0044646Y0033743D01*
X0044300Y0036736D02*
X0046400Y0036736D01*
X0046400Y0037334D02*
X0044300Y0037334D01*
X0044300Y0037933D02*
X0046400Y0037933D01*
X0046400Y0038532D02*
X0044300Y0038532D01*
X0044270Y0039130D02*
X0046400Y0039130D01*
X0046400Y0039729D02*
X0044022Y0039729D01*
X0043740Y0040327D02*
X0046430Y0040327D01*
X0047029Y0040926D02*
X0043141Y0040926D01*
X0042081Y0041524D02*
X0047627Y0041524D01*
X0048226Y0042123D02*
X0025514Y0042123D01*
X0025600Y0041915D02*
X0024900Y0043606D01*
X0023606Y0044900D01*
X0021915Y0045600D01*
X0020085Y0045600D01*
X0018394Y0044900D01*
X0017100Y0043606D01*
X0016400Y0041915D01*
X0016400Y0040085D01*
X0017100Y0038394D01*
X0018394Y0037100D01*
X0020085Y0036400D01*
X0021915Y0036400D01*
X0023606Y0037100D01*
X0024900Y0038394D01*
X0025600Y0040085D01*
X0025600Y0041915D01*
X0025600Y0041524D02*
X0039919Y0041524D01*
X0038859Y0040926D02*
X0025600Y0040926D01*
X0025600Y0040327D02*
X0038260Y0040327D01*
X0037978Y0039729D02*
X0025452Y0039729D01*
X0025204Y0039130D02*
X0037730Y0039130D01*
X0037700Y0038532D02*
X0024957Y0038532D01*
X0024438Y0037933D02*
X0037700Y0037933D01*
X0037700Y0037334D02*
X0023840Y0037334D01*
X0022726Y0036736D02*
X0037700Y0036736D01*
X0037700Y0036137D02*
X0011000Y0036137D01*
X0011000Y0035539D02*
X0018895Y0035539D01*
X0019081Y0035634D02*
X0018379Y0035276D01*
X0017743Y0034814D01*
X0017186Y0034257D01*
X0016724Y0033621D01*
X0016366Y0032919D01*
X0016123Y0032171D01*
X0016000Y0031394D01*
X0016000Y0031300D01*
X0020700Y0031300D01*
X0020700Y0036000D01*
X0020606Y0036000D01*
X0019829Y0035877D01*
X0019081Y0035634D01*
X0019274Y0036736D02*
X0011000Y0036736D01*
X0011000Y0037334D02*
X0018160Y0037334D01*
X0017562Y0037933D02*
X0011000Y0037933D01*
X0011000Y0038532D02*
X0017043Y0038532D01*
X0016796Y0039130D02*
X0011000Y0039130D01*
X0011000Y0039729D02*
X0016548Y0039729D01*
X0016400Y0040327D02*
X0011000Y0040327D01*
X0011000Y0040926D02*
X0016400Y0040926D01*
X0016400Y0041524D02*
X0011000Y0041524D01*
X0011000Y0042123D02*
X0016486Y0042123D01*
X0016734Y0042721D02*
X0011000Y0042721D01*
X0011000Y0043320D02*
X0016982Y0043320D01*
X0017413Y0043918D02*
X0011000Y0043918D01*
X0011000Y0044517D02*
X0018011Y0044517D01*
X0018914Y0045115D02*
X0011000Y0045115D01*
X0011000Y0045714D02*
X0044789Y0045714D01*
X0044191Y0046312D02*
X0011000Y0046312D01*
X0011000Y0046911D02*
X0018852Y0046911D01*
X0018394Y0047100D02*
X0020085Y0046400D01*
X0021915Y0046400D01*
X0023606Y0047100D01*
X0024900Y0048394D01*
X0025600Y0050085D01*
X0025600Y0051915D01*
X0024900Y0053606D01*
X0023606Y0054900D01*
X0021915Y0055600D01*
X0020085Y0055600D01*
X0018394Y0054900D01*
X0017100Y0053606D01*
X0016400Y0051915D01*
X0016400Y0050085D01*
X0017100Y0048394D01*
X0018394Y0047100D01*
X0017985Y0047509D02*
X0011000Y0047509D01*
X0011000Y0048108D02*
X0017387Y0048108D01*
X0016971Y0048706D02*
X0011000Y0048706D01*
X0011000Y0049305D02*
X0016723Y0049305D01*
X0016475Y0049903D02*
X0011000Y0049903D01*
X0011000Y0050502D02*
X0016400Y0050502D01*
X0016400Y0051100D02*
X0011000Y0051100D01*
X0011000Y0051699D02*
X0016400Y0051699D01*
X0016558Y0052297D02*
X0011000Y0052297D01*
X0011000Y0052896D02*
X0016806Y0052896D01*
X0017054Y0053494D02*
X0011000Y0053494D01*
X0011000Y0054093D02*
X0017587Y0054093D01*
X0018186Y0054691D02*
X0011000Y0054691D01*
X0011000Y0055290D02*
X0019336Y0055290D01*
X0019875Y0056487D02*
X0011000Y0056487D01*
X0011000Y0057085D02*
X0018430Y0057085D01*
X0017811Y0057684D02*
X0011000Y0057684D01*
X0011000Y0058282D02*
X0017212Y0058282D01*
X0016899Y0058881D02*
X0011000Y0058881D01*
X0011000Y0059479D02*
X0016651Y0059479D01*
X0016403Y0060078D02*
X0011000Y0060078D01*
X0011000Y0060676D02*
X0016400Y0060676D01*
X0016400Y0061275D02*
X0011000Y0061275D01*
X0011000Y0061873D02*
X0016400Y0061873D01*
X0016631Y0062472D02*
X0011000Y0062472D01*
X0011000Y0063070D02*
X0016879Y0063070D01*
X0017164Y0063669D02*
X0011000Y0063669D01*
X0011000Y0064268D02*
X0017762Y0064268D01*
X0018361Y0064866D02*
X0011000Y0064866D01*
X0011000Y0065465D02*
X0019758Y0065465D01*
X0019454Y0066662D02*
X0011000Y0066662D01*
X0011000Y0067260D02*
X0018235Y0067260D01*
X0017636Y0067859D02*
X0011000Y0067859D01*
X0011000Y0068457D02*
X0017074Y0068457D01*
X0016826Y0069056D02*
X0011000Y0069056D01*
X0011000Y0069654D02*
X0016578Y0069654D01*
X0016400Y0070253D02*
X0011000Y0070253D01*
X0011000Y0070851D02*
X0016400Y0070851D01*
X0016400Y0071450D02*
X0011000Y0071450D01*
X0011000Y0072048D02*
X0016455Y0072048D01*
X0016703Y0072647D02*
X0011000Y0072647D01*
X0011000Y0073245D02*
X0016951Y0073245D01*
X0017338Y0073844D02*
X0011000Y0073844D01*
X0011000Y0074442D02*
X0017937Y0074442D01*
X0018735Y0075041D02*
X0011000Y0075041D01*
X0011000Y0075639D02*
X0024800Y0075639D01*
X0024800Y0075041D02*
X0023265Y0075041D01*
X0024063Y0074442D02*
X0024800Y0074442D01*
X0024800Y0073844D02*
X0024662Y0073844D01*
X0024800Y0076238D02*
X0011000Y0076238D01*
X0011000Y0076836D02*
X0019032Y0076836D01*
X0018394Y0077100D02*
X0020085Y0076400D01*
X0021915Y0076400D01*
X0023606Y0077100D01*
X0024900Y0078394D01*
X0025600Y0080085D01*
X0025600Y0081915D01*
X0024900Y0083606D01*
X0023606Y0084900D01*
X0021915Y0085600D01*
X0020085Y0085600D01*
X0018394Y0084900D01*
X0017100Y0083606D01*
X0016400Y0081915D01*
X0016400Y0080085D01*
X0017100Y0078394D01*
X0018394Y0077100D01*
X0018060Y0077435D02*
X0011000Y0077435D01*
X0011000Y0078033D02*
X0017461Y0078033D01*
X0017002Y0078632D02*
X0011000Y0078632D01*
X0011000Y0079230D02*
X0016754Y0079230D01*
X0016506Y0079829D02*
X0011000Y0079829D01*
X0011000Y0080427D02*
X0016400Y0080427D01*
X0016400Y0081026D02*
X0011000Y0081026D01*
X0011000Y0081624D02*
X0016400Y0081624D01*
X0016528Y0082223D02*
X0011000Y0082223D01*
X0011000Y0082821D02*
X0016775Y0082821D01*
X0017023Y0083420D02*
X0011000Y0083420D01*
X0011000Y0084018D02*
X0017513Y0084018D01*
X0018112Y0084617D02*
X0011000Y0084617D01*
X0011000Y0085215D02*
X0019157Y0085215D01*
X0020055Y0086412D02*
X0011000Y0086412D01*
X0011000Y0085814D02*
X0033717Y0085814D01*
X0034315Y0086412D02*
X0021945Y0086412D01*
X0021915Y0086400D02*
X0023606Y0087100D01*
X0024900Y0088394D01*
X0025600Y0090085D01*
X0025600Y0091915D01*
X0024900Y0093606D01*
X0023606Y0094900D01*
X0021915Y0095600D01*
X0020085Y0095600D01*
X0018394Y0094900D01*
X0017100Y0093606D01*
X0016400Y0091915D01*
X0016400Y0090085D01*
X0017100Y0088394D01*
X0018394Y0087100D01*
X0020085Y0086400D01*
X0021915Y0086400D01*
X0022843Y0085215D02*
X0033118Y0085215D01*
X0032520Y0084617D02*
X0023888Y0084617D01*
X0024487Y0084018D02*
X0031921Y0084018D01*
X0031323Y0083420D02*
X0024977Y0083420D01*
X0025225Y0082821D02*
X0030724Y0082821D01*
X0030126Y0082223D02*
X0025472Y0082223D01*
X0025600Y0081624D02*
X0029527Y0081624D01*
X0028929Y0081026D02*
X0025600Y0081026D01*
X0025600Y0080427D02*
X0028330Y0080427D01*
X0027732Y0079829D02*
X0025494Y0079829D01*
X0025246Y0079230D02*
X0027133Y0079230D01*
X0026535Y0078632D02*
X0024998Y0078632D01*
X0024539Y0078033D02*
X0025936Y0078033D01*
X0025338Y0077435D02*
X0023940Y0077435D01*
X0024800Y0076836D02*
X0022968Y0076836D01*
X0026000Y0076400D02*
X0026000Y0066200D01*
X0021200Y0061400D01*
X0021000Y0061000D01*
X0024189Y0057684D02*
X0036200Y0057684D01*
X0036200Y0058282D02*
X0024788Y0058282D01*
X0025101Y0058881D02*
X0036200Y0058881D01*
X0036200Y0059479D02*
X0025349Y0059479D01*
X0025597Y0060078D02*
X0036200Y0060078D01*
X0036200Y0060676D02*
X0025600Y0060676D01*
X0025600Y0061275D02*
X0036200Y0061275D01*
X0036200Y0061873D02*
X0025600Y0061873D01*
X0025369Y0062472D02*
X0036200Y0062472D01*
X0036200Y0063070D02*
X0025121Y0063070D01*
X0025166Y0063669D02*
X0036200Y0063669D01*
X0036200Y0064268D02*
X0025765Y0064268D01*
X0026363Y0064866D02*
X0036200Y0064866D01*
X0036200Y0065465D02*
X0026962Y0065465D01*
X0027200Y0066063D02*
X0036200Y0066063D01*
X0036200Y0066662D02*
X0027200Y0066662D01*
X0027200Y0067260D02*
X0036200Y0067260D01*
X0036200Y0067859D02*
X0027200Y0067859D01*
X0027200Y0068457D02*
X0036200Y0068457D01*
X0036200Y0069056D02*
X0027200Y0069056D01*
X0027200Y0069654D02*
X0036200Y0069654D01*
X0036200Y0070253D02*
X0027200Y0070253D01*
X0027200Y0070851D02*
X0036200Y0070851D01*
X0036200Y0071450D02*
X0027200Y0071450D01*
X0027200Y0072048D02*
X0036200Y0072048D01*
X0036200Y0072647D02*
X0027200Y0072647D01*
X0027200Y0073245D02*
X0036200Y0073245D01*
X0036200Y0073844D02*
X0027200Y0073844D01*
X0027200Y0074442D02*
X0036200Y0074442D01*
X0036200Y0075041D02*
X0027200Y0075041D01*
X0027200Y0075639D02*
X0036200Y0075639D01*
X0036200Y0076238D02*
X0027535Y0076238D01*
X0028133Y0076836D02*
X0036200Y0076836D01*
X0036200Y0077435D02*
X0028732Y0077435D01*
X0029330Y0078033D02*
X0036200Y0078033D01*
X0036200Y0078632D02*
X0029929Y0078632D01*
X0030527Y0079230D02*
X0036200Y0079230D01*
X0036200Y0079829D02*
X0031126Y0079829D01*
X0031724Y0080427D02*
X0036200Y0080427D01*
X0036200Y0081026D02*
X0032323Y0081026D01*
X0032921Y0081624D02*
X0036200Y0081624D01*
X0036200Y0082223D02*
X0033520Y0082223D01*
X0034118Y0082821D02*
X0036200Y0082821D01*
X0036200Y0083420D02*
X0034717Y0083420D01*
X0035315Y0084018D02*
X0036200Y0084018D01*
X0036200Y0084617D02*
X0035914Y0084617D01*
X0037400Y0086000D02*
X0037400Y0054800D01*
X0050000Y0042200D01*
X0065000Y0042200D01*
X0071000Y0036200D01*
X0071000Y0036000D01*
X0071000Y0036200D02*
X0080600Y0045800D01*
X0106400Y0045800D01*
X0110700Y0044600D02*
X0110700Y0041458D01*
X0111300Y0041458D01*
X0111300Y0044600D01*
X0110700Y0044600D01*
X0110700Y0044517D02*
X0111300Y0044517D01*
X0111300Y0043918D02*
X0110700Y0043918D01*
X0110700Y0043320D02*
X0111300Y0043320D01*
X0111300Y0042721D02*
X0110700Y0042721D01*
X0110700Y0042123D02*
X0111300Y0042123D01*
X0111300Y0041524D02*
X0110700Y0041524D01*
X0113600Y0035600D02*
X0131000Y0053000D01*
X0131000Y0142400D01*
X0129200Y0144200D01*
X0130705Y0145665D02*
X0201000Y0145665D01*
X0201000Y0145067D02*
X0193203Y0145067D01*
X0193606Y0144900D02*
X0191915Y0145600D01*
X0190085Y0145600D01*
X0188394Y0144900D01*
X0187100Y0143606D01*
X0186400Y0141915D01*
X0186400Y0140085D01*
X0187100Y0138394D01*
X0188394Y0137100D01*
X0190085Y0136400D01*
X0191915Y0136400D01*
X0193606Y0137100D01*
X0194900Y0138394D01*
X0195600Y0140085D01*
X0195600Y0141915D01*
X0194900Y0143606D01*
X0193606Y0144900D01*
X0194037Y0144468D02*
X0201000Y0144468D01*
X0201000Y0143870D02*
X0194636Y0143870D01*
X0195038Y0143271D02*
X0201000Y0143271D01*
X0201000Y0142672D02*
X0195286Y0142672D01*
X0195534Y0142074D02*
X0201000Y0142074D01*
X0201000Y0141475D02*
X0195600Y0141475D01*
X0195600Y0140877D02*
X0201000Y0140877D01*
X0201000Y0140278D02*
X0195600Y0140278D01*
X0195432Y0139680D02*
X0201000Y0139680D01*
X0201000Y0139081D02*
X0195184Y0139081D01*
X0194936Y0138483D02*
X0201000Y0138483D01*
X0201000Y0137884D02*
X0194390Y0137884D01*
X0193791Y0137286D02*
X0201000Y0137286D01*
X0201000Y0136687D02*
X0192609Y0136687D01*
X0192180Y0135490D02*
X0201000Y0135490D01*
X0201000Y0134892D02*
X0193614Y0134892D01*
X0193606Y0134900D02*
X0191915Y0135600D01*
X0190085Y0135600D01*
X0188394Y0134900D01*
X0187100Y0133606D01*
X0186400Y0131915D01*
X0186400Y0130085D01*
X0187100Y0128394D01*
X0188394Y0127100D01*
X0190085Y0126400D01*
X0191915Y0126400D01*
X0193606Y0127100D01*
X0194900Y0128394D01*
X0195600Y0130085D01*
X0195600Y0131915D01*
X0194900Y0133606D01*
X0193606Y0134900D01*
X0194212Y0134293D02*
X0201000Y0134293D01*
X0201000Y0133695D02*
X0194811Y0133695D01*
X0195111Y0133096D02*
X0201000Y0133096D01*
X0201000Y0132498D02*
X0195359Y0132498D01*
X0195600Y0131899D02*
X0201000Y0131899D01*
X0201000Y0131301D02*
X0195600Y0131301D01*
X0195600Y0130702D02*
X0201000Y0130702D01*
X0201000Y0130104D02*
X0195600Y0130104D01*
X0195360Y0129505D02*
X0201000Y0129505D01*
X0201000Y0128907D02*
X0195112Y0128907D01*
X0194814Y0128308D02*
X0201000Y0128308D01*
X0201000Y0127710D02*
X0194215Y0127710D01*
X0193617Y0127111D02*
X0201000Y0127111D01*
X0201000Y0126513D02*
X0192187Y0126513D01*
X0191915Y0125600D02*
X0190085Y0125600D01*
X0188394Y0124900D01*
X0187100Y0123606D01*
X0186400Y0121915D01*
X0186400Y0120085D01*
X0187100Y0118394D01*
X0188394Y0117100D01*
X0190085Y0116400D01*
X0191915Y0116400D01*
X0193606Y0117100D01*
X0194900Y0118394D01*
X0195600Y0120085D01*
X0195600Y0121915D01*
X0194900Y0123606D01*
X0193606Y0124900D01*
X0191915Y0125600D01*
X0192601Y0125316D02*
X0201000Y0125316D01*
X0201000Y0125914D02*
X0168800Y0125914D01*
X0168800Y0125316D02*
X0189399Y0125316D01*
X0189813Y0126513D02*
X0168800Y0126513D01*
X0168800Y0127111D02*
X0188383Y0127111D01*
X0187785Y0127710D02*
X0168800Y0127710D01*
X0168800Y0128308D02*
X0187186Y0128308D01*
X0186888Y0128907D02*
X0169077Y0128907D01*
X0168800Y0128630D02*
X0169700Y0129530D01*
X0169700Y0131270D01*
X0168470Y0132500D01*
X0166730Y0132500D01*
X0165500Y0131270D01*
X0165500Y0129530D01*
X0166400Y0128630D01*
X0166400Y0118297D01*
X0166400Y0117303D01*
X0178203Y0105500D01*
X0178130Y0105500D01*
X0176900Y0104270D01*
X0176900Y0102530D01*
X0177800Y0101630D01*
X0177800Y0072903D01*
X0187099Y0063604D01*
X0186400Y0061915D01*
X0186400Y0060085D01*
X0187100Y0058394D01*
X0188394Y0057100D01*
X0190085Y0056400D01*
X0191915Y0056400D01*
X0193606Y0057100D01*
X0194900Y0058394D01*
X0195600Y0060085D01*
X0195600Y0061915D01*
X0194900Y0063606D01*
X0193606Y0064900D01*
X0191915Y0065600D01*
X0190085Y0065600D01*
X0188962Y0065135D01*
X0180200Y0073897D01*
X0180200Y0101630D01*
X0181100Y0102530D01*
X0181100Y0102603D01*
X0188683Y0095019D01*
X0188394Y0094900D01*
X0187100Y0093606D01*
X0186400Y0091915D01*
X0186400Y0090085D01*
X0187100Y0088394D01*
X0188394Y0087100D01*
X0190085Y0086400D01*
X0191915Y0086400D01*
X0193606Y0087100D01*
X0194900Y0088394D01*
X0195600Y0090085D01*
X0195600Y0091915D01*
X0194900Y0093606D01*
X0193606Y0094900D01*
X0191915Y0095600D01*
X0191497Y0095600D01*
X0190697Y0096400D01*
X0191915Y0096400D01*
X0193606Y0097100D01*
X0194900Y0098394D01*
X0195600Y0100085D01*
X0195600Y0101915D01*
X0194900Y0103606D01*
X0193606Y0104900D01*
X0191915Y0105600D01*
X0190085Y0105600D01*
X0188394Y0104900D01*
X0187100Y0103606D01*
X0186400Y0101915D01*
X0186400Y0100697D01*
X0168800Y0118297D01*
X0168800Y0128630D01*
X0169675Y0129505D02*
X0186640Y0129505D01*
X0186400Y0130104D02*
X0169700Y0130104D01*
X0169700Y0130702D02*
X0186400Y0130702D01*
X0186400Y0131301D02*
X0169669Y0131301D01*
X0169071Y0131899D02*
X0186400Y0131899D01*
X0186641Y0132498D02*
X0168472Y0132498D01*
X0166728Y0132498D02*
X0132200Y0132498D01*
X0132200Y0133096D02*
X0186889Y0133096D01*
X0187189Y0133695D02*
X0132200Y0133695D01*
X0132200Y0134293D02*
X0187788Y0134293D01*
X0188386Y0134892D02*
X0132200Y0134892D01*
X0132200Y0135490D02*
X0189820Y0135490D01*
X0189391Y0136687D02*
X0132200Y0136687D01*
X0132200Y0136089D02*
X0201000Y0136089D01*
X0201000Y0146264D02*
X0130106Y0146264D01*
X0130559Y0146862D02*
X0188969Y0146862D01*
X0188394Y0147100D02*
X0190085Y0146400D01*
X0191915Y0146400D01*
X0193606Y0147100D01*
X0194900Y0148394D01*
X0195600Y0150085D01*
X0195600Y0151915D01*
X0194900Y0153606D01*
X0193606Y0154900D01*
X0191915Y0155600D01*
X0190085Y0155600D01*
X0188394Y0154900D01*
X0187100Y0153606D01*
X0186400Y0151915D01*
X0186400Y0150085D01*
X0187100Y0148394D01*
X0188394Y0147100D01*
X0188034Y0147461D02*
X0131158Y0147461D01*
X0131756Y0148059D02*
X0187436Y0148059D01*
X0186991Y0148658D02*
X0132355Y0148658D01*
X0132953Y0149256D02*
X0186743Y0149256D01*
X0186495Y0149855D02*
X0133552Y0149855D01*
X0134150Y0150453D02*
X0186400Y0150453D01*
X0186400Y0151052D02*
X0134749Y0151052D01*
X0135347Y0151650D02*
X0186400Y0151650D01*
X0186538Y0152249D02*
X0135946Y0152249D01*
X0136544Y0152847D02*
X0186786Y0152847D01*
X0187034Y0153446D02*
X0137143Y0153446D01*
X0137741Y0154044D02*
X0187539Y0154044D01*
X0188137Y0154643D02*
X0138340Y0154643D01*
X0138938Y0155241D02*
X0189219Y0155241D01*
X0189993Y0156438D02*
X0140135Y0156438D01*
X0139537Y0155840D02*
X0201000Y0155840D01*
X0201000Y0156438D02*
X0192007Y0156438D01*
X0191915Y0156400D02*
X0193606Y0157100D01*
X0194900Y0158394D01*
X0195600Y0160085D01*
X0195600Y0161915D01*
X0194900Y0163606D01*
X0193606Y0164900D01*
X0191915Y0165600D01*
X0190085Y0165600D01*
X0188394Y0164900D01*
X0187100Y0163606D01*
X0186400Y0161915D01*
X0186400Y0160085D01*
X0187100Y0158394D01*
X0188394Y0157100D01*
X0190085Y0156400D01*
X0191915Y0156400D01*
X0192781Y0155241D02*
X0201000Y0155241D01*
X0201000Y0154643D02*
X0193863Y0154643D01*
X0194461Y0154044D02*
X0201000Y0154044D01*
X0201000Y0153446D02*
X0194966Y0153446D01*
X0195214Y0152847D02*
X0201000Y0152847D01*
X0201000Y0152249D02*
X0195462Y0152249D01*
X0195600Y0151650D02*
X0201000Y0151650D01*
X0201000Y0151052D02*
X0195600Y0151052D01*
X0195600Y0150453D02*
X0201000Y0150453D01*
X0201000Y0149855D02*
X0195505Y0149855D01*
X0195257Y0149256D02*
X0201000Y0149256D01*
X0201000Y0148658D02*
X0195009Y0148658D01*
X0194564Y0148059D02*
X0201000Y0148059D01*
X0201000Y0147461D02*
X0193966Y0147461D01*
X0193031Y0146862D02*
X0201000Y0146862D01*
X0201000Y0157037D02*
X0193452Y0157037D01*
X0194141Y0157635D02*
X0201000Y0157635D01*
X0201000Y0158234D02*
X0194739Y0158234D01*
X0195081Y0158832D02*
X0201000Y0158832D01*
X0201000Y0159431D02*
X0195329Y0159431D01*
X0195577Y0160029D02*
X0201000Y0160029D01*
X0201000Y0160628D02*
X0195600Y0160628D01*
X0195600Y0161226D02*
X0201000Y0161226D01*
X0201000Y0161825D02*
X0195600Y0161825D01*
X0195389Y0162423D02*
X0201000Y0162423D01*
X0201000Y0163022D02*
X0195142Y0163022D01*
X0194885Y0163620D02*
X0201000Y0163620D01*
X0201000Y0164219D02*
X0194286Y0164219D01*
X0193688Y0164817D02*
X0201000Y0164817D01*
X0201000Y0165416D02*
X0192359Y0165416D01*
X0191915Y0166400D02*
X0193606Y0167100D01*
X0194900Y0168394D01*
X0195600Y0170085D01*
X0195600Y0171915D01*
X0194900Y0173606D01*
X0193606Y0174900D01*
X0191915Y0175600D01*
X0190085Y0175600D01*
X0188394Y0174900D01*
X0187100Y0173606D01*
X0186400Y0171915D01*
X0186400Y0170085D01*
X0187100Y0168394D01*
X0188394Y0167100D01*
X0190085Y0166400D01*
X0191915Y0166400D01*
X0192429Y0166613D02*
X0201000Y0166613D01*
X0201000Y0167211D02*
X0193717Y0167211D01*
X0194315Y0167810D02*
X0201000Y0167810D01*
X0201000Y0168408D02*
X0194906Y0168408D01*
X0195153Y0169007D02*
X0201000Y0169007D01*
X0201000Y0169605D02*
X0195401Y0169605D01*
X0195600Y0170204D02*
X0201000Y0170204D01*
X0201000Y0170803D02*
X0195600Y0170803D01*
X0195600Y0171401D02*
X0201000Y0171401D01*
X0201000Y0172000D02*
X0195565Y0172000D01*
X0195317Y0172598D02*
X0201000Y0172598D01*
X0201000Y0173197D02*
X0195069Y0173197D01*
X0194710Y0173795D02*
X0201000Y0173795D01*
X0201000Y0174394D02*
X0194112Y0174394D01*
X0193383Y0174992D02*
X0201000Y0174992D01*
X0201000Y0175591D02*
X0191938Y0175591D01*
X0191915Y0176400D02*
X0190085Y0176400D01*
X0188394Y0177100D01*
X0187100Y0178394D01*
X0186400Y0180085D01*
X0186400Y0181915D01*
X0187100Y0183606D01*
X0188394Y0184900D01*
X0190085Y0185600D01*
X0191915Y0185600D01*
X0193606Y0184900D01*
X0194900Y0183606D01*
X0195600Y0181915D01*
X0195600Y0180085D01*
X0194900Y0178394D01*
X0193606Y0177100D01*
X0191915Y0176400D01*
X0192851Y0176788D02*
X0201000Y0176788D01*
X0201000Y0177386D02*
X0193892Y0177386D01*
X0194490Y0177985D02*
X0201000Y0177985D01*
X0201000Y0178583D02*
X0194978Y0178583D01*
X0195226Y0179182D02*
X0201000Y0179182D01*
X0201000Y0179780D02*
X0195474Y0179780D01*
X0195600Y0180379D02*
X0201000Y0180379D01*
X0201000Y0180977D02*
X0195600Y0180977D01*
X0195600Y0181576D02*
X0201000Y0181576D01*
X0201000Y0182174D02*
X0195493Y0182174D01*
X0195245Y0182773D02*
X0201000Y0182773D01*
X0201000Y0183371D02*
X0194997Y0183371D01*
X0194536Y0183970D02*
X0201000Y0183970D01*
X0201000Y0184568D02*
X0193937Y0184568D01*
X0192961Y0185167D02*
X0201000Y0185167D01*
X0201000Y0185765D02*
X0165800Y0185765D01*
X0165800Y0185167D02*
X0189039Y0185167D01*
X0188063Y0184568D02*
X0165800Y0184568D01*
X0165800Y0183970D02*
X0187464Y0183970D01*
X0187003Y0183371D02*
X0165800Y0183371D01*
X0165800Y0182773D02*
X0186755Y0182773D01*
X0186507Y0182174D02*
X0165800Y0182174D01*
X0165273Y0181576D02*
X0186400Y0181576D01*
X0186400Y0180977D02*
X0164674Y0180977D01*
X0164076Y0180379D02*
X0186400Y0180379D01*
X0186526Y0179780D02*
X0163477Y0179780D01*
X0162879Y0179182D02*
X0186774Y0179182D01*
X0187022Y0178583D02*
X0162280Y0178583D01*
X0161682Y0177985D02*
X0187510Y0177985D01*
X0188108Y0177386D02*
X0161083Y0177386D01*
X0160485Y0176788D02*
X0189149Y0176788D01*
X0190062Y0175591D02*
X0159288Y0175591D01*
X0159886Y0176189D02*
X0201000Y0176189D01*
X0201000Y0166014D02*
X0149711Y0166014D01*
X0149113Y0165416D02*
X0189641Y0165416D01*
X0189571Y0166613D02*
X0150310Y0166613D01*
X0150908Y0167211D02*
X0188283Y0167211D01*
X0187685Y0167810D02*
X0151507Y0167810D01*
X0152106Y0168408D02*
X0187094Y0168408D01*
X0186847Y0169007D02*
X0152704Y0169007D01*
X0153303Y0169605D02*
X0186599Y0169605D01*
X0186400Y0170204D02*
X0153901Y0170204D01*
X0154500Y0170803D02*
X0186400Y0170803D01*
X0186400Y0171401D02*
X0155098Y0171401D01*
X0155697Y0172000D02*
X0186435Y0172000D01*
X0186683Y0172598D02*
X0156295Y0172598D01*
X0156894Y0173197D02*
X0186931Y0173197D01*
X0187290Y0173795D02*
X0157492Y0173795D01*
X0158091Y0174394D02*
X0187888Y0174394D01*
X0188617Y0174992D02*
X0158689Y0174992D01*
X0165800Y0186364D02*
X0201000Y0186364D01*
X0201000Y0186962D02*
X0193273Y0186962D01*
X0193606Y0187100D02*
X0194900Y0188394D01*
X0195600Y0190085D01*
X0195600Y0191915D01*
X0194900Y0193606D01*
X0193606Y0194900D01*
X0191915Y0195600D01*
X0190085Y0195600D01*
X0188394Y0194900D01*
X0187100Y0193606D01*
X0186400Y0191915D01*
X0186400Y0190085D01*
X0187100Y0188394D01*
X0188394Y0187100D01*
X0190085Y0186400D01*
X0191915Y0186400D01*
X0193606Y0187100D01*
X0194066Y0187561D02*
X0201000Y0187561D01*
X0201000Y0188159D02*
X0194665Y0188159D01*
X0195050Y0188758D02*
X0201000Y0188758D01*
X0201000Y0189356D02*
X0195298Y0189356D01*
X0195546Y0189955D02*
X0201000Y0189955D01*
X0201000Y0190553D02*
X0195600Y0190553D01*
X0195600Y0191152D02*
X0201000Y0191152D01*
X0201000Y0191750D02*
X0195600Y0191750D01*
X0195420Y0192349D02*
X0201000Y0192349D01*
X0201000Y0192947D02*
X0195172Y0192947D01*
X0194924Y0193546D02*
X0201000Y0193546D01*
X0201000Y0194144D02*
X0194361Y0194144D01*
X0193762Y0194743D02*
X0201000Y0194743D01*
X0201000Y0195341D02*
X0192539Y0195341D01*
X0192249Y0196539D02*
X0201000Y0196539D01*
X0201000Y0197137D02*
X0193642Y0197137D01*
X0194241Y0197736D02*
X0201000Y0197736D01*
X0201000Y0198334D02*
X0194839Y0198334D01*
X0195123Y0198933D02*
X0201000Y0198933D01*
X0201000Y0199531D02*
X0195371Y0199531D01*
X0195600Y0200130D02*
X0201000Y0200130D01*
X0201000Y0200728D02*
X0195600Y0200728D01*
X0195600Y0201327D02*
X0201000Y0201327D01*
X0201000Y0201925D02*
X0195596Y0201925D01*
X0195348Y0202524D02*
X0201000Y0202524D01*
X0201000Y0203122D02*
X0195100Y0203122D01*
X0194785Y0203721D02*
X0201000Y0203721D01*
X0201000Y0204319D02*
X0194186Y0204319D01*
X0193562Y0204918D02*
X0201000Y0204918D01*
X0201000Y0205516D02*
X0192117Y0205516D01*
X0191915Y0206400D02*
X0193606Y0207100D01*
X0194900Y0208394D01*
X0195600Y0210085D01*
X0195600Y0211915D01*
X0194900Y0213606D01*
X0193606Y0214900D01*
X0191915Y0215600D01*
X0190085Y0215600D01*
X0188394Y0214900D01*
X0187100Y0213606D01*
X0186400Y0211915D01*
X0186400Y0210085D01*
X0187100Y0208394D01*
X0188394Y0207100D01*
X0190085Y0206400D01*
X0191915Y0206400D01*
X0192671Y0206713D02*
X0201000Y0206713D01*
X0201000Y0206115D02*
X0160782Y0206115D01*
X0161381Y0205516D02*
X0189883Y0205516D01*
X0189329Y0206713D02*
X0182671Y0206713D01*
X0183817Y0207312D02*
X0188183Y0207312D01*
X0187584Y0207910D02*
X0184416Y0207910D01*
X0184947Y0208509D02*
X0187053Y0208509D01*
X0186805Y0209107D02*
X0185195Y0209107D01*
X0185443Y0209706D02*
X0186557Y0209706D01*
X0186400Y0210304D02*
X0185600Y0210304D01*
X0185600Y0210903D02*
X0186400Y0210903D01*
X0186400Y0211501D02*
X0185600Y0211501D01*
X0185523Y0212100D02*
X0186477Y0212100D01*
X0186724Y0212698D02*
X0185276Y0212698D01*
X0185028Y0213297D02*
X0186972Y0213297D01*
X0187390Y0213895D02*
X0184610Y0213895D01*
X0184012Y0214494D02*
X0187988Y0214494D01*
X0188859Y0215092D02*
X0183141Y0215092D01*
X0180800Y0211400D02*
X0181000Y0211000D01*
X0180800Y0211400D02*
X0175400Y0216800D01*
X0115400Y0216800D01*
X0095600Y0197000D01*
X0095600Y0173000D01*
X0053600Y0131000D01*
X0051000Y0131000D01*
X0054215Y0127710D02*
X0055813Y0127710D01*
X0056411Y0128308D02*
X0054814Y0128308D01*
X0055112Y0128907D02*
X0057010Y0128907D01*
X0057608Y0129505D02*
X0055360Y0129505D01*
X0055600Y0130104D02*
X0058207Y0130104D01*
X0058805Y0130702D02*
X0055600Y0130702D01*
X0055600Y0131301D02*
X0059404Y0131301D01*
X0060002Y0131899D02*
X0056196Y0131899D01*
X0056795Y0132498D02*
X0060601Y0132498D01*
X0061199Y0133096D02*
X0057393Y0133096D01*
X0057992Y0133695D02*
X0061798Y0133695D01*
X0062396Y0134293D02*
X0058590Y0134293D01*
X0059189Y0134892D02*
X0062995Y0134892D01*
X0063593Y0135490D02*
X0059787Y0135490D01*
X0060386Y0136089D02*
X0064192Y0136089D01*
X0064790Y0136687D02*
X0060984Y0136687D01*
X0061583Y0137286D02*
X0065389Y0137286D01*
X0065987Y0137884D02*
X0062181Y0137884D01*
X0062780Y0138483D02*
X0066586Y0138483D01*
X0067184Y0139081D02*
X0063378Y0139081D01*
X0063977Y0139680D02*
X0067783Y0139680D01*
X0068381Y0140278D02*
X0064575Y0140278D01*
X0065174Y0140877D02*
X0068980Y0140877D01*
X0069578Y0141475D02*
X0065773Y0141475D01*
X0066371Y0142074D02*
X0070177Y0142074D01*
X0070775Y0142672D02*
X0066970Y0142672D01*
X0067568Y0143271D02*
X0071374Y0143271D01*
X0071972Y0143870D02*
X0068167Y0143870D01*
X0068765Y0144468D02*
X0072571Y0144468D01*
X0073169Y0145067D02*
X0069364Y0145067D01*
X0069962Y0145665D02*
X0073768Y0145665D01*
X0074367Y0146264D02*
X0070561Y0146264D01*
X0071159Y0146862D02*
X0074965Y0146862D01*
X0075564Y0147461D02*
X0071758Y0147461D01*
X0072356Y0148059D02*
X0076162Y0148059D01*
X0076761Y0148658D02*
X0072955Y0148658D01*
X0073553Y0149256D02*
X0077359Y0149256D01*
X0077958Y0149855D02*
X0074152Y0149855D01*
X0074750Y0150453D02*
X0078556Y0150453D01*
X0079400Y0149600D02*
X0051200Y0121400D01*
X0051000Y0121000D01*
X0055287Y0119331D02*
X0064834Y0119331D01*
X0065432Y0119929D02*
X0055535Y0119929D01*
X0055600Y0120528D02*
X0066031Y0120528D01*
X0066629Y0121126D02*
X0055600Y0121126D01*
X0055600Y0121725D02*
X0067228Y0121725D01*
X0067826Y0122323D02*
X0055431Y0122323D01*
X0055183Y0122922D02*
X0068425Y0122922D01*
X0069023Y0123520D02*
X0055017Y0123520D01*
X0055616Y0124119D02*
X0069622Y0124119D01*
X0070220Y0124717D02*
X0056214Y0124717D01*
X0056813Y0125316D02*
X0070819Y0125316D01*
X0071417Y0125914D02*
X0057411Y0125914D01*
X0058010Y0126513D02*
X0072016Y0126513D01*
X0072614Y0127111D02*
X0058608Y0127111D01*
X0059207Y0127710D02*
X0073213Y0127710D01*
X0073811Y0128308D02*
X0059805Y0128308D01*
X0060404Y0128907D02*
X0074410Y0128907D01*
X0074600Y0129505D02*
X0061002Y0129505D01*
X0061601Y0130104D02*
X0074600Y0130104D01*
X0074600Y0130702D02*
X0062199Y0130702D01*
X0062798Y0131301D02*
X0074600Y0131301D01*
X0074600Y0131899D02*
X0063396Y0131899D01*
X0063995Y0132498D02*
X0074600Y0132498D01*
X0074600Y0133096D02*
X0064593Y0133096D01*
X0065192Y0133695D02*
X0074600Y0133695D01*
X0074337Y0134293D02*
X0065790Y0134293D01*
X0066389Y0134892D02*
X0073738Y0134892D01*
X0073700Y0135490D02*
X0066987Y0135490D01*
X0067586Y0136089D02*
X0073700Y0136089D01*
X0073718Y0136687D02*
X0068184Y0136687D01*
X0068783Y0137286D02*
X0074316Y0137286D01*
X0074915Y0137884D02*
X0069381Y0137884D01*
X0069980Y0138483D02*
X0082186Y0138483D01*
X0082784Y0139081D02*
X0070578Y0139081D01*
X0071177Y0139680D02*
X0083383Y0139680D01*
X0083981Y0140278D02*
X0071775Y0140278D01*
X0072374Y0140877D02*
X0084580Y0140877D01*
X0085178Y0141475D02*
X0072973Y0141475D01*
X0073571Y0142074D02*
X0085777Y0142074D01*
X0086000Y0142672D02*
X0074170Y0142672D01*
X0074768Y0143271D02*
X0086000Y0143271D01*
X0086000Y0143870D02*
X0075367Y0143870D01*
X0075965Y0144468D02*
X0086000Y0144468D01*
X0086000Y0145067D02*
X0076564Y0145067D01*
X0077162Y0145665D02*
X0085765Y0145665D01*
X0085167Y0146264D02*
X0077761Y0146264D01*
X0078359Y0146862D02*
X0085100Y0146862D01*
X0085100Y0147461D02*
X0078958Y0147461D01*
X0079556Y0148059D02*
X0085100Y0148059D01*
X0087200Y0147200D02*
X0087200Y0141800D01*
X0077000Y0131600D01*
X0077000Y0126800D01*
X0070400Y0120200D01*
X0064235Y0118732D02*
X0055040Y0118732D01*
X0054639Y0118134D02*
X0063636Y0118134D01*
X0063038Y0117535D02*
X0054040Y0117535D01*
X0053210Y0116937D02*
X0062439Y0116937D01*
X0061841Y0116338D02*
X0040559Y0116338D01*
X0041158Y0115739D02*
X0061242Y0115739D01*
X0060644Y0115141D02*
X0053023Y0115141D01*
X0053963Y0114542D02*
X0060045Y0114542D01*
X0059447Y0113944D02*
X0054561Y0113944D01*
X0055007Y0113345D02*
X0058848Y0113345D01*
X0058250Y0112747D02*
X0055255Y0112747D01*
X0055503Y0112148D02*
X0057651Y0112148D01*
X0057053Y0111550D02*
X0055600Y0111550D01*
X0055600Y0110951D02*
X0056454Y0110951D01*
X0055856Y0110353D02*
X0055600Y0110353D01*
X0054800Y0107600D02*
X0054800Y0077600D01*
X0052700Y0077435D02*
X0038600Y0077435D01*
X0038600Y0078033D02*
X0052700Y0078033D01*
X0052862Y0078632D02*
X0038600Y0078632D01*
X0038600Y0079230D02*
X0053460Y0079230D01*
X0053600Y0079829D02*
X0038600Y0079829D01*
X0038600Y0080427D02*
X0053600Y0080427D01*
X0053600Y0081026D02*
X0038600Y0081026D01*
X0038600Y0081624D02*
X0053600Y0081624D01*
X0053600Y0082223D02*
X0038600Y0082223D01*
X0038600Y0082821D02*
X0053600Y0082821D01*
X0053600Y0083420D02*
X0038600Y0083420D01*
X0038600Y0084018D02*
X0053600Y0084018D01*
X0053600Y0084617D02*
X0038600Y0084617D01*
X0038600Y0085215D02*
X0053600Y0085215D01*
X0053600Y0085814D02*
X0038911Y0085814D01*
X0039509Y0086412D02*
X0053600Y0086412D01*
X0053600Y0087011D02*
X0040108Y0087011D01*
X0040706Y0087609D02*
X0053600Y0087609D01*
X0053600Y0088208D02*
X0041305Y0088208D01*
X0041904Y0088806D02*
X0053600Y0088806D01*
X0053600Y0089405D02*
X0042200Y0089405D01*
X0042200Y0090003D02*
X0053600Y0090003D01*
X0053600Y0090602D02*
X0042200Y0090602D01*
X0042200Y0091201D02*
X0053600Y0091201D01*
X0053600Y0091799D02*
X0042200Y0091799D01*
X0042200Y0092398D02*
X0053600Y0092398D01*
X0053600Y0092996D02*
X0042200Y0092996D01*
X0042200Y0093595D02*
X0053600Y0093595D01*
X0053600Y0094193D02*
X0042200Y0094193D01*
X0042200Y0094792D02*
X0053600Y0094792D01*
X0053600Y0095390D02*
X0042200Y0095390D01*
X0042200Y0095989D02*
X0053600Y0095989D01*
X0053600Y0096587D02*
X0042200Y0096587D01*
X0042200Y0097186D02*
X0053600Y0097186D01*
X0053600Y0097784D02*
X0042200Y0097784D01*
X0042200Y0098383D02*
X0053600Y0098383D01*
X0053600Y0098981D02*
X0042200Y0098981D01*
X0042200Y0099580D02*
X0053600Y0099580D01*
X0053600Y0100178D02*
X0042200Y0100178D01*
X0042200Y0100777D02*
X0053600Y0100777D01*
X0053600Y0101375D02*
X0042200Y0101375D01*
X0042200Y0101974D02*
X0053600Y0101974D01*
X0053600Y0102572D02*
X0042200Y0102572D01*
X0042200Y0103171D02*
X0053600Y0103171D01*
X0053600Y0103769D02*
X0042200Y0103769D01*
X0042200Y0104368D02*
X0053600Y0104368D01*
X0053600Y0104966D02*
X0042200Y0104966D01*
X0042200Y0105565D02*
X0053600Y0105565D01*
X0053600Y0106163D02*
X0042200Y0106163D01*
X0042788Y0106762D02*
X0049212Y0106762D01*
X0048134Y0107360D02*
X0043866Y0107360D01*
X0044464Y0107959D02*
X0047536Y0107959D01*
X0047033Y0108557D02*
X0044967Y0108557D01*
X0045215Y0109156D02*
X0046785Y0109156D01*
X0046537Y0109754D02*
X0045463Y0109754D01*
X0045600Y0110353D02*
X0046400Y0110353D01*
X0046400Y0110951D02*
X0045600Y0110951D01*
X0045600Y0111550D02*
X0046400Y0111550D01*
X0046497Y0112148D02*
X0045503Y0112148D01*
X0045255Y0112747D02*
X0046745Y0112747D01*
X0046993Y0113345D02*
X0045007Y0113345D01*
X0044561Y0113944D02*
X0047439Y0113944D01*
X0048037Y0114542D02*
X0043963Y0114542D01*
X0043023Y0115141D02*
X0048977Y0115141D01*
X0048790Y0116937D02*
X0043210Y0116937D01*
X0044040Y0117535D02*
X0047960Y0117535D01*
X0047361Y0118134D02*
X0044639Y0118134D01*
X0045040Y0118732D02*
X0046960Y0118732D01*
X0046712Y0119331D02*
X0045287Y0119331D01*
X0045535Y0119929D02*
X0046465Y0119929D01*
X0046400Y0120528D02*
X0045600Y0120528D01*
X0045600Y0121126D02*
X0046400Y0121126D01*
X0046400Y0121725D02*
X0045600Y0121725D01*
X0045431Y0122323D02*
X0046569Y0122323D01*
X0046817Y0122922D02*
X0045183Y0122922D01*
X0044935Y0123520D02*
X0047065Y0123520D01*
X0047613Y0124119D02*
X0044387Y0124119D01*
X0043788Y0124717D02*
X0048212Y0124717D01*
X0049399Y0125316D02*
X0042601Y0125316D01*
X0042171Y0126123D02*
X0042919Y0126366D01*
X0043621Y0126724D01*
X0044257Y0127186D01*
X0044814Y0127743D01*
X0045276Y0128379D01*
X0045634Y0129081D01*
X0045877Y0129829D01*
X0046000Y0130606D01*
X0046000Y0130700D01*
X0041300Y0130700D01*
X0041300Y0131300D01*
X0040700Y0131300D01*
X0040700Y0136000D01*
X0040606Y0136000D01*
X0039829Y0135877D01*
X0039081Y0135634D01*
X0038379Y0135276D01*
X0037743Y0134814D01*
X0037186Y0134257D01*
X0036724Y0133621D01*
X0036366Y0132919D01*
X0036123Y0132171D01*
X0036000Y0131394D01*
X0036000Y0131300D01*
X0040700Y0131300D01*
X0040700Y0130700D01*
X0036000Y0130700D01*
X0036000Y0130606D01*
X0036123Y0129829D01*
X0036366Y0129081D01*
X0036724Y0128379D01*
X0037186Y0127743D01*
X0037743Y0127186D01*
X0038379Y0126724D01*
X0039081Y0126366D01*
X0039829Y0126123D01*
X0040606Y0126000D01*
X0040700Y0126000D01*
X0040700Y0130700D01*
X0041300Y0130700D01*
X0041300Y0126000D01*
X0041394Y0126000D01*
X0042171Y0126123D01*
X0041300Y0126513D02*
X0040700Y0126513D01*
X0040700Y0127111D02*
X0041300Y0127111D01*
X0041300Y0127710D02*
X0040700Y0127710D01*
X0040700Y0128308D02*
X0041300Y0128308D01*
X0041300Y0128907D02*
X0040700Y0128907D01*
X0040700Y0129505D02*
X0041300Y0129505D01*
X0041300Y0130104D02*
X0040700Y0130104D01*
X0040700Y0130702D02*
X0027200Y0130702D01*
X0027200Y0130104D02*
X0036080Y0130104D01*
X0036228Y0129505D02*
X0027392Y0129505D01*
X0027990Y0128907D02*
X0036455Y0128907D01*
X0036775Y0128308D02*
X0028589Y0128308D01*
X0029187Y0127710D02*
X0037219Y0127710D01*
X0037846Y0127111D02*
X0029786Y0127111D01*
X0030384Y0126513D02*
X0038793Y0126513D01*
X0039399Y0125316D02*
X0031581Y0125316D01*
X0030983Y0125914D02*
X0054017Y0125914D01*
X0053419Y0125316D02*
X0052601Y0125316D01*
X0052187Y0126513D02*
X0054616Y0126513D01*
X0055214Y0127111D02*
X0053617Y0127111D01*
X0049813Y0126513D02*
X0043207Y0126513D01*
X0044154Y0127111D02*
X0048383Y0127111D01*
X0047785Y0127710D02*
X0044781Y0127710D01*
X0045225Y0128308D02*
X0047186Y0128308D01*
X0046888Y0128907D02*
X0045545Y0128907D01*
X0045772Y0129505D02*
X0046640Y0129505D01*
X0046400Y0130104D02*
X0045920Y0130104D01*
X0046400Y0130702D02*
X0041300Y0130702D01*
X0041300Y0131300D02*
X0046000Y0131300D01*
X0046000Y0131394D01*
X0045877Y0132171D01*
X0045634Y0132919D01*
X0045276Y0133621D01*
X0044814Y0134257D01*
X0044257Y0134814D01*
X0043621Y0135276D01*
X0042919Y0135634D01*
X0042171Y0135877D01*
X0041394Y0136000D01*
X0041300Y0136000D01*
X0041300Y0131300D01*
X0041300Y0131301D02*
X0040700Y0131301D01*
X0040700Y0131899D02*
X0041300Y0131899D01*
X0041300Y0132498D02*
X0040700Y0132498D01*
X0040700Y0133096D02*
X0041300Y0133096D01*
X0041300Y0133695D02*
X0040700Y0133695D01*
X0040700Y0134293D02*
X0041300Y0134293D01*
X0041300Y0134892D02*
X0040700Y0134892D01*
X0040700Y0135490D02*
X0041300Y0135490D01*
X0043201Y0135490D02*
X0049820Y0135490D01*
X0048386Y0134892D02*
X0044150Y0134892D01*
X0044778Y0134293D02*
X0047788Y0134293D01*
X0047189Y0133695D02*
X0045222Y0133695D01*
X0045544Y0133096D02*
X0046889Y0133096D01*
X0046641Y0132498D02*
X0045771Y0132498D01*
X0045920Y0131899D02*
X0046400Y0131899D01*
X0046400Y0131301D02*
X0046000Y0131301D01*
X0052180Y0135490D02*
X0056393Y0135490D01*
X0055795Y0134892D02*
X0053614Y0134892D01*
X0054212Y0134293D02*
X0055196Y0134293D01*
X0056992Y0136089D02*
X0027200Y0136089D01*
X0027200Y0135490D02*
X0038799Y0135490D01*
X0037850Y0134892D02*
X0027200Y0134892D01*
X0027200Y0134293D02*
X0037222Y0134293D01*
X0036778Y0133695D02*
X0027200Y0133695D01*
X0027200Y0133096D02*
X0036456Y0133096D01*
X0036229Y0132498D02*
X0027200Y0132498D01*
X0027200Y0131899D02*
X0036080Y0131899D01*
X0036000Y0131301D02*
X0027200Y0131301D01*
X0026000Y0129200D02*
X0026000Y0135800D01*
X0021200Y0140600D01*
X0021000Y0141000D01*
X0025184Y0139081D02*
X0059984Y0139081D01*
X0059386Y0138483D02*
X0025014Y0138483D01*
X0025613Y0137884D02*
X0058787Y0137884D01*
X0058189Y0137286D02*
X0026211Y0137286D01*
X0026810Y0136687D02*
X0057590Y0136687D01*
X0059350Y0139680D02*
X0025432Y0139680D01*
X0025600Y0140278D02*
X0058752Y0140278D01*
X0058700Y0140877D02*
X0025600Y0140877D01*
X0025600Y0141475D02*
X0058700Y0141475D01*
X0058229Y0142074D02*
X0025534Y0142074D01*
X0025286Y0142672D02*
X0057630Y0142672D01*
X0057032Y0143271D02*
X0025038Y0143271D01*
X0024636Y0143870D02*
X0056433Y0143870D01*
X0055835Y0144468D02*
X0024037Y0144468D01*
X0023764Y0145067D02*
X0055236Y0145067D01*
X0054638Y0145665D02*
X0024362Y0145665D01*
X0027953Y0149256D02*
X0036309Y0149256D01*
X0036119Y0149855D02*
X0028552Y0149855D01*
X0029150Y0150453D02*
X0036024Y0150453D01*
X0035734Y0157037D02*
X0077940Y0157037D01*
X0078538Y0157635D02*
X0036332Y0157635D01*
X0036931Y0158234D02*
X0079137Y0158234D01*
X0079735Y0158832D02*
X0037529Y0158832D01*
X0038128Y0159431D02*
X0080334Y0159431D01*
X0081932Y0157635D02*
X0103400Y0157635D01*
X0103400Y0157037D02*
X0081334Y0157037D01*
X0080735Y0156438D02*
X0103400Y0156438D01*
X0103400Y0155840D02*
X0080137Y0155840D01*
X0079538Y0155241D02*
X0103400Y0155241D01*
X0103400Y0154643D02*
X0078940Y0154643D01*
X0078341Y0154044D02*
X0103400Y0154044D01*
X0103400Y0153446D02*
X0077743Y0153446D01*
X0077144Y0152847D02*
X0103400Y0152847D01*
X0103400Y0152249D02*
X0076546Y0152249D01*
X0075947Y0151650D02*
X0103400Y0151650D01*
X0103400Y0151052D02*
X0075349Y0151052D01*
X0073750Y0152847D02*
X0071323Y0152847D01*
X0071900Y0152249D02*
X0073152Y0152249D01*
X0072553Y0151650D02*
X0071900Y0151650D01*
X0071900Y0151052D02*
X0071955Y0151052D01*
X0069800Y0151400D02*
X0060200Y0141800D01*
X0060800Y0141200D01*
X0060200Y0141800D02*
X0051000Y0151000D01*
X0052781Y0155241D02*
X0076144Y0155241D01*
X0075546Y0154643D02*
X0053863Y0154643D01*
X0054461Y0154044D02*
X0074947Y0154044D01*
X0074349Y0153446D02*
X0070724Y0153446D01*
X0068876Y0153446D02*
X0054966Y0153446D01*
X0055214Y0152847D02*
X0068277Y0152847D01*
X0067700Y0152249D02*
X0055462Y0152249D01*
X0055600Y0151650D02*
X0067700Y0151650D01*
X0067700Y0151052D02*
X0055600Y0151052D01*
X0055600Y0150453D02*
X0067156Y0150453D01*
X0066558Y0149855D02*
X0055505Y0149855D01*
X0055257Y0149256D02*
X0065959Y0149256D01*
X0065361Y0148658D02*
X0055039Y0148658D01*
X0055638Y0148059D02*
X0064762Y0148059D01*
X0064164Y0147461D02*
X0056236Y0147461D01*
X0056835Y0146862D02*
X0063565Y0146862D01*
X0062967Y0146264D02*
X0057433Y0146264D01*
X0058032Y0145665D02*
X0062368Y0145665D01*
X0061769Y0145067D02*
X0058630Y0145067D01*
X0059229Y0144468D02*
X0061171Y0144468D01*
X0060572Y0143870D02*
X0059828Y0143870D01*
X0054039Y0146264D02*
X0042603Y0146264D01*
X0043811Y0146862D02*
X0048969Y0146862D01*
X0048034Y0147461D02*
X0044532Y0147461D01*
X0045044Y0148059D02*
X0047436Y0148059D01*
X0046991Y0148658D02*
X0045418Y0148658D01*
X0045691Y0149256D02*
X0046743Y0149256D01*
X0046495Y0149855D02*
X0045881Y0149855D01*
X0045976Y0150453D02*
X0046400Y0150453D01*
X0053031Y0146862D02*
X0053441Y0146862D01*
X0038726Y0160029D02*
X0070201Y0160029D01*
X0079400Y0149600D02*
X0090800Y0149600D01*
X0103400Y0137000D01*
X0103400Y0135800D01*
X0102200Y0134600D01*
X0102200Y0132200D01*
X0101000Y0136400D02*
X0088400Y0136400D01*
X0086600Y0138200D01*
X0085400Y0138200D01*
X0082400Y0135200D01*
X0082400Y0111800D01*
X0065600Y0095000D01*
X0057200Y0095000D01*
X0057200Y0084200D02*
X0087800Y0114800D01*
X0090200Y0115400D02*
X0090200Y0113000D01*
X0072200Y0095000D01*
X0074295Y0092398D02*
X0081800Y0092398D01*
X0081800Y0092996D02*
X0074893Y0092996D01*
X0075492Y0093595D02*
X0081800Y0093595D01*
X0081800Y0094193D02*
X0076090Y0094193D01*
X0076689Y0094792D02*
X0081800Y0094792D01*
X0081800Y0095390D02*
X0077287Y0095390D01*
X0077886Y0095989D02*
X0081800Y0095989D01*
X0081800Y0096587D02*
X0078484Y0096587D01*
X0079083Y0097186D02*
X0081800Y0097186D01*
X0081800Y0097784D02*
X0079681Y0097784D01*
X0080280Y0098383D02*
X0081447Y0098383D01*
X0081800Y0098030D02*
X0081800Y0088503D01*
X0107299Y0063004D01*
X0106754Y0061687D01*
X0106754Y0059998D01*
X0106968Y0059479D02*
X0038600Y0059479D01*
X0038600Y0058881D02*
X0107216Y0058881D01*
X0107555Y0058282D02*
X0038600Y0058282D01*
X0038600Y0057684D02*
X0108153Y0057684D01*
X0106754Y0060676D02*
X0072565Y0060676D01*
X0072869Y0060802D02*
X0073798Y0061731D01*
X0074300Y0062944D01*
X0074300Y0069056D01*
X0101247Y0069056D01*
X0100649Y0069654D02*
X0074052Y0069654D01*
X0074300Y0069056D02*
X0073798Y0070269D01*
X0072869Y0071198D01*
X0071656Y0071700D01*
X0070344Y0071700D01*
X0069131Y0071198D01*
X0068202Y0070269D01*
X0067700Y0069056D01*
X0064300Y0069056D01*
X0063798Y0070269D01*
X0062869Y0071198D01*
X0061656Y0071700D01*
X0060344Y0071700D01*
X0059131Y0071198D01*
X0058202Y0070269D01*
X0057700Y0069056D01*
X0054300Y0069056D01*
X0053798Y0070269D01*
X0052982Y0071085D01*
X0080900Y0099003D01*
X0080900Y0098930D01*
X0081800Y0098030D01*
X0080900Y0098981D02*
X0080878Y0098981D01*
X0083000Y0099800D02*
X0083000Y0089000D01*
X0110600Y0061400D01*
X0111000Y0060843D01*
X0107079Y0062472D02*
X0074105Y0062472D01*
X0074300Y0063070D02*
X0107232Y0063070D01*
X0106634Y0063669D02*
X0074300Y0063669D01*
X0074300Y0064268D02*
X0106035Y0064268D01*
X0105437Y0064866D02*
X0074300Y0064866D01*
X0074300Y0065465D02*
X0104838Y0065465D01*
X0104240Y0066063D02*
X0074300Y0066063D01*
X0074300Y0066662D02*
X0103641Y0066662D01*
X0103043Y0067260D02*
X0074300Y0067260D01*
X0074300Y0067859D02*
X0102444Y0067859D01*
X0101846Y0068457D02*
X0074300Y0068457D01*
X0073805Y0070253D02*
X0100050Y0070253D01*
X0099452Y0070851D02*
X0073216Y0070851D01*
X0072261Y0071450D02*
X0098853Y0071450D01*
X0098255Y0072048D02*
X0053945Y0072048D01*
X0053347Y0071450D02*
X0059739Y0071450D01*
X0058784Y0070851D02*
X0053216Y0070851D01*
X0053805Y0070253D02*
X0058195Y0070253D01*
X0057948Y0069654D02*
X0054052Y0069654D01*
X0054300Y0069056D02*
X0054300Y0062944D01*
X0053798Y0061731D01*
X0052869Y0060802D01*
X0051656Y0060300D01*
X0050344Y0060300D01*
X0049131Y0060802D01*
X0048202Y0061731D01*
X0047700Y0062944D01*
X0047700Y0069056D01*
X0047948Y0069654D02*
X0044485Y0069654D01*
X0044212Y0070253D02*
X0048195Y0070253D01*
X0048784Y0070851D02*
X0043781Y0070851D01*
X0043096Y0071450D02*
X0049739Y0071450D01*
X0050551Y0072048D02*
X0041625Y0072048D01*
X0041300Y0072048D02*
X0040700Y0072048D01*
X0040375Y0072048D02*
X0038600Y0072048D01*
X0038600Y0071450D02*
X0038904Y0071450D01*
X0038600Y0072647D02*
X0051150Y0072647D01*
X0051748Y0073245D02*
X0038600Y0073245D01*
X0038600Y0073844D02*
X0052347Y0073844D01*
X0052945Y0074442D02*
X0038600Y0074442D01*
X0038600Y0075041D02*
X0053544Y0075041D01*
X0053791Y0075639D02*
X0038600Y0075639D01*
X0038600Y0076238D02*
X0053192Y0076238D01*
X0052700Y0076836D02*
X0038600Y0076836D01*
X0040700Y0071450D02*
X0041300Y0071450D01*
X0041300Y0070851D02*
X0040700Y0070851D01*
X0040700Y0070253D02*
X0041300Y0070253D01*
X0041300Y0069654D02*
X0040700Y0069654D01*
X0040700Y0069056D02*
X0041300Y0069056D01*
X0041300Y0068457D02*
X0040700Y0068457D01*
X0040700Y0067859D02*
X0041300Y0067859D01*
X0041300Y0067260D02*
X0040700Y0067260D01*
X0040700Y0066662D02*
X0041300Y0066662D01*
X0044700Y0064866D02*
X0047700Y0064866D01*
X0047700Y0064268D02*
X0044700Y0064268D01*
X0044700Y0063669D02*
X0047700Y0063669D01*
X0047700Y0063070D02*
X0044667Y0063070D01*
X0044538Y0062472D02*
X0047895Y0062472D01*
X0048143Y0061873D02*
X0044290Y0061873D01*
X0043896Y0061275D02*
X0048658Y0061275D01*
X0049435Y0060676D02*
X0043284Y0060676D01*
X0039834Y0060078D02*
X0038600Y0060078D01*
X0038600Y0060676D02*
X0038716Y0060676D01*
X0036200Y0057085D02*
X0023570Y0057085D01*
X0022125Y0056487D02*
X0036200Y0056487D01*
X0036200Y0055888D02*
X0011000Y0055888D01*
X0011000Y0066063D02*
X0024166Y0066063D01*
X0023567Y0065465D02*
X0022242Y0065465D01*
X0022546Y0066662D02*
X0024765Y0066662D01*
X0024800Y0067260D02*
X0023765Y0067260D01*
X0024364Y0067859D02*
X0024800Y0067859D01*
X0026000Y0076400D02*
X0038600Y0089000D01*
X0038600Y0101000D01*
X0037050Y0099580D02*
X0025391Y0099580D01*
X0025600Y0100178D02*
X0036500Y0100178D01*
X0036500Y0100777D02*
X0025600Y0100777D01*
X0025600Y0101375D02*
X0036500Y0101375D01*
X0036604Y0101974D02*
X0025576Y0101974D01*
X0025328Y0102572D02*
X0037202Y0102572D01*
X0039800Y0103171D02*
X0025080Y0103171D01*
X0024736Y0103769D02*
X0039800Y0103769D01*
X0039800Y0104368D02*
X0024138Y0104368D01*
X0023445Y0104966D02*
X0039800Y0104966D01*
X0041000Y0111000D02*
X0041000Y0089600D01*
X0037400Y0086000D01*
X0035512Y0087609D02*
X0024115Y0087609D01*
X0024713Y0088208D02*
X0036111Y0088208D01*
X0036709Y0088806D02*
X0025070Y0088806D01*
X0025318Y0089405D02*
X0037308Y0089405D01*
X0037400Y0090003D02*
X0025566Y0090003D01*
X0025600Y0090602D02*
X0037400Y0090602D01*
X0037400Y0091201D02*
X0025600Y0091201D01*
X0025600Y0091799D02*
X0037400Y0091799D01*
X0037400Y0092398D02*
X0025400Y0092398D01*
X0025152Y0092996D02*
X0037400Y0092996D01*
X0037400Y0093595D02*
X0024904Y0093595D01*
X0024312Y0094193D02*
X0037400Y0094193D01*
X0037400Y0094792D02*
X0023714Y0094792D01*
X0022422Y0095390D02*
X0037400Y0095390D01*
X0037400Y0095989D02*
X0011000Y0095989D01*
X0011000Y0096587D02*
X0019633Y0096587D01*
X0019578Y0095390D02*
X0011000Y0095390D01*
X0011000Y0094792D02*
X0018286Y0094792D01*
X0017688Y0094193D02*
X0011000Y0094193D01*
X0011000Y0093595D02*
X0017096Y0093595D01*
X0016848Y0092996D02*
X0011000Y0092996D01*
X0011000Y0092398D02*
X0016600Y0092398D01*
X0016400Y0091799D02*
X0011000Y0091799D01*
X0011000Y0091201D02*
X0016400Y0091201D01*
X0016400Y0090602D02*
X0011000Y0090602D01*
X0011000Y0090003D02*
X0016434Y0090003D01*
X0016682Y0089405D02*
X0011000Y0089405D01*
X0011000Y0088806D02*
X0016930Y0088806D01*
X0017287Y0088208D02*
X0011000Y0088208D01*
X0011000Y0087609D02*
X0017885Y0087609D01*
X0018610Y0087011D02*
X0011000Y0087011D01*
X0011000Y0097186D02*
X0018309Y0097186D01*
X0017710Y0097784D02*
X0011000Y0097784D01*
X0011000Y0098383D02*
X0017112Y0098383D01*
X0016857Y0098981D02*
X0011000Y0098981D01*
X0011000Y0099580D02*
X0016609Y0099580D01*
X0016400Y0100178D02*
X0011000Y0100178D01*
X0011000Y0100777D02*
X0016400Y0100777D01*
X0016400Y0101375D02*
X0011000Y0101375D01*
X0011000Y0101974D02*
X0016424Y0101974D01*
X0016672Y0102572D02*
X0011000Y0102572D01*
X0011000Y0103171D02*
X0016920Y0103171D01*
X0017264Y0103769D02*
X0011000Y0103769D01*
X0011000Y0104368D02*
X0017862Y0104368D01*
X0018555Y0104966D02*
X0011000Y0104966D01*
X0011000Y0116338D02*
X0037165Y0116338D01*
X0036566Y0116937D02*
X0023210Y0116937D01*
X0024040Y0117535D02*
X0035968Y0117535D01*
X0035369Y0118134D02*
X0024639Y0118134D01*
X0025040Y0118732D02*
X0034771Y0118732D01*
X0034172Y0119331D02*
X0025287Y0119331D01*
X0025535Y0119929D02*
X0033574Y0119929D01*
X0032975Y0120528D02*
X0025600Y0120528D01*
X0025600Y0121126D02*
X0032377Y0121126D01*
X0031778Y0121725D02*
X0025600Y0121725D01*
X0025431Y0122323D02*
X0031180Y0122323D01*
X0030581Y0122922D02*
X0025183Y0122922D01*
X0024935Y0123520D02*
X0029983Y0123520D01*
X0029384Y0124119D02*
X0024387Y0124119D01*
X0023788Y0124717D02*
X0028786Y0124717D01*
X0028187Y0125316D02*
X0022601Y0125316D01*
X0022187Y0126513D02*
X0026990Y0126513D01*
X0026392Y0127111D02*
X0023617Y0127111D01*
X0024215Y0127710D02*
X0025793Y0127710D01*
X0025503Y0128000D02*
X0025503Y0128000D01*
X0025195Y0128308D02*
X0024814Y0128308D01*
X0026000Y0129200D02*
X0041000Y0114200D01*
X0041000Y0111000D01*
X0036400Y0120528D02*
X0036369Y0120528D01*
X0036400Y0121126D02*
X0035771Y0121126D01*
X0035172Y0121725D02*
X0036400Y0121725D01*
X0036569Y0122323D02*
X0034574Y0122323D01*
X0033975Y0122922D02*
X0036817Y0122922D01*
X0037065Y0123520D02*
X0033377Y0123520D01*
X0032778Y0124119D02*
X0037613Y0124119D01*
X0038212Y0124717D02*
X0032180Y0124717D01*
X0027589Y0125914D02*
X0017783Y0125914D01*
X0017600Y0126513D02*
X0019813Y0126513D01*
X0019399Y0125316D02*
X0018381Y0125316D01*
X0018383Y0127111D02*
X0017600Y0127111D01*
X0017600Y0127710D02*
X0017785Y0127710D01*
X0025143Y0098981D02*
X0037400Y0098981D01*
X0037400Y0098383D02*
X0024888Y0098383D01*
X0024290Y0097784D02*
X0037400Y0097784D01*
X0037400Y0097186D02*
X0023691Y0097186D01*
X0022367Y0096587D02*
X0037400Y0096587D01*
X0034914Y0087011D02*
X0023390Y0087011D01*
X0051200Y0071000D02*
X0051200Y0066200D01*
X0051000Y0066000D01*
X0054300Y0066063D02*
X0057700Y0066063D01*
X0057700Y0065465D02*
X0054300Y0065465D01*
X0054300Y0064866D02*
X0057700Y0064866D01*
X0057700Y0064268D02*
X0054300Y0064268D01*
X0054300Y0063669D02*
X0057700Y0063669D01*
X0057700Y0063070D02*
X0054300Y0063070D01*
X0054105Y0062472D02*
X0057895Y0062472D01*
X0057700Y0062944D02*
X0058202Y0061731D01*
X0059131Y0060802D01*
X0060344Y0060300D01*
X0061656Y0060300D01*
X0062869Y0060802D01*
X0063798Y0061731D01*
X0064300Y0062944D01*
X0064300Y0069056D01*
X0064300Y0068457D02*
X0067700Y0068457D01*
X0067700Y0067859D02*
X0064300Y0067859D01*
X0064300Y0067260D02*
X0067700Y0067260D01*
X0067700Y0066662D02*
X0064300Y0066662D01*
X0064300Y0066063D02*
X0067700Y0066063D01*
X0067700Y0065465D02*
X0064300Y0065465D01*
X0064300Y0064866D02*
X0067700Y0064866D01*
X0067700Y0064268D02*
X0064300Y0064268D01*
X0064300Y0063669D02*
X0067700Y0063669D01*
X0067700Y0063070D02*
X0064300Y0063070D01*
X0064105Y0062472D02*
X0067895Y0062472D01*
X0067700Y0062944D02*
X0068202Y0061731D01*
X0069131Y0060802D01*
X0070344Y0060300D01*
X0071656Y0060300D01*
X0072869Y0060802D01*
X0073342Y0061275D02*
X0106754Y0061275D01*
X0106831Y0061873D02*
X0073857Y0061873D01*
X0069435Y0060676D02*
X0062565Y0060676D01*
X0063342Y0061275D02*
X0068658Y0061275D01*
X0068143Y0061873D02*
X0063857Y0061873D01*
X0067700Y0062944D02*
X0067700Y0069056D01*
X0067948Y0069654D02*
X0064052Y0069654D01*
X0063805Y0070253D02*
X0068195Y0070253D01*
X0068784Y0070851D02*
X0063216Y0070851D01*
X0062261Y0071450D02*
X0069739Y0071450D01*
X0061726Y0079829D02*
X0090474Y0079829D01*
X0089876Y0080427D02*
X0062324Y0080427D01*
X0062923Y0081026D02*
X0089277Y0081026D01*
X0088679Y0081624D02*
X0063521Y0081624D01*
X0064120Y0082223D02*
X0088080Y0082223D01*
X0087482Y0082821D02*
X0064718Y0082821D01*
X0065317Y0083420D02*
X0086883Y0083420D01*
X0086285Y0084018D02*
X0065915Y0084018D01*
X0066514Y0084617D02*
X0085686Y0084617D01*
X0085088Y0085215D02*
X0067112Y0085215D01*
X0067711Y0085814D02*
X0084489Y0085814D01*
X0083891Y0086412D02*
X0068309Y0086412D01*
X0068908Y0087011D02*
X0083292Y0087011D01*
X0082693Y0087609D02*
X0069506Y0087609D01*
X0070105Y0088208D02*
X0082095Y0088208D01*
X0081800Y0088806D02*
X0070704Y0088806D01*
X0071302Y0089405D02*
X0081800Y0089405D01*
X0081800Y0090003D02*
X0071901Y0090003D01*
X0072499Y0090602D02*
X0081800Y0090602D01*
X0081800Y0091201D02*
X0073098Y0091201D01*
X0073696Y0091799D02*
X0081800Y0091799D01*
X0091073Y0079230D02*
X0061127Y0079230D01*
X0060529Y0078632D02*
X0091671Y0078632D01*
X0092270Y0078033D02*
X0059930Y0078033D01*
X0059332Y0077435D02*
X0092868Y0077435D01*
X0093467Y0076836D02*
X0058733Y0076836D01*
X0058135Y0076238D02*
X0094065Y0076238D01*
X0094664Y0075639D02*
X0057536Y0075639D01*
X0056938Y0075041D02*
X0095262Y0075041D01*
X0095861Y0074442D02*
X0056339Y0074442D01*
X0055741Y0073844D02*
X0096459Y0073844D01*
X0097058Y0073245D02*
X0055142Y0073245D01*
X0054544Y0072647D02*
X0097656Y0072647D01*
X0103717Y0083420D02*
X0126200Y0083420D01*
X0126200Y0084018D02*
X0104315Y0084018D01*
X0104914Y0084617D02*
X0126200Y0084617D01*
X0126200Y0085215D02*
X0105512Y0085215D01*
X0106111Y0085814D02*
X0126200Y0085814D01*
X0126200Y0086412D02*
X0106709Y0086412D01*
X0107308Y0087011D02*
X0126200Y0087011D01*
X0126200Y0087609D02*
X0107906Y0087609D01*
X0108505Y0088208D02*
X0126200Y0088208D01*
X0126200Y0088806D02*
X0109104Y0088806D01*
X0109702Y0089405D02*
X0126200Y0089405D01*
X0126200Y0090003D02*
X0110301Y0090003D01*
X0110899Y0090602D02*
X0126200Y0090602D01*
X0126200Y0091201D02*
X0111498Y0091201D01*
X0112096Y0091799D02*
X0126200Y0091799D01*
X0126200Y0092398D02*
X0112695Y0092398D01*
X0113293Y0092996D02*
X0126200Y0092996D01*
X0126200Y0093595D02*
X0113892Y0093595D01*
X0114490Y0094193D02*
X0126200Y0094193D01*
X0126200Y0094792D02*
X0115089Y0094792D01*
X0115687Y0095390D02*
X0126200Y0095390D01*
X0126200Y0095989D02*
X0116286Y0095989D01*
X0116884Y0096587D02*
X0126200Y0096587D01*
X0126200Y0097186D02*
X0117483Y0097186D01*
X0118081Y0097784D02*
X0126200Y0097784D01*
X0126200Y0098383D02*
X0118680Y0098383D01*
X0119278Y0098981D02*
X0126200Y0098981D01*
X0126200Y0099580D02*
X0119877Y0099580D01*
X0120475Y0100178D02*
X0126200Y0100178D01*
X0126200Y0100777D02*
X0121074Y0100777D01*
X0121672Y0101375D02*
X0126200Y0101375D01*
X0126200Y0101974D02*
X0122271Y0101974D01*
X0122869Y0102572D02*
X0126200Y0102572D01*
X0126200Y0103171D02*
X0123468Y0103171D01*
X0124066Y0103769D02*
X0126200Y0103769D01*
X0125862Y0104368D02*
X0124665Y0104368D01*
X0125263Y0104966D02*
X0125300Y0104966D01*
X0132200Y0109754D02*
X0151185Y0109754D01*
X0152600Y0108200D02*
X0144200Y0099800D01*
X0144200Y0027800D01*
X0141340Y0025963D02*
X0139334Y0025963D01*
X0138736Y0026561D02*
X0140742Y0026561D01*
X0140143Y0027160D02*
X0138137Y0027160D01*
X0137539Y0027758D02*
X0139545Y0027758D01*
X0138946Y0028357D02*
X0136940Y0028357D01*
X0136342Y0028955D02*
X0138348Y0028955D01*
X0137749Y0029554D02*
X0135743Y0029554D01*
X0135145Y0030152D02*
X0137600Y0030152D01*
X0137600Y0030751D02*
X0134546Y0030751D01*
X0133948Y0031349D02*
X0137600Y0031349D01*
X0137600Y0031948D02*
X0133349Y0031948D01*
X0132751Y0032546D02*
X0137600Y0032546D01*
X0137600Y0033145D02*
X0132152Y0033145D01*
X0131554Y0033743D02*
X0137600Y0033743D01*
X0137600Y0034342D02*
X0130955Y0034342D01*
X0130357Y0034940D02*
X0137600Y0034940D01*
X0137600Y0035539D02*
X0129758Y0035539D01*
X0129200Y0034400D02*
X0080000Y0034400D01*
X0074600Y0029000D01*
X0057800Y0029000D01*
X0051200Y0035600D01*
X0051000Y0036000D01*
X0047600Y0035000D02*
X0047600Y0039800D01*
X0050000Y0042200D01*
X0049979Y0043918D02*
X0077021Y0043918D01*
X0076423Y0043320D02*
X0065577Y0043320D01*
X0066176Y0042721D02*
X0075824Y0042721D01*
X0075226Y0042123D02*
X0066774Y0042123D01*
X0067373Y0041524D02*
X0069919Y0041524D01*
X0068859Y0040926D02*
X0067971Y0040926D01*
X0072081Y0041524D02*
X0074627Y0041524D01*
X0074029Y0040926D02*
X0073141Y0040926D01*
X0077620Y0044517D02*
X0049380Y0044517D01*
X0048782Y0045115D02*
X0078218Y0045115D01*
X0078817Y0045714D02*
X0048183Y0045714D01*
X0047585Y0046312D02*
X0079415Y0046312D01*
X0080014Y0046911D02*
X0046986Y0046911D01*
X0046388Y0047509D02*
X0112939Y0047509D01*
X0120024Y0040327D02*
X0137600Y0040327D01*
X0137600Y0039729D02*
X0119426Y0039729D01*
X0118827Y0039130D02*
X0137600Y0039130D01*
X0137600Y0038532D02*
X0118229Y0038532D01*
X0117630Y0037933D02*
X0137600Y0037933D01*
X0137600Y0037334D02*
X0117032Y0037334D01*
X0116433Y0036736D02*
X0137600Y0036736D01*
X0137600Y0036137D02*
X0115835Y0036137D01*
X0113600Y0035600D02*
X0079400Y0035600D01*
X0074000Y0030200D01*
X0069200Y0030200D01*
X0063800Y0035600D01*
X0061400Y0035600D01*
X0061000Y0036000D01*
X0056000Y0026000D02*
X0051000Y0021000D01*
X0056000Y0026000D02*
X0073400Y0026000D01*
X0080600Y0033200D01*
X0125600Y0033200D01*
X0134000Y0024800D01*
X0135800Y0024800D01*
X0140600Y0023000D02*
X0129200Y0034400D01*
X0126200Y0026000D02*
X0121400Y0021200D01*
X0121000Y0021000D01*
X0120800Y0030800D02*
X0111000Y0021000D01*
X0120623Y0040926D02*
X0137600Y0040926D01*
X0137600Y0041524D02*
X0121221Y0041524D01*
X0121820Y0042123D02*
X0137600Y0042123D01*
X0137600Y0042721D02*
X0122418Y0042721D01*
X0123017Y0043320D02*
X0137600Y0043320D01*
X0137600Y0043918D02*
X0123615Y0043918D01*
X0124214Y0044517D02*
X0137600Y0044517D01*
X0137600Y0045115D02*
X0124812Y0045115D01*
X0138800Y0030200D02*
X0146000Y0023000D01*
X0146000Y0019400D01*
X0143000Y0016400D01*
X0085400Y0016400D01*
X0081200Y0020600D01*
X0081000Y0021000D01*
X0047600Y0035000D02*
X0041000Y0028400D01*
X0041000Y0021000D01*
X0036916Y0016387D02*
X0022959Y0016387D01*
X0022919Y0016366D02*
X0023621Y0016724D01*
X0024257Y0017186D01*
X0024814Y0017743D01*
X0025276Y0018379D01*
X0025634Y0019081D01*
X0025877Y0019829D01*
X0026000Y0020606D01*
X0026000Y0020700D01*
X0021300Y0020700D01*
X0021300Y0021300D01*
X0026000Y0021300D01*
X0026000Y0021394D01*
X0025877Y0022171D01*
X0025634Y0022919D01*
X0025276Y0023621D01*
X0024814Y0024257D01*
X0024257Y0024814D01*
X0023621Y0025276D01*
X0022919Y0025634D01*
X0022171Y0025877D01*
X0021394Y0026000D01*
X0022171Y0026123D01*
X0022919Y0026366D01*
X0023621Y0026724D01*
X0024257Y0027186D01*
X0024814Y0027743D01*
X0025276Y0028379D01*
X0025634Y0029081D01*
X0025877Y0029829D01*
X0026000Y0030606D01*
X0026000Y0030700D01*
X0021300Y0030700D01*
X0021300Y0031300D01*
X0026000Y0031300D01*
X0026000Y0031394D01*
X0025877Y0032171D01*
X0025634Y0032919D01*
X0025276Y0033621D01*
X0024814Y0034257D01*
X0024257Y0034814D01*
X0023621Y0035276D01*
X0022919Y0035634D01*
X0022171Y0035877D01*
X0021394Y0036000D01*
X0021300Y0036000D01*
X0021300Y0031300D01*
X0020700Y0031300D01*
X0020700Y0030700D01*
X0021300Y0030700D01*
X0021300Y0026000D01*
X0021394Y0026000D01*
X0021300Y0026000D01*
X0021300Y0021300D01*
X0020700Y0021300D01*
X0020700Y0026000D01*
X0020700Y0030700D01*
X0016000Y0030700D01*
X0016000Y0030606D01*
X0016123Y0029829D01*
X0016366Y0029081D01*
X0016724Y0028379D01*
X0017186Y0027743D01*
X0017743Y0027186D01*
X0018379Y0026724D01*
X0019081Y0026366D01*
X0019829Y0026123D01*
X0020606Y0026000D01*
X0020700Y0026000D01*
X0020606Y0026000D01*
X0019829Y0025877D01*
X0019081Y0025634D01*
X0018379Y0025276D01*
X0017743Y0024814D01*
X0017186Y0024257D01*
X0016724Y0023621D01*
X0016366Y0022919D01*
X0016123Y0022171D01*
X0016000Y0021394D01*
X0016000Y0021300D01*
X0020700Y0021300D01*
X0020700Y0020700D01*
X0021300Y0020700D01*
X0021300Y0016000D01*
X0021394Y0016000D01*
X0022171Y0016123D01*
X0022919Y0016366D01*
X0023980Y0016985D02*
X0028672Y0016985D01*
X0027911Y0017584D02*
X0024655Y0017584D01*
X0025133Y0018182D02*
X0027312Y0018182D01*
X0026940Y0018781D02*
X0025481Y0018781D01*
X0025731Y0019379D02*
X0026692Y0019379D01*
X0026444Y0019978D02*
X0025900Y0019978D01*
X0025995Y0020576D02*
X0026400Y0020576D01*
X0026400Y0021175D02*
X0021300Y0021175D01*
X0021300Y0021773D02*
X0020700Y0021773D01*
X0020700Y0021175D02*
X0011000Y0021175D01*
X0011000Y0021773D02*
X0016060Y0021773D01*
X0016188Y0022372D02*
X0011000Y0022372D01*
X0011000Y0022970D02*
X0016392Y0022970D01*
X0016697Y0023569D02*
X0011000Y0023569D01*
X0011000Y0024167D02*
X0017121Y0024167D01*
X0017695Y0024766D02*
X0011000Y0024766D01*
X0011000Y0025364D02*
X0018552Y0025364D01*
X0018698Y0026561D02*
X0011000Y0026561D01*
X0011000Y0025963D02*
X0020372Y0025963D01*
X0020700Y0025963D02*
X0021300Y0025963D01*
X0021628Y0025963D02*
X0035000Y0025963D01*
X0035000Y0026561D02*
X0023302Y0026561D01*
X0024221Y0027160D02*
X0035000Y0027160D01*
X0035000Y0027758D02*
X0024825Y0027758D01*
X0025260Y0028357D02*
X0035000Y0028357D01*
X0035000Y0028955D02*
X0025570Y0028955D01*
X0025787Y0029554D02*
X0035000Y0029554D01*
X0035000Y0030152D02*
X0025928Y0030152D01*
X0026000Y0031349D02*
X0035052Y0031349D01*
X0035000Y0030751D02*
X0021300Y0030751D01*
X0021300Y0031349D02*
X0020700Y0031349D01*
X0020700Y0030751D02*
X0011000Y0030751D01*
X0011000Y0031349D02*
X0016000Y0031349D01*
X0016088Y0031948D02*
X0011000Y0031948D01*
X0011000Y0032546D02*
X0016245Y0032546D01*
X0016481Y0033145D02*
X0011000Y0033145D01*
X0011000Y0033743D02*
X0016813Y0033743D01*
X0017271Y0034342D02*
X0011000Y0034342D01*
X0011000Y0034940D02*
X0017917Y0034940D01*
X0020700Y0034940D02*
X0021300Y0034940D01*
X0021300Y0034342D02*
X0020700Y0034342D01*
X0020700Y0033743D02*
X0021300Y0033743D01*
X0021300Y0033145D02*
X0020700Y0033145D01*
X0020700Y0032546D02*
X0021300Y0032546D01*
X0021300Y0031948D02*
X0020700Y0031948D01*
X0020700Y0030152D02*
X0021300Y0030152D01*
X0021300Y0029554D02*
X0020700Y0029554D01*
X0020700Y0028955D02*
X0021300Y0028955D01*
X0021300Y0028357D02*
X0020700Y0028357D01*
X0020700Y0027758D02*
X0021300Y0027758D01*
X0021300Y0027160D02*
X0020700Y0027160D01*
X0020700Y0026561D02*
X0021300Y0026561D01*
X0021300Y0025364D02*
X0020700Y0025364D01*
X0020700Y0024766D02*
X0021300Y0024766D01*
X0021300Y0024167D02*
X0020700Y0024167D01*
X0020700Y0023569D02*
X0021300Y0023569D01*
X0021300Y0022970D02*
X0020700Y0022970D01*
X0020700Y0022372D02*
X0021300Y0022372D01*
X0020700Y0020700D02*
X0016000Y0020700D01*
X0016000Y0020606D01*
X0016123Y0019829D01*
X0016366Y0019081D01*
X0016724Y0018379D01*
X0017186Y0017743D01*
X0017743Y0017186D01*
X0018379Y0016724D01*
X0019081Y0016366D01*
X0019829Y0016123D01*
X0020606Y0016000D01*
X0020700Y0016000D01*
X0020700Y0020700D01*
X0020700Y0020576D02*
X0021300Y0020576D01*
X0021300Y0019978D02*
X0020700Y0019978D01*
X0020700Y0019379D02*
X0021300Y0019379D01*
X0021300Y0018781D02*
X0020700Y0018781D01*
X0020700Y0018182D02*
X0021300Y0018182D01*
X0021300Y0017584D02*
X0020700Y0017584D01*
X0020700Y0016985D02*
X0021300Y0016985D01*
X0021300Y0016387D02*
X0020700Y0016387D01*
X0019041Y0016387D02*
X0011000Y0016387D01*
X0011000Y0016985D02*
X0018019Y0016985D01*
X0017345Y0017584D02*
X0011000Y0017584D01*
X0011000Y0018182D02*
X0016867Y0018182D01*
X0016519Y0018781D02*
X0011000Y0018781D01*
X0011000Y0019379D02*
X0016269Y0019379D01*
X0016100Y0019978D02*
X0011000Y0019978D01*
X0011000Y0020576D02*
X0016005Y0020576D01*
X0011000Y0015788D02*
X0037515Y0015788D01*
X0038113Y0015190D02*
X0011000Y0015190D01*
X0011000Y0014591D02*
X0038712Y0014591D01*
X0036318Y0016985D02*
X0033328Y0016985D01*
X0034089Y0017584D02*
X0035719Y0017584D01*
X0035121Y0018182D02*
X0034688Y0018182D01*
X0034915Y0023569D02*
X0035000Y0023569D01*
X0035000Y0024167D02*
X0034338Y0024167D01*
X0033740Y0024766D02*
X0035000Y0024766D01*
X0035000Y0025364D02*
X0032484Y0025364D01*
X0029516Y0025364D02*
X0023448Y0025364D01*
X0024305Y0024766D02*
X0028260Y0024766D01*
X0027662Y0024167D02*
X0024879Y0024167D01*
X0025303Y0023569D02*
X0027085Y0023569D01*
X0026837Y0022970D02*
X0025608Y0022970D01*
X0025812Y0022372D02*
X0026589Y0022372D01*
X0026400Y0021773D02*
X0025940Y0021773D01*
X0017779Y0027160D02*
X0011000Y0027160D01*
X0011000Y0027758D02*
X0017175Y0027758D01*
X0016740Y0028357D02*
X0011000Y0028357D01*
X0011000Y0028955D02*
X0016430Y0028955D01*
X0016213Y0029554D02*
X0011000Y0029554D01*
X0011000Y0030152D02*
X0016072Y0030152D01*
X0020700Y0035539D02*
X0021300Y0035539D01*
X0023105Y0035539D02*
X0037700Y0035539D01*
X0037700Y0034940D02*
X0024083Y0034940D01*
X0024729Y0034342D02*
X0037700Y0034342D01*
X0037446Y0033743D02*
X0025187Y0033743D01*
X0025519Y0033145D02*
X0036848Y0033145D01*
X0036249Y0032546D02*
X0025755Y0032546D01*
X0025912Y0031948D02*
X0035651Y0031948D01*
X0025266Y0042721D02*
X0047782Y0042721D01*
X0047183Y0043320D02*
X0025018Y0043320D01*
X0024587Y0043918D02*
X0046585Y0043918D01*
X0045986Y0044517D02*
X0023989Y0044517D01*
X0023086Y0045115D02*
X0045388Y0045115D01*
X0043592Y0046911D02*
X0023148Y0046911D01*
X0024015Y0047509D02*
X0042994Y0047509D01*
X0042395Y0048108D02*
X0024613Y0048108D01*
X0025029Y0048706D02*
X0041797Y0048706D01*
X0041198Y0049305D02*
X0025277Y0049305D01*
X0025525Y0049903D02*
X0040600Y0049903D01*
X0040001Y0050502D02*
X0025600Y0050502D01*
X0025600Y0051100D02*
X0039403Y0051100D01*
X0038804Y0051699D02*
X0025600Y0051699D01*
X0025442Y0052297D02*
X0038206Y0052297D01*
X0037607Y0052896D02*
X0025194Y0052896D01*
X0024946Y0053494D02*
X0037009Y0053494D01*
X0036410Y0054093D02*
X0024413Y0054093D01*
X0023814Y0054691D02*
X0036200Y0054691D01*
X0036200Y0055290D02*
X0022664Y0055290D01*
X0052565Y0060676D02*
X0059435Y0060676D01*
X0058658Y0061275D02*
X0053342Y0061275D01*
X0053857Y0061873D02*
X0058143Y0061873D01*
X0057700Y0062944D02*
X0057700Y0069056D01*
X0057700Y0068457D02*
X0054300Y0068457D01*
X0054300Y0067859D02*
X0057700Y0067859D01*
X0057700Y0067260D02*
X0054300Y0067260D01*
X0054300Y0066662D02*
X0057700Y0066662D01*
X0051200Y0071000D02*
X0104600Y0124400D01*
X0104600Y0188600D01*
X0102200Y0191000D01*
X0102000Y0191000D01*
X0108375Y0191152D02*
X0126455Y0191152D01*
X0127053Y0191750D02*
X0108375Y0191750D01*
X0108375Y0192349D02*
X0127652Y0192349D01*
X0128250Y0192947D02*
X0108375Y0192947D01*
X0108375Y0193546D02*
X0128849Y0193546D01*
X0129447Y0194144D02*
X0108375Y0194144D01*
X0108375Y0194743D02*
X0130046Y0194743D01*
X0130644Y0195341D02*
X0108375Y0195341D01*
X0108375Y0195940D02*
X0131243Y0195940D01*
X0131841Y0196539D02*
X0108375Y0196539D01*
X0108086Y0197137D02*
X0132440Y0197137D01*
X0133038Y0197736D02*
X0098033Y0197736D01*
X0098631Y0198334D02*
X0133637Y0198334D01*
X0134236Y0198933D02*
X0099230Y0198933D01*
X0099828Y0199531D02*
X0134834Y0199531D01*
X0135433Y0200130D02*
X0100427Y0200130D01*
X0101025Y0200728D02*
X0136031Y0200728D01*
X0136630Y0201327D02*
X0101624Y0201327D01*
X0102222Y0201925D02*
X0137228Y0201925D01*
X0137827Y0202524D02*
X0102821Y0202524D01*
X0103419Y0203122D02*
X0138425Y0203122D01*
X0139024Y0203721D02*
X0104018Y0203721D01*
X0104616Y0204319D02*
X0139622Y0204319D01*
X0140221Y0204918D02*
X0105215Y0204918D01*
X0105813Y0205516D02*
X0140819Y0205516D01*
X0140700Y0206000D02*
X0140700Y0210700D01*
X0136000Y0210700D01*
X0136000Y0210606D01*
X0136123Y0209829D01*
X0136366Y0209081D01*
X0136724Y0208379D01*
X0137186Y0207743D01*
X0137743Y0207186D01*
X0138379Y0206724D01*
X0139081Y0206366D01*
X0139829Y0206123D01*
X0140606Y0206000D01*
X0140700Y0206000D01*
X0140700Y0206115D02*
X0141300Y0206115D01*
X0141300Y0206713D02*
X0140700Y0206713D01*
X0140700Y0207312D02*
X0141300Y0207312D01*
X0141300Y0207910D02*
X0140700Y0207910D01*
X0140700Y0208509D02*
X0141300Y0208509D01*
X0141300Y0209107D02*
X0140700Y0209107D01*
X0140700Y0209706D02*
X0141300Y0209706D01*
X0141300Y0210304D02*
X0140700Y0210304D01*
X0140700Y0210903D02*
X0131300Y0210903D01*
X0131300Y0210700D02*
X0136000Y0210700D01*
X0136000Y0210606D01*
X0135877Y0209829D01*
X0135634Y0209081D01*
X0135276Y0208379D01*
X0134814Y0207743D01*
X0134257Y0207186D01*
X0133621Y0206724D01*
X0132919Y0206366D01*
X0132171Y0206123D01*
X0131394Y0206000D01*
X0131300Y0206000D01*
X0131300Y0210700D01*
X0131300Y0210304D02*
X0130700Y0210304D01*
X0130700Y0210700D02*
X0130700Y0206000D01*
X0130606Y0206000D01*
X0129829Y0206123D01*
X0129081Y0206366D01*
X0128379Y0206724D01*
X0127743Y0207186D01*
X0127186Y0207743D01*
X0126724Y0208379D01*
X0126366Y0209081D01*
X0126123Y0209829D01*
X0126000Y0210606D01*
X0126000Y0210700D01*
X0130700Y0210700D01*
X0130700Y0210903D02*
X0111200Y0210903D01*
X0111798Y0211501D02*
X0126017Y0211501D01*
X0126112Y0212100D02*
X0112397Y0212100D01*
X0112995Y0212698D02*
X0126295Y0212698D01*
X0126559Y0213297D02*
X0113594Y0213297D01*
X0114192Y0213895D02*
X0126923Y0213895D01*
X0127423Y0214494D02*
X0114791Y0214494D01*
X0115389Y0215092D02*
X0128126Y0215092D01*
X0126048Y0210304D02*
X0110601Y0210304D01*
X0110003Y0209706D02*
X0126163Y0209706D01*
X0126358Y0209107D02*
X0109404Y0209107D01*
X0108806Y0208509D02*
X0126658Y0208509D01*
X0127064Y0207910D02*
X0108207Y0207910D01*
X0107609Y0207312D02*
X0127617Y0207312D01*
X0128400Y0206713D02*
X0107010Y0206713D01*
X0106412Y0206115D02*
X0129882Y0206115D01*
X0130700Y0206115D02*
X0131300Y0206115D01*
X0131300Y0206713D02*
X0130700Y0206713D01*
X0130700Y0207312D02*
X0131300Y0207312D01*
X0131300Y0207910D02*
X0130700Y0207910D01*
X0130700Y0208509D02*
X0131300Y0208509D01*
X0131300Y0209107D02*
X0130700Y0209107D01*
X0130700Y0209706D02*
X0131300Y0209706D01*
X0133600Y0206713D02*
X0138400Y0206713D01*
X0137617Y0207312D02*
X0134383Y0207312D01*
X0134935Y0207910D02*
X0137064Y0207910D01*
X0136658Y0208509D02*
X0135342Y0208509D01*
X0135642Y0209107D02*
X0136358Y0209107D01*
X0136163Y0209706D02*
X0135837Y0209706D01*
X0135952Y0210304D02*
X0136048Y0210304D01*
X0136000Y0211300D02*
X0136000Y0211394D01*
X0136123Y0212171D01*
X0136366Y0212919D01*
X0136724Y0213621D01*
X0137186Y0214257D01*
X0137743Y0214814D01*
X0138379Y0215276D01*
X0139015Y0215600D01*
X0132985Y0215600D01*
X0133621Y0215276D01*
X0134257Y0214814D01*
X0134814Y0214257D01*
X0135276Y0213621D01*
X0135634Y0212919D01*
X0135877Y0212171D01*
X0136000Y0211394D01*
X0136000Y0211300D01*
X0135983Y0211501D02*
X0136017Y0211501D01*
X0136112Y0212100D02*
X0135888Y0212100D01*
X0135705Y0212698D02*
X0136295Y0212698D01*
X0136559Y0213297D02*
X0135441Y0213297D01*
X0135077Y0213895D02*
X0136923Y0213895D01*
X0137423Y0214494D02*
X0134577Y0214494D01*
X0133874Y0215092D02*
X0138126Y0215092D01*
X0146000Y0212600D02*
X0146000Y0209000D01*
X0117800Y0180800D01*
X0117800Y0170600D01*
X0116230Y0172000D02*
X0105800Y0172000D01*
X0105800Y0172598D02*
X0116600Y0172598D01*
X0116600Y0173197D02*
X0105800Y0173197D01*
X0105800Y0173795D02*
X0116600Y0173795D01*
X0116600Y0174394D02*
X0105800Y0174394D01*
X0105800Y0174992D02*
X0116600Y0174992D01*
X0116600Y0175591D02*
X0105800Y0175591D01*
X0105800Y0176189D02*
X0116600Y0176189D01*
X0116600Y0176788D02*
X0105800Y0176788D01*
X0105800Y0177386D02*
X0116600Y0177386D01*
X0116600Y0177985D02*
X0105800Y0177985D01*
X0105800Y0178583D02*
X0116600Y0178583D01*
X0116600Y0179182D02*
X0105800Y0179182D01*
X0105800Y0179780D02*
X0116600Y0179780D01*
X0116600Y0180379D02*
X0105800Y0180379D01*
X0105800Y0180977D02*
X0116600Y0180977D01*
X0116879Y0181576D02*
X0105800Y0181576D01*
X0105800Y0182174D02*
X0117477Y0182174D01*
X0118076Y0182773D02*
X0105800Y0182773D01*
X0105800Y0183371D02*
X0118674Y0183371D01*
X0119273Y0183970D02*
X0105800Y0183970D01*
X0105800Y0184568D02*
X0119871Y0184568D01*
X0120470Y0185167D02*
X0108375Y0185167D01*
X0108375Y0185765D02*
X0121068Y0185765D01*
X0121667Y0186364D02*
X0108375Y0186364D01*
X0108375Y0186962D02*
X0122265Y0186962D01*
X0122864Y0187561D02*
X0108375Y0187561D01*
X0108375Y0188159D02*
X0123462Y0188159D01*
X0124061Y0188758D02*
X0108375Y0188758D01*
X0108375Y0189356D02*
X0124659Y0189356D01*
X0125258Y0189955D02*
X0108375Y0189955D01*
X0108375Y0190553D02*
X0125856Y0190553D01*
X0132118Y0206115D02*
X0139882Y0206115D01*
X0146009Y0207312D02*
X0148183Y0207312D01*
X0147584Y0207910D02*
X0146607Y0207910D01*
X0146000Y0212600D02*
X0149000Y0215600D01*
X0156800Y0215600D01*
X0161000Y0211400D01*
X0161000Y0211000D01*
X0162671Y0206713D02*
X0169329Y0206713D01*
X0170085Y0206400D02*
X0171915Y0206400D01*
X0173606Y0207100D01*
X0174900Y0208394D01*
X0175600Y0210085D01*
X0175600Y0211915D01*
X0174900Y0213606D01*
X0173606Y0214900D01*
X0171915Y0215600D01*
X0170085Y0215600D01*
X0168394Y0214900D01*
X0167100Y0213606D01*
X0166400Y0211915D01*
X0166400Y0210085D01*
X0167100Y0208394D01*
X0168394Y0207100D01*
X0170085Y0206400D01*
X0168183Y0207312D02*
X0163817Y0207312D01*
X0164416Y0207910D02*
X0167584Y0207910D01*
X0167053Y0208509D02*
X0164947Y0208509D01*
X0165195Y0209107D02*
X0166805Y0209107D01*
X0166557Y0209706D02*
X0165443Y0209706D01*
X0165600Y0210304D02*
X0166400Y0210304D01*
X0166400Y0210903D02*
X0165600Y0210903D01*
X0165600Y0211501D02*
X0166400Y0211501D01*
X0166477Y0212100D02*
X0165523Y0212100D01*
X0165276Y0212698D02*
X0166724Y0212698D01*
X0166972Y0213297D02*
X0165028Y0213297D01*
X0164610Y0213895D02*
X0167390Y0213895D01*
X0167988Y0214494D02*
X0164012Y0214494D01*
X0163141Y0215092D02*
X0168859Y0215092D01*
X0173141Y0215092D02*
X0175411Y0215092D01*
X0176009Y0214494D02*
X0174012Y0214494D01*
X0174610Y0213895D02*
X0176608Y0213895D01*
X0176972Y0213297D02*
X0175028Y0213297D01*
X0175276Y0212698D02*
X0176724Y0212698D01*
X0176477Y0212100D02*
X0175523Y0212100D01*
X0175600Y0211501D02*
X0176400Y0211501D01*
X0176400Y0210903D02*
X0175600Y0210903D01*
X0175600Y0210304D02*
X0176400Y0210304D01*
X0176557Y0209706D02*
X0175443Y0209706D01*
X0175195Y0209107D02*
X0176805Y0209107D01*
X0177053Y0208509D02*
X0174947Y0208509D01*
X0174416Y0207910D02*
X0177584Y0207910D01*
X0178183Y0207312D02*
X0173817Y0207312D01*
X0172671Y0206713D02*
X0179329Y0206713D01*
X0186900Y0203122D02*
X0163775Y0203122D01*
X0164373Y0202524D02*
X0186652Y0202524D01*
X0187215Y0203721D02*
X0163176Y0203721D01*
X0162578Y0204319D02*
X0187814Y0204319D01*
X0188438Y0204918D02*
X0161979Y0204918D01*
X0164600Y0201200D02*
X0191000Y0201200D01*
X0191000Y0201000D01*
X0187759Y0197736D02*
X0165800Y0197736D01*
X0165800Y0197137D02*
X0188358Y0197137D01*
X0189751Y0196539D02*
X0165800Y0196539D01*
X0165800Y0195940D02*
X0201000Y0195940D01*
X0201000Y0207312D02*
X0193817Y0207312D01*
X0194416Y0207910D02*
X0201000Y0207910D01*
X0201000Y0208509D02*
X0194947Y0208509D01*
X0195195Y0209107D02*
X0201000Y0209107D01*
X0201000Y0209706D02*
X0195443Y0209706D01*
X0195600Y0210304D02*
X0201000Y0210304D01*
X0201000Y0210903D02*
X0195600Y0210903D01*
X0195600Y0211501D02*
X0201000Y0211501D01*
X0201000Y0212100D02*
X0195523Y0212100D01*
X0195276Y0212698D02*
X0201000Y0212698D01*
X0201000Y0213297D02*
X0195028Y0213297D01*
X0194610Y0213895D02*
X0201000Y0213895D01*
X0201000Y0214494D02*
X0194012Y0214494D01*
X0193141Y0215092D02*
X0201000Y0215092D01*
X0201000Y0215691D02*
X0178206Y0215691D01*
X0177608Y0216289D02*
X0201000Y0216289D01*
X0201000Y0216888D02*
X0177009Y0216888D01*
X0176411Y0217486D02*
X0201000Y0217486D01*
X0201000Y0218085D02*
X0011000Y0218085D01*
X0011000Y0218683D02*
X0201000Y0218683D01*
X0201000Y0219282D02*
X0011000Y0219282D01*
X0011000Y0219880D02*
X0201000Y0219880D01*
X0201000Y0220479D02*
X0011000Y0220479D01*
X0011000Y0221000D02*
X0201000Y0221000D01*
X0201000Y0011000D01*
X0011000Y0011000D01*
X0011000Y0221000D01*
X0030268Y0195341D02*
X0043625Y0195341D01*
X0043625Y0194743D02*
X0028034Y0194743D01*
X0031376Y0195940D02*
X0043625Y0195940D01*
X0043625Y0196539D02*
X0032412Y0196539D01*
X0033259Y0197137D02*
X0043914Y0197137D01*
X0044152Y0197375D02*
X0043625Y0196848D01*
X0043625Y0185152D01*
X0044152Y0184625D01*
X0055848Y0184625D01*
X0056375Y0185152D01*
X0056375Y0196848D01*
X0055848Y0197375D01*
X0044152Y0197375D01*
X0035429Y0199531D02*
X0096434Y0199531D01*
X0095836Y0198933D02*
X0035055Y0198933D01*
X0034456Y0198334D02*
X0095237Y0198334D01*
X0094638Y0197736D02*
X0033858Y0197736D01*
X0056086Y0197137D02*
X0094400Y0197137D01*
X0094400Y0196539D02*
X0056375Y0196539D01*
X0056375Y0195940D02*
X0094400Y0195940D01*
X0094400Y0195341D02*
X0056375Y0195341D01*
X0056375Y0194743D02*
X0094400Y0194743D01*
X0094400Y0194144D02*
X0056375Y0194144D01*
X0056375Y0193546D02*
X0094400Y0193546D01*
X0094400Y0192947D02*
X0056375Y0192947D01*
X0056375Y0192349D02*
X0094400Y0192349D01*
X0094400Y0191750D02*
X0056375Y0191750D01*
X0056375Y0191152D02*
X0094400Y0191152D01*
X0094400Y0190553D02*
X0056375Y0190553D01*
X0056375Y0189955D02*
X0094400Y0189955D01*
X0094400Y0189356D02*
X0056375Y0189356D01*
X0056375Y0188758D02*
X0094400Y0188758D01*
X0094400Y0188159D02*
X0056375Y0188159D01*
X0056375Y0187561D02*
X0094400Y0187561D01*
X0094400Y0186962D02*
X0056375Y0186962D01*
X0056375Y0186364D02*
X0094400Y0186364D01*
X0094400Y0185765D02*
X0056375Y0185765D01*
X0056375Y0185167D02*
X0094400Y0185167D01*
X0096800Y0184568D02*
X0103400Y0184568D01*
X0103400Y0183970D02*
X0096800Y0183970D01*
X0096800Y0183371D02*
X0103400Y0183371D01*
X0103400Y0182773D02*
X0096800Y0182773D01*
X0096800Y0182174D02*
X0103400Y0182174D01*
X0103400Y0181576D02*
X0096800Y0181576D01*
X0096800Y0180977D02*
X0103400Y0180977D01*
X0103400Y0180379D02*
X0096800Y0180379D01*
X0096800Y0179780D02*
X0103400Y0179780D01*
X0103400Y0179182D02*
X0096800Y0179182D01*
X0096800Y0178583D02*
X0103400Y0178583D01*
X0103400Y0177985D02*
X0096800Y0177985D01*
X0096800Y0177386D02*
X0103400Y0177386D01*
X0103400Y0176788D02*
X0096800Y0176788D01*
X0096800Y0176189D02*
X0103400Y0176189D01*
X0103400Y0175591D02*
X0096800Y0175591D01*
X0096800Y0174992D02*
X0103400Y0174992D01*
X0103400Y0174394D02*
X0096800Y0174394D01*
X0096800Y0173795D02*
X0103400Y0173795D01*
X0103400Y0173197D02*
X0096800Y0173197D01*
X0096800Y0172598D02*
X0103400Y0172598D01*
X0103400Y0172000D02*
X0096297Y0172000D01*
X0095698Y0171401D02*
X0103400Y0171401D01*
X0103400Y0170803D02*
X0095100Y0170803D01*
X0094501Y0170204D02*
X0103400Y0170204D01*
X0103400Y0169605D02*
X0093903Y0169605D01*
X0093304Y0169007D02*
X0103400Y0169007D01*
X0103400Y0168408D02*
X0092706Y0168408D01*
X0092107Y0167810D02*
X0103400Y0167810D01*
X0103400Y0167211D02*
X0091509Y0167211D01*
X0090910Y0166613D02*
X0103400Y0166613D01*
X0103400Y0166014D02*
X0090311Y0166014D01*
X0089713Y0165416D02*
X0103400Y0165416D01*
X0103400Y0164817D02*
X0089114Y0164817D01*
X0088516Y0164219D02*
X0103400Y0164219D01*
X0103400Y0163620D02*
X0087917Y0163620D01*
X0087319Y0163022D02*
X0103400Y0163022D01*
X0103400Y0162423D02*
X0086720Y0162423D01*
X0086122Y0161825D02*
X0103400Y0161825D01*
X0103400Y0161226D02*
X0085523Y0161226D01*
X0084925Y0160628D02*
X0103400Y0160628D01*
X0103400Y0160029D02*
X0084326Y0160029D01*
X0083728Y0159431D02*
X0103400Y0159431D01*
X0103400Y0158832D02*
X0083129Y0158832D01*
X0082531Y0158234D02*
X0103400Y0158234D01*
X0103400Y0150453D02*
X0091644Y0150453D01*
X0092242Y0149855D02*
X0103400Y0149855D01*
X0103400Y0149256D02*
X0092841Y0149256D01*
X0093439Y0148658D02*
X0103400Y0148658D01*
X0103400Y0148059D02*
X0094038Y0148059D01*
X0094636Y0147461D02*
X0103400Y0147461D01*
X0103400Y0146862D02*
X0095235Y0146862D01*
X0095833Y0146264D02*
X0103400Y0146264D01*
X0103400Y0145665D02*
X0096432Y0145665D01*
X0097030Y0145067D02*
X0103400Y0145067D01*
X0103400Y0144468D02*
X0097629Y0144468D01*
X0098228Y0143870D02*
X0103400Y0143870D01*
X0103400Y0143271D02*
X0098826Y0143271D01*
X0099425Y0142672D02*
X0103400Y0142672D01*
X0103400Y0142074D02*
X0100023Y0142074D01*
X0100622Y0141475D02*
X0103400Y0141475D01*
X0103400Y0140877D02*
X0101220Y0140877D01*
X0101819Y0140278D02*
X0103400Y0140278D01*
X0103400Y0139680D02*
X0102417Y0139680D01*
X0103016Y0139081D02*
X0103400Y0139081D01*
X0086000Y0135800D02*
X0086000Y0119600D01*
X0090200Y0115400D01*
X0080000Y0112400D02*
X0062600Y0112400D01*
X0054800Y0107600D02*
X0075800Y0128600D01*
X0075800Y0135800D01*
X0077284Y0137286D02*
X0080989Y0137286D01*
X0081587Y0137884D02*
X0076685Y0137884D01*
X0077882Y0136687D02*
X0080390Y0136687D01*
X0079792Y0136089D02*
X0077900Y0136089D01*
X0077900Y0135490D02*
X0079193Y0135490D01*
X0078595Y0134892D02*
X0077862Y0134892D01*
X0077996Y0134293D02*
X0077263Y0134293D01*
X0077398Y0133695D02*
X0077000Y0133695D01*
X0053600Y0106762D02*
X0052788Y0106762D01*
X0105800Y0169007D02*
X0116423Y0169007D01*
X0115825Y0169605D02*
X0105800Y0169605D01*
X0105800Y0170204D02*
X0115700Y0170204D01*
X0115700Y0170803D02*
X0105800Y0170803D01*
X0105800Y0171401D02*
X0115700Y0171401D01*
X0131300Y0145067D02*
X0188797Y0145067D01*
X0187963Y0144468D02*
X0131300Y0144468D01*
X0131300Y0143870D02*
X0187364Y0143870D01*
X0186962Y0143271D02*
X0131826Y0143271D01*
X0132200Y0142672D02*
X0186714Y0142672D01*
X0186466Y0142074D02*
X0132200Y0142074D01*
X0132200Y0141475D02*
X0186400Y0141475D01*
X0186400Y0140877D02*
X0132200Y0140877D01*
X0132200Y0140278D02*
X0186400Y0140278D01*
X0186568Y0139680D02*
X0132200Y0139680D01*
X0132200Y0139081D02*
X0186816Y0139081D01*
X0187064Y0138483D02*
X0132200Y0138483D01*
X0132200Y0137884D02*
X0187610Y0137884D01*
X0188209Y0137286D02*
X0132200Y0137286D01*
X0132200Y0131899D02*
X0166129Y0131899D01*
X0165531Y0131301D02*
X0132200Y0131301D01*
X0132200Y0130702D02*
X0165500Y0130702D01*
X0165500Y0130104D02*
X0132200Y0130104D01*
X0132200Y0129505D02*
X0165525Y0129505D01*
X0166123Y0128907D02*
X0132200Y0128907D01*
X0132200Y0128308D02*
X0166400Y0128308D01*
X0166400Y0127710D02*
X0132200Y0127710D01*
X0132200Y0127111D02*
X0166400Y0127111D01*
X0166400Y0126513D02*
X0132200Y0126513D01*
X0132200Y0125914D02*
X0166400Y0125914D01*
X0166400Y0125316D02*
X0132200Y0125316D01*
X0132200Y0124717D02*
X0166400Y0124717D01*
X0166400Y0124119D02*
X0132200Y0124119D01*
X0132200Y0123520D02*
X0166400Y0123520D01*
X0166400Y0122922D02*
X0132200Y0122922D01*
X0132200Y0122323D02*
X0166400Y0122323D01*
X0166400Y0121725D02*
X0132200Y0121725D01*
X0132200Y0121126D02*
X0166400Y0121126D01*
X0166400Y0120528D02*
X0132200Y0120528D01*
X0132200Y0119929D02*
X0166400Y0119929D01*
X0166400Y0119331D02*
X0132200Y0119331D01*
X0132200Y0118732D02*
X0166400Y0118732D01*
X0166400Y0118134D02*
X0132200Y0118134D01*
X0132200Y0117535D02*
X0166400Y0117535D01*
X0166766Y0116937D02*
X0132200Y0116937D01*
X0132200Y0116338D02*
X0167365Y0116338D01*
X0167963Y0115739D02*
X0132200Y0115739D01*
X0132200Y0115141D02*
X0168562Y0115141D01*
X0169160Y0114542D02*
X0132200Y0114542D01*
X0132200Y0113944D02*
X0169759Y0113944D01*
X0170358Y0113345D02*
X0132200Y0113345D01*
X0132200Y0112747D02*
X0170956Y0112747D01*
X0171555Y0112148D02*
X0132200Y0112148D01*
X0132200Y0111550D02*
X0172153Y0111550D01*
X0172752Y0110951D02*
X0132200Y0110951D01*
X0132200Y0110353D02*
X0173350Y0110353D01*
X0173949Y0109754D02*
X0154015Y0109754D01*
X0154614Y0109156D02*
X0174547Y0109156D01*
X0175146Y0108557D02*
X0154700Y0108557D01*
X0154700Y0107959D02*
X0175744Y0107959D01*
X0176343Y0107360D02*
X0166010Y0107360D01*
X0166608Y0106762D02*
X0176941Y0106762D01*
X0177540Y0106163D02*
X0166700Y0106163D01*
X0166700Y0105565D02*
X0178138Y0105565D01*
X0177596Y0104966D02*
X0166700Y0104966D01*
X0166138Y0104368D02*
X0176998Y0104368D01*
X0176900Y0103769D02*
X0165800Y0103769D01*
X0165800Y0103171D02*
X0176900Y0103171D01*
X0176900Y0102572D02*
X0165800Y0102572D01*
X0165800Y0101974D02*
X0177456Y0101974D01*
X0177800Y0101375D02*
X0165800Y0101375D01*
X0165800Y0100777D02*
X0177800Y0100777D01*
X0177800Y0100178D02*
X0165800Y0100178D01*
X0165800Y0099580D02*
X0177800Y0099580D01*
X0177800Y0098981D02*
X0165800Y0098981D01*
X0165800Y0098383D02*
X0177800Y0098383D01*
X0177800Y0097784D02*
X0165800Y0097784D01*
X0165800Y0097186D02*
X0177800Y0097186D01*
X0177800Y0096587D02*
X0165800Y0096587D01*
X0165800Y0095989D02*
X0177800Y0095989D01*
X0177800Y0095390D02*
X0165800Y0095390D01*
X0165800Y0094792D02*
X0177800Y0094792D01*
X0177800Y0094193D02*
X0165800Y0094193D01*
X0165800Y0093595D02*
X0177800Y0093595D01*
X0177800Y0092996D02*
X0165800Y0092996D01*
X0165800Y0092398D02*
X0177800Y0092398D01*
X0177800Y0091799D02*
X0165800Y0091799D01*
X0165800Y0091201D02*
X0177800Y0091201D01*
X0177800Y0090602D02*
X0165800Y0090602D01*
X0165800Y0090003D02*
X0177800Y0090003D01*
X0177800Y0089405D02*
X0165800Y0089405D01*
X0165800Y0088806D02*
X0177800Y0088806D01*
X0177800Y0088208D02*
X0165800Y0088208D01*
X0165800Y0087609D02*
X0177800Y0087609D01*
X0177800Y0087011D02*
X0165800Y0087011D01*
X0165800Y0086412D02*
X0177800Y0086412D01*
X0177800Y0085814D02*
X0165800Y0085814D01*
X0165800Y0085215D02*
X0177800Y0085215D01*
X0177800Y0084617D02*
X0165800Y0084617D01*
X0165800Y0084018D02*
X0177800Y0084018D01*
X0177800Y0083420D02*
X0165800Y0083420D01*
X0165800Y0082821D02*
X0177800Y0082821D01*
X0177800Y0082223D02*
X0165800Y0082223D01*
X0165800Y0081624D02*
X0177800Y0081624D01*
X0177800Y0081026D02*
X0165800Y0081026D01*
X0165800Y0080427D02*
X0177800Y0080427D01*
X0177800Y0079829D02*
X0165800Y0079829D01*
X0165800Y0079230D02*
X0177800Y0079230D01*
X0177800Y0078632D02*
X0165800Y0078632D01*
X0165800Y0078033D02*
X0177800Y0078033D01*
X0177800Y0077435D02*
X0165800Y0077435D01*
X0165800Y0076836D02*
X0177800Y0076836D01*
X0177800Y0076238D02*
X0165800Y0076238D01*
X0165800Y0075639D02*
X0177800Y0075639D01*
X0177800Y0075041D02*
X0165800Y0075041D01*
X0165800Y0074442D02*
X0177800Y0074442D01*
X0177800Y0073844D02*
X0165800Y0073844D01*
X0165800Y0073245D02*
X0177800Y0073245D01*
X0178056Y0072647D02*
X0165800Y0072647D01*
X0165800Y0072048D02*
X0178655Y0072048D01*
X0179253Y0071450D02*
X0165800Y0071450D01*
X0165800Y0070851D02*
X0179852Y0070851D01*
X0180450Y0070253D02*
X0165800Y0070253D01*
X0165800Y0069654D02*
X0181049Y0069654D01*
X0181647Y0069056D02*
X0165800Y0069056D01*
X0165800Y0068457D02*
X0182246Y0068457D01*
X0182844Y0067859D02*
X0165800Y0067859D01*
X0165800Y0067260D02*
X0183443Y0067260D01*
X0184041Y0066662D02*
X0165800Y0066662D01*
X0165800Y0066063D02*
X0184640Y0066063D01*
X0185238Y0065465D02*
X0165800Y0065465D01*
X0165800Y0064866D02*
X0185837Y0064866D01*
X0186435Y0064268D02*
X0165800Y0064268D01*
X0165800Y0063669D02*
X0187034Y0063669D01*
X0186879Y0063070D02*
X0165800Y0063070D01*
X0165800Y0062472D02*
X0186631Y0062472D01*
X0186400Y0061873D02*
X0165800Y0061873D01*
X0165800Y0061275D02*
X0186400Y0061275D01*
X0186400Y0060676D02*
X0165800Y0060676D01*
X0165800Y0060078D02*
X0186403Y0060078D01*
X0186651Y0059479D02*
X0165800Y0059479D01*
X0165800Y0058881D02*
X0186899Y0058881D01*
X0187212Y0058282D02*
X0165800Y0058282D01*
X0165800Y0057684D02*
X0187811Y0057684D01*
X0188430Y0057085D02*
X0165800Y0057085D01*
X0165800Y0056487D02*
X0189875Y0056487D01*
X0190085Y0055600D02*
X0188394Y0054900D01*
X0187100Y0053606D01*
X0186400Y0051915D01*
X0186400Y0050085D01*
X0187100Y0048394D01*
X0188394Y0047100D01*
X0190085Y0046400D01*
X0191915Y0046400D01*
X0193606Y0047100D01*
X0194900Y0048394D01*
X0195600Y0050085D01*
X0195600Y0051915D01*
X0194900Y0053606D01*
X0193606Y0054900D01*
X0191915Y0055600D01*
X0190085Y0055600D01*
X0189336Y0055290D02*
X0165800Y0055290D01*
X0165800Y0055888D02*
X0201000Y0055888D01*
X0201000Y0055290D02*
X0192664Y0055290D01*
X0193814Y0054691D02*
X0201000Y0054691D01*
X0201000Y0054093D02*
X0194413Y0054093D01*
X0194946Y0053494D02*
X0201000Y0053494D01*
X0201000Y0052896D02*
X0195194Y0052896D01*
X0195442Y0052297D02*
X0201000Y0052297D01*
X0201000Y0051699D02*
X0195600Y0051699D01*
X0195600Y0051100D02*
X0201000Y0051100D01*
X0201000Y0050502D02*
X0195600Y0050502D01*
X0195525Y0049903D02*
X0201000Y0049903D01*
X0201000Y0049305D02*
X0195277Y0049305D01*
X0195029Y0048706D02*
X0201000Y0048706D01*
X0201000Y0048108D02*
X0194613Y0048108D01*
X0194015Y0047509D02*
X0201000Y0047509D01*
X0201000Y0046911D02*
X0193148Y0046911D01*
X0193086Y0045115D02*
X0201000Y0045115D01*
X0201000Y0044517D02*
X0193989Y0044517D01*
X0193606Y0044900D02*
X0194900Y0043606D01*
X0195600Y0041915D01*
X0195600Y0040085D01*
X0194900Y0038394D01*
X0193606Y0037100D01*
X0191915Y0036400D01*
X0190085Y0036400D01*
X0188394Y0037100D01*
X0187100Y0038394D01*
X0186400Y0040085D01*
X0186400Y0041915D01*
X0187100Y0043606D01*
X0188394Y0044900D01*
X0190085Y0045600D01*
X0191915Y0045600D01*
X0193606Y0044900D01*
X0194587Y0043918D02*
X0201000Y0043918D01*
X0201000Y0043320D02*
X0195018Y0043320D01*
X0195266Y0042721D02*
X0201000Y0042721D01*
X0201000Y0042123D02*
X0195514Y0042123D01*
X0195600Y0041524D02*
X0201000Y0041524D01*
X0201000Y0040926D02*
X0195600Y0040926D01*
X0195600Y0040327D02*
X0201000Y0040327D01*
X0201000Y0039729D02*
X0195452Y0039729D01*
X0195204Y0039130D02*
X0201000Y0039130D01*
X0201000Y0038532D02*
X0194957Y0038532D01*
X0194438Y0037933D02*
X0201000Y0037933D01*
X0201000Y0037334D02*
X0193840Y0037334D01*
X0192726Y0036736D02*
X0201000Y0036736D01*
X0201000Y0036137D02*
X0165800Y0036137D01*
X0165800Y0035539D02*
X0188895Y0035539D01*
X0189081Y0035634D02*
X0188379Y0035276D01*
X0187743Y0034814D01*
X0187186Y0034257D01*
X0186724Y0033621D01*
X0186366Y0032919D01*
X0186123Y0032171D01*
X0186000Y0031394D01*
X0186000Y0031300D01*
X0190700Y0031300D01*
X0190700Y0036000D01*
X0190606Y0036000D01*
X0189829Y0035877D01*
X0189081Y0035634D01*
X0189274Y0036736D02*
X0165800Y0036736D01*
X0165800Y0037334D02*
X0188160Y0037334D01*
X0187562Y0037933D02*
X0165800Y0037933D01*
X0165800Y0038532D02*
X0187043Y0038532D01*
X0186796Y0039130D02*
X0165800Y0039130D01*
X0165800Y0039729D02*
X0186548Y0039729D01*
X0186400Y0040327D02*
X0165800Y0040327D01*
X0165800Y0040926D02*
X0186400Y0040926D01*
X0186400Y0041524D02*
X0165800Y0041524D01*
X0165800Y0042123D02*
X0186486Y0042123D01*
X0186734Y0042721D02*
X0165800Y0042721D01*
X0165800Y0043320D02*
X0186982Y0043320D01*
X0187413Y0043918D02*
X0165800Y0043918D01*
X0165800Y0044517D02*
X0188011Y0044517D01*
X0188914Y0045115D02*
X0165800Y0045115D01*
X0165800Y0045714D02*
X0201000Y0045714D01*
X0201000Y0046312D02*
X0165800Y0046312D01*
X0165800Y0046911D02*
X0188852Y0046911D01*
X0187985Y0047509D02*
X0165800Y0047509D01*
X0165800Y0048108D02*
X0187387Y0048108D01*
X0186971Y0048706D02*
X0165800Y0048706D01*
X0165800Y0049305D02*
X0186723Y0049305D01*
X0186475Y0049903D02*
X0165800Y0049903D01*
X0165800Y0050502D02*
X0186400Y0050502D01*
X0186400Y0051100D02*
X0165800Y0051100D01*
X0165800Y0051699D02*
X0186400Y0051699D01*
X0186558Y0052297D02*
X0165800Y0052297D01*
X0165800Y0052896D02*
X0186806Y0052896D01*
X0187054Y0053494D02*
X0165800Y0053494D01*
X0165800Y0054093D02*
X0187587Y0054093D01*
X0188186Y0054691D02*
X0165800Y0054691D01*
X0163400Y0054691D02*
X0147800Y0054691D01*
X0147800Y0054093D02*
X0163400Y0054093D01*
X0163400Y0053494D02*
X0147800Y0053494D01*
X0147800Y0052896D02*
X0163400Y0052896D01*
X0163400Y0052297D02*
X0147800Y0052297D01*
X0147800Y0051699D02*
X0163400Y0051699D01*
X0163400Y0051100D02*
X0147800Y0051100D01*
X0147800Y0050502D02*
X0163400Y0050502D01*
X0163400Y0049903D02*
X0147800Y0049903D01*
X0147800Y0049305D02*
X0163400Y0049305D01*
X0163400Y0048706D02*
X0147800Y0048706D01*
X0147800Y0048108D02*
X0163400Y0048108D01*
X0163400Y0047509D02*
X0147800Y0047509D01*
X0147800Y0046911D02*
X0163400Y0046911D01*
X0163400Y0046312D02*
X0147800Y0046312D01*
X0147800Y0045714D02*
X0163400Y0045714D01*
X0163400Y0045115D02*
X0147800Y0045115D01*
X0147800Y0044517D02*
X0163400Y0044517D01*
X0163400Y0043918D02*
X0147800Y0043918D01*
X0147800Y0043320D02*
X0163400Y0043320D01*
X0163400Y0042721D02*
X0147800Y0042721D01*
X0147800Y0042123D02*
X0163400Y0042123D01*
X0163400Y0041524D02*
X0147800Y0041524D01*
X0147800Y0040926D02*
X0163400Y0040926D01*
X0163400Y0040327D02*
X0147800Y0040327D01*
X0147800Y0039729D02*
X0163400Y0039729D01*
X0163400Y0039130D02*
X0147800Y0039130D01*
X0147800Y0038532D02*
X0163400Y0038532D01*
X0163400Y0037933D02*
X0147800Y0037933D01*
X0147800Y0037334D02*
X0163400Y0037334D01*
X0163400Y0036736D02*
X0147800Y0036736D01*
X0147800Y0036137D02*
X0163400Y0036137D01*
X0163400Y0035539D02*
X0147800Y0035539D01*
X0147800Y0034940D02*
X0163400Y0034940D01*
X0163400Y0034342D02*
X0147800Y0034342D01*
X0147800Y0033743D02*
X0163400Y0033743D01*
X0163400Y0033145D02*
X0147800Y0033145D01*
X0147800Y0032546D02*
X0163400Y0032546D01*
X0163400Y0031948D02*
X0148349Y0031948D01*
X0148948Y0031349D02*
X0163400Y0031349D01*
X0163400Y0030751D02*
X0149546Y0030751D01*
X0150145Y0030152D02*
X0163400Y0030152D01*
X0163400Y0029554D02*
X0150743Y0029554D01*
X0151342Y0028955D02*
X0163400Y0028955D01*
X0163400Y0028357D02*
X0151940Y0028357D01*
X0152539Y0027758D02*
X0163400Y0027758D01*
X0163400Y0027160D02*
X0153137Y0027160D01*
X0153736Y0026561D02*
X0163400Y0026561D01*
X0163400Y0025963D02*
X0154334Y0025963D01*
X0154933Y0025364D02*
X0159516Y0025364D01*
X0158260Y0024766D02*
X0155531Y0024766D01*
X0156130Y0024167D02*
X0157662Y0024167D01*
X0157085Y0023569D02*
X0156728Y0023569D01*
X0156200Y0022400D02*
X0156200Y0018800D01*
X0160400Y0014600D01*
X0164600Y0014600D01*
X0166700Y0014591D02*
X0201000Y0014591D01*
X0201000Y0013993D02*
X0166700Y0013993D01*
X0166364Y0013394D02*
X0201000Y0013394D01*
X0201000Y0012796D02*
X0165765Y0012796D01*
X0163435Y0012796D02*
X0011000Y0012796D01*
X0011000Y0013394D02*
X0162836Y0013394D01*
X0166382Y0015788D02*
X0201000Y0015788D01*
X0201000Y0015190D02*
X0166700Y0015190D01*
X0165783Y0016387D02*
X0169041Y0016387D01*
X0169081Y0016366D02*
X0169829Y0016123D01*
X0170606Y0016000D01*
X0170700Y0016000D01*
X0170700Y0020700D01*
X0166000Y0020700D01*
X0166000Y0020606D01*
X0166123Y0019829D01*
X0166366Y0019081D01*
X0166724Y0018379D01*
X0167186Y0017743D01*
X0167743Y0017186D01*
X0168379Y0016724D01*
X0169081Y0016366D01*
X0168019Y0016985D02*
X0163328Y0016985D01*
X0163417Y0016387D02*
X0160310Y0016387D01*
X0158712Y0014591D02*
X0144688Y0014591D01*
X0145287Y0015190D02*
X0158113Y0015190D01*
X0157515Y0015788D02*
X0145885Y0015788D01*
X0146484Y0016387D02*
X0156916Y0016387D01*
X0156318Y0016985D02*
X0153328Y0016985D01*
X0154089Y0017584D02*
X0155719Y0017584D01*
X0155121Y0018182D02*
X0154688Y0018182D01*
X0156200Y0022400D02*
X0146600Y0032000D01*
X0146600Y0099200D01*
X0148154Y0097784D02*
X0163400Y0097784D01*
X0163400Y0097186D02*
X0147800Y0097186D01*
X0147800Y0096587D02*
X0163400Y0096587D01*
X0163400Y0095989D02*
X0147800Y0095989D01*
X0147800Y0095390D02*
X0163400Y0095390D01*
X0163400Y0094792D02*
X0147800Y0094792D01*
X0147800Y0094193D02*
X0163400Y0094193D01*
X0163400Y0093595D02*
X0147800Y0093595D01*
X0147800Y0092996D02*
X0163400Y0092996D01*
X0163400Y0092398D02*
X0147800Y0092398D01*
X0147800Y0091799D02*
X0163400Y0091799D01*
X0163400Y0091201D02*
X0147800Y0091201D01*
X0147800Y0090602D02*
X0163400Y0090602D01*
X0163400Y0090003D02*
X0147800Y0090003D01*
X0147800Y0089405D02*
X0163400Y0089405D01*
X0163400Y0088806D02*
X0147800Y0088806D01*
X0147800Y0088208D02*
X0163400Y0088208D01*
X0163400Y0087609D02*
X0147800Y0087609D01*
X0147800Y0087011D02*
X0163400Y0087011D01*
X0163400Y0086412D02*
X0147800Y0086412D01*
X0147800Y0085814D02*
X0163400Y0085814D01*
X0163400Y0085215D02*
X0147800Y0085215D01*
X0147800Y0084617D02*
X0163400Y0084617D01*
X0163400Y0084018D02*
X0147800Y0084018D01*
X0147800Y0083420D02*
X0163400Y0083420D01*
X0163400Y0082821D02*
X0147800Y0082821D01*
X0147800Y0082223D02*
X0163400Y0082223D01*
X0163400Y0081624D02*
X0147800Y0081624D01*
X0147800Y0081026D02*
X0163400Y0081026D01*
X0163400Y0080427D02*
X0147800Y0080427D01*
X0147800Y0079829D02*
X0163400Y0079829D01*
X0163400Y0079230D02*
X0147800Y0079230D01*
X0147800Y0078632D02*
X0163400Y0078632D01*
X0163400Y0078033D02*
X0147800Y0078033D01*
X0147800Y0077435D02*
X0163400Y0077435D01*
X0163400Y0076836D02*
X0147800Y0076836D01*
X0147800Y0076238D02*
X0163400Y0076238D01*
X0163400Y0075639D02*
X0147800Y0075639D01*
X0147800Y0075041D02*
X0163400Y0075041D01*
X0163400Y0074442D02*
X0147800Y0074442D01*
X0147800Y0073844D02*
X0163400Y0073844D01*
X0163400Y0073245D02*
X0147800Y0073245D01*
X0147800Y0072647D02*
X0163400Y0072647D01*
X0163400Y0072048D02*
X0147800Y0072048D01*
X0147800Y0071450D02*
X0163400Y0071450D01*
X0163400Y0070851D02*
X0147800Y0070851D01*
X0147800Y0070253D02*
X0163400Y0070253D01*
X0163400Y0069654D02*
X0147800Y0069654D01*
X0147800Y0069056D02*
X0163400Y0069056D01*
X0163400Y0068457D02*
X0147800Y0068457D01*
X0147800Y0067859D02*
X0163400Y0067859D01*
X0163400Y0067260D02*
X0147800Y0067260D01*
X0147800Y0066662D02*
X0163400Y0066662D01*
X0163400Y0066063D02*
X0147800Y0066063D01*
X0147800Y0065465D02*
X0163400Y0065465D01*
X0163400Y0064866D02*
X0147800Y0064866D01*
X0147800Y0064268D02*
X0163400Y0064268D01*
X0163400Y0063669D02*
X0147800Y0063669D01*
X0147800Y0063070D02*
X0163400Y0063070D01*
X0163400Y0062472D02*
X0147800Y0062472D01*
X0147800Y0061873D02*
X0163400Y0061873D01*
X0163400Y0061275D02*
X0147800Y0061275D01*
X0147800Y0060676D02*
X0163400Y0060676D01*
X0163400Y0060078D02*
X0147800Y0060078D01*
X0147800Y0059479D02*
X0163400Y0059479D01*
X0163400Y0058881D02*
X0147800Y0058881D01*
X0147800Y0058282D02*
X0163400Y0058282D01*
X0163400Y0057684D02*
X0147800Y0057684D01*
X0147800Y0057085D02*
X0163400Y0057085D01*
X0163400Y0056487D02*
X0147800Y0056487D01*
X0147800Y0055888D02*
X0163400Y0055888D01*
X0163400Y0055290D02*
X0147800Y0055290D01*
X0165800Y0034940D02*
X0187917Y0034940D01*
X0187271Y0034342D02*
X0165800Y0034342D01*
X0165800Y0033743D02*
X0186813Y0033743D01*
X0186481Y0033145D02*
X0165800Y0033145D01*
X0165800Y0032546D02*
X0186245Y0032546D01*
X0186088Y0031948D02*
X0165800Y0031948D01*
X0165800Y0031349D02*
X0186000Y0031349D01*
X0186000Y0030700D02*
X0186000Y0030606D01*
X0186123Y0029829D01*
X0186366Y0029081D01*
X0186724Y0028379D01*
X0187186Y0027743D01*
X0187743Y0027186D01*
X0188379Y0026724D01*
X0189081Y0026366D01*
X0189829Y0026123D01*
X0190606Y0026000D01*
X0189829Y0025877D01*
X0189081Y0025634D01*
X0188379Y0025276D01*
X0187743Y0024814D01*
X0187186Y0024257D01*
X0186724Y0023621D01*
X0186366Y0022919D01*
X0186123Y0022171D01*
X0186000Y0021394D01*
X0186000Y0021300D01*
X0190700Y0021300D01*
X0190700Y0026000D01*
X0190700Y0030700D01*
X0191300Y0030700D01*
X0191300Y0031300D01*
X0196000Y0031300D01*
X0196000Y0031394D01*
X0195877Y0032171D01*
X0195634Y0032919D01*
X0195276Y0033621D01*
X0194814Y0034257D01*
X0194257Y0034814D01*
X0193621Y0035276D01*
X0192919Y0035634D01*
X0192171Y0035877D01*
X0191394Y0036000D01*
X0191300Y0036000D01*
X0191300Y0031300D01*
X0190700Y0031300D01*
X0190700Y0030700D01*
X0186000Y0030700D01*
X0186072Y0030152D02*
X0165800Y0030152D01*
X0165800Y0029554D02*
X0186213Y0029554D01*
X0186430Y0028955D02*
X0165800Y0028955D01*
X0165800Y0028357D02*
X0186740Y0028357D01*
X0187175Y0027758D02*
X0165800Y0027758D01*
X0165800Y0027160D02*
X0187779Y0027160D01*
X0188698Y0026561D02*
X0165800Y0026561D01*
X0165800Y0025963D02*
X0170372Y0025963D01*
X0170606Y0026000D02*
X0169829Y0025877D01*
X0169081Y0025634D01*
X0168379Y0025276D01*
X0167743Y0024814D01*
X0167186Y0024257D01*
X0166724Y0023621D01*
X0166366Y0022919D01*
X0166123Y0022171D01*
X0166000Y0021394D01*
X0166000Y0021300D01*
X0170700Y0021300D01*
X0170700Y0026000D01*
X0170606Y0026000D01*
X0170700Y0025963D02*
X0171300Y0025963D01*
X0171300Y0026000D02*
X0171300Y0021300D01*
X0170700Y0021300D01*
X0170700Y0020700D01*
X0171300Y0020700D01*
X0171300Y0021300D01*
X0176000Y0021300D01*
X0180700Y0021300D01*
X0180700Y0026000D01*
X0180606Y0026000D01*
X0179829Y0025877D01*
X0179081Y0025634D01*
X0178379Y0025276D01*
X0177743Y0024814D01*
X0177186Y0024257D01*
X0176724Y0023621D01*
X0176366Y0022919D01*
X0176123Y0022171D01*
X0176000Y0021394D01*
X0176000Y0021300D01*
X0176000Y0021394D01*
X0175877Y0022171D01*
X0175634Y0022919D01*
X0175276Y0023621D01*
X0174814Y0024257D01*
X0174257Y0024814D01*
X0173621Y0025276D01*
X0172919Y0025634D01*
X0172171Y0025877D01*
X0171394Y0026000D01*
X0171300Y0026000D01*
X0171628Y0025963D02*
X0180372Y0025963D01*
X0180700Y0025963D02*
X0181300Y0025963D01*
X0181300Y0026000D02*
X0181300Y0021300D01*
X0180700Y0021300D01*
X0180700Y0020700D01*
X0176000Y0020700D01*
X0176000Y0020606D01*
X0176123Y0019829D01*
X0176366Y0019081D01*
X0176724Y0018379D01*
X0177186Y0017743D01*
X0177743Y0017186D01*
X0178379Y0016724D01*
X0179081Y0016366D01*
X0179829Y0016123D01*
X0180606Y0016000D01*
X0180700Y0016000D01*
X0180700Y0020700D01*
X0181300Y0020700D01*
X0181300Y0021300D01*
X0186000Y0021300D01*
X0186000Y0021394D01*
X0185877Y0022171D01*
X0185634Y0022919D01*
X0185276Y0023621D01*
X0184814Y0024257D01*
X0184257Y0024814D01*
X0183621Y0025276D01*
X0182919Y0025634D01*
X0182171Y0025877D01*
X0181394Y0026000D01*
X0181300Y0026000D01*
X0181628Y0025963D02*
X0190372Y0025963D01*
X0190606Y0026000D02*
X0190700Y0026000D01*
X0190606Y0026000D01*
X0190700Y0025963D02*
X0191300Y0025963D01*
X0191300Y0026000D02*
X0191394Y0026000D01*
X0192171Y0025877D01*
X0192919Y0025634D01*
X0193621Y0025276D01*
X0194257Y0024814D01*
X0194814Y0024257D01*
X0195276Y0023621D01*
X0195634Y0022919D01*
X0195877Y0022171D01*
X0196000Y0021394D01*
X0196000Y0021300D01*
X0191300Y0021300D01*
X0191300Y0020700D01*
X0196000Y0020700D01*
X0196000Y0020606D01*
X0195877Y0019829D01*
X0195634Y0019081D01*
X0195276Y0018379D01*
X0194814Y0017743D01*
X0194257Y0017186D01*
X0193621Y0016724D01*
X0192919Y0016366D01*
X0192171Y0016123D01*
X0191394Y0016000D01*
X0191300Y0016000D01*
X0191300Y0020700D01*
X0190700Y0020700D01*
X0190700Y0016000D01*
X0190606Y0016000D01*
X0189829Y0016123D01*
X0189081Y0016366D01*
X0188379Y0016724D01*
X0187743Y0017186D01*
X0187186Y0017743D01*
X0186724Y0018379D01*
X0186366Y0019081D01*
X0186123Y0019829D01*
X0186000Y0020606D01*
X0186000Y0020700D01*
X0190700Y0020700D01*
X0190700Y0021300D01*
X0191300Y0021300D01*
X0191300Y0026000D01*
X0191394Y0026000D01*
X0192171Y0026123D01*
X0192919Y0026366D01*
X0193621Y0026724D01*
X0194257Y0027186D01*
X0194814Y0027743D01*
X0195276Y0028379D01*
X0195634Y0029081D01*
X0195877Y0029829D01*
X0196000Y0030606D01*
X0196000Y0030700D01*
X0191300Y0030700D01*
X0191300Y0026000D01*
X0191628Y0025963D02*
X0201000Y0025963D01*
X0201000Y0026561D02*
X0193302Y0026561D01*
X0194221Y0027160D02*
X0201000Y0027160D01*
X0201000Y0027758D02*
X0194825Y0027758D01*
X0195260Y0028357D02*
X0201000Y0028357D01*
X0201000Y0028955D02*
X0195570Y0028955D01*
X0195787Y0029554D02*
X0201000Y0029554D01*
X0201000Y0030152D02*
X0195928Y0030152D01*
X0196000Y0031349D02*
X0201000Y0031349D01*
X0201000Y0030751D02*
X0191300Y0030751D01*
X0191300Y0031349D02*
X0190700Y0031349D01*
X0190700Y0030751D02*
X0165800Y0030751D01*
X0165800Y0025364D02*
X0168552Y0025364D01*
X0167695Y0024766D02*
X0165800Y0024766D01*
X0165664Y0024167D02*
X0167121Y0024167D01*
X0166697Y0023569D02*
X0165066Y0023569D01*
X0165163Y0022970D02*
X0166392Y0022970D01*
X0166188Y0022372D02*
X0165411Y0022372D01*
X0165600Y0021773D02*
X0166060Y0021773D01*
X0165600Y0021175D02*
X0170700Y0021175D01*
X0170700Y0021773D02*
X0171300Y0021773D01*
X0171300Y0021175D02*
X0180700Y0021175D01*
X0180700Y0021773D02*
X0181300Y0021773D01*
X0181300Y0021175D02*
X0190700Y0021175D01*
X0190700Y0021773D02*
X0191300Y0021773D01*
X0191300Y0021175D02*
X0201000Y0021175D01*
X0201000Y0021773D02*
X0195940Y0021773D01*
X0195812Y0022372D02*
X0201000Y0022372D01*
X0201000Y0022970D02*
X0195608Y0022970D01*
X0195303Y0023569D02*
X0201000Y0023569D01*
X0201000Y0024167D02*
X0194879Y0024167D01*
X0194305Y0024766D02*
X0201000Y0024766D01*
X0201000Y0025364D02*
X0193448Y0025364D01*
X0191300Y0025364D02*
X0190700Y0025364D01*
X0190700Y0024766D02*
X0191300Y0024766D01*
X0191300Y0024167D02*
X0190700Y0024167D01*
X0190700Y0023569D02*
X0191300Y0023569D01*
X0191300Y0022970D02*
X0190700Y0022970D01*
X0190700Y0022372D02*
X0191300Y0022372D01*
X0191300Y0020576D02*
X0190700Y0020576D01*
X0190700Y0019978D02*
X0191300Y0019978D01*
X0191300Y0019379D02*
X0190700Y0019379D01*
X0190700Y0018781D02*
X0191300Y0018781D01*
X0191300Y0018182D02*
X0190700Y0018182D01*
X0190700Y0017584D02*
X0191300Y0017584D01*
X0191300Y0016985D02*
X0190700Y0016985D01*
X0190700Y0016387D02*
X0191300Y0016387D01*
X0192959Y0016387D02*
X0201000Y0016387D01*
X0201000Y0016985D02*
X0193980Y0016985D01*
X0194655Y0017584D02*
X0201000Y0017584D01*
X0201000Y0018182D02*
X0195133Y0018182D01*
X0195481Y0018781D02*
X0201000Y0018781D01*
X0201000Y0019379D02*
X0195731Y0019379D01*
X0195900Y0019978D02*
X0201000Y0019978D01*
X0201000Y0020576D02*
X0195995Y0020576D01*
X0191300Y0026561D02*
X0190700Y0026561D01*
X0190700Y0027160D02*
X0191300Y0027160D01*
X0191300Y0027758D02*
X0190700Y0027758D01*
X0190700Y0028357D02*
X0191300Y0028357D01*
X0191300Y0028955D02*
X0190700Y0028955D01*
X0190700Y0029554D02*
X0191300Y0029554D01*
X0191300Y0030152D02*
X0190700Y0030152D01*
X0190700Y0031948D02*
X0191300Y0031948D01*
X0191300Y0032546D02*
X0190700Y0032546D01*
X0190700Y0033145D02*
X0191300Y0033145D01*
X0191300Y0033743D02*
X0190700Y0033743D01*
X0190700Y0034342D02*
X0191300Y0034342D01*
X0191300Y0034940D02*
X0190700Y0034940D01*
X0190700Y0035539D02*
X0191300Y0035539D01*
X0193105Y0035539D02*
X0201000Y0035539D01*
X0201000Y0034940D02*
X0194083Y0034940D01*
X0194729Y0034342D02*
X0201000Y0034342D01*
X0201000Y0033743D02*
X0195187Y0033743D01*
X0195519Y0033145D02*
X0201000Y0033145D01*
X0201000Y0032546D02*
X0195755Y0032546D01*
X0195912Y0031948D02*
X0201000Y0031948D01*
X0188552Y0025364D02*
X0183448Y0025364D01*
X0184305Y0024766D02*
X0187695Y0024766D01*
X0187121Y0024167D02*
X0184879Y0024167D01*
X0185303Y0023569D02*
X0186697Y0023569D01*
X0186392Y0022970D02*
X0185608Y0022970D01*
X0185812Y0022372D02*
X0186188Y0022372D01*
X0186060Y0021773D02*
X0185940Y0021773D01*
X0186000Y0020700D02*
X0181300Y0020700D01*
X0181300Y0016000D01*
X0181394Y0016000D01*
X0182171Y0016123D01*
X0182919Y0016366D01*
X0183621Y0016724D01*
X0184257Y0017186D01*
X0184814Y0017743D01*
X0185276Y0018379D01*
X0185634Y0019081D01*
X0185877Y0019829D01*
X0186000Y0020606D01*
X0186000Y0020700D01*
X0185995Y0020576D02*
X0186005Y0020576D01*
X0186100Y0019978D02*
X0185900Y0019978D01*
X0185731Y0019379D02*
X0186269Y0019379D01*
X0186519Y0018781D02*
X0185481Y0018781D01*
X0185133Y0018182D02*
X0186867Y0018182D01*
X0187345Y0017584D02*
X0184655Y0017584D01*
X0183980Y0016985D02*
X0188019Y0016985D01*
X0189041Y0016387D02*
X0182959Y0016387D01*
X0181300Y0016387D02*
X0180700Y0016387D01*
X0180700Y0016985D02*
X0181300Y0016985D01*
X0181300Y0017584D02*
X0180700Y0017584D01*
X0180700Y0018182D02*
X0181300Y0018182D01*
X0181300Y0018781D02*
X0180700Y0018781D01*
X0180700Y0019379D02*
X0181300Y0019379D01*
X0181300Y0019978D02*
X0180700Y0019978D01*
X0180700Y0020576D02*
X0181300Y0020576D01*
X0181300Y0022372D02*
X0180700Y0022372D01*
X0180700Y0022970D02*
X0181300Y0022970D01*
X0181300Y0023569D02*
X0180700Y0023569D01*
X0180700Y0024167D02*
X0181300Y0024167D01*
X0181300Y0024766D02*
X0180700Y0024766D01*
X0180700Y0025364D02*
X0181300Y0025364D01*
X0178552Y0025364D02*
X0173448Y0025364D01*
X0174305Y0024766D02*
X0177695Y0024766D01*
X0177121Y0024167D02*
X0174879Y0024167D01*
X0175303Y0023569D02*
X0176697Y0023569D01*
X0176392Y0022970D02*
X0175608Y0022970D01*
X0175812Y0022372D02*
X0176188Y0022372D01*
X0176060Y0021773D02*
X0175940Y0021773D01*
X0176000Y0020700D02*
X0171300Y0020700D01*
X0171300Y0016000D01*
X0171394Y0016000D01*
X0172171Y0016123D01*
X0172919Y0016366D01*
X0173621Y0016724D01*
X0174257Y0017186D01*
X0174814Y0017743D01*
X0175276Y0018379D01*
X0175634Y0019081D01*
X0175877Y0019829D01*
X0176000Y0020606D01*
X0176000Y0020700D01*
X0175995Y0020576D02*
X0176005Y0020576D01*
X0176100Y0019978D02*
X0175900Y0019978D01*
X0175731Y0019379D02*
X0176269Y0019379D01*
X0176519Y0018781D02*
X0175481Y0018781D01*
X0175133Y0018182D02*
X0176867Y0018182D01*
X0177345Y0017584D02*
X0174655Y0017584D01*
X0173980Y0016985D02*
X0178019Y0016985D01*
X0179041Y0016387D02*
X0172959Y0016387D01*
X0171300Y0016387D02*
X0170700Y0016387D01*
X0170700Y0016985D02*
X0171300Y0016985D01*
X0171300Y0017584D02*
X0170700Y0017584D01*
X0170700Y0018182D02*
X0171300Y0018182D01*
X0171300Y0018781D02*
X0170700Y0018781D01*
X0170700Y0019379D02*
X0171300Y0019379D01*
X0171300Y0019978D02*
X0170700Y0019978D01*
X0170700Y0020576D02*
X0171300Y0020576D01*
X0171300Y0022372D02*
X0170700Y0022372D01*
X0170700Y0022970D02*
X0171300Y0022970D01*
X0171300Y0023569D02*
X0170700Y0023569D01*
X0170700Y0024167D02*
X0171300Y0024167D01*
X0171300Y0024766D02*
X0170700Y0024766D01*
X0170700Y0025364D02*
X0171300Y0025364D01*
X0166519Y0018781D02*
X0165060Y0018781D01*
X0165308Y0019379D02*
X0166269Y0019379D01*
X0166100Y0019978D02*
X0165556Y0019978D01*
X0165600Y0020576D02*
X0166005Y0020576D01*
X0166867Y0018182D02*
X0164688Y0018182D01*
X0164089Y0017584D02*
X0167345Y0017584D01*
X0161000Y0021000D02*
X0161000Y0021200D01*
X0164600Y0024800D01*
X0164600Y0105800D01*
X0163062Y0104368D02*
X0150465Y0104368D01*
X0151063Y0104966D02*
X0162500Y0104966D01*
X0162500Y0105565D02*
X0151662Y0105565D01*
X0153533Y0106163D02*
X0162500Y0106163D01*
X0162592Y0106762D02*
X0154132Y0106762D01*
X0154700Y0107360D02*
X0163190Y0107360D01*
X0163400Y0103769D02*
X0149866Y0103769D01*
X0149268Y0103171D02*
X0163400Y0103171D01*
X0163400Y0102572D02*
X0148669Y0102572D01*
X0148071Y0101974D02*
X0163400Y0101974D01*
X0163400Y0101375D02*
X0147472Y0101375D01*
X0147993Y0100777D02*
X0163400Y0100777D01*
X0163400Y0100178D02*
X0148592Y0100178D01*
X0148700Y0099580D02*
X0163400Y0099580D01*
X0163400Y0098981D02*
X0148700Y0098981D01*
X0148700Y0098383D02*
X0163400Y0098383D01*
X0176146Y0110951D02*
X0186400Y0110951D01*
X0186400Y0110353D02*
X0176744Y0110353D01*
X0177343Y0109754D02*
X0186537Y0109754D01*
X0186400Y0110085D02*
X0187100Y0108394D01*
X0188394Y0107100D01*
X0190085Y0106400D01*
X0191915Y0106400D01*
X0193606Y0107100D01*
X0194900Y0108394D01*
X0195600Y0110085D01*
X0195600Y0111915D01*
X0194900Y0113606D01*
X0193606Y0114900D01*
X0191915Y0115600D01*
X0190085Y0115600D01*
X0188394Y0114900D01*
X0187100Y0113606D01*
X0186400Y0111915D01*
X0186400Y0110085D01*
X0186785Y0109156D02*
X0177941Y0109156D01*
X0178540Y0108557D02*
X0187033Y0108557D01*
X0187536Y0107959D02*
X0179138Y0107959D01*
X0179737Y0107360D02*
X0188134Y0107360D01*
X0189212Y0106762D02*
X0180335Y0106762D01*
X0180934Y0106163D02*
X0201000Y0106163D01*
X0201000Y0105565D02*
X0192000Y0105565D01*
X0192788Y0106762D02*
X0201000Y0106762D01*
X0201000Y0107360D02*
X0193866Y0107360D01*
X0194464Y0107959D02*
X0201000Y0107959D01*
X0201000Y0108557D02*
X0194967Y0108557D01*
X0195215Y0109156D02*
X0201000Y0109156D01*
X0201000Y0109754D02*
X0195463Y0109754D01*
X0195600Y0110353D02*
X0201000Y0110353D01*
X0201000Y0110951D02*
X0195600Y0110951D01*
X0195600Y0111550D02*
X0201000Y0111550D01*
X0201000Y0112148D02*
X0195503Y0112148D01*
X0195255Y0112747D02*
X0201000Y0112747D01*
X0201000Y0113345D02*
X0195007Y0113345D01*
X0194561Y0113944D02*
X0201000Y0113944D01*
X0201000Y0114542D02*
X0193963Y0114542D01*
X0193023Y0115141D02*
X0201000Y0115141D01*
X0201000Y0115739D02*
X0171358Y0115739D01*
X0171956Y0115141D02*
X0188977Y0115141D01*
X0188037Y0114542D02*
X0172555Y0114542D01*
X0173153Y0113944D02*
X0187439Y0113944D01*
X0186993Y0113345D02*
X0173752Y0113345D01*
X0174350Y0112747D02*
X0186745Y0112747D01*
X0186497Y0112148D02*
X0174949Y0112148D01*
X0175547Y0111550D02*
X0186400Y0111550D01*
X0188790Y0116937D02*
X0170161Y0116937D01*
X0169562Y0117535D02*
X0187960Y0117535D01*
X0187361Y0118134D02*
X0168964Y0118134D01*
X0168800Y0118732D02*
X0186960Y0118732D01*
X0186712Y0119331D02*
X0168800Y0119331D01*
X0168800Y0119929D02*
X0186465Y0119929D01*
X0186400Y0120528D02*
X0168800Y0120528D01*
X0168800Y0121126D02*
X0186400Y0121126D01*
X0186400Y0121725D02*
X0168800Y0121725D01*
X0168800Y0122323D02*
X0186569Y0122323D01*
X0186817Y0122922D02*
X0168800Y0122922D01*
X0168800Y0123520D02*
X0187065Y0123520D01*
X0187613Y0124119D02*
X0168800Y0124119D01*
X0168800Y0124717D02*
X0188212Y0124717D01*
X0193788Y0124717D02*
X0201000Y0124717D01*
X0201000Y0124119D02*
X0194387Y0124119D01*
X0194935Y0123520D02*
X0201000Y0123520D01*
X0201000Y0122922D02*
X0195183Y0122922D01*
X0195431Y0122323D02*
X0201000Y0122323D01*
X0201000Y0121725D02*
X0195600Y0121725D01*
X0195600Y0121126D02*
X0201000Y0121126D01*
X0201000Y0120528D02*
X0195600Y0120528D01*
X0195535Y0119929D02*
X0201000Y0119929D01*
X0201000Y0119331D02*
X0195287Y0119331D01*
X0195040Y0118732D02*
X0201000Y0118732D01*
X0201000Y0118134D02*
X0194639Y0118134D01*
X0194040Y0117535D02*
X0201000Y0117535D01*
X0201000Y0116937D02*
X0193210Y0116937D01*
X0201000Y0116338D02*
X0170759Y0116338D01*
X0167600Y0117800D02*
X0191000Y0094400D01*
X0191000Y0091000D01*
X0187688Y0094193D02*
X0180200Y0094193D01*
X0180200Y0093595D02*
X0187096Y0093595D01*
X0186848Y0092996D02*
X0180200Y0092996D01*
X0180200Y0092398D02*
X0186600Y0092398D01*
X0186400Y0091799D02*
X0180200Y0091799D01*
X0180200Y0091201D02*
X0186400Y0091201D01*
X0186400Y0090602D02*
X0180200Y0090602D01*
X0180200Y0090003D02*
X0186434Y0090003D01*
X0186682Y0089405D02*
X0180200Y0089405D01*
X0180200Y0088806D02*
X0186930Y0088806D01*
X0187287Y0088208D02*
X0180200Y0088208D01*
X0180200Y0087609D02*
X0187885Y0087609D01*
X0188610Y0087011D02*
X0180200Y0087011D01*
X0180200Y0086412D02*
X0190055Y0086412D01*
X0190085Y0085600D02*
X0188394Y0084900D01*
X0187100Y0083606D01*
X0186400Y0081915D01*
X0186400Y0080085D01*
X0187100Y0078394D01*
X0188394Y0077100D01*
X0190085Y0076400D01*
X0191915Y0076400D01*
X0193606Y0077100D01*
X0194900Y0078394D01*
X0195600Y0080085D01*
X0195600Y0081915D01*
X0194900Y0083606D01*
X0193606Y0084900D01*
X0191915Y0085600D01*
X0190085Y0085600D01*
X0189157Y0085215D02*
X0180200Y0085215D01*
X0180200Y0084617D02*
X0188112Y0084617D01*
X0187513Y0084018D02*
X0180200Y0084018D01*
X0180200Y0083420D02*
X0187023Y0083420D01*
X0186775Y0082821D02*
X0180200Y0082821D01*
X0180200Y0082223D02*
X0186528Y0082223D01*
X0186400Y0081624D02*
X0180200Y0081624D01*
X0180200Y0081026D02*
X0186400Y0081026D01*
X0186400Y0080427D02*
X0180200Y0080427D01*
X0180200Y0079829D02*
X0186506Y0079829D01*
X0186754Y0079230D02*
X0180200Y0079230D01*
X0180200Y0078632D02*
X0187002Y0078632D01*
X0187461Y0078033D02*
X0180200Y0078033D01*
X0180200Y0077435D02*
X0188060Y0077435D01*
X0189032Y0076836D02*
X0180200Y0076836D01*
X0180200Y0076238D02*
X0201000Y0076238D01*
X0201000Y0076836D02*
X0192968Y0076836D01*
X0193940Y0077435D02*
X0201000Y0077435D01*
X0201000Y0078033D02*
X0194539Y0078033D01*
X0194998Y0078632D02*
X0201000Y0078632D01*
X0201000Y0079230D02*
X0195246Y0079230D01*
X0195494Y0079829D02*
X0201000Y0079829D01*
X0201000Y0080427D02*
X0195600Y0080427D01*
X0195600Y0081026D02*
X0201000Y0081026D01*
X0201000Y0081624D02*
X0195600Y0081624D01*
X0195472Y0082223D02*
X0201000Y0082223D01*
X0201000Y0082821D02*
X0195225Y0082821D01*
X0194977Y0083420D02*
X0201000Y0083420D01*
X0201000Y0084018D02*
X0194487Y0084018D01*
X0193888Y0084617D02*
X0201000Y0084617D01*
X0201000Y0085215D02*
X0192843Y0085215D01*
X0191945Y0086412D02*
X0201000Y0086412D01*
X0201000Y0085814D02*
X0180200Y0085814D01*
X0180200Y0094792D02*
X0188286Y0094792D01*
X0188313Y0095390D02*
X0180200Y0095390D01*
X0180200Y0095989D02*
X0187714Y0095989D01*
X0187116Y0096587D02*
X0180200Y0096587D01*
X0180200Y0097186D02*
X0186517Y0097186D01*
X0185919Y0097784D02*
X0180200Y0097784D01*
X0180200Y0098383D02*
X0185320Y0098383D01*
X0184722Y0098981D02*
X0180200Y0098981D01*
X0180200Y0099580D02*
X0184123Y0099580D01*
X0183525Y0100178D02*
X0180200Y0100178D01*
X0180200Y0100777D02*
X0182926Y0100777D01*
X0182328Y0101375D02*
X0180200Y0101375D01*
X0180544Y0101974D02*
X0181729Y0101974D01*
X0181131Y0102572D02*
X0181100Y0102572D01*
X0179000Y0103400D02*
X0179000Y0073400D01*
X0191000Y0061400D01*
X0191000Y0061000D01*
X0193639Y0064866D02*
X0201000Y0064866D01*
X0201000Y0064268D02*
X0194238Y0064268D01*
X0194836Y0063669D02*
X0201000Y0063669D01*
X0201000Y0063070D02*
X0195121Y0063070D01*
X0195369Y0062472D02*
X0201000Y0062472D01*
X0201000Y0061873D02*
X0195600Y0061873D01*
X0195600Y0061275D02*
X0201000Y0061275D01*
X0201000Y0060676D02*
X0195600Y0060676D01*
X0195597Y0060078D02*
X0201000Y0060078D01*
X0201000Y0059479D02*
X0195349Y0059479D01*
X0195101Y0058881D02*
X0201000Y0058881D01*
X0201000Y0058282D02*
X0194788Y0058282D01*
X0194189Y0057684D02*
X0201000Y0057684D01*
X0201000Y0057085D02*
X0193570Y0057085D01*
X0192125Y0056487D02*
X0201000Y0056487D01*
X0201000Y0065465D02*
X0192242Y0065465D01*
X0191915Y0066400D02*
X0193606Y0067100D01*
X0194900Y0068394D01*
X0195600Y0070085D01*
X0195600Y0071915D01*
X0194900Y0073606D01*
X0193606Y0074900D01*
X0191915Y0075600D01*
X0190085Y0075600D01*
X0188394Y0074900D01*
X0187100Y0073606D01*
X0186400Y0071915D01*
X0186400Y0070085D01*
X0187100Y0068394D01*
X0188394Y0067100D01*
X0190085Y0066400D01*
X0191915Y0066400D01*
X0192546Y0066662D02*
X0201000Y0066662D01*
X0201000Y0067260D02*
X0193765Y0067260D01*
X0194364Y0067859D02*
X0201000Y0067859D01*
X0201000Y0068457D02*
X0194926Y0068457D01*
X0195174Y0069056D02*
X0201000Y0069056D01*
X0201000Y0069654D02*
X0195422Y0069654D01*
X0195600Y0070253D02*
X0201000Y0070253D01*
X0201000Y0070851D02*
X0195600Y0070851D01*
X0195600Y0071450D02*
X0201000Y0071450D01*
X0201000Y0072048D02*
X0195545Y0072048D01*
X0195297Y0072647D02*
X0201000Y0072647D01*
X0201000Y0073245D02*
X0195049Y0073245D01*
X0194662Y0073844D02*
X0201000Y0073844D01*
X0201000Y0074442D02*
X0194063Y0074442D01*
X0193265Y0075041D02*
X0201000Y0075041D01*
X0201000Y0075639D02*
X0180200Y0075639D01*
X0180200Y0075041D02*
X0188735Y0075041D01*
X0187937Y0074442D02*
X0180200Y0074442D01*
X0180253Y0073844D02*
X0187338Y0073844D01*
X0186951Y0073245D02*
X0180852Y0073245D01*
X0181450Y0072647D02*
X0186703Y0072647D01*
X0186455Y0072048D02*
X0182049Y0072048D01*
X0182647Y0071450D02*
X0186400Y0071450D01*
X0186400Y0070851D02*
X0183246Y0070851D01*
X0183844Y0070253D02*
X0186400Y0070253D01*
X0186578Y0069654D02*
X0184443Y0069654D01*
X0185041Y0069056D02*
X0186826Y0069056D01*
X0187074Y0068457D02*
X0185640Y0068457D01*
X0186238Y0067859D02*
X0187636Y0067859D01*
X0188235Y0067260D02*
X0186837Y0067260D01*
X0187435Y0066662D02*
X0189454Y0066662D01*
X0189758Y0065465D02*
X0188633Y0065465D01*
X0188034Y0066063D02*
X0201000Y0066063D01*
X0201000Y0087011D02*
X0193390Y0087011D01*
X0194115Y0087609D02*
X0201000Y0087609D01*
X0201000Y0088208D02*
X0194713Y0088208D01*
X0195070Y0088806D02*
X0201000Y0088806D01*
X0201000Y0089405D02*
X0195318Y0089405D01*
X0195566Y0090003D02*
X0201000Y0090003D01*
X0201000Y0090602D02*
X0195600Y0090602D01*
X0195600Y0091201D02*
X0201000Y0091201D01*
X0201000Y0091799D02*
X0195600Y0091799D01*
X0195400Y0092398D02*
X0201000Y0092398D01*
X0201000Y0092996D02*
X0195152Y0092996D01*
X0194904Y0093595D02*
X0201000Y0093595D01*
X0201000Y0094193D02*
X0194312Y0094193D01*
X0193714Y0094792D02*
X0201000Y0094792D01*
X0201000Y0095390D02*
X0192422Y0095390D01*
X0192367Y0096587D02*
X0201000Y0096587D01*
X0201000Y0095989D02*
X0191108Y0095989D01*
X0193691Y0097186D02*
X0201000Y0097186D01*
X0201000Y0097784D02*
X0194290Y0097784D01*
X0194888Y0098383D02*
X0201000Y0098383D01*
X0201000Y0098981D02*
X0195143Y0098981D01*
X0195391Y0099580D02*
X0201000Y0099580D01*
X0201000Y0100178D02*
X0195600Y0100178D01*
X0195600Y0100777D02*
X0201000Y0100777D01*
X0201000Y0101375D02*
X0195600Y0101375D01*
X0195576Y0101974D02*
X0201000Y0101974D01*
X0201000Y0102572D02*
X0195328Y0102572D01*
X0195080Y0103171D02*
X0201000Y0103171D01*
X0201000Y0103769D02*
X0194736Y0103769D01*
X0194138Y0104368D02*
X0201000Y0104368D01*
X0201000Y0104966D02*
X0193445Y0104966D01*
X0190000Y0105565D02*
X0181532Y0105565D01*
X0182131Y0104966D02*
X0188555Y0104966D01*
X0187862Y0104368D02*
X0182729Y0104368D01*
X0183328Y0103769D02*
X0187264Y0103769D01*
X0186920Y0103171D02*
X0183926Y0103171D01*
X0184525Y0102572D02*
X0186672Y0102572D01*
X0186424Y0101974D02*
X0185123Y0101974D01*
X0185722Y0101375D02*
X0186400Y0101375D01*
X0186400Y0100777D02*
X0186320Y0100777D01*
X0167600Y0117800D02*
X0167600Y0130400D01*
X0188548Y0157037D02*
X0140734Y0157037D01*
X0141332Y0157635D02*
X0187859Y0157635D01*
X0187261Y0158234D02*
X0141931Y0158234D01*
X0142529Y0158832D02*
X0186919Y0158832D01*
X0186671Y0159431D02*
X0143128Y0159431D01*
X0143726Y0160029D02*
X0186423Y0160029D01*
X0186400Y0160628D02*
X0144325Y0160628D01*
X0144923Y0161226D02*
X0186400Y0161226D01*
X0186400Y0161825D02*
X0145522Y0161825D01*
X0146120Y0162423D02*
X0186611Y0162423D01*
X0186858Y0163022D02*
X0146719Y0163022D01*
X0147317Y0163620D02*
X0187115Y0163620D01*
X0187714Y0164219D02*
X0147916Y0164219D01*
X0148514Y0164817D02*
X0188312Y0164817D01*
X0188727Y0186962D02*
X0165800Y0186962D01*
X0165800Y0187561D02*
X0187934Y0187561D01*
X0187335Y0188159D02*
X0165800Y0188159D01*
X0165800Y0188758D02*
X0186950Y0188758D01*
X0186702Y0189356D02*
X0165800Y0189356D01*
X0165800Y0189955D02*
X0186454Y0189955D01*
X0186400Y0190553D02*
X0165800Y0190553D01*
X0165800Y0191152D02*
X0186400Y0191152D01*
X0186400Y0191750D02*
X0165800Y0191750D01*
X0165800Y0192349D02*
X0186580Y0192349D01*
X0186828Y0192947D02*
X0165800Y0192947D01*
X0165800Y0193546D02*
X0187076Y0193546D01*
X0187639Y0194144D02*
X0165800Y0194144D01*
X0165800Y0194743D02*
X0188238Y0194743D01*
X0189461Y0195341D02*
X0165800Y0195341D01*
X0165904Y0198334D02*
X0187161Y0198334D01*
X0186877Y0198933D02*
X0166502Y0198933D01*
X0166700Y0199531D02*
X0186629Y0199531D01*
X0178859Y0215092D02*
X0178805Y0215092D01*
X0127400Y0124400D02*
X0127400Y0122600D01*
X0138800Y0107000D02*
X0138800Y0030200D01*
X0140600Y0023000D02*
X0140600Y0021200D01*
X0141000Y0021000D01*
X0147082Y0016985D02*
X0148672Y0016985D01*
X0147911Y0017584D02*
X0147681Y0017584D01*
X0151000Y0021000D02*
X0150800Y0021200D01*
X0151000Y0021000D02*
X0150200Y0021800D01*
X0159310Y0013993D02*
X0011000Y0013993D01*
X0011000Y0012197D02*
X0201000Y0012197D01*
X0201000Y0011599D02*
X0011000Y0011599D01*
X0011000Y0011000D02*
X0201000Y0011000D01*
X0163400Y0025364D02*
X0162484Y0025364D01*
D17*
X0164600Y0014600D03*
X0135800Y0024800D03*
X0126200Y0026000D03*
X0120800Y0030800D03*
X0114200Y0045800D03*
X0096800Y0078200D03*
X0101000Y0085400D03*
X0083000Y0099800D03*
X0072200Y0095000D03*
X0057200Y0095000D03*
X0057200Y0084200D03*
X0054800Y0077600D03*
X0038600Y0101000D03*
X0062600Y0112400D03*
X0070400Y0120200D03*
X0080000Y0112400D03*
X0087800Y0114800D03*
X0102200Y0132200D03*
X0101000Y0136400D03*
X0087200Y0147200D03*
X0086000Y0135800D03*
X0075800Y0135800D03*
X0060800Y0141200D03*
X0069800Y0151400D03*
X0071600Y0161600D03*
X0117800Y0170600D03*
X0129200Y0144200D03*
X0127400Y0124400D03*
X0127400Y0119600D03*
X0138800Y0107000D03*
X0146600Y0099200D03*
X0152600Y0108200D03*
X0164600Y0105800D03*
X0179000Y0103400D03*
X0167600Y0130400D03*
X0127400Y0105800D03*
X0164600Y0200000D03*
M02*
