G75*
%MOIN*%
%OFA0B0*%
%FSLAX25Y25*%
%IPPOS*%
%LPD*%
%AMOC8*
5,1,8,0,0,1.08239X$1,22.5*
%
%ADD10C,0.00000*%
%ADD11C,0.00300*%
%ADD12C,0.00591*%
D10*
X0001000Y0001000D02*
X0001000Y0230961D01*
X0209701Y0230961D01*
X0209701Y0001000D01*
X0001000Y0001000D01*
D11*
X0039802Y0221780D02*
X0040008Y0221780D01*
X0040008Y0221985D01*
X0039802Y0221985D01*
X0039802Y0221780D01*
X0041397Y0221780D02*
X0043453Y0221780D01*
X0042425Y0221780D02*
X0042425Y0225480D01*
X0043453Y0224658D01*
X0047003Y0223630D02*
X0047003Y0221780D01*
X0048647Y0221780D02*
X0048647Y0224247D01*
X0047620Y0224247D01*
X0047572Y0224245D01*
X0047523Y0224239D01*
X0047476Y0224230D01*
X0047429Y0224217D01*
X0047384Y0224200D01*
X0047340Y0224180D01*
X0047298Y0224156D01*
X0047257Y0224129D01*
X0047219Y0224099D01*
X0047184Y0224066D01*
X0047151Y0224031D01*
X0047121Y0223993D01*
X0047094Y0223952D01*
X0047070Y0223910D01*
X0047050Y0223866D01*
X0047033Y0223821D01*
X0047020Y0223774D01*
X0047011Y0223727D01*
X0047005Y0223678D01*
X0047003Y0223630D01*
X0050243Y0223424D02*
X0050243Y0222602D01*
X0050245Y0222546D01*
X0050251Y0222490D01*
X0050260Y0222435D01*
X0050273Y0222380D01*
X0050290Y0222327D01*
X0050311Y0222275D01*
X0050335Y0222224D01*
X0050363Y0222175D01*
X0050393Y0222128D01*
X0050427Y0222083D01*
X0050464Y0222041D01*
X0050504Y0222001D01*
X0050546Y0221964D01*
X0050591Y0221930D01*
X0050638Y0221900D01*
X0050687Y0221872D01*
X0050738Y0221848D01*
X0050790Y0221827D01*
X0050843Y0221810D01*
X0050898Y0221797D01*
X0050953Y0221788D01*
X0051009Y0221782D01*
X0051065Y0221780D01*
X0051121Y0221782D01*
X0051177Y0221788D01*
X0051232Y0221797D01*
X0051287Y0221810D01*
X0051340Y0221827D01*
X0051392Y0221848D01*
X0051443Y0221872D01*
X0051492Y0221900D01*
X0051539Y0221930D01*
X0051584Y0221964D01*
X0051626Y0222001D01*
X0051666Y0222041D01*
X0051703Y0222083D01*
X0051737Y0222128D01*
X0051767Y0222175D01*
X0051795Y0222224D01*
X0051819Y0222275D01*
X0051840Y0222327D01*
X0051857Y0222380D01*
X0051870Y0222435D01*
X0051879Y0222490D01*
X0051885Y0222546D01*
X0051887Y0222602D01*
X0051887Y0223424D01*
X0051885Y0223480D01*
X0051879Y0223536D01*
X0051870Y0223591D01*
X0051857Y0223646D01*
X0051840Y0223699D01*
X0051819Y0223751D01*
X0051795Y0223802D01*
X0051767Y0223851D01*
X0051737Y0223898D01*
X0051703Y0223943D01*
X0051666Y0223985D01*
X0051626Y0224025D01*
X0051584Y0224062D01*
X0051539Y0224096D01*
X0051492Y0224126D01*
X0051443Y0224154D01*
X0051392Y0224178D01*
X0051340Y0224199D01*
X0051287Y0224216D01*
X0051232Y0224229D01*
X0051177Y0224238D01*
X0051121Y0224244D01*
X0051065Y0224246D01*
X0051009Y0224244D01*
X0050953Y0224238D01*
X0050898Y0224229D01*
X0050843Y0224216D01*
X0050790Y0224199D01*
X0050738Y0224178D01*
X0050687Y0224154D01*
X0050638Y0224126D01*
X0050591Y0224096D01*
X0050546Y0224062D01*
X0050504Y0224025D01*
X0050464Y0223985D01*
X0050427Y0223943D01*
X0050393Y0223898D01*
X0050363Y0223851D01*
X0050335Y0223802D01*
X0050311Y0223751D01*
X0050290Y0223699D01*
X0050273Y0223646D01*
X0050260Y0223591D01*
X0050251Y0223536D01*
X0050245Y0223480D01*
X0050243Y0223424D01*
X0053345Y0224247D02*
X0053345Y0221780D01*
X0055317Y0221780D02*
X0055272Y0221781D01*
X0055227Y0221786D01*
X0055183Y0221795D01*
X0055140Y0221807D01*
X0055098Y0221823D01*
X0055058Y0221843D01*
X0055019Y0221866D01*
X0054983Y0221891D01*
X0054949Y0221920D01*
X0054917Y0221952D01*
X0054888Y0221986D01*
X0054862Y0222023D01*
X0054839Y0222061D01*
X0054820Y0222102D01*
X0054804Y0222144D01*
X0054791Y0222187D01*
X0054782Y0222231D01*
X0054777Y0222275D01*
X0054776Y0222320D01*
X0054779Y0222365D01*
X0054785Y0222409D01*
X0054795Y0222453D01*
X0054808Y0222495D01*
X0054825Y0222537D01*
X0054846Y0222577D01*
X0054870Y0222615D01*
X0054896Y0222650D01*
X0054926Y0222684D01*
X0054959Y0222715D01*
X0054994Y0222743D01*
X0055031Y0222768D01*
X0055070Y0222789D01*
X0055111Y0222808D01*
X0056139Y0223219D01*
X0056180Y0223238D01*
X0056219Y0223259D01*
X0056256Y0223284D01*
X0056291Y0223312D01*
X0056324Y0223343D01*
X0056354Y0223377D01*
X0056380Y0223412D01*
X0056404Y0223450D01*
X0056425Y0223490D01*
X0056442Y0223532D01*
X0056455Y0223574D01*
X0056465Y0223618D01*
X0056471Y0223662D01*
X0056474Y0223707D01*
X0056473Y0223752D01*
X0056468Y0223796D01*
X0056459Y0223840D01*
X0056446Y0223883D01*
X0056430Y0223925D01*
X0056411Y0223966D01*
X0056388Y0224004D01*
X0056362Y0224041D01*
X0056333Y0224075D01*
X0056301Y0224107D01*
X0056267Y0224136D01*
X0056231Y0224161D01*
X0056192Y0224184D01*
X0056152Y0224204D01*
X0056110Y0224220D01*
X0056067Y0224232D01*
X0056023Y0224241D01*
X0055978Y0224246D01*
X0055933Y0224247D01*
X0056447Y0221985D02*
X0056338Y0221948D01*
X0056228Y0221914D01*
X0056116Y0221884D01*
X0056004Y0221858D01*
X0055891Y0221835D01*
X0055777Y0221816D01*
X0055662Y0221801D01*
X0055547Y0221790D01*
X0055432Y0221783D01*
X0055317Y0221779D01*
X0055009Y0224041D02*
X0055097Y0224079D01*
X0055186Y0224112D01*
X0055276Y0224142D01*
X0055368Y0224169D01*
X0055461Y0224191D01*
X0055554Y0224210D01*
X0055648Y0224225D01*
X0055743Y0224236D01*
X0055838Y0224243D01*
X0055934Y0224247D01*
X0057905Y0224247D02*
X0057905Y0221780D01*
X0060065Y0221780D02*
X0059243Y0224247D01*
X0058008Y0225274D02*
X0057802Y0225274D01*
X0057802Y0225480D01*
X0058008Y0225480D01*
X0058008Y0225274D01*
X0060887Y0224247D02*
X0060065Y0221780D01*
X0062243Y0221780D02*
X0063271Y0221780D01*
X0063319Y0221782D01*
X0063368Y0221788D01*
X0063415Y0221797D01*
X0063462Y0221810D01*
X0063507Y0221827D01*
X0063551Y0221847D01*
X0063593Y0221871D01*
X0063634Y0221898D01*
X0063672Y0221928D01*
X0063707Y0221961D01*
X0063740Y0221996D01*
X0063770Y0222034D01*
X0063797Y0222075D01*
X0063821Y0222117D01*
X0063841Y0222161D01*
X0063858Y0222206D01*
X0063871Y0222253D01*
X0063880Y0222300D01*
X0063886Y0222349D01*
X0063888Y0222397D01*
X0063887Y0222397D02*
X0063887Y0223424D01*
X0063887Y0223013D02*
X0062243Y0223013D01*
X0062243Y0223424D01*
X0062245Y0223480D01*
X0062251Y0223536D01*
X0062260Y0223591D01*
X0062273Y0223646D01*
X0062290Y0223699D01*
X0062311Y0223751D01*
X0062335Y0223802D01*
X0062363Y0223851D01*
X0062393Y0223898D01*
X0062427Y0223943D01*
X0062464Y0223985D01*
X0062504Y0224025D01*
X0062546Y0224062D01*
X0062591Y0224096D01*
X0062638Y0224126D01*
X0062687Y0224154D01*
X0062738Y0224178D01*
X0062790Y0224199D01*
X0062843Y0224216D01*
X0062898Y0224229D01*
X0062953Y0224238D01*
X0063009Y0224244D01*
X0063065Y0224246D01*
X0063121Y0224244D01*
X0063177Y0224238D01*
X0063232Y0224229D01*
X0063287Y0224216D01*
X0063340Y0224199D01*
X0063392Y0224178D01*
X0063443Y0224154D01*
X0063492Y0224126D01*
X0063539Y0224096D01*
X0063584Y0224062D01*
X0063626Y0224025D01*
X0063666Y0223985D01*
X0063703Y0223943D01*
X0063737Y0223898D01*
X0063767Y0223851D01*
X0063795Y0223802D01*
X0063819Y0223751D01*
X0063840Y0223699D01*
X0063857Y0223646D01*
X0063870Y0223591D01*
X0063879Y0223536D01*
X0063885Y0223480D01*
X0063887Y0223424D01*
X0065034Y0223835D02*
X0065034Y0224247D01*
X0066267Y0224247D01*
X0066267Y0221780D01*
X0069659Y0221780D02*
X0070481Y0221780D01*
X0070537Y0221782D01*
X0070593Y0221788D01*
X0070648Y0221797D01*
X0070703Y0221810D01*
X0070756Y0221827D01*
X0070808Y0221848D01*
X0070859Y0221872D01*
X0070908Y0221900D01*
X0070955Y0221930D01*
X0071000Y0221964D01*
X0071042Y0222001D01*
X0071082Y0222041D01*
X0071119Y0222083D01*
X0071153Y0222128D01*
X0071183Y0222175D01*
X0071211Y0222224D01*
X0071235Y0222275D01*
X0071256Y0222327D01*
X0071273Y0222380D01*
X0071286Y0222435D01*
X0071295Y0222490D01*
X0071301Y0222546D01*
X0071303Y0222602D01*
X0071303Y0224658D01*
X0071301Y0224714D01*
X0071295Y0224770D01*
X0071286Y0224825D01*
X0071273Y0224880D01*
X0071256Y0224933D01*
X0071235Y0224985D01*
X0071211Y0225036D01*
X0071183Y0225085D01*
X0071153Y0225132D01*
X0071119Y0225177D01*
X0071082Y0225219D01*
X0071042Y0225259D01*
X0071000Y0225296D01*
X0070955Y0225330D01*
X0070908Y0225360D01*
X0070859Y0225388D01*
X0070808Y0225412D01*
X0070756Y0225433D01*
X0070703Y0225450D01*
X0070648Y0225463D01*
X0070593Y0225472D01*
X0070537Y0225478D01*
X0070481Y0225480D01*
X0069659Y0225480D01*
X0072597Y0225480D02*
X0074653Y0225480D01*
X0073625Y0225480D02*
X0073625Y0221780D01*
X0075935Y0221780D02*
X0076757Y0223424D01*
X0076963Y0223424D02*
X0077990Y0223424D01*
X0076963Y0223424D02*
X0076900Y0223426D01*
X0076837Y0223432D01*
X0076774Y0223442D01*
X0076712Y0223455D01*
X0076651Y0223472D01*
X0076592Y0223493D01*
X0076533Y0223518D01*
X0076477Y0223546D01*
X0076422Y0223578D01*
X0076369Y0223613D01*
X0076319Y0223651D01*
X0076270Y0223692D01*
X0076225Y0223736D01*
X0076182Y0223783D01*
X0076143Y0223832D01*
X0076106Y0223884D01*
X0076073Y0223938D01*
X0076043Y0223994D01*
X0076016Y0224051D01*
X0075993Y0224110D01*
X0075974Y0224171D01*
X0075959Y0224232D01*
X0075947Y0224294D01*
X0075939Y0224357D01*
X0075935Y0224420D01*
X0075935Y0224484D01*
X0075939Y0224547D01*
X0075947Y0224610D01*
X0075959Y0224672D01*
X0075974Y0224733D01*
X0075993Y0224794D01*
X0076016Y0224853D01*
X0076043Y0224910D01*
X0076073Y0224966D01*
X0076106Y0225020D01*
X0076143Y0225072D01*
X0076182Y0225121D01*
X0076225Y0225168D01*
X0076270Y0225212D01*
X0076319Y0225253D01*
X0076369Y0225291D01*
X0076422Y0225326D01*
X0076477Y0225358D01*
X0076533Y0225386D01*
X0076592Y0225411D01*
X0076651Y0225432D01*
X0076712Y0225449D01*
X0076774Y0225462D01*
X0076837Y0225472D01*
X0076900Y0225478D01*
X0076963Y0225480D01*
X0077990Y0225480D01*
X0077990Y0221780D01*
X0079523Y0221369D02*
X0081167Y0221369D01*
X0082505Y0221780D02*
X0082505Y0224247D01*
X0082402Y0225274D02*
X0082608Y0225274D01*
X0082608Y0225480D01*
X0082402Y0225480D01*
X0082402Y0225274D01*
X0084083Y0223630D02*
X0084083Y0221780D01*
X0085727Y0221780D02*
X0085727Y0224247D01*
X0084699Y0224247D01*
X0084651Y0224245D01*
X0084602Y0224239D01*
X0084555Y0224230D01*
X0084508Y0224217D01*
X0084463Y0224200D01*
X0084419Y0224180D01*
X0084377Y0224156D01*
X0084336Y0224129D01*
X0084298Y0224099D01*
X0084263Y0224066D01*
X0084230Y0224031D01*
X0084200Y0223993D01*
X0084173Y0223952D01*
X0084149Y0223910D01*
X0084129Y0223866D01*
X0084112Y0223821D01*
X0084099Y0223774D01*
X0084090Y0223727D01*
X0084084Y0223678D01*
X0084082Y0223630D01*
X0087305Y0224247D02*
X0087305Y0221780D01*
X0088952Y0221780D02*
X0088952Y0225480D01*
X0090185Y0223424D01*
X0091418Y0225480D01*
X0091418Y0221780D01*
X0093221Y0221780D02*
X0093221Y0223630D01*
X0093221Y0223219D02*
X0094146Y0223219D01*
X0093220Y0223630D02*
X0093222Y0223678D01*
X0093228Y0223727D01*
X0093237Y0223774D01*
X0093250Y0223821D01*
X0093267Y0223866D01*
X0093287Y0223910D01*
X0093311Y0223952D01*
X0093338Y0223993D01*
X0093368Y0224031D01*
X0093401Y0224066D01*
X0093436Y0224099D01*
X0093474Y0224129D01*
X0093515Y0224156D01*
X0093557Y0224180D01*
X0093601Y0224200D01*
X0093646Y0224217D01*
X0093693Y0224230D01*
X0093740Y0224239D01*
X0093789Y0224245D01*
X0093837Y0224247D01*
X0094660Y0224247D01*
X0096461Y0224247D02*
X0096461Y0221163D01*
X0096460Y0221163D02*
X0096462Y0221115D01*
X0096468Y0221066D01*
X0096477Y0221019D01*
X0096490Y0220972D01*
X0096507Y0220927D01*
X0096527Y0220883D01*
X0096551Y0220841D01*
X0096578Y0220800D01*
X0096608Y0220762D01*
X0096641Y0220727D01*
X0096676Y0220694D01*
X0096714Y0220664D01*
X0096755Y0220637D01*
X0096797Y0220613D01*
X0096841Y0220593D01*
X0096886Y0220576D01*
X0096933Y0220563D01*
X0096980Y0220554D01*
X0097029Y0220548D01*
X0097077Y0220546D01*
X0097077Y0220547D02*
X0097900Y0220547D01*
X0097488Y0221780D02*
X0096461Y0221780D01*
X0097488Y0221780D02*
X0097536Y0221782D01*
X0097585Y0221788D01*
X0097632Y0221797D01*
X0097679Y0221810D01*
X0097724Y0221827D01*
X0097768Y0221847D01*
X0097810Y0221871D01*
X0097851Y0221898D01*
X0097889Y0221928D01*
X0097924Y0221961D01*
X0097957Y0221996D01*
X0097987Y0222034D01*
X0098014Y0222075D01*
X0098038Y0222117D01*
X0098058Y0222161D01*
X0098075Y0222206D01*
X0098088Y0222253D01*
X0098097Y0222300D01*
X0098103Y0222349D01*
X0098105Y0222397D01*
X0098105Y0223630D01*
X0098103Y0223678D01*
X0098097Y0223727D01*
X0098088Y0223774D01*
X0098075Y0223821D01*
X0098058Y0223866D01*
X0098038Y0223910D01*
X0098014Y0223952D01*
X0097987Y0223993D01*
X0097957Y0224031D01*
X0097924Y0224066D01*
X0097889Y0224099D01*
X0097851Y0224129D01*
X0097810Y0224156D01*
X0097768Y0224180D01*
X0097724Y0224200D01*
X0097679Y0224217D01*
X0097632Y0224230D01*
X0097585Y0224239D01*
X0097536Y0224245D01*
X0097488Y0224247D01*
X0096461Y0224247D01*
X0094146Y0223218D02*
X0094198Y0223216D01*
X0094251Y0223210D01*
X0094302Y0223201D01*
X0094353Y0223188D01*
X0094403Y0223171D01*
X0094451Y0223150D01*
X0094498Y0223126D01*
X0094543Y0223099D01*
X0094585Y0223068D01*
X0094626Y0223034D01*
X0094664Y0222998D01*
X0094699Y0222959D01*
X0094731Y0222917D01*
X0094760Y0222874D01*
X0094785Y0222828D01*
X0094808Y0222780D01*
X0094826Y0222731D01*
X0094842Y0222681D01*
X0094853Y0222630D01*
X0094861Y0222578D01*
X0094865Y0222525D01*
X0094865Y0222473D01*
X0094861Y0222420D01*
X0094853Y0222368D01*
X0094842Y0222317D01*
X0094826Y0222267D01*
X0094808Y0222218D01*
X0094785Y0222170D01*
X0094760Y0222124D01*
X0094731Y0222081D01*
X0094699Y0222039D01*
X0094664Y0222000D01*
X0094626Y0221964D01*
X0094585Y0221930D01*
X0094543Y0221899D01*
X0094498Y0221872D01*
X0094451Y0221848D01*
X0094403Y0221827D01*
X0094353Y0221810D01*
X0094302Y0221797D01*
X0094251Y0221788D01*
X0094198Y0221782D01*
X0094146Y0221780D01*
X0093221Y0221780D01*
X0099563Y0221780D02*
X0100590Y0221780D01*
X0100638Y0221782D01*
X0100687Y0221788D01*
X0100734Y0221797D01*
X0100781Y0221810D01*
X0100826Y0221827D01*
X0100870Y0221847D01*
X0100912Y0221871D01*
X0100953Y0221898D01*
X0100991Y0221928D01*
X0101026Y0221961D01*
X0101059Y0221996D01*
X0101089Y0222034D01*
X0101116Y0222075D01*
X0101140Y0222117D01*
X0101160Y0222161D01*
X0101177Y0222206D01*
X0101190Y0222253D01*
X0101199Y0222300D01*
X0101205Y0222349D01*
X0101207Y0222397D01*
X0101207Y0223424D01*
X0101207Y0223013D02*
X0099563Y0223013D01*
X0099563Y0223424D01*
X0099565Y0223480D01*
X0099571Y0223536D01*
X0099580Y0223591D01*
X0099593Y0223646D01*
X0099610Y0223699D01*
X0099631Y0223751D01*
X0099655Y0223802D01*
X0099683Y0223851D01*
X0099713Y0223898D01*
X0099747Y0223943D01*
X0099784Y0223985D01*
X0099824Y0224025D01*
X0099866Y0224062D01*
X0099911Y0224096D01*
X0099958Y0224126D01*
X0100007Y0224154D01*
X0100058Y0224178D01*
X0100110Y0224199D01*
X0100163Y0224216D01*
X0100218Y0224229D01*
X0100273Y0224238D01*
X0100329Y0224244D01*
X0100385Y0224246D01*
X0100441Y0224244D01*
X0100497Y0224238D01*
X0100552Y0224229D01*
X0100607Y0224216D01*
X0100660Y0224199D01*
X0100712Y0224178D01*
X0100763Y0224154D01*
X0100812Y0224126D01*
X0100859Y0224096D01*
X0100904Y0224062D01*
X0100946Y0224025D01*
X0100986Y0223985D01*
X0101023Y0223943D01*
X0101057Y0223898D01*
X0101087Y0223851D01*
X0101115Y0223802D01*
X0101139Y0223751D01*
X0101160Y0223699D01*
X0101177Y0223646D01*
X0101190Y0223591D01*
X0101199Y0223536D01*
X0101205Y0223480D01*
X0101207Y0223424D01*
X0102872Y0221780D02*
X0102872Y0225480D01*
X0104105Y0223424D01*
X0105338Y0225480D01*
X0105338Y0221780D01*
X0087408Y0225274D02*
X0087202Y0225274D01*
X0087202Y0225480D01*
X0087408Y0225480D01*
X0087408Y0225274D01*
X0053448Y0225274D02*
X0053242Y0225274D01*
X0053242Y0225480D01*
X0053448Y0225480D01*
X0053448Y0225274D01*
X0036666Y0222294D02*
X0036621Y0222390D01*
X0036580Y0222488D01*
X0036542Y0222588D01*
X0036507Y0222688D01*
X0036476Y0222790D01*
X0036448Y0222893D01*
X0036425Y0222996D01*
X0036404Y0223101D01*
X0036388Y0223206D01*
X0036375Y0223311D01*
X0036365Y0223417D01*
X0036360Y0223524D01*
X0036358Y0223630D01*
X0038413Y0223630D02*
X0038411Y0223736D01*
X0038406Y0223843D01*
X0038396Y0223949D01*
X0038383Y0224054D01*
X0038367Y0224159D01*
X0038346Y0224264D01*
X0038323Y0224367D01*
X0038295Y0224470D01*
X0038264Y0224572D01*
X0038229Y0224672D01*
X0038191Y0224772D01*
X0038150Y0224870D01*
X0038105Y0224966D01*
X0037385Y0225480D02*
X0037333Y0225478D01*
X0037280Y0225473D01*
X0037229Y0225464D01*
X0037178Y0225451D01*
X0037128Y0225435D01*
X0037079Y0225416D01*
X0037032Y0225393D01*
X0036986Y0225367D01*
X0036943Y0225338D01*
X0036901Y0225306D01*
X0036862Y0225272D01*
X0036825Y0225234D01*
X0036791Y0225194D01*
X0036760Y0225152D01*
X0036731Y0225108D01*
X0036706Y0225062D01*
X0036684Y0225015D01*
X0036665Y0224966D01*
X0036563Y0224658D02*
X0038207Y0222602D01*
X0037385Y0221780D02*
X0037333Y0221782D01*
X0037280Y0221787D01*
X0037229Y0221796D01*
X0037178Y0221809D01*
X0037128Y0221825D01*
X0037079Y0221844D01*
X0037032Y0221867D01*
X0036986Y0221893D01*
X0036943Y0221922D01*
X0036901Y0221954D01*
X0036862Y0221988D01*
X0036825Y0222026D01*
X0036791Y0222066D01*
X0036760Y0222108D01*
X0036731Y0222152D01*
X0036706Y0222198D01*
X0036684Y0222245D01*
X0036665Y0222294D01*
X0037385Y0221779D02*
X0037437Y0221781D01*
X0037490Y0221786D01*
X0037541Y0221795D01*
X0037592Y0221808D01*
X0037642Y0221824D01*
X0037691Y0221843D01*
X0037738Y0221866D01*
X0037784Y0221892D01*
X0037827Y0221921D01*
X0037869Y0221953D01*
X0037908Y0221987D01*
X0037945Y0222025D01*
X0037979Y0222065D01*
X0038011Y0222107D01*
X0038039Y0222151D01*
X0038064Y0222197D01*
X0038086Y0222244D01*
X0038105Y0222293D01*
X0036358Y0223630D02*
X0036360Y0223736D01*
X0036365Y0223843D01*
X0036375Y0223949D01*
X0036388Y0224054D01*
X0036404Y0224159D01*
X0036425Y0224264D01*
X0036448Y0224367D01*
X0036476Y0224470D01*
X0036507Y0224572D01*
X0036542Y0224672D01*
X0036580Y0224772D01*
X0036621Y0224870D01*
X0036666Y0224966D01*
X0037385Y0225480D02*
X0037437Y0225478D01*
X0037490Y0225473D01*
X0037541Y0225464D01*
X0037592Y0225451D01*
X0037642Y0225435D01*
X0037691Y0225416D01*
X0037738Y0225393D01*
X0037784Y0225367D01*
X0037827Y0225338D01*
X0037869Y0225306D01*
X0037908Y0225272D01*
X0037945Y0225234D01*
X0037979Y0225194D01*
X0038011Y0225152D01*
X0038039Y0225108D01*
X0038064Y0225062D01*
X0038086Y0225015D01*
X0038105Y0224966D01*
X0038413Y0223630D02*
X0038411Y0223524D01*
X0038406Y0223417D01*
X0038396Y0223311D01*
X0038383Y0223206D01*
X0038367Y0223101D01*
X0038346Y0222996D01*
X0038323Y0222893D01*
X0038295Y0222790D01*
X0038264Y0222688D01*
X0038229Y0222588D01*
X0038191Y0222488D01*
X0038150Y0222390D01*
X0038105Y0222294D01*
D12*
X0022522Y0188063D02*
X0019163Y0188063D01*
X0018711Y0183617D01*
X0017706Y0183325D01*
X0016739Y0182925D01*
X0015822Y0182420D01*
X0012359Y0185244D01*
X0009984Y0182869D01*
X0012808Y0179406D01*
X0012304Y0178489D01*
X0011903Y0177522D01*
X0011612Y0176517D01*
X0007166Y0176065D01*
X0007166Y0172707D01*
X0011612Y0172255D01*
X0011903Y0171250D01*
X0012304Y0170283D01*
X0012808Y0169366D01*
X0009984Y0165902D01*
X0012359Y0163528D01*
X0015822Y0166352D01*
X0016505Y0165964D01*
X0017217Y0165633D01*
X0019194Y0170407D01*
X0018481Y0170785D01*
X0017850Y0171289D01*
X0017324Y0171903D01*
X0016923Y0172603D01*
X0016659Y0173366D01*
X0016542Y0174166D01*
X0016577Y0174972D01*
X0016761Y0175759D01*
X0017089Y0176496D01*
X0017549Y0177160D01*
X0018125Y0177726D01*
X0018797Y0178175D01*
X0019540Y0178490D01*
X0020329Y0178661D01*
X0021137Y0178682D01*
X0021934Y0178552D01*
X0022692Y0178275D01*
X0023386Y0177861D01*
X0023990Y0177325D01*
X0024483Y0176686D01*
X0024849Y0175966D01*
X0025073Y0175190D01*
X0025149Y0174386D01*
X0025088Y0173665D01*
X0024907Y0172964D01*
X0024612Y0172303D01*
X0024209Y0171701D01*
X0023712Y0171175D01*
X0023134Y0170740D01*
X0022491Y0170407D01*
X0024468Y0165633D01*
X0025180Y0165964D01*
X0025863Y0166352D01*
X0029326Y0163528D01*
X0031701Y0165902D01*
X0028877Y0169366D01*
X0029381Y0170283D01*
X0029782Y0171250D01*
X0030073Y0172255D01*
X0034519Y0172707D01*
X0034519Y0176065D01*
X0030073Y0176517D01*
X0029782Y0177522D01*
X0029381Y0178489D01*
X0028877Y0179406D01*
X0031701Y0182869D01*
X0029326Y0185244D01*
X0025863Y0182420D01*
X0024946Y0182925D01*
X0023979Y0183325D01*
X0022974Y0183617D01*
X0022522Y0188063D01*
X0022557Y0187719D02*
X0019128Y0187719D01*
X0019069Y0187130D02*
X0022616Y0187130D01*
X0022676Y0186541D02*
X0019009Y0186541D01*
X0018949Y0185952D02*
X0022736Y0185952D01*
X0022796Y0185362D02*
X0018889Y0185362D01*
X0018829Y0184773D02*
X0022856Y0184773D01*
X0022916Y0184184D02*
X0018769Y0184184D01*
X0018638Y0183595D02*
X0023047Y0183595D01*
X0024749Y0183006D02*
X0016936Y0183006D01*
X0015104Y0183006D02*
X0010121Y0183006D01*
X0010353Y0182417D02*
X0031332Y0182417D01*
X0031564Y0183006D02*
X0026581Y0183006D01*
X0027304Y0183595D02*
X0030975Y0183595D01*
X0030386Y0184184D02*
X0028026Y0184184D01*
X0028749Y0184773D02*
X0029797Y0184773D01*
X0030852Y0181828D02*
X0010833Y0181828D01*
X0011314Y0181239D02*
X0030372Y0181239D01*
X0029891Y0180650D02*
X0011794Y0180650D01*
X0012274Y0180061D02*
X0029411Y0180061D01*
X0028931Y0179472D02*
X0012754Y0179472D01*
X0012520Y0178883D02*
X0029165Y0178883D01*
X0029462Y0178294D02*
X0022640Y0178294D01*
X0023562Y0177705D02*
X0029706Y0177705D01*
X0029900Y0177116D02*
X0024151Y0177116D01*
X0024564Y0176527D02*
X0030070Y0176527D01*
X0031533Y0172403D02*
X0024656Y0172403D01*
X0024915Y0172992D02*
X0034519Y0172992D01*
X0034519Y0173581D02*
X0025067Y0173581D01*
X0025131Y0174170D02*
X0034519Y0174170D01*
X0034519Y0174759D02*
X0025114Y0174759D01*
X0025027Y0175348D02*
X0034519Y0175348D01*
X0034519Y0175937D02*
X0024857Y0175937D01*
X0024285Y0171814D02*
X0029946Y0171814D01*
X0029772Y0171225D02*
X0023759Y0171225D01*
X0022933Y0170636D02*
X0029528Y0170636D01*
X0029252Y0170047D02*
X0022640Y0170047D01*
X0022884Y0169458D02*
X0028927Y0169458D01*
X0029282Y0168869D02*
X0023128Y0168869D01*
X0023372Y0168280D02*
X0029762Y0168280D01*
X0030243Y0167691D02*
X0023616Y0167691D01*
X0023860Y0167102D02*
X0030723Y0167102D01*
X0031203Y0166513D02*
X0024104Y0166513D01*
X0024348Y0165923D02*
X0025094Y0165923D01*
X0026388Y0165923D02*
X0031684Y0165923D01*
X0031133Y0165334D02*
X0027110Y0165334D01*
X0027833Y0164745D02*
X0030544Y0164745D01*
X0029955Y0164156D02*
X0028555Y0164156D01*
X0029277Y0163567D02*
X0029366Y0163567D01*
X0019045Y0170047D02*
X0012433Y0170047D01*
X0012157Y0170636D02*
X0018763Y0170636D01*
X0017931Y0171225D02*
X0011913Y0171225D01*
X0011740Y0171814D02*
X0017400Y0171814D01*
X0017037Y0172403D02*
X0010152Y0172403D01*
X0007166Y0172992D02*
X0016788Y0172992D01*
X0016627Y0173581D02*
X0007166Y0173581D01*
X0007166Y0174170D02*
X0016542Y0174170D01*
X0016567Y0174759D02*
X0007166Y0174759D01*
X0007166Y0175348D02*
X0016665Y0175348D01*
X0016841Y0175937D02*
X0007166Y0175937D01*
X0011615Y0176527D02*
X0017110Y0176527D01*
X0017518Y0177116D02*
X0011785Y0177116D01*
X0011979Y0177705D02*
X0018103Y0177705D01*
X0019077Y0178294D02*
X0012223Y0178294D01*
X0010710Y0183595D02*
X0014381Y0183595D01*
X0013659Y0184184D02*
X0011299Y0184184D01*
X0011888Y0184773D02*
X0012936Y0184773D01*
X0012758Y0169458D02*
X0018801Y0169458D01*
X0018557Y0168869D02*
X0012403Y0168869D01*
X0011923Y0168280D02*
X0018313Y0168280D01*
X0018069Y0167691D02*
X0011442Y0167691D01*
X0010962Y0167102D02*
X0017825Y0167102D01*
X0017581Y0166513D02*
X0010482Y0166513D01*
X0010001Y0165923D02*
X0015297Y0165923D01*
X0014575Y0165334D02*
X0010552Y0165334D01*
X0011141Y0164745D02*
X0013853Y0164745D01*
X0013130Y0164156D02*
X0011730Y0164156D01*
X0012319Y0163567D02*
X0012408Y0163567D01*
X0016591Y0165923D02*
X0017337Y0165923D01*
M02*
