%
M48
M72
T01C0.01200
T02C0.03200
T03C0.04000
T04C0.04331
T05C0.07300
T06C0.11024
%
T01
X54800Y77600
X57200Y84200
X57200Y95000
X72200Y95000
X83000Y99800
X80000Y112400
X87800Y114800
X102200Y132200
X101000Y136400
X87200Y147200
X86000Y135800
X75800Y135800
X60800Y141200
X69800Y151400
X71600Y161600
X70400Y120200
X62600Y112400
X38600Y101000
X96800Y78200
X101000Y85400
X127400Y105800
X138800Y107000
X146600Y99200
X152600Y108200
X164600Y105800
X179000Y103400
X167600Y130400
X129200Y144200
X127400Y124400
X127400Y119600
X117800Y170600
X164600Y200000
X114200Y45800
X120800Y30800
X126200Y26000
X135800Y24800
X164600Y14600
T02
X71000Y36000
X61000Y36000
X51000Y36000
X41000Y36000
X41000Y66000
X51000Y66000
X61000Y66000
X71000Y66000
T03
X21000Y21000
X21000Y31000
X21000Y41000
X21000Y51000
X21000Y61000
X21000Y71000
X21000Y81000
X21000Y91000
X21000Y101000
X21000Y111000
X21000Y121000
X21000Y131000
X21000Y141000
X21000Y151000
X41000Y151000
X51000Y151000
X51000Y131000
X51000Y121000
X51000Y111000
X41000Y111000
X41000Y121000
X41000Y131000
X131000Y211000
X141000Y211000
X151000Y211000
X161000Y211000
X171000Y211000
X181000Y211000
X191000Y211000
X191000Y201000
X191000Y191000
X191000Y181000
X191000Y171000
X191000Y161000
X191000Y151000
X191000Y141000
X191000Y131000
X191000Y121000
X191000Y111000
X191000Y101000
X191000Y91000
X191000Y81000
X191000Y71000
X191000Y61000
X191000Y51000
X191000Y41000
X191000Y31000
X191000Y21000
X181000Y21000
X171000Y21000
X161000Y21000
X151000Y21000
X141000Y21000
X131000Y21000
X121000Y21000
X111000Y21000
X101000Y21000
X91000Y21000
X81000Y21000
X71000Y21000
X61000Y21000
X51000Y21000
X41000Y21000
X31000Y21000
T04
X111000Y41157
X111000Y60843
T05
X102000Y191000
X50000Y191000
T06
X26000Y206000
M30
